<?xml version="1.0" encoding="UTF-8"?>
<svg width="199px" height="50px" viewBox="0 0 199 50" version="1.1" xmlns="http://www.w3.org/2000/svg" xmlns:xlink="http://www.w3.org/1999/xlink">
    <!-- Generator: Sketch 48.2 (47327) - http://www.bohemiancoding.com/sketch -->
    <title>3</title>
    <desc>Created with Sketch.</desc>
    <defs>
        <circle id="path-1" cx="18.9393939" cy="18.9393939" r="18.9393939"></circle>
    </defs>
    <g id="效果图，标注" stroke="none" stroke-width="1" fill="none" fill-rule="evenodd">
        <g id="3">
            <g id="Group-13" transform="translate(66.000000, 2.000000)" fill="#1DB977">
                <g id="Group-35">
                    <text id="团队协作" font-family="PingFangSC-Medium, PingFang SC" font-size="20" font-weight="400">
                        <tspan x="0" y="21">团队协作</tspan>
                    </text>
                    <text id="Integrating-All-Data" font-family="PingFangSC-Light, PingFang SC" font-size="14" font-weight="300" letter-spacing="0.466666639">
                        <tspan x="0.205333611" y="42">Integrating All Data</tspan>
                    </text>
                </g>
            </g>
            <g id="icon">
                <circle id="Oval-3" fill="#BCF3B9" cx="25" cy="25" r="25"></circle>
                <g id="握手" transform="translate(6.060606, 6.060606)">
                    <mask id="mask-2" fill="white">
                        <use xlink:href="#path-1"></use>
                    </mask>
                    <use id="Mask" fill="#BCF3B9" xlink:href="#path-1"></use>
                    <g mask="url(#mask-2)" fill-rule="nonzero" id="Shape">
                        <g transform="translate(-8.333333, 1.515152)">
                            <polygon fill="#1BBD7A" points="39.8521902 21.4302471 31.1766085 25.501549 26.4406629 13.9285391 35.6005497 12.1487854"></polygon>
                            <path d="M19.7390298,12.3976533 L24.8816335,10.9876756 L35.2533094,19.4564941 L38.261505,22.3122585 C38.261505,22.3122585 39.8725508,23.7669975 38.261505,25.3067827 L32.2587667,30.1588965 C32.2587667,30.1588965 30.3928663,31.6270637 27.6122195,29.841092 L14.7784652,22.0347391 L19.7390298,12.3976533 Z" fill="#70D49C"></path>
                            <path d="M28.0222444,13.7676225 L24.6845265,10.9876756 L19.6422521,12.3977936 L14.7784652,22.0358381 L27.3663025,29.8429676 C30.0927005,31.6246405 31.9221983,30.1608037 31.9221983,30.1608037 L31.9802068,30.1115615 L21.3646573,15.9118971 L28.0222444,13.7676225 Z" fill="#70D49C"></path>
                            <path d="M16.8101043,23.13634 L18.7735588,21.2460671 C19.4113398,20.6307324 20.404456,20.5289144 21.1652376,20.9981625 L29.6158362,26.2395749 C30.6636193,26.8903246 30.8139534,28.3157763 29.9256155,29.1568813 L28.8368322,30.1927686 C28.2582737,30.7461272 27.3836026,30.8833601 26.6501544,30.5380643 L17.3203291,26.1510375 C16.1267675,25.5888252 15.8625439,24.0438481 16.8101043,23.13634 Z M21.4932393,14.8226808 L23.3382487,11.7105922 C23.4840272,11.4626875 23.7163617,11.2723322 23.994252,11.1660873 L28.0168281,9.65652514 C28.4769415,9.48387726 28.9871663,9.49715787 29.4381686,9.69636696 L35.478866,12.3524881 L28.882388,14.1940655 C28.882388,14.1940655 26.8414887,14.6411792 25.584149,15.4867111 C25.584149,15.4867111 23.4521381,17.4389601 21.7437961,15.8674218 C21.7483517,15.8718487 21.2107934,15.3361976 21.4932393,14.8226808 Z" fill="#1BBD7A"></path>
                            <path d="M59.9121047,14.2046004 L41.5523562,23.3772003 C41.1626771,23.5684712 40.6878956,23.4127856 40.4952956,23.0257956 L34.1260575,10.3040552 C33.9334575,9.9170652 34.0902249,9.44556013 34.4799041,9.25428921 L52.8396526,0.0816893391 C53.2293318,-0.109581583 53.7041132,0.0461040513 53.8967132,0.433094056 L60.2659513,13.1548344 C60.4585513,13.5462726 48.8666781,19.7652936 48.476999,19.9565645 L59.9121047,14.2046004 Z" fill="#1BBD7A"></path>
                            <path d="M0.436103541,17.6557789 L13.0782992,24.5275931 C13.4679783,24.718864 13.9427598,24.5631784 14.1353598,24.1761884 L20.5045979,11.454448 C20.6971979,11.067458 20.5404305,10.595953 20.1507513,10.404682 L7.50855565,3.53286779 C7.11887653,3.34159687 6.64409507,3.4972825 6.45149505,3.88427251 L0.0822569823,16.6060129 C-0.110343044,16.9974511 0.0464244193,17.464508 0.436103541,17.6557789 Z" fill="#70D49C"></path>
                        </g>
                    </g>
                </g>
            </g>
        </g>
    </g>
</svg>