<?xml version="1.0" encoding="UTF-8"?>
<svg width="511px" height="80px" viewBox="0 0 511 80" version="1.1" xmlns="http://www.w3.org/2000/svg" xmlns:xlink="http://www.w3.org/1999/xlink">
    <!-- Generator: Sketch 48.2 (47327) - http://www.bohemiancoding.com/sketch -->
    <title>Group 8</title>
    <desc>Created with Sketch.</desc>
    <defs></defs>
    <g id="1首页导航" stroke="none" stroke-width="1" fill="none" fill-rule="evenodd" transform="translate(-60.000000, -899.000000)">
        <g id="Group-8" transform="translate(60.000000, 899.000000)">
            <g id="icon">
                <circle id="Oval-3" fill="#BCF3B9" cx="40" cy="40" r="40"></circle>
                <g id="数据" transform="translate(17.600000, 17.600000)">
                    <path d="M15.3000937,2.78539052 C14.9872261,2.94182431 14.8307923,2.94182431 14.5179247,3.0982581 C6.53980146,6.53980146 1.22105263,14.3614909 1.22105263,23.2782169 C1.22105263,35.3236187 11.0763813,45.1789474 23.1217831,45.1789474 C32.0385091,45.1789474 40.0166323,39.7037647 43.4581757,31.5692077 C43.4581757,31.4127739 43.6146095,31.2563401 43.6146095,31.2563401 C43.9274771,30.4741712 43.4581757,29.5355685 42.6760067,29.2227009 C41.8938378,28.9098333 40.9552351,29.3791347 40.6423675,30.1613036 C40.6423675,30.3177374 40.4859337,30.3177374 40.4859337,30.4741712 C37.6701255,37.5136917 30.7870388,42.0502716 23.1217831,42.0502716 C12.797153,42.0502716 4.34972841,33.602847 4.34972841,23.2782169 C4.34972841,15.769395 8.8863083,9.04274209 15.6129612,6.07050009 C15.769395,5.9140663 15.9258288,5.9140663 16.2386964,5.75763252 C17.0208653,5.44476494 17.4901667,4.5061622 17.1772991,3.72399326 C17.0208653,2.78539052 16.0822626,2.47252294 15.3000937,2.78539052 Z M23.2782169,1.22105263 C35.3236187,1.22105263 45.1789474,11.0763813 45.1789474,23.1217831 C45.1789474,24.0603858 44.5532122,24.686121 43.6146095,24.686121 L23.2782169,24.686121 C22.3396142,24.686121 21.713879,24.0603858 21.713879,23.1217831 L21.713879,2.78539052 C21.713879,1.84678779 22.3396142,1.22105263 23.2782169,1.22105263 Z" id="Shape" stroke="#70D49C" stroke-width="1.6" fill="#70D49C" fill-rule="nonzero"></path>
                    <path d="M18.9656661,0.385511782 L18.9656661,25.379071 L18.9656661,26.637501 L46.1470916,26.637501 C44.4861331,37.8204007 34.8450029,46.4 23.2,46.4 C10.3869938,46.4 0,36.0130062 0,23.2 C0,11.8331587 8.17461657,2.37560146 18.9656661,0.385511782 Z" id="Combined-Shape" fill="#70D49C"></path>
                    <path d="M23.525614,1.22105263 C35.4349474,1.22105263 45.1789474,10.9650526 45.1789474,22.874386 C45.1789474,23.802386 44.5602807,24.4210526 43.6322807,24.4210526 L23.525614,24.4210526 C22.597614,24.4210526 21.9789474,23.802386 21.9789474,22.874386 L21.9789474,2.7677193 C21.9789474,1.8397193 22.597614,1.22105263 23.525614,1.22105263 Z" id="Path" stroke="#1BBD7A" stroke-width="1.6" fill="#1BBD7A"></path>
                </g>
            </g>
            <text id="大数据存储管理中心" font-family="PingFangSC-Medium, PingFang SC" font-size="32" font-weight="400" fill="#1DB977">
                <tspan x="100" y="34">大数据存储管理中心</tspan>
            </text>
            <text id="Big-data-storage-man" font-family="PingFangSC-Light, PingFang SC" font-size="24" font-weight="300" fill="#1DB977">
                <tspan x="100" y="72">Big data storage management center</tspan>
            </text>
        </g>
    </g>
</svg>