<?xml version="1.0" encoding="UTF-8"?>
<svg width="199px" height="50px" viewBox="0 0 199 50" version="1.1" xmlns="http://www.w3.org/2000/svg" xmlns:xlink="http://www.w3.org/1999/xlink">
    <!-- Generator: Sketch 48.2 (47327) - http://www.bohemiancoding.com/sketch -->
    <title>1</title>
    <desc>Created with Sketch.</desc>
    <defs></defs>
    <g id="效果图，标注" stroke="none" stroke-width="1" fill="none" fill-rule="evenodd">
        <g id="1">
            <g id="icon">
                <g id="Group-3" transform="translate(66.000000, 1.000000)" fill="#1DB977">
                    <text id="集成全部数据" font-family="PingFangSC-Medium, PingFang SC" font-size="20" font-weight="400">
                        <tspan x="0" y="21">集成全部数据</tspan>
                    </text>
                    <text id="Integrating-All-Data" font-family="PingFangSC-Light, PingFang SC" font-size="14" font-weight="300" letter-spacing="0.466666639">
                        <tspan x="0.205333611" y="43">Integrating All Data</tspan>
                    </text>
                </g>
                <g>
                    <circle id="Oval-3" fill="#BCF3B9" cx="25" cy="25" r="25"></circle>
                    <g id="数据" transform="translate(11.000000, 11.000000)">
                        <path d="M9.56255853,1.74086908 C9.3670163,1.83864019 9.26924518,1.83864019 9.07370294,1.93641131 C4.08737591,4.08737591 0.763157895,8.97593182 0.763157895,14.5488856 C0.763157895,22.0772617 6.92273834,28.2368421 14.4511144,28.2368421 C20.0240682,28.2368421 25.0103952,24.814853 27.1613598,19.7307548 C27.1613598,19.6329837 27.2591309,19.5352126 27.2591309,19.5352126 C27.4546732,19.046357 27.1613598,18.4597303 26.6725042,18.2641881 C26.1836486,18.0686458 25.5970219,18.3619592 25.4014797,18.8508148 C25.4014797,18.9485859 25.3037086,18.9485859 25.3037086,19.046357 C23.5438284,23.4460573 19.2418992,26.2814197 14.4511144,26.2814197 C7.99822064,26.2814197 2.71858026,21.0017794 2.71858026,14.5488856 C2.71858026,9.85587189 5.55394269,5.6517138 9.75810077,3.79406256 C9.85587189,3.69629144 9.953643,3.69629144 10.1491852,3.59852032 C10.6380408,3.40297809 10.9313542,2.81635138 10.7358119,2.32749579 C10.6380408,1.74086908 10.0514141,1.54532684 9.56255853,1.74086908 Z M14.5488856,0.763157895 C22.0772617,0.763157895 28.2368421,6.92273834 28.2368421,14.4511144 C28.2368421,15.0377412 27.8457576,15.4288256 27.2591309,15.4288256 L14.5488856,15.4288256 C13.9622588,15.4288256 13.5711744,15.0377412 13.5711744,14.4511144 L13.5711744,1.74086908 C13.5711744,1.15424237 13.9622588,0.763157895 14.5488856,0.763157895 Z" id="Shape" stroke="#70D49C" fill="#70D49C" fill-rule="nonzero"></path>
                        <path d="M11.8535413,0.240944864 L11.8535413,15.8619194 L11.8535413,16.6484382 L28.8419322,16.6484382 C27.8038332,23.6377505 21.7781268,29 14.5,29 C6.49187113,29 0,22.5081289 0,14.5 C0,7.3957242 5.10913536,1.48475091 11.8535413,0.240944864 Z" id="Combined-Shape" fill="#70D49C"></path>
                        <path d="M14.7035088,0.763157895 C22.1468421,0.763157895 28.2368421,6.85315789 28.2368421,14.2964912 C28.2368421,14.8764912 27.8501754,15.2631579 27.2701754,15.2631579 L14.7035088,15.2631579 C14.1235088,15.2631579 13.7368421,14.8764912 13.7368421,14.2964912 L13.7368421,1.72982456 C13.7368421,1.14982456 14.1235088,0.763157895 14.7035088,0.763157895 Z" id="Path" stroke="#1BBD7A" fill="#1BBD7A"></path>
                    </g>
                </g>
            </g>
        </g>
    </g>
</svg>