<?xml version="1.0" encoding="UTF-8"?>
<svg width="314px" height="50px" viewBox="0 0 314 50" version="1.1" xmlns="http://www.w3.org/2000/svg" xmlns:xlink="http://www.w3.org/1999/xlink">
    <!-- Generator: Sketch 48.2 (47327) - http://www.bohemiancoding.com/sketch -->
    <title>4</title>
    <desc>Created with Sketch.</desc>
    <defs></defs>
    <g id="效果图，标注" stroke="none" stroke-width="1" fill="none" fill-rule="evenodd">
        <g id="4">
            <g id="Group-14" transform="translate(66.000000, 1.000000)" fill="#1DB977">
                <g id="Group-42">
                    <text id="精细化权限管理" font-family="PingFangSC-Medium, PingFang SC" font-size="20" font-weight="400">
                        <tspan x="0" y="21">精细化权限管理</tspan>
                    </text>
                    <text id="Visualized-drag-and" font-family="PingFangSC-Light, PingFang SC" font-size="14" font-weight="300">
                        <tspan x="0.436" y="43">Visualized drag and drop data analysis</tspan>
                    </text>
                </g>
            </g>
            <g id="Group-63">
                <g id="Group-61-Copy" fill="#BCF3B9">
                    <g id="icon">
                        <circle id="Oval-3" cx="25" cy="25" r="25"></circle>
                    </g>
                </g>
                <g id="后台-权限管理" transform="translate(12.878788, 10.606061)" fill-rule="nonzero">
                    <path d="M12.5,29.5454536 C12.3717886,29.5456392 12.2449664,29.5185881 12.1277372,29.4660502 C0,23.9909083 0,16.0450279 0,13.4339484 L0,6.92840886 C-4.05470973e-16,6.41848688 0.408499313,6.00511345 0.912408752,6.00511345 C3.44641446,6.00104645 5.49963058,3.92333179 5.50364963,1.35909087 C5.50354601,0.894777761 5.84420604,0.502613871 6.29927008,0.443181812 C6.43613138,0.4247159 9.6770073,0 12.5,0 C15.3229927,0 18.5638686,0.4247159 18.7007299,0.443181812 C19.155794,0.502613871 19.496454,0.894777761 19.4963504,1.35909087 C19.5003694,3.92333179 21.5535855,6.00104645 24.0875912,6.00511345 C24.5915007,6.00511345 25,6.41848688 25,6.92840886 L25,13.4339484 C25,16.0450279 25,23.9909083 12.8722628,29.4660502 C12.7550336,29.5185881 12.6282114,29.5456392 12.5,29.5454536 Z" id="Shape" fill="#1BBD7A"></path>
                    <path d="M11.3633994,19.6969691 C11.1193686,19.6966088 10.8853149,19.6016999 10.7119756,19.4328161 L5.56131104,14.3686781 C5.21262209,14.0137191 5.21760866,13.4494936 5.57251867,13.1005457 C5.92742868,12.7515979 6.50129461,12.7466951 6.8623185,13.0895264 L11.3615593,17.513184 L18.8952573,10.1024267 C19.2562811,9.75959541 19.8301471,9.76449821 20.1850571,10.1134461 C20.5399671,10.4623939 20.5449537,11.0266194 20.1962647,11.3815784 L12.0129831,19.4310069 C11.8413122,19.6014586 11.6073787,19.6972391 11.3633994,19.6969691 Z" id="Shape" fill="#BCF3B9"></path>
                </g>
            </g>
        </g>
    </g>
</svg>