<?xml version="1.0" encoding="UTF-8"?>
<svg width="314px" height="50px" viewBox="0 0 314 50" version="1.1" xmlns="http://www.w3.org/2000/svg" xmlns:xlink="http://www.w3.org/1999/xlink">
    <!-- Generator: Sketch 48.2 (47327) - http://www.bohemiancoding.com/sketch -->
    <title>2</title>
    <desc>Created with Sketch.</desc>
    <defs></defs>
    <g id="效果图，标注" stroke="none" stroke-width="1" fill="none" fill-rule="evenodd">
        <g id="2">
            <g id="Group-12">
                <g id="icon">
                    <circle id="Oval-3" fill="#BCF3B9" cx="25" cy="25" r="25"></circle>
                    <g id="数据" transform="translate(12.121212, 10.606061)">
                        <path d="M21.8973234,7.86647195 C22.0741187,8.27632971 21.928553,8.78093249 21.4435922,8.88148362 C21.0427704,9.06226448 20.5464533,8.83028451 20.3696581,8.42042676 C20.28268,8.25706426 20.2798409,8.17393149 20.1957019,8.09370177 C18.5289227,4.57415056 14.9506907,2.28813166 11.0482915,2.42747856 C5.68249265,2.61908056 1.44560268,7.26501572 1.63298051,12.7517789 C1.77209435,16.825285 4.25471241,20.3989383 7.9643147,21.7646906 C8.04561469,21.7617875 8.04845374,21.8449203 8.12975373,21.8420172 C8.54193176,21.9937675 8.80286606,22.483855 8.65446138,22.905325 C8.5060567,23.326795 8.02677398,23.5936116 7.61459595,23.4418614 C7.61459595,23.4418614 7.5304569,23.3616317 7.44915692,23.3645347 C3.15909852,21.6865728 0.168807145,17.5484084 0.0069808403,12.8098401 C-0.211626624,6.4086164 4.73141167,0.988358705 10.9915104,0.764823046 C15.6256094,0.599348597 19.7871366,3.28070995 21.7205282,7.45661419 C21.8075063,7.61997668 21.8103453,7.70310946 21.8973234,7.86647195 Z" id="Shape" stroke="#70D49C" fill="#70D49C" fill-rule="nonzero"></path>
                        <circle id="Oval-8" fill="#70D49C" cx="12.5" cy="12.5" r="12.5"></circle>
                        <path d="M18.5247331,23.2654961 L15.2841581,26.5763142 C14.7046857,27.1683474 13.7549928,27.1785298 13.1629597,26.5990574 C12.9816659,26.42161 12.8483377,26.2010817 12.7754444,25.9580969 L8.56650071,11.9278765 C8.32846028,11.1343853 8.77874208,10.2981637 9.57223326,10.0601233 C9.8335429,9.98173269 10.1112838,9.97609167 10.3755609,10.0438074 L24.7196484,13.7191934 C25.5221506,13.9248185 26.0060151,14.7420673 25.8003899,15.5445695 C25.7350037,15.799755 25.6035668,16.0332208 25.4193019,16.2214798 L22.2646536,19.4445086 L26.6533883,23.6259589 C27.2531676,24.1974099 27.2761321,25.1468797 26.704681,25.746659 C26.7000384,25.7515317 26.6953631,25.7563731 26.6906554,25.7611829 L25.7264839,26.7462539 L22.9741731,24.1239374 L25.7264839,26.7462539 L25.038616,27.4404715 C24.4635868,28.0208087 23.5298791,28.0342439 22.9383904,27.4706918 L18.5247331,23.2654961 Z" id="Path" fill="#1BBD7A"></path>
                    </g>
                </g>
                <g id="Group-33" transform="translate(66.000000, 1.000000)" fill="#1DB977">
                    <text id="可视化脱拽数据分析" font-family="PingFangSC-Medium, PingFang SC" font-size="20" font-weight="400">
                        <tspan x="0" y="21">可视化脱拽数据分析</tspan>
                    </text>
                    <text id="Visualized-drag-and" font-family="PingFangSC-Light, PingFang SC" font-size="14" font-weight="300">
                        <tspan x="0.436" y="43">Visualized drag and drop data analysis</tspan>
                    </text>
                </g>
            </g>
        </g>
    </g>
</svg>