<?xml version="1.0" encoding="UTF-8"?>
<svg width="30px" height="34px" viewBox="0 0 30 34" version="1.1" xmlns="http://www.w3.org/2000/svg" xmlns:xlink="http://www.w3.org/1999/xlink">
    <!-- Generator: Sketch 48.2 (47327) - http://www.bohemiancoding.com/sketch -->
    <title>零售 copy 2@2x</title>
    <desc>Created with Sketch.</desc>
    <defs></defs>
    <g id="1-首页" stroke="none" stroke-width="1" fill="none" fill-rule="evenodd" transform="translate(-830.000000, -3125.000000)">
        <g id="Group-34" transform="translate(0.000000, 2933.000000)" fill="#8ABAFF" fill-rule="nonzero">
            <g id="零售-copy-2" transform="translate(830.000000, 192.000000)">
                <path d="M25.5596902,5.56217358 C22.9226321,5.75682935 20.2853545,5.94883878 17.6478619,6.13820154 C16.6604023,6.20957499 15.6729922,6.28155363 14.6856321,6.3541374 C13.7045779,6.42605479 12.8128124,6.48616964 12.0101405,6.53402272 C11.2075174,6.58201357 10.5322685,6.63009626 9.98439376,6.67799527 C9.43656777,6.72607796 9.1116466,6.75014227 9.00977652,6.75014227 C8.88235358,6.77411474 8.73576599,6.79207112 8.57016006,6.80401143 C8.40450537,6.81604358 8.25811284,6.84607805 8.13054361,6.89411482 L7.67200634,7.0379496 L5.99015034,6.31813278 C6.11752451,6.1502337 6.27050031,5.99418307 6.44888267,5.85025645 C6.57625684,5.73030229 6.73557209,5.6163642 6.92653582,5.50835035 C7.11779214,5.40024465 7.31533914,5.33425149 7.51903054,5.31027903 C7.6720551,5.28621472 8.07968172,5.25039379 8.74215421,5.2023111 C9.55763451,5.14308358 10.3730507,5.08307585 11.1884015,5.02228801 C11.1884015,4.71041637 11.2201476,4.28446888 11.2839322,3.74462924 C11.3477168,3.20465182 11.5004,2.67069047 11.7426645,2.14269928 C11.9846852,1.61475402 12.3349642,1.14687768 12.7936965,0.738886578 C13.2522338,0.331125095 13.8766696,0.0910330767 14.6666138,0.0190238408 C15.5839321,-0.0528935466 16.3290613,0.0790927697 16.9024889,0.415028714 C17.4759165,0.750826885 17.9218236,1.16492592 18.2402103,1.65682064 C18.5588896,2.14880721 18.7816968,2.65268816 18.9091685,3.1686472 C19.0365915,3.68456031 19.1131525,4.08653533 19.1384128,4.37448043 C20.2342111,4.30237935 21.1452387,4.24249411 21.8713496,4.19445734 C22.5976554,4.14642057 22.9990401,4.1105078 23.0753086,4.08648941 C23.3556098,4.06251695 23.6678521,4.11055372 24.0117428,4.23046196 C24.3558287,4.35046204 24.6297904,4.50646675 24.8336281,4.69838422 C24.8846363,4.74637507 24.9545165,4.81833838 25.0437565,4.91427415 C25.1303804,5.00736545 25.213337,5.10342747 25.292458,5.20226517 C25.3940355,5.29824687 25.4832266,5.41820103 25.5596902,5.56217358 Z M15.4956474,1.27881807 C14.8970518,1.32690077 14.4167769,1.48873786 14.0545214,1.76478857 C13.6923262,2.04074743 13.4167468,2.3706673 13.2277832,2.75454817 C13.0386991,3.13852089 12.9127234,3.52850968 12.8497958,3.92446863 C12.7869888,4.32042758 12.7554647,4.63831529 12.7554647,4.87845323 C13.7317463,4.83037053 14.7317162,4.77030161 15.7554346,4.69838422 C16.779153,4.62646683 17.7791229,4.5663979 18.7554647,4.51840705 C18.7238804,4.30242527 18.6528156,4.00258579 18.5427526,3.618659 C18.4325691,3.2347322 18.2515016,2.86283757 17.9993694,2.50269954 C17.747418,2.14269928 17.4168071,1.84285981 17.0072956,1.60276779 C16.597965,1.36276762 16.0939416,1.25479969 15.4956474,1.27881807 Z M29.9168914,27.7351399 C30.0443144,28.4069659 30.0251985,28.9650834 29.8596413,29.4088954 C29.6940354,29.8528911 29.2288661,30.1587926 28.4645235,30.3268295 C28.2096776,30.3987928 27.6554635,30.5189306 26.8017834,30.6866001 C25.9483472,30.854637 24.9290124,31.0587244 23.7440718,31.2987245 C22.4761895,31.5556757 21.2085267,31.8135865 19.9410847,32.0724564 C18.6493432,32.3367948 17.3561428,32.5947702 16.0615365,32.846372 C14.825929,33.0862803 13.7174031,33.3024458 12.7363489,33.4943174 C11.7552459,33.6865104 11.0610274,33.8184508 10.6533032,33.8902763 C9.7105783,34.0823316 9.01611596,34.0222167 8.57016006,33.7102992 C8.12430169,33.3984275 7.90125059,32.9305512 7.90125059,32.3065324 L7.90125059,10.2055293 C7.90125059,9.60566669 8.03501298,9.11974212 8.30253776,8.74780155 C8.57016006,8.37590692 8.95871956,8.17783559 9.46846008,8.1540009 C9.67220024,8.1540009 9.92056037,8.14196875 10.213638,8.11795036 C10.5066669,8.0939779 10.7934051,8.06991359 11.0737063,8.0460789 C11.4048206,8.02201459 11.7489552,7.99804213 12.1056712,7.97397781 L12.4495619,13.1212145 C12.4240091,13.1452329 12.3731959,13.1572651 12.2966836,13.1572651 C12.245773,13.1572651 12.1692607,13.1632811 12.0674394,13.1752674 C11.9655205,13.1873455 11.850874,13.1932697 11.7234999,13.1932697 C11.1883528,13.2411687 10.9336044,13.5412378 10.9589135,14.0932474 C10.9844663,14.3091373 11.0099217,14.6091145 11.0354257,14.9931791 C11.0609298,15.37706 11.0800457,15.7788513 11.0926271,16.1989664 C11.1054523,16.6188978 11.1246169,17.0267052 11.1500723,17.4226642 C11.1755764,17.818715 11.2011292,18.1366945 11.2264382,18.3767406 C11.2519423,18.8326307 11.3285521,19.0904955 11.4559263,19.1505644 C11.5833005,19.2105415 11.8635529,19.2405759 12.2966836,19.2405759 L12.831782,19.2405759 C12.9785352,19.2408708 13.1252263,19.2348638 13.2713984,19.2225736 C13.4305657,19.2090828 13.5898727,19.197096 13.7492954,19.1866149 C13.9275315,19.1743991 14.156922,19.1566723 14.4371744,19.1325621 C14.9724191,19.0845253 15.3162611,18.9765114 15.4692369,18.8085664 C15.6221151,18.6406673 15.6856559,18.3887269 15.6602006,18.0526532 C15.6602006,17.8848459 15.6411822,17.590701 15.6029992,17.1707696 C15.5647187,16.7509301 15.5264382,16.3128586 15.488304,15.8570603 C15.4518889,15.4253881 15.419995,14.9933883 15.392627,14.5611237 C15.367318,14.1531785 15.3418139,13.8651875 15.3162611,13.6973343 C15.2653016,13.4093433 15.2016633,13.2054396 15.1251998,13.0854855 C15.0487363,12.9654854 14.9085369,12.9174027 14.7045529,12.941467 C14.6027316,12.941467 14.5008128,12.9474831 14.3988939,12.9594693 C14.2974695,12.9714143 14.1953518,12.9773807 14.0931374,12.9773338 L13.7873321,12.9773338 L13.4433926,7.86614766 C15.1761592,7.72217511 16.768629,7.60217502 18.2211432,7.50619333 C18.8328513,7.45815655 19.4506063,7.41025755 20.0748958,7.36217485 C20.6544022,7.31742174 21.2341441,7.27541583 21.8140995,7.23615869 C22.3492465,7.20015407 22.8204627,7.16405761 23.2282356,7.12823669 C23.6359598,7.09214022 23.9417651,7.06215168 24.1455052,7.03817922 C24.8845875,6.99028022 25.470499,7.11023438 25.9037272,7.39827132 C26.3369554,7.68607864 26.6044802,8.11804221 26.7064966,8.69397832 C26.7318544,8.88603357 26.8209968,9.46183191 26.9739238,10.4218326 C27.1268021,11.3816037 27.3181072,12.5334759 27.5473515,13.8772656 C27.7935696,15.3224884 28.0355912,16.7683425 28.2734135,18.2148117 C28.5281618,19.7624592 28.7704751,21.2082007 28.9997194,22.5520823 C29.1961425,23.7040872 29.3936408,24.8559292 29.5922141,26.0076071 C29.7575762,26.9673782 29.8660296,27.5430847 29.9168914,27.7351399 Z M5.87550383,30.866761 C5.87550383,31.2026051 5.89457094,31.4967959 5.93285146,31.7486445 C5.97108322,32.0004931 6.01565443,32.1984267 6.06661385,32.342537 C6.11747574,32.5346841 6.18126036,32.6785648 6.25767511,32.7745465 C5.62070671,32.4624452 5.00914488,32.1506195 4.42308714,31.8386101 C3.91082184,31.5731602 3.40122129,31.3031748 2.89435323,31.0286899 C2.46140861,30.794271 2.02818009,30.5603173 1.59466852,30.3268295 C0.932147259,29.9667833 0.479803142,29.5348197 0.237831224,29.0309388 C-0.00423822378,28.5270119 -0.0614883309,27.9992963 0.0659346077,27.4472867 C0.1167965,27.3031764 0.231394244,26.7752311 0.40982537,25.8635887 C0.588256497,24.9516707 0.8111613,23.8476974 1.07873484,22.5518986 C1.34625962,21.2560079 1.62651206,19.8642733 1.91973599,18.3766029 C2.21276486,16.8888406 2.48662909,15.4970141 2.74147496,14.2011234 C2.99627208,12.9052327 3.21917688,11.7894111 3.41038444,10.8535206 C3.60139693,9.91772202 3.70960646,9.36575836 3.73515932,9.19772151 C3.83698063,8.66991401 4.02184874,8.26201476 4.28937352,7.97393189 C4.55689829,7.68594087 4.86909181,7.61406941 5.22580776,7.75804196 C5.42969422,7.85397773 5.59520262,7.96194566 5.72257679,8.08189982 C5.79913784,8.1540009 5.84999973,8.21393206 5.87560136,8.26196883 L5.87560136,30.866761 L5.87550383,30.866761 Z" id="Shape"></path>
            </g>
        </g>
    </g>
</svg>