<?xml version="1.0" encoding="UTF-8"?>
<svg width="30px" height="30px" viewBox="0 0 30 30" version="1.1" xmlns="http://www.w3.org/2000/svg" xmlns:xlink="http://www.w3.org/1999/xlink">
    <!-- Generator: Sketch 48.2 (47327) - http://www.bohemiancoding.com/sketch -->
    <title>Group 16 Copy 2@2x</title>
    <desc>Created with Sketch.</desc>
    <defs></defs>
    <g id="1-首页" stroke="none" stroke-width="1" fill="none" fill-rule="evenodd" transform="translate(-490.000000, -3128.000000)">
        <g id="Group-34" transform="translate(0.000000, 2933.000000)" fill="#84DEFB" fill-rule="nonzero">
            <g id="Group-16-Copy-2" transform="translate(490.000000, 195.000000)">
                <g id="金融" transform="translate(15.625000, 0.000000)">
                    <path d="M8.62487361,14.0219727 L14.3664687,14.0219727 C14.2754676,11.9852295 13.7834934,10.0603638 12.9616405,8.3248291 L7.94520981,8.3248291 C8.34618301,10.0861816 8.58221689,12.0081787 8.62487361,14.0219727 Z" id="Shape"></path>
                    <path d="M4.96208291,4.10217285 C3.69944388,1.67529297 2.07280081,0.249572754 0.429095046,0.0143432617 L0.429095046,7.18597412 L6.17922144,7.18597412 C5.84081143,6.05285645 5.43415066,5.00866699 4.96208291,4.10217285 Z M6.48919363,8.3248291 L0.431938827,8.3248291 L0.431938827,14.0219727 L7.21435794,14.0219727 C7.16316987,11.9880981 6.91007331,10.0603638 6.48919363,8.3248291 Z" id="Shape"></path>
                    <path d="M7.66083165,7.18597412 L12.3616026,7.18597412 C10.5643327,4.11077881 7.69780081,1.75561523 4.27957533,0.654052734 C5.00758342,1.42285156 5.65596562,2.36950684 6.21334681,3.44238281 C6.7877907,4.55255127 7.27407735,5.81188965 7.66083165,7.18597412 Z M6.21050303,25.9440918 C5.65312184,27.0169678 5.00758342,27.963623 4.27673155,28.7324219 C7.77742669,27.6050415 10.7008342,25.1638184 12.486729,21.973877 L7.7148635,21.973877 C7.32242164,23.434021 6.8190723,24.770813 6.21050303,25.9440918 Z M8.62771739,15.1665649 C8.59927958,17.163147 8.38599596,19.0765381 7.99924166,20.8321533 L13.0640167,20.8321533 C13.8460566,19.0966187 14.3067492,17.1832275 14.3693124,15.1665649 L8.62771739,15.1665649 Z" id="Shape"></path>
                    <path d="M7.21720172,15.1665649 L0.429095046,15.1665649 L0.429095046,20.8321533 L6.54322548,20.8321533 C6.94704247,19.0966187 7.18307634,17.1832275 7.21720172,15.1665649 Z M6.25315976,21.973877 L0.429095046,21.973877 L0.429095046,29.375 C2.07280081,29.1369019 3.6966001,27.7111816 4.96208291,25.2843018 C5.46543225,24.3146973 5.89768706,23.1987915 6.25315976,21.973877 Z" id="Shape"></path>
                </g>
                <g id="金融" transform="translate(7.187500, 15.000000) scale(-1, 1) translate(-7.187500, -15.000000) ">
                    <path d="M8.62487361,14.0219727 L14.3664687,14.0219727 C14.2754676,11.9852295 13.7834934,10.0603638 12.9616405,8.3248291 L7.94520981,8.3248291 C8.34618301,10.0861816 8.58221689,12.0081787 8.62487361,14.0219727 Z" id="Shape"></path>
                    <path d="M4.96208291,4.10217285 C3.69944388,1.67529297 2.07280081,0.249572754 0.429095046,0.0143432617 L0.429095046,7.18597412 L6.17922144,7.18597412 C5.84081143,6.05285645 5.43415066,5.00866699 4.96208291,4.10217285 Z M6.48919363,8.3248291 L0.431938827,8.3248291 L0.431938827,14.0219727 L7.21435794,14.0219727 C7.16316987,11.9880981 6.91007331,10.0603638 6.48919363,8.3248291 Z" id="Shape"></path>
                    <path d="M7.66083165,7.18597412 L12.3616026,7.18597412 C10.5643327,4.11077881 7.69780081,1.75561523 4.27957533,0.654052734 C5.00758342,1.42285156 5.65596562,2.36950684 6.21334681,3.44238281 C6.7877907,4.55255127 7.27407735,5.81188965 7.66083165,7.18597412 Z M6.21050303,25.9440918 C5.65312184,27.0169678 5.00758342,27.963623 4.27673155,28.7324219 C7.77742669,27.6050415 10.7008342,25.1638184 12.486729,21.973877 L7.7148635,21.973877 C7.32242164,23.434021 6.8190723,24.770813 6.21050303,25.9440918 Z M8.62771739,15.1665649 C8.59927958,17.163147 8.38599596,19.0765381 7.99924166,20.8321533 L13.0640167,20.8321533 C13.8460566,19.0966187 14.3067492,17.1832275 14.3693124,15.1665649 L8.62771739,15.1665649 Z" id="Shape"></path>
                    <path d="M7.21720172,15.1665649 L0.429095046,15.1665649 L0.429095046,20.8321533 L6.54322548,20.8321533 C6.94704247,19.0966187 7.18307634,17.1832275 7.21720172,15.1665649 Z M6.25315976,21.973877 L0.429095046,21.973877 L0.429095046,29.375 C2.07280081,29.1369019 3.6966001,27.7111816 4.96208291,25.2843018 C5.46543225,24.3146973 5.89768706,23.1987915 6.25315976,21.973877 Z" id="Shape"></path>
                </g>
            </g>
        </g>
    </g>
</svg>