<?xml version="1.0" encoding="UTF-8"?>
<svg width="84px" height="20px" viewBox="0 0 84 20" version="1.1" xmlns="http://www.w3.org/2000/svg" xmlns:xlink="http://www.w3.org/1999/xlink">
    <!-- Generator: Sketch 48.2 (47327) - http://www.bohemiancoding.com/sketch -->
    <title>企业微信服务商</title>
    <desc>Created with Sketch.</desc>
    <defs>
        <filter x="-4.4%" y="-15.6%" width="108.8%" height="143.8%" filterUnits="objectBoundingBox" id="filter-1">
            <feOffset dx="0" dy="1" in="SourceAlpha" result="shadowOffsetOuter1"></feOffset>
            <feGaussianBlur stdDeviation="1" in="shadowOffsetOuter1" result="shadowBlurOuter1"></feGaussianBlur>
            <feColorMatrix values="0 0 0 0 0   0 0 0 0 0   0 0 0 0 0  0 0 0 0.130661232 0" type="matrix" in="shadowBlurOuter1" result="shadowMatrixOuter1"></feColorMatrix>
            <feMerge>
                <feMergeNode in="shadowMatrixOuter1"></feMergeNode>
                <feMergeNode in="SourceGraphic"></feMergeNode>
            </feMerge>
        </filter>
    </defs>
    <g id="产品介绍" stroke="none" stroke-width="1" fill="none" fill-rule="evenodd" transform="translate(-171.000000, -125.000000)">
        <g id="企业微信服务商" filter="url(#filter-1)" transform="translate(173.000000, 126.000000)">
            <g id="Group-64-Copy">
                <rect id="Rectangle-19-Copy" fill="#FFFFFF" fill-rule="nonzero" x="0" y="0" width="80" height="16" rx="1.33333333"></rect>
                <path d="M1.33333333,0 L19.5555556,0 L19.5555556,16 L1.33333333,16 C0.596953667,16 5.3426971e-16,15.4030463 4.4408921e-16,14.6666667 L4.4408921e-16,1.33333333 C3.5390871e-16,0.596953667 0.596953667,3.32643732e-16 1.33333333,0 Z" id="Rectangle-19-Copy" fill="#0079DE" fill-rule="nonzero"></path>
                <text id="企业微信服务商" fill="#6B7C93" font-family="PingFangSC-Regular, PingFang SC" font-size="7.11111111" font-weight="normal">
                    <tspan x="24.8888889" y="11.1111111">企业微信服务商</tspan>
                </text>
            </g>
            <g id="图形-copy-2" transform="translate(3.111111, 2.666667)" fill="#FFFFFF" fill-rule="nonzero">
                <path d="M8.92806724,8.731256 C8.93194227,8.73601689 8.93607138,8.7406508 8.94051809,8.74509431 C8.94820458,8.7527752 8.9564628,8.75944044 8.96510218,8.76540742 C8.98225387,8.78153093 8.999342,8.7979084 9.01611253,8.81466671 C9.34599658,9.14431036 9.55334133,9.5500012 9.63840098,9.97524342 C9.63986204,9.9991748 9.64246658,10.0230427 9.64627804,10.0467836 C9.65047067,10.0729368 9.65606084,10.098836 9.66304858,10.1244812 C9.69570031,10.2440747 9.7587804,10.3570028 9.85273347,10.450951 C10.1406276,10.7385719 10.607344,10.7385719 10.8952381,10.450951 C11.1830688,10.1632666 11.1830688,9.69689036 10.8952381,9.40920596 C10.7937256,9.30783084 10.6700429,9.24232111 10.5398172,9.21242276 C10.5252065,9.20905836 10.5105323,9.20620187 10.495858,9.20372618 C10.4809932,9.20125053 10.466192,9.19915573 10.4512636,9.19763227 C10.0151028,9.11637982 9.59812631,8.90734524 9.26074636,8.57021116 C9.23641636,8.54589889 9.21284871,8.5210788 9.18985271,8.49594133 L9.18972569,8.49600484 C9.1209284,8.42725764 9.00931538,8.42725764 8.94051809,8.49600484 C8.876104,8.560372 8.87197489,8.66206449 8.92806724,8.731256" id="Fill-29"></path>
                <path d="M11.3979227,9.29415498 C11.4026836,9.29027996 11.4073175,9.28615084 11.411761,9.28170413 C11.4194419,9.27401764 11.4261071,9.26575942 11.4320741,9.25712004 C11.4481976,9.23996836 11.4645751,9.22288022 11.4813334,9.20610969 C11.810977,8.87622564 12.2166679,8.66888089 12.6419101,8.58382124 C12.6658415,8.58236018 12.6897093,8.57975564 12.7134503,8.57594418 C12.7396034,8.57175156 12.7655026,8.56616138 12.7911479,8.55917364 C12.9107413,8.52652191 13.0236695,8.46344182 13.1176176,8.36948876 C13.4052386,8.08159458 13.4052386,7.61487827 13.1176176,7.32698409 C12.8299333,7.03915347 12.363557,7.03915347 12.0758726,7.32698409 C11.9744975,7.42849662 11.9089878,7.55217933 11.8790894,7.68240507 C11.875725,7.69701573 11.8728685,7.71168996 11.8703928,7.72636418 C11.8679172,7.74122898 11.8658224,7.75603022 11.8642989,7.77095858 C11.7830465,8.20711947 11.5740119,8.62409591 11.2368778,8.96147587 C11.2125656,8.98580587 11.1877455,9.00937351 11.162608,9.03236951 L11.1626715,9.03249653 C11.0939243,9.10129382 11.0939243,9.21290684 11.1626715,9.28170413 C11.2270387,9.34611822 11.3287312,9.35024733 11.3979227,9.29415498" id="Fill-30"></path>
                <path d="M11.9608216,6.82429956 C11.9569466,6.81953867 11.9528175,6.81490476 11.9483708,6.81046124 C11.9406843,6.80278036 11.9324261,6.79611511 11.9237867,6.79014813 C11.906635,6.77402462 11.8895469,6.75764716 11.8727764,6.74088884 C11.5428923,6.4112452 11.3355476,6.00555436 11.2504879,5.58031213 C11.2490268,5.55638076 11.2464223,5.53251289 11.2426108,5.50877191 C11.2384182,5.4826188 11.232828,5.4567196 11.2258403,5.43107431 C11.1931886,5.31148089 11.1301085,5.19855271 11.0361554,5.10460458 C10.7482612,4.81698364 10.2815449,4.81698364 9.99365076,5.10460458 C9.70582013,5.39228893 9.70582013,5.8586652 9.99365076,6.1463496 C10.0951633,6.24772471 10.218846,6.31323444 10.3490717,6.3431328 C10.3636824,6.3464972 10.3783566,6.34935369 10.3930308,6.35182938 C10.4078956,6.35430502 10.4226969,6.35639982 10.4376252,6.35792329 C10.8737861,6.43917573 11.2907626,6.64821031 11.6281425,6.9853444 C11.6524725,7.00965667 11.6760402,7.03447676 11.6990362,7.05961422 L11.6991632,7.05955071 C11.7679605,7.12829791 11.8795735,7.12829791 11.9483708,7.05955071 C12.0127849,6.99518356 12.016914,6.89349107 11.9608216,6.82429956" id="Fill-31"></path>
                <path d="M9.49096622,6.26140058 C9.48620533,6.2652756 9.48157142,6.26940471 9.47712791,6.27385142 C9.46944702,6.28153791 9.46278178,6.28979613 9.4568148,6.29843551 C9.44069129,6.3155872 9.42431382,6.33267533 9.40755551,6.34944587 C9.07791187,6.67932991 8.67222102,6.88667467 8.2469788,6.97173431 C8.22304742,6.97319538 8.19917956,6.97579991 8.17543858,6.97961138 C8.14928547,6.983804 8.12338627,6.98939418 8.09774098,6.99638191 C7.97814756,7.02903364 7.86521938,7.09211373 7.77127124,7.1860668 C7.48365031,7.47396098 7.48365031,7.94067729 7.77127124,8.22857147 C8.0589556,8.51640209 8.52533187,8.51640209 8.81301627,8.22857147 C8.91439138,8.12705893 8.97990111,8.00337622 9.00979947,7.87315049 C9.01316387,7.85853982 9.01602036,7.8438656 9.01849604,7.82919138 C9.02097169,7.81432658 9.02306649,7.79952533 9.02458996,7.78459698 C9.1058424,7.34843609 9.31487698,6.93145964 9.65201107,6.59407969 C9.67632333,6.56974969 9.70114342,6.54618204 9.72628089,6.52318604 L9.72621738,6.52305902 C9.79496458,6.45426173 9.79496458,6.34264871 9.72621738,6.27385142 C9.66185022,6.20943733 9.56015773,6.20530822 9.49096622,6.26140058" id="Fill-32"></path>
                <path d="M10.675782,2.8034512 C10.4609469,2.38256861 10.1722143,1.99189412 9.81770636,1.64221634 C8.92188311,0.759010218 7.66769058,0.190133329 6.28627467,0.0404255442 C6.03828551,0.013580952 5.79249333,0 5.55568871,0 C5.33000196,0 5.09466196,0.0125020914 4.85619293,0.0372524245 C3.4685856,0.181058207 2.20746936,0.746952364 1.30505525,1.63072964 C0.948882951,1.97958242 0.658685742,2.36936844 0.442319394,2.7891087 C0.148793475,3.35874714 0,3.96341681 0,4.58630022 C0,5.38827444 0.255978036,6.17901587 0.740305791,6.87316751 C1.0141923,7.26574587 1.48254223,7.77312773 1.88345244,8.08402996 L1.66142727,8.95949369 L1.59744941,9.20604507 C1.58619836,9.23028773 1.57747713,9.25567267 1.5713523,9.28213649 C1.56755756,9.29825596 1.5664258,9.3152004 1.56476144,9.33201791 C1.56349653,9.34477387 1.56070041,9.35708556 1.56070041,9.37022231 C1.56070041,9.59532338 1.75210142,9.77777778 1.9883069,9.77777778 C2.06546647,9.77777778 2.13690065,9.75677173 2.19941388,9.7226924 C2.20134453,9.72161356 2.20347491,9.72066164 2.20533899,9.71958276 C2.21452624,9.71444231 2.22384664,9.70987302 2.23256786,9.70416142 L3.81836677,8.94540502 C4.15969301,9.03875822 4.49835627,9.09847631 4.85546062,9.13591916 C5.08753849,9.16028871 5.3231448,9.1726004 5.55568871,9.1726004 C5.79282622,9.1726004 6.0386184,9.158956 6.28627467,9.13211138 C6.77326538,9.07937413 7.24168187,8.97237653 7.68633138,8.82019373 C7.63826476,8.80502622 7.5910636,8.78516249 7.54539364,8.76022178 C7.27337124,8.61191018 7.13250009,8.32975636 7.16046129,8.05052182 C6.84270231,8.1467308 6.51089622,8.21571444 6.16783902,8.25283996 C5.95972791,8.27543253 5.75368058,8.28685578 5.55568871,8.28685578 C5.36109213,8.28685578 5.16389916,8.27651142 4.96963547,8.25614 C4.92909173,8.251888 4.88874773,8.245986 4.84833716,8.24084556 C4.58144098,8.20695662 4.31760716,8.15510787 4.06276089,8.08390307 C4.01083296,8.06810093 3.95584262,8.06010467 3.89945422,8.06010467 C3.8115762,8.06010467 3.72629457,8.08225302 3.6398146,8.12502667 C3.62863013,8.13054791 3.61751223,8.1351172 3.60626118,8.1414 L2.58874016,8.71300573 L2.58767497,8.71357693 C2.56657093,8.72531747 2.55465414,8.72969636 2.54373596,8.72969636 C2.50798558,8.72969636 2.4789592,8.70088444 2.4789592,8.6654724 L2.51657366,8.52058778 C2.5270924,8.48238342 2.54193846,8.42856729 2.55991351,8.3631376 C2.60438512,8.20168924 2.66516741,7.98084013 2.71030476,7.81691676 C2.72009118,7.78340862 2.73007732,7.74317347 2.73007732,7.69798822 C2.73007732,7.57315773 2.66743094,7.45518111 2.5630425,7.38270707 C2.50991624,7.34526427 2.45685655,7.30598102 2.40106732,7.26269969 C2.31565254,7.19644493 2.23396592,7.12739787 2.15534172,7.05632 C1.93444832,6.85660382 1.74051749,6.63861053 1.57761028,6.40506893 C1.19400938,5.85535769 0.991290756,5.23158582 0.991290756,4.60108693 C0.991290756,4.11179189 1.10866118,3.63595087 1.34007331,3.18689098 C1.51296667,2.85142877 1.74584344,2.53906687 2.03231248,2.25843617 C2.77408291,1.5319187 3.81723501,1.06610474 4.96950231,0.946668511 C5.17009058,0.925852849 5.36728356,0.915318089 5.55568871,0.915318089 C5.75348084,0.915318089 5.9594616,0.92674132 6.16783902,0.949333933 C7.3147804,1.07365676 8.35187427,1.54181883 9.08811902,2.26770168 C9.37325658,2.54890354 9.60486844,2.86196352 9.77656347,3.19825075 C10.0042474,3.64445483 10.1197538,4.11642464 10.1197538,4.60108693 C10.1197538,4.65147609 10.1164251,4.70167484 10.1138287,4.75193707 C10.4113491,4.57836742 10.8045366,4.61244671 11.0620459,4.85791924 C11.0750944,4.8702944 11.0860126,4.88387538 11.0978628,4.89694862 C11.1063844,4.79369529 11.1111111,4.69012467 11.1111111,4.58630022 C11.1111111,3.96919189 10.9646477,3.36934536 10.675782,2.8034512" id="Fill-33"></path>
            </g>
        </g>
    </g>
</svg>