<?xml version="1.0" encoding="UTF-8"?>
<svg width="188px" height="44px" viewBox="0 0 188 44" version="1.1" xmlns="http://www.w3.org/2000/svg" xmlns:xlink="http://www.w3.org/1999/xlink">
    <!-- Generator: Sketch 48.2 (47327) - http://www.bohemiancoding.com/sketch -->
    <title>Group 65</title>
    <desc>Created with Sketch.</desc>
    <defs>
        <filter x="-3.9%" y="-13.9%" width="107.8%" height="138.9%" filterUnits="objectBoundingBox" id="filter-1">
            <feOffset dx="0" dy="2" in="SourceAlpha" result="shadowOffsetOuter1"></feOffset>
            <feGaussianBlur stdDeviation="2" in="shadowOffsetOuter1" result="shadowBlurOuter1"></feGaussianBlur>
            <feColorMatrix values="0 0 0 0 0   0 0 0 0 0   0 0 0 0 0  0 0 0 0.200973732 0" type="matrix" in="shadowBlurOuter1" result="shadowMatrixOuter1"></feColorMatrix>
            <feMerge>
                <feMergeNode in="shadowMatrixOuter1"></feMergeNode>
                <feMergeNode in="SourceGraphic"></feMergeNode>
            </feMerge>
        </filter>
        <rect id="path-2" x="0" y="0" width="180" height="36" rx="3"></rect>
    </defs>
    <g id="产品介绍-copy" stroke="none" stroke-width="1" fill="none" fill-rule="evenodd" transform="translate(-555.000000, -31.000000)">
        <g id="导航栏">
            <g id="Group-65" filter="url(#filter-1)" transform="translate(559.000000, 33.000000)">
                <g id="Group-64-Copy">
                    <g id="Rectangle-19-Copy">
                        <use fill="#FFFFFF" fill-rule="evenodd" xlink:href="#path-2"></use>
                        <rect stroke="#1A90F3" stroke-width="1" x="0.5" y="0.5" width="179" height="35" rx="3"></rect>
                    </g>
                    <path d="M3,0 L44,0 L44,36 L3,36 C1.34314575,36 6.46995335e-16,34.6568542 4.4408921e-16,33 L4.4408921e-16,3 C2.41183085e-16,1.34314575 1.34314575,7.48448398e-16 3,4.4408921e-16 Z" id="Rectangle-19-Copy" fill="#0386D9"></path>
                    <text id="企业微信服务商" font-family="PingFangSC-Regular, PingFang SC" font-size="16" font-weight="normal" fill="#0386D9">
                        <tspan x="56" y="24">企业微信服务商</tspan>
                    </text>
                </g>
                <g id="图形-copy-2" transform="translate(7.000000, 6.000000)" fill="#FFFFFF">
                    <path d="M20.0881513,19.645326 C20.0968701,19.656038 20.1061606,19.6664643 20.1161657,19.6764622 C20.1334603,19.6937442 20.1520413,19.708741 20.1714799,19.7221667 C20.2100712,19.7584446 20.2485195,19.7952939 20.2862532,19.8330001 C21.0284923,20.5746983 21.495018,21.4875027 21.6864022,22.4442977 C21.6896896,22.4981433 21.6955498,22.551846 21.7041256,22.6052632 C21.713559,22.6641077 21.7261369,22.7223809 21.7418593,22.7800828 C21.8153257,23.049168 21.9572559,23.3032564 22.1686503,23.5146397 C22.8164122,24.1617868 23.8665239,24.1617868 24.5142858,23.5146397 C25.1619047,22.8673499 25.1619047,21.8180033 24.5142858,21.1707134 C24.2858826,20.9426194 24.0075965,20.7952225 23.7145886,20.7279512 C23.6817146,20.7203813 23.6486976,20.7139542 23.6156806,20.7083839 C23.5822348,20.7028137 23.548932,20.6981004 23.5153432,20.6946726 C22.5339812,20.5118546 21.5957842,20.0415268 20.8366793,19.2829751 C20.7819368,19.2282725 20.7289096,19.1724273 20.6771686,19.115868 L20.6768828,19.1160109 C20.5220889,18.9613297 20.2709596,18.9613297 20.1161657,19.1160109 C19.971234,19.260837 19.9619435,19.4896451 20.0881513,19.645326" id="Fill-29"></path>
                    <path d="M25.645326,20.9118487 C25.656038,20.9031299 25.6664643,20.8938394 25.6764622,20.8838343 C25.6937442,20.8665397 25.708741,20.8479587 25.7221667,20.8285201 C25.7584446,20.7899288 25.7952939,20.7514805 25.8330001,20.7137468 C26.5746983,19.9715077 27.4875027,19.504982 28.4442977,19.3135978 C28.4981433,19.3103104 28.551846,19.3044502 28.6052632,19.2958744 C28.6641077,19.286441 28.7223809,19.2738631 28.7800828,19.2581407 C29.049168,19.1846743 29.3032564,19.0427441 29.5146397,18.8313497 C30.1617868,18.1835878 30.1617868,17.1334761 29.5146397,16.4857142 C28.8673499,15.8380953 27.8180033,15.8380953 27.1707134,16.4857142 C26.9426194,16.7141174 26.7952225,16.9924035 26.7279512,17.2854114 C26.7203813,17.3182854 26.7139542,17.3513024 26.7083839,17.3843194 C26.7028137,17.4177652 26.6981004,17.451068 26.6946726,17.4846568 C26.5118546,18.4660188 26.0415268,19.4042158 25.2829751,20.1633207 C25.2282725,20.2180632 25.1724273,20.2710904 25.115868,20.3228314 L25.1160109,20.3231172 C24.9613297,20.4779111 24.9613297,20.7290404 25.1160109,20.8838343 C25.260837,21.028766 25.4896451,21.0380565 25.645326,20.9118487" id="Fill-30"></path>
                    <path d="M26.9118487,15.354674 C26.9031299,15.343962 26.8938394,15.3335357 26.8838343,15.3235378 C26.8665397,15.3062558 26.8479587,15.291259 26.8285201,15.2778333 C26.7899288,15.2415554 26.7514805,15.2047061 26.7137468,15.1669999 C25.9715077,14.4253017 25.504982,13.5124973 25.3135978,12.5557023 C25.3103104,12.5018567 25.3044502,12.448154 25.2958744,12.3947368 C25.286441,12.3358923 25.2738631,12.2776191 25.2581407,12.2199172 C25.1846743,11.950832 25.0427441,11.6967436 24.8313497,11.4853603 C24.1835878,10.8382132 23.1334761,10.8382132 22.4857142,11.4853603 C21.8380953,12.1326501 21.8380953,13.1819967 22.4857142,13.8292866 C22.7141174,14.0573806 22.9924035,14.2047775 23.2854114,14.2720488 C23.3182854,14.2796187 23.3513024,14.2860458 23.3843194,14.2916161 C23.4177652,14.2971863 23.451068,14.3018996 23.4846568,14.3053274 C24.4660188,14.4881454 25.4042158,14.9584732 26.1633207,15.7170249 C26.2180632,15.7717275 26.2710904,15.8275727 26.3228314,15.884132 L26.3231172,15.8839891 C26.4779111,16.0386703 26.7290404,16.0386703 26.8838343,15.8839891 C27.028766,15.739163 27.0380565,15.5103549 26.9118487,15.354674" id="Fill-31"></path>
                    <path d="M21.354674,14.0881513 C21.343962,14.0968701 21.3335357,14.1061606 21.3235378,14.1161657 C21.3062558,14.1334603 21.291259,14.1520413 21.2778333,14.1714799 C21.2415554,14.2100712 21.2047061,14.2485195 21.1669999,14.2862532 C20.4253017,15.0284923 19.5124973,15.495018 18.5557023,15.6864022 C18.5018567,15.6896896 18.448154,15.6955498 18.3947368,15.7041256 C18.3358923,15.713559 18.2776191,15.7261369 18.2199172,15.7418593 C17.950832,15.8153257 17.6967436,15.9572559 17.4853603,16.1686503 C16.8382132,16.8164122 16.8382132,17.8665239 17.4853603,18.5142858 C18.1326501,19.1619047 19.1819967,19.1619047 19.8292866,18.5142858 C20.0573806,18.2858826 20.2047775,18.0075965 20.2720488,17.7145886 C20.2796187,17.6817146 20.2860458,17.6486976 20.2916161,17.6156806 C20.2971863,17.5822348 20.3018996,17.548932 20.3053274,17.5153432 C20.4881454,16.5339812 20.9584732,15.5957842 21.7170249,14.8366793 C21.7717275,14.7819368 21.8275727,14.7289096 21.884132,14.6771686 L21.8839891,14.6768828 C22.0386703,14.5220889 22.0386703,14.2709596 21.8839891,14.1161657 C21.739163,13.971234 21.5103549,13.9619435 21.354674,14.0881513" id="Fill-32"></path>
                    <path d="M24.0205095,6.3077652 C23.5371305,5.36077938 22.8874822,4.48176177 22.0898393,3.69498676 C20.074237,1.70777299 17.2523038,0.42779999 14.144118,0.0909574744 C13.5861424,0.0305571421 13.03311,0 12.5002996,0 C11.9925044,0 11.4629894,0.0281297056 10.9264341,0.0838179552 C7.80431761,0.407380965 4.96680607,1.68064282 2.93637431,3.6691417 C2.13498664,4.45406044 1.48204292,5.33107898 0.995218637,6.27549457 C0.334785318,7.55718106 0,8.91768783 0,10.3191755 C0,12.1236175 0.575950581,13.9027857 1.66568803,15.4646269 C2.28193268,16.3479282 3.33572002,17.4895374 4.23776798,18.1890674 L3.73821136,20.1588608 L3.59426117,20.7136014 C3.5689463,20.7681474 3.54932354,20.8252635 3.53554267,20.8848071 C3.52700452,20.9210759 3.52445805,20.9592009 3.52071325,20.9970403 C3.5178672,21.0257412 3.51157593,21.0534425 3.51157593,21.0830002 C3.51157593,21.5894776 3.94222819,22 4.47369052,22 C4.64729955,22 4.80802646,21.9527364 4.94868123,21.8760579 C4.9530252,21.8736305 4.95781855,21.8714887 4.96201273,21.8690612 C4.98268403,21.8574952 5.00365493,21.8472143 5.02327769,21.8343632 L8.59132524,20.1271613 C9.35930928,20.337206 10.1213016,20.4715717 10.9247864,20.5558181 C11.4469616,20.6106496 11.9770758,20.6383509 12.5002996,20.6383509 C13.033859,20.6383509 13.5868914,20.607651 14.144118,20.5472506 C15.2398471,20.4285918 16.2937842,20.1878472 17.2942456,19.8454359 C17.1860957,19.811309 17.0798931,19.7666156 16.9771357,19.710499 C16.3650853,19.3767979 16.0481252,18.7419518 16.1110379,18.1136741 C15.3960802,18.3301443 14.6495165,18.4853575 13.8776378,18.5688899 C13.4093878,18.6197232 12.9457813,18.6454255 12.5002996,18.6454255 C12.0624573,18.6454255 11.6187731,18.6221507 11.1816798,18.576315 C11.0904564,18.566748 10.9996824,18.5534685 10.9087586,18.5419025 C10.3082422,18.4656524 9.71461611,18.3489927 9.141212,18.1887819 C9.02437417,18.1532271 8.9006459,18.1352355 8.773772,18.1352355 C8.57604645,18.1352355 8.38416278,18.1850693 8.18958286,18.28131 C8.16441779,18.2937328 8.13940251,18.3040137 8.11408765,18.31815 L5.82466536,19.6042629 L5.82226869,19.6055481 C5.7747846,19.6319643 5.74797182,19.6418168 5.72340591,19.6418168 C5.64296756,19.6418168 5.57765821,19.57699 5.57765821,19.4973129 L5.66229074,19.1713225 C5.68595789,19.0853627 5.71936153,18.9642764 5.75980539,18.8170596 C5.85986651,18.4538008 5.99662668,17.9568903 6.09818572,17.5880627 C6.12020516,17.5126694 6.14267397,17.4221403 6.14267397,17.3204735 C6.14267397,17.0396049 6.00171961,16.7741575 5.76684562,16.6110909 C5.64731153,16.5268446 5.52792724,16.4384573 5.40240147,16.3410743 C5.21021822,16.1920011 5.02642332,16.0366452 4.84951887,15.87672 C4.35250872,15.4273586 3.91616436,14.9368737 3.54962312,14.4114051 C2.68652111,13.1745548 2.2304042,11.7710681 2.2304042,10.3524456 C2.2304042,9.25153175 2.49448765,8.18088945 3.01516495,7.1705047 C3.40417501,6.41571473 3.92814773,5.71290046 4.57270309,5.08148139 C6.24168654,3.44681707 8.58877878,2.39873566 11.1813802,2.13000415 C11.6327038,2.08316891 12.076388,2.0594657 12.5002996,2.0594657 C12.9453319,2.0594657 13.4087886,2.08516797 13.8776378,2.13600135 C16.4582559,2.41572771 18.7917171,3.46909237 20.4482678,5.10232878 C21.0898273,5.73503297 21.610954,6.43941793 21.9972678,7.19606418 C22.5095567,8.20002337 22.769446,9.26195545 22.769446,10.3524456 C22.769446,10.4658212 22.7619564,10.5787684 22.7561145,10.6918584 C23.4255354,10.3013267 24.3102074,10.3780051 24.8896032,10.9303183 C24.9189625,10.9581624 24.9435284,10.9887196 24.9701914,11.0181344 C24.9893648,10.7858144 25,10.5527805 25,10.3191755 C25,8.93068176 24.6704574,7.58102705 24.0205095,6.3077652" id="Fill-33"></path>
                </g>
            </g>
        </g>
    </g>
</svg>