<?xml version="1.0" encoding="UTF-8"?>
<svg width="29px" height="23px" viewBox="0 0 29 23" version="1.1" xmlns="http://www.w3.org/2000/svg" xmlns:xlink="http://www.w3.org/1999/xlink">
    <!-- Generator: Sketch 48.2 (47327) - http://www.bohemiancoding.com/sketch -->
    <title>Artboard@3x</title>
    <desc>Created with Sketch.</desc>
    <defs></defs>
    <g id="切图" stroke="none" stroke-width="1" fill="none" fill-rule="evenodd">
        <g id="Artboard" fill="#FFFFFF" fill-rule="nonzero">
            <g id="更多">
                <path d="M1.41506024,2.81845688 L27.5849398,2.81845688 C28.3675904,2.81845688 29,2.18865356 29,1.40922844 C29,0.629803328 28.3675904,0 27.5849398,0 L1.41506024,0 C0.632409639,0 0,0.629803328 0,1.40922844 C0,2.18865356 0.632409639,2.81845688 1.41506024,2.81845688 Z M27.5849398,10.0907716 L1.41506024,10.0907716 C0.632409639,10.0907716 0,10.7205749 0,11.5 C0,12.2794251 0.632409639,12.9092284 1.41506024,12.9092284 L27.5849398,12.9092284 C28.3675904,12.9092284 29,12.2794251 29,11.5 C29,10.7205749 28.3675904,10.0907716 27.5849398,10.0907716 Z M27.5849398,20.1815431 L1.41506024,20.1815431 C0.632409639,20.1815431 0,20.8113464 0,21.5907716 C0,22.3701967 0.632409639,23 1.41506024,23 L27.5849398,23 C28.3675904,23 29,22.3701967 29,21.5907716 C29,20.8113464 28.3675904,20.1815431 27.5849398,20.1815431 Z" id="Shape"></path>
            </g>
        </g>
    </g>
</svg>