<?xml version="1.0" encoding="UTF-8"?>
<svg width="159px" height="29px" viewBox="0 0 159 29" version="1.1" xmlns="http://www.w3.org/2000/svg" xmlns:xlink="http://www.w3.org/1999/xlink">
    <!-- Generator: Sketch 48.2 (47327) - http://www.bohemiancoding.com/sketch -->
    <title>Group 3</title>
    <desc>Created with Sketch.</desc>
    <defs></defs>
    <g id="Page-1" stroke="none" stroke-width="1" fill="none" fill-rule="evenodd">
        <g id="Group-3" fill="#FFFFFF">
            <path d="M37.1965156,23.961694 L28.6749193,23.961694 C28.2245055,23.961694 27.8593729,23.5965615 27.8593729,23.1461477 L27.8593729,6.88117235 C27.8593729,6.43075853 28.2245055,6.065626 28.6749193,6.065626 L37.1965156,6.065626 L37.1965156,8.45012957 L30.4653744,8.45012957 L30.4653744,13.7968257 L37.1965156,13.7968257 L37.1965156,16.1321643 L30.4653744,16.1321643 L30.4653744,21.4911517 L37.1965156,21.4911517 L37.1965156,23.961694 Z M40.2594936,23.961694 L40.2594936,6.065626 L42.6802343,6.065626 L42.6802343,23.961694 L40.2594936,23.961694 Z M56.1672181,15.9109217 C55.8625656,14.7965089 55.3356069,13.9340811 54.5863263,13.3236124 C53.8370456,12.7131436 52.9395691,12.4079138 51.8938698,12.4079138 C50.8234689,12.4079138 49.8951159,12.7213377 49.1087829,13.3481949 C48.32245,13.9750521 47.7810822,14.8292858 47.4846635,15.9109217 L56.1672181,15.9109217 Z M47.4105592,18.0987652 C47.6164055,19.2295663 48.1289552,20.1452557 48.9482236,20.8458608 C49.767492,21.5464658 50.7411305,21.8967631 51.8691683,21.8967631 C52.6760859,21.8967631 53.4109463,21.704202 54.0737715,21.3190741 C54.7365966,20.9339462 55.2656138,20.3890393 55.6608387,19.6843371 L58.4150488,19.6843371 C57.789276,21.1838778 56.9144422,22.3310502 55.7905212,23.1258887 C54.6666003,23.9207272 53.3594957,24.3181404 51.8691683,24.3181404 C50.8646383,24.3181404 49.9465774,24.1419675 49.1149583,23.7896165 C48.2833391,23.4372654 47.5299529,22.9087467 46.8547769,22.2040445 C46.2207702,21.5403134 45.724688,20.7680205 45.3665154,19.8871428 C45.0083428,19.0062651 44.8292592,18.1069639 44.8292592,17.1892122 C44.8292592,16.2386837 44.9918754,15.3496251 45.3171126,14.5220098 C45.6423497,13.6943945 46.1219645,12.9405383 46.7559712,12.2604188 C47.4311471,11.5229398 48.1927671,10.9677903 49.040854,10.5949537 C49.8889408,10.222117 50.8152354,10.0357015 51.8197655,10.0357015 C53.0136742,10.0357015 54.1231692,10.312252 55.1482839,10.8653613 C56.1733986,11.4184705 57.0194143,12.1907634 57.6863564,13.1822629 C58.0815814,13.7968288 58.3738788,14.4707926 58.5632574,15.2041745 C58.752636,15.9375564 58.8473239,16.7754019 58.8473239,17.7177362 L58.8473239,18.0987652 L47.4105592,18.0987652 Z M63.2688809,17.1154647 C63.2688809,18.4511212 63.7196776,19.5900994 64.6212845,20.5324337 C65.5228914,21.474768 66.5994515,21.9459281 67.8509972,21.9459281 C69.1272444,21.9459281 70.2223304,21.4932047 71.1362881,20.5877444 C72.0502458,19.682284 72.5072178,18.5822277 72.5072178,17.2875423 C72.5072178,15.919109 72.0543627,14.7719366 71.1486388,13.8459907 C70.242915,12.9200449 69.1354784,12.4570789 67.8262957,12.4570789 C66.6241532,12.4570789 65.5640605,12.9220934 64.6459859,13.8521364 C63.7279113,14.7821794 63.2688809,15.8699446 63.2688809,17.1154647 Z M63.3429852,22.3269571 L63.3429852,28.337381 L60.8975431,28.337381 L60.8975431,11.2568593 C60.8975431,10.8064455 61.2626756,10.441313 61.7130894,10.441313 L62.5521403,10.441313 C63.0025541,10.441313 63.3676866,10.8064455 63.3676866,11.2568593 L63.3676866,12.1006325 C63.9934595,11.461484 64.691268,10.9759842 65.4611333,10.6441187 C66.2309985,10.3122531 67.0523131,10.1463228 67.9251015,10.1463228 C69.9753309,10.1463228 71.675596,10.8223351 73.0259479,12.17438 C74.3762998,13.5264249 75.0514657,15.2226012 75.0514657,17.2629598 C75.0514657,18.2052941 74.8826742,19.1025468 74.5450862,19.9547447 C74.2074983,20.8069427 73.7217082,21.5648959 73.0877015,22.228627 C72.4042917,22.9415234 71.6570808,23.4679936 70.8460463,23.8080533 C70.0350117,24.1481131 69.1107756,24.3181404 68.0733101,24.3181404 C67.1511186,24.3181404 66.2968691,24.1522102 65.5105362,23.8203446 C64.7242032,23.488479 64.0016934,22.9906882 63.3429852,22.3269571 Z M79.7076863,23.961694 L77.2622442,23.961694 L77.2622442,6.88117235 C77.2622442,6.43075853 77.6273767,6.065626 78.0777905,6.065626 L78.8921399,6.065626 C79.3425537,6.065626 79.7076863,6.43075853 79.7076863,6.88117235 L79.7076863,11.9777199 C80.1029112,11.3959309 80.6154609,10.9575472 81.2453506,10.6625556 C81.8752404,10.367564 82.6101008,10.2200704 83.4499538,10.2200704 C85.0967244,10.2200704 86.3770693,10.744492 87.291027,11.7933511 C88.2049847,12.8422101 88.6619567,14.313049 88.6619567,16.2059118 L88.6619567,23.961694 L86.2165146,23.961694 L86.2165146,16.9925522 C86.2165146,15.4930115 85.9612689,14.3786155 85.4507701,13.6493307 C84.9402712,12.9200458 84.1580669,12.5554089 83.1041337,12.5554089 C82.4618931,12.5554089 81.8937658,12.7029025 81.3997346,12.9978941 C80.9057034,13.2928857 80.5104844,13.7189783 80.2140657,14.2761847 C80.0329209,14.6121473 79.9032397,15.0218518 79.8250181,15.5053102 C79.7467965,15.9887687 79.7076863,16.759013 79.7076863,17.8160663 L79.7076863,23.961694 Z M93.3922816,17.1154647 C93.3922816,18.483898 93.8471952,19.6310704 94.7570359,20.5570163 C95.6668767,21.4829621 96.7804886,21.9459281 98.0979051,21.9459281 C99.3000476,21.9459281 100.36014,21.4809136 101.278215,20.5508706 C102.19629,19.6208276 102.65532,18.5330624 102.65532,17.2875423 C102.65532,15.9600801 102.200406,14.8231503 101.290566,13.8767189 C100.380725,12.9302875 99.3000479,12.4570789 98.0485022,12.4570789 C96.7640211,12.4570789 95.6668767,12.9077537 94.7570359,13.809117 C93.8471952,14.7104802 93.3922816,15.8125851 93.3922816,17.1154647 Z M102.531813,23.961694 L102.531813,22.3023745 C101.90604,22.9497172 101.208231,23.439314 100.438366,23.7711796 C99.6685009,24.1030451 98.8471863,24.2689754 97.9743979,24.2689754 C95.9324024,24.2689754 94.2362541,23.5909146 92.8859022,22.2347726 C91.5355503,20.8786307 90.8603845,19.1804058 90.8603845,17.1400472 C90.8603845,16.1895187 91.0291759,15.288169 91.3667639,14.435971 C91.7043519,13.583773 92.186025,12.8340139 92.8117979,12.1866712 C93.4952077,11.4737749 94.2424186,10.9473047 95.0534531,10.6072449 C95.8644877,10.2671851 96.7887238,10.0971578 97.8261893,10.0971578 C98.7566147,10.0971578 99.6129226,10.2610396 100.395139,10.588808 C101.177355,10.9165765 101.889572,11.4123188 102.531813,12.0760499 L102.531813,11.2568593 C102.531813,10.8064455 102.896945,10.441313 103.347359,10.441313 L104.18641,10.441313 C104.636824,10.441313 105.001956,10.8064455 105.001956,11.2568593 L105.001956,23.961694 L102.531813,23.961694 Z M110.288064,23.961694 L107.842621,23.961694 L107.842621,11.2568593 C107.842621,10.8064455 108.207754,10.441313 108.658168,10.441313 L109.373711,10.441313 C109.824125,10.441313 110.189258,10.8064455 110.189258,11.2568593 L110.189258,11.9777199 C110.699757,11.3713483 111.261709,10.926819 111.875131,10.6441187 C112.488553,10.3614184 113.190478,10.2200704 113.980928,10.2200704 C115.75944,10.2200704 117.124181,10.740395 118.075191,11.7810598 C119.026201,12.8217247 119.501699,14.3130487 119.501699,16.2550768 L119.501699,23.961694 L117.043906,23.961694 L117.043906,16.7836008 C117.043906,15.3496138 116.77631,14.2864309 116.24111,13.59402 C115.705909,12.9016091 114.878419,12.5554089 113.758615,12.5554089 C112.540005,12.5554089 111.656938,12.9630648 111.109386,13.7783888 C110.561835,14.5937129 110.288064,15.9395919 110.288064,17.8160663 L110.288064,23.961694 Z M123.194564,23.961694 L123.194564,12.653739 L121.280202,12.653739 L121.280202,10.441313 L123.194564,10.441313 L123.194564,6.88117235 C123.194564,6.43075853 123.559696,6.065626 124.01011,6.065626 L124.812109,6.065626 C125.262523,6.065626 125.627655,6.43075853 125.627655,6.88117235 L125.627655,10.441313 L127.554367,10.441313 L127.554367,12.653739 L125.627655,12.653739 L125.627655,23.961694 L123.194564,23.961694 Z" id="ElephantBI-Copy-11"></path>
            <g id="Group-15-Copy-8" transform="translate(130.142478, 4.056494)">
                <path d="M3.99047708,2.00913242 C5.97085154,2.00913242 7.47523361,2.42629024 8.50366841,3.26061838 C9.53210322,4.09494653 10.0463129,5.30961194 10.0463129,6.90465105 C10.0463129,7.64082294 9.87845107,8.29109836 9.54272235,8.85549681 C9.20699363,9.41989527 8.71615711,9.88613047 8.07019806,10.2542164 C8.97964041,10.5159664 9.69783411,11.0190097 10.2248007,11.7633613 C10.7517673,12.5077128 11.0152466,13.3951957 11.0152466,14.4258363 C11.0152466,15.2601645 10.8537593,16.0433578 10.5307798,16.7754399 C10.2078002,17.5075219 9.76158523,18.1148546 9.19212133,18.5974562 C8.63115689,19.0555187 7.99583169,19.3827013 7.28612668,19.5790138 C6.57642167,19.7753263 5.57562513,19.8734811 4.28370703,19.8734811 L0.815546352,19.8734811 C0.365132539,19.8734811 2.83658469e-14,19.5083486 2.83106871e-14,19.0579347 L2.84217094e-14,2.82467877 C2.83665496e-14,2.37426496 0.365132539,2.00913242 0.815546352,2.00913242 L3.99047708,2.00913242 Z M2.66456776,9.49350927 L3.51875934,9.49350927 C4.90417152,9.49350927 5.89221906,9.29106503 6.48293162,8.88617049 C7.07364417,8.48127595 7.36899602,7.81259651 7.36899602,6.88011211 C7.36899602,6.05396365 7.101267,5.44254116 6.56580095,5.0458263 C6.03033489,4.64911145 5.21014919,4.450757 4.10521923,4.450757 L2.66456776,4.450757 L2.66456776,9.49350927 Z M2.63906951,17.4563955 L4.75542476,17.4563955 C5.9963461,17.4563955 6.91002447,17.2335023 7.4964873,16.7877093 C8.08295012,16.3419163 8.37617713,15.652788 8.37617713,14.7203036 C8.37617713,13.7060223 8.07020112,12.9371432 7.45823991,12.4136432 C6.84627871,11.8901432 5.94534933,11.6283971 4.75542476,11.6283971 L2.63906951,11.6283971 L2.63906951,17.4563955 Z" id="Combined-Shape"></path>
                <polygon id="Path" points="17.9507723 19.8734811 12.2391629 19.8734811 12.2391629 18.7038294 13.8710513 18.7038294 13.8710513 3.22715619 12.647135 3.22319127 12.647135 2.00913242 17.5428002 2.00913242 17.5428002 3.22715619 16.3188839 3.22715619 16.3188839 18.7038294 17.9507723 18.7038294"></polygon>
                <text id="TM" font-family="LucidaGrande, Lucida Grande" font-size="5.47945205" font-weight="normal">
                    <tspan x="21.021957" y="5.1826484">TM</tspan>
                </text>
            </g>
            <g id="Group">
                <path d="M18.3933856,18.4564442 L18.3933856,23.6508442 L15.6335744,23.6508442 L15.6335744,21.8366657 C16.2861354,20.7074388 17.328439,19.5723946 18.3933856,18.4564442 Z" id="Combined-Shape"></path>
                <path d="M7.26884197,21.1992688 L7.26884197,23.6508442 L4.78501185,23.6508442 L4.78501185,21.9690345 C5.29076123,21.4882045 5.96308912,21.1448177 6.82356187,21.1613834 C6.97572535,21.1643128 7.12415205,21.1769413 7.26884197,21.1992688 Z" id="Combined-Shape"></path>
                <path d="M17.5834369,2.92632645 L18.3024757,2.92632645 C18.5033622,3.98743143 18.1445579,4.57933493 17.2260629,4.70203696 C16.034086,4.82544503 15.3815591,4.31609411 15.0503888,3.74353418 C14.7192186,3.17097424 14.5312214,1.77713302 15.5707763,0.856543415 C17.5964346,-0.93730135 20.9262043,0.336844003 22.7138829,3.88888917 C24.5015614,7.44093434 21.823143,12.7584867 19.7266028,15.4126793 C17.6300626,18.0668718 13.7547378,20.969659 13.7665964,23.736555 C12.4955739,23.736555 11.5063645,23.736555 10.7989681,23.736555 C9.94157308,21.442582 8.59994581,20.2797774 6.77408631,20.2481414 C4.03529706,20.2006873 3.01195689,23.1069796 3.14078402,23.736555 C1.91342265,23.736555 0.922642341,23.736555 0.168443097,23.736555 C0.205622898,18.795665 0.7790533,15.5910984 1.8887343,14.1228551 C3.86183647,11.5122003 5.41536316,10.582646 8.26519692,10.020869 C7.48700505,11.6746242 7.30358784,15.8426246 10.0081603,17.2905519 C10.9903613,17.8163856 12.6596827,18.3147143 14.6039125,17.9143925 C17.1338293,17.3934762 18.4534242,15.7565907 18.4534242,13.675041 C18.4534242,12.2873413 17.5827182,11.2488015 15.841306,10.5594219 C17.2482757,11.2781579 17.828986,12.465969 17.5834369,14.1228551 C17.2151133,16.6081844 14.4523,17.2905519 12.792038,17.1318109 C11.131776,16.9730699 8.62402229,15.8006702 8.62402229,12.95046 C8.62402229,10.1002498 9.94706071,7.61726936 14.2002425,6.87741723 C18.4534242,6.13756511 19.1268684,6.55248912 20.1132411,5.2143677 C21.0996138,3.87624627 18.9981093,1.10659247 17.2260629,1.54584435 C15.5339879,1.90679402 15.8162492,3.59817918 16.699843,3.74353418 C17.2889056,3.84043751 17.5834369,3.56803493 17.5834369,2.92632645 Z" id="Path-19"></path>
            </g>
        </g>
    </g>
</svg>