<?xml version="1.0" encoding="UTF-8"?>
<svg width="117px" height="24px" viewBox="0 0 117 24" version="1.1" xmlns="http://www.w3.org/2000/svg" xmlns:xlink="http://www.w3.org/1999/xlink">
    <!-- Generator: Sketch 48.2 (47327) - http://www.bohemiancoding.com/sketch -->
    <title>Artboard 8</title>
    <desc>Created with Sketch.</desc>
    <defs></defs>
    <g id="page-2" stroke="none" stroke-width="1" fill="none" fill-rule="evenodd">
        <g id="Artboard-8">
            <g id="Group-21-Copy-14">
                <rect id="Rectangle-9-Copy-9" fill="#697B90" x="6.19972826" y="10.1123595" width="5.72282609" height="10.2857143" rx="1.27058824"></rect>
                <rect id="Rectangle-9-Copy-10" fill="#697B90" x="13.0353261" y="6.68378808" width="6.35869565" height="13.7142857" rx="1.27058824"></rect>
                <rect id="Rectangle-9-Copy-11" fill="#697B90" x="0" y="13.5409309" width="5.08695652" height="6.85714286" rx="1.27058824"></rect>
                <path d="M0.635869565,11.3429963 C0.635869565,8.77308967 1.27251534,6.29487479 3.05996704,4.94181938 C3.68918164,4.46551996 4.94273708,3.22920777 7.92849864,3.22920777 C10.2650215,3.22920777 11.8727218,3.66751946 12.9749371,4.03338797 C14.0771524,4.39925647 15.380377,4.50364718 16.9994202,4.04586767 C18.240111,3.69506613 19.1490638,2.22043921 19.8941734,1.24675325" id="Path-16-Copy-5" stroke="#697B90" stroke-width="1.58823529"></path>
                <path d="M18.6756441,1.12199822 L20.2118852,2.62805677 L20.2118852,1.12199822 L18.6756441,1.12199822 Z" id="Rectangle-Copy-3" stroke="#697B90" stroke-width="0.952941176" transform="translate(19.098682, 2.203969) rotate(-20.000000) translate(-19.098682, -2.203969) "></path>
                <ellipse id="Oval-14-Copy" fill="#697B90" cx="9.0611413" cy="6.7012987" rx="1.11277174" ry="1.09090909"></ellipse>
                <path d="M30.8036579,20.4224244 L24.162468,20.4224244 C23.8116048,20.4224244 23.5271739,20.1379936 23.5271739,19.7871303 L23.5271739,7.3190822 C23.5271739,6.96821894 23.8116048,6.68378808 24.162468,6.68378808 L30.8036579,6.68378808 L30.8036579,8.51434815 L25.5580444,8.51434815 L25.5580444,12.6189545 L30.8036579,12.6189545 L30.8036579,14.411771 L25.5580444,14.411771 L25.5580444,18.5258132 L30.8036579,18.5258132 L30.8036579,20.4224244 Z M33.1906526,20.4224244 L33.1906526,6.68378808 L35.0771484,6.68378808 L35.0771484,20.4224244 L33.1906526,20.4224244 Z M45.5876253,14.2419253 C45.3502079,13.3864015 44.9395463,12.7243241 44.355628,12.2556732 C43.7717097,11.7870223 43.0723015,11.5527004 42.2573826,11.5527004 C41.4232136,11.5527004 40.6997433,11.7933129 40.0869499,12.274545 C39.4741565,12.7557771 39.0522658,13.411564 38.8212652,14.2419253 L45.5876253,14.2419253 Z M38.7635153,15.9215113 C38.9239324,16.7896163 39.323365,17.4925821 39.9618252,18.0304297 C40.6002853,18.5682774 41.3590469,18.8371972 42.2381326,18.8371972 C42.8669677,18.8371972 43.4396482,18.6893699 43.9561914,18.393711 C44.4727345,18.098052 44.8850003,17.6797323 45.1930011,17.1387394 L47.3393714,17.1387394 C46.8517034,18.2899221 46.1699408,19.1705951 45.2940634,19.7807848 C44.418186,20.3909746 43.3995526,20.6960649 42.2381326,20.6960649 C41.4552971,20.6960649 40.7398475,20.5608187 40.0917624,20.2903222 C39.4436772,20.0198257 38.8565594,19.6140871 38.3303913,19.0730941 C37.8363065,18.5635542 37.4497071,17.9706725 37.1705813,17.2944313 C36.8914555,16.6181901 36.7518947,15.9278054 36.7518947,15.2232564 C36.7518947,14.493545 36.8786224,13.8110234 37.1320814,13.1756712 C37.3855404,12.540319 37.7593067,11.961591 38.2533914,11.4394699 C38.7795596,10.8733145 39.373094,10.4471316 40.0340125,10.1609086 C40.694931,9.87468559 41.4167972,9.73157623 42.1996327,9.73157623 C43.130052,9.73157623 43.9946873,9.94388133 44.7935645,10.3684979 C45.5924417,10.7931145 46.2517462,11.3859961 46.7714976,12.1471606 C47.0794985,12.6189568 47.3072874,13.1363522 47.4548711,13.6993623 C47.6024549,14.2623725 47.6762456,14.9055783 47.6762456,15.6289991 L47.6762456,15.9215113 L38.7635153,15.9215113 Z M51.121988,15.1666412 C51.121988,16.1920116 51.4732963,17.066394 52.1759232,17.7898149 C52.8785502,18.5132357 53.7175191,18.8749407 54.6928552,18.8749407 C55.6874413,18.8749407 56.5408475,18.5273894 57.2530995,17.8322763 C57.9653515,17.1371633 58.3214722,16.2926607 58.3214722,15.2987434 C58.3214722,14.2482106 57.9685598,13.3675376 57.2627245,12.656698 C56.5568892,11.9458584 55.6938581,11.5904439 54.6736052,11.5904439 C53.7367693,11.5904439 52.9106335,11.947431 52.1951732,12.6614159 C51.4797128,13.3754008 51.121988,14.2104676 51.121988,15.1666412 Z M51.1797379,19.1674529 L51.1797379,23.7815965 L49.2739921,23.7815965 L49.2739921,10.6782543 C49.2739921,10.327391 49.558423,10.0429602 49.9092862,10.0429602 L50.5636938,10.0429602 C50.914557,10.0429602 51.1989879,10.327391 51.1989879,10.6782543 L51.1989879,11.3168035 C51.6866559,10.8261355 52.2304618,10.4534221 52.8304218,10.1986521 C53.4303818,9.94388218 54.0704365,9.81649912 54.750605,9.81649912 C56.3483595,9.81649912 57.673385,10.3354671 58.7257213,11.3734188 C59.7780576,12.4113704 60.3042178,13.7135083 60.3042178,15.2798717 C60.3042178,16.0032925 60.1726777,16.6921046 59.9095937,17.3463287 C59.6465096,18.0005527 59.2679309,18.582426 58.7738462,19.0919658 C58.2412613,19.6392494 57.658956,20.0434154 57.0269125,20.304476 C56.3948691,20.5655365 55.674607,20.6960649 54.8661048,20.6960649 C54.1474361,20.6960649 53.4817151,20.5686818 52.8689217,20.3139119 C52.2561283,20.0591419 51.6930727,19.6769927 51.1797379,19.1674529 Z M63.9328348,20.4224244 L62.027089,20.4224244 L62.027089,7.3190822 C62.027089,6.96821894 62.3115199,6.68378808 62.6623831,6.68378808 L63.2975407,6.68378808 C63.6484039,6.68378808 63.9328348,6.96821894 63.9328348,7.3190822 L63.9328348,11.2224447 C64.2408357,10.775811 64.6402683,10.4392681 65.1311446,10.2128059 C65.622021,9.98634377 66.1947015,9.87311438 66.8492034,9.87311438 C68.1325403,9.87311438 69.1303198,10.2757078 69.8425718,11.0809066 C70.5548237,11.8861054 70.9109444,13.015254 70.9109444,14.4683863 L70.9109444,20.4224244 L69.0051986,20.4224244 L69.0051986,15.0722824 C69.0051986,13.9210997 68.8062844,13.0655888 68.4084499,12.505724 C68.0106155,11.9458591 67.4010396,11.6659309 66.579704,11.6659309 C66.0792026,11.6659309 65.636458,11.7791603 65.2514569,12.0056225 C64.8664558,12.2320847 64.5584596,12.5591918 64.3274589,12.9869537 C64.1862919,13.2448689 64.0852306,13.559395 64.0242721,13.9305413 C63.9633136,14.3016877 63.9328348,14.8929967 63.9328348,15.7044861 L63.9328348,20.4224244 Z M74.5973113,15.1666412 C74.5973113,16.217174 74.9518278,17.097847 75.6608714,17.8086866 C76.3699151,18.5195262 77.2377586,18.8749407 78.2644282,18.8749407 C79.2012641,18.8749407 80.0273999,18.5179536 80.7428602,17.8039687 C81.4583205,17.0899838 81.8160453,16.254917 81.8160453,15.2987434 C81.8160453,14.2796637 81.4615288,13.4068538 80.7524852,12.6802877 C80.0434415,11.9537215 79.2012643,11.5904439 78.2259283,11.5904439 C77.2249255,11.5904439 76.3699151,11.9364226 75.6608714,12.6283904 C74.9518278,13.3203581 74.5973113,14.1664332 74.5973113,15.1666412 Z M81.7197956,20.4224244 L81.7197956,19.1485811 C81.2321275,19.6455398 80.6883217,20.0213984 80.0883617,20.2761684 C79.4884016,20.5309383 78.848347,20.6583214 78.1681784,20.6583214 C76.5768406,20.6583214 75.2550234,20.1377807 74.2026871,19.0966838 C73.1503509,18.0555869 72.6241906,16.7518763 72.6241906,15.1855129 C72.6241906,14.4558015 72.7557307,13.7638441 73.0188148,13.1096201 C73.2818988,12.455396 73.6572692,11.8798133 74.1449373,11.3828546 C74.6775221,10.8355711 75.2598275,10.4314051 75.8918709,10.1703445 C76.5239143,9.90928393 77.2441764,9.77875561 78.0526786,9.77875561 C78.777764,9.77875561 79.4450892,9.90456604 80.0546742,10.1561907 C80.6642593,10.4078153 81.2192942,10.7883919 81.7197956,11.2979317 L81.7197956,10.6782543 C81.7197956,10.327391 82.0042264,10.0429602 82.3550897,10.0429602 L83.0094972,10.0429602 C83.3603604,10.0429602 83.6447913,10.327391 83.6447913,10.6782543 L83.6447913,20.4224244 L81.7197956,20.4224244 Z M87.7642822,20.4224244 L85.8585364,20.4224244 L85.8585364,10.6782543 C85.8585364,10.327391 86.1429673,10.0429602 86.4938305,10.0429602 L87.0519883,10.0429602 C87.4028515,10.0429602 87.6872824,10.327391 87.6872824,10.6782543 L87.6872824,11.2224447 C88.0851168,10.7569392 88.523049,10.4156784 89.001092,10.1986521 C89.479135,9.98162587 90.0261492,9.87311438 90.6421509,9.87311438 C92.0281548,9.87311438 93.0917043,10.2725625 93.8328313,11.0714707 C94.5739584,11.8703789 94.9445164,13.0152538 94.9445164,14.5061298 L94.9445164,20.4224244 L93.0291456,20.4224244 L93.0291456,14.9118725 C93.0291456,13.8110147 92.8206065,12.9948196 92.403522,12.4632625 C91.9864375,11.9317055 91.3415704,11.6659309 90.4689013,11.6659309 C89.5192319,11.6659309 88.8310528,11.9788844 88.4043433,12.6048007 C87.9776338,13.2307169 87.7642822,14.2639351 87.7642822,15.7044861 L87.7642822,20.4224244 Z M97.822385,20.4224244 L97.822385,11.741418 L96.3305133,11.741418 L96.3305133,10.0429602 L97.822385,10.0429602 L97.822385,7.3190822 C97.822385,6.96821894 98.1068159,6.68378808 98.4576792,6.68378808 L99.0832117,6.68378808 C99.434075,6.68378808 99.7185059,6.96821894 99.7185059,7.3190822 L99.7185059,10.0429602 L101.220003,10.0429602 L101.220003,11.741418 L99.7185059,11.741418 L99.7185059,20.4224244 L97.822385,20.4224244 Z" id="ElephantBI-Copy-8" fill="#697B90"></path>
                <g id="Group-15-Copy-5" transform="translate(103.010870, 6.683788)" fill="#697B90">
                    <path d="M3.10979959,0 C4.65311573,0 5.82548852,0.320247975 6.62695313,0.960753532 C7.42841773,1.60125909 7.82914402,2.53374584 7.82914402,3.75824176 C7.82914402,4.32339372 7.69832841,4.8226038 7.43669327,5.25588697 C7.17505813,5.68917014 6.79254667,6.04709435 6.28914742,6.32967033 C6.99788058,6.53061325 7.55757267,6.91679463 7.96824049,7.48822606 C8.3789083,8.05965749 8.58423913,8.74096936 8.58423913,9.5321821 C8.58423913,10.1726877 8.4583912,10.7739375 8.20669158,11.3359498 C7.95499195,11.897962 7.60725426,12.3642054 7.16346807,12.7346939 C6.72630556,13.086344 6.23119332,13.3375189 5.67811651,13.4882261 C5.12503969,13.6389332 4.34511373,13.7142857 3.33831522,13.7142857 L0.635294118,13.7142857 C0.284430865,13.7142857 4.2968356e-17,13.4298548 0,13.0789916 L1.11022302e-16,0.635294118 C6.80539465e-17,0.284430865 0.284430865,-3.79636676e-16 0.635294118,-4.4408921e-16 L3.10979959,0 Z M2.07651155,5.74568289 L2.7421875,5.74568289 C3.82184643,5.74568289 4.59183703,5.59026843 5.0521824,5.27943485 C5.51252778,4.96860127 5.74269701,4.45526261 5.74269701,3.73940345 C5.74269701,3.10517736 5.5340544,2.6357943 5.11676291,2.33124019 C4.69947142,2.02668608 4.06029642,1.8744113 3.19921875,1.8744113 L2.07651155,1.8744113 L2.07651155,5.74568289 Z M2.05664063,11.8587127 L3.70592731,11.8587127 C4.67298378,11.8587127 5.3850181,11.6875998 5.84205163,11.3453689 C6.29908517,11.003138 6.52759851,10.4741009 6.52759851,9.75824176 C6.52759851,8.97958794 6.2891498,8.38932697 5.81224524,7.98744113 C5.33534069,7.58555529 4.63324173,7.38461538 3.70592731,7.38461538 L2.05664063,7.38461538 L2.05664063,11.8587127 Z" id="Combined-Shape"></path>
                    <polygon id="Path" points="13.9891304 13.7142857 9.53804348 13.7142857 9.53804348 12.8163555 10.8097826 12.8163555 10.8097826 0.935064935 9.85597826 0.932021104 9.85597826 0 13.6711957 0 13.6711957 0.935064935 12.7173913 0.935064935 12.7173913 12.8163555 13.9891304 12.8163555"></polygon>
                </g>
            </g>
        </g>
    </g>
</svg>