<?xml version="1.0" encoding="UTF-8"?>
<svg width="46px" height="46px" viewBox="0 0 46 46" version="1.1" xmlns="http://www.w3.org/2000/svg" xmlns:xlink="http://www.w3.org/1999/xlink">
    <!-- Generator: Sketch 48.2 (47327) - http://www.bohemiancoding.com/sketch -->
    <title>Group 34 Copy 2</title>
    <desc>Created with Sketch.</desc>
    <defs>
        <circle id="path-1" cx="22" cy="22" r="22"></circle>
    </defs>
    <g id="1首页导航" stroke="none" stroke-width="1" fill="none" fill-rule="evenodd" transform="translate(-427.000000, -305.000000)">
        <g id="Group-14" transform="translate(100.000000, 154.000000)">
            <g id="Group-6">
                <g id="Group-34-Copy-2" transform="translate(328.000000, 152.000000)">
                    <circle id="Oval" stroke="#BEB1F5" stroke-width="1.584" fill="#BEB1F5" cx="22" cy="22" r="22"></circle>
                    <mask id="mask-2" fill="white">
                        <use xlink:href="#path-1"></use>
                    </mask>
                    <use id="Mask" fill="#BEB1F5" xlink:href="#path-1"></use>
                    <g id="Group-39" mask="url(#mask-2)">
                        <g transform="translate(0.000000, -4.714286)" id="Path-12">
                            <path d="M31.7103358,3.81829622 C27.3224079,19.7141761 30.4015792,27.497914 40.9478497,27.1695099 C31.4850056,27.1695099 21.9346894,27.1695099 12.296901,27.1695099 C2.44989584,20.9272759 -0.616742924,14.4760808 3.09698475,7.81592457 C6.81071243,1.15576832 16.3484961,-0.176774467 31.7103358,3.81829622 Z" fill="#7256B6"></path>
                            <path d="M17.4061802,1.13560268 C18.1309991,18.8199449 22.28132,27.497914 29.8571429,27.1695099 C23.05959,27.1695099 16.1992023,27.1695099 9.2759797,27.1695099 C2.202468,20.9272759 -0.000425648259,14.4760808 2.66729877,7.81592457 C5.33502318,1.15576832 10.2479837,-1.07100565 17.4061802,1.13560268 Z" fill="#FFFFFF"></path>
                            <path d="M31.109375,29.1128627 C26.7214472,45.0087426 29.8006185,52.7924805 40.346889,52.4640765 C30.8840448,52.4640765 21.3337286,52.4640765 11.6959403,52.4640765 C1.84893508,46.2218424 -1.21770368,39.7706473 2.496024,33.1104911 C6.20975167,26.4503348 15.7475353,25.117792 31.109375,29.1128627 Z" fill="#FFFFFF" transform="translate(20.658678, 39.670021) scale(1, -1) translate(-20.658678, -39.670021) "></path>
                            <path d="M16.3979492,28.5159923 C16.3804855,45.0954263 19.8192643,53.2209413 26.7142857,52.8925373 C20.5275951,52.8925373 14.2837163,52.8925373 7.98264928,52.8925373 C1.54479887,46.6503033 -0.460131691,40.1991081 1.96785761,33.5389519 C4.3958469,26.8787956 9.20587744,25.2044758 16.3979492,28.5159923 Z" fill="#7256B6" transform="translate(13.842377, 39.884252) scale(1, -1) translate(-13.842377, -39.884252) "></path>
                        </g>
                    </g>
                </g>
            </g>
        </g>
    </g>
</svg>