<?xml version="1.0" encoding="UTF-8"?>
<svg width="316px" height="181px" viewBox="0 0 316 181" version="1.1" xmlns="http://www.w3.org/2000/svg" xmlns:xlink="http://www.w3.org/1999/xlink">
    <!-- Generator: Sketch 48.2 (47327) - http://www.bohemiancoding.com/sketch -->
    <title>Artboard 7 Copy 2@3x</title>
    <desc>Created with Sketch.</desc>
    <defs>
        <path d="M27.456,34.848 L289.344,34.848 C290.802032,34.848 291.984,36.0299683 291.984,37.488 L291.984,180.576 L24.816,180.576 L24.816,37.488 C24.816,36.0299683 25.9979683,34.848 27.456,34.848 Z" id="path-1"></path>
        <path d="M9.87820179,14.0917127 L5.69064887,18.2792656 C5.48445204,18.4854624 5.15014093,18.4854624 4.94394411,18.2792656 C4.87930761,18.2146291 4.83255895,18.1343191 4.80827278,18.0461946 L0.0191095894,0.668281378 C-0.0583656761,0.387155346 0.106725889,0.0964515577 0.38785192,0.0189762922 C0.479676473,-0.00632955238 0.576636373,-0.00632535597 0.668458735,0.0189884368 L18.0463288,4.80975825 C18.3274482,4.88725785 18.4925146,5.17797593 18.415015,5.45909525 C18.3907171,5.54723235 18.3439501,5.62755004 18.2792918,5.6921862 L14.0918503,9.87794187 C13.8856181,10.0841033 13.8855608,10.4184145 14.0917223,10.6246466 C14.091764,10.6246884 14.0918057,10.6247301 14.0918474,10.6247718 L18.7880697,15.3194666 C18.9942492,15.5255785 18.9943625,15.8597888 18.7883228,16.0660405 L17.4281116,17.4279128 L16.0662392,18.788124 C15.8599875,18.9941637 15.5257773,18.9940505 15.3196653,18.7878709 L10.6249065,14.0917127 C10.4187435,13.8854821 10.0844324,13.8854273 9.8782018,14.0915903 C9.8781814,14.0916107 9.87816101,14.0916311 9.87814062,14.0916515 Z" id="path-2"></path>
    </defs>
    <g id="切图" stroke="none" stroke-width="1" fill="none" fill-rule="evenodd">
        <g id="Artboard-7-Copy-2">
            <g id="Group-4-Copy-5">
                <g id="Group-2" fill="#AAD97B">
                    <rect id="Rectangle-24" x="0" y="0" width="315.744" height="180.048" rx="1.584"></rect>
                </g>
                <path d="M1.584,0 L314.16,0 C315.034819,-3.12405175e-14 315.744,0.709180956 315.744,1.584 L315.744,21.12 L0,21.12 L4.4408921e-16,1.584 C3.36954776e-16,0.709180956 0.709180956,-2.83387559e-16 1.584,-4.4408921e-16 Z" id="Rectangle-24" fill="#C9EAA8"></path>
                <rect id="Rectangle-25" fill="#E8FDD3" x="42.768" y="7.392" width="231.792" height="10.032" rx="1.584"></rect>
                <g id="Group" transform="translate(116.688000, 11.088000)" fill="#C9EAA8">
                    <path d="M10.0395429,3.168 C9.45216436,3.168 8.976,2.57701587 8.976,1.848 L8.976,1.32 C8.976,0.59098413 9.45216436,0 10.0395429,0 L82.3604571,0 C82.9478356,0 83.424,0.59098413 83.424,1.32 L83.424,1.848 C83.424,2.57701587 82.9478356,3.168 82.3604571,3.168 L10.0395429,3.168 Z" id="Rectangle-26" transform="translate(46.200000, 1.584000) scale(1, -1) translate(-46.200000, -1.584000) "></path>
                    <path d="M0.0452571429,3.168 C0.020262313,3.168 -3.06098383e-18,2.57701587 0,1.848 L0,1.32 C3.06098383e-18,0.59098413 0.020262313,0 0.0452571429,0 L3.12274286,0 C3.14773769,0 3.168,0.59098413 3.168,1.32 L3.168,1.848 C3.168,2.57701587 3.14773769,3.168 3.12274286,3.168 L0.0452571429,3.168 Z" id="Rectangle-26-Copy" transform="translate(1.584000, 1.584000) scale(1, -1) translate(-1.584000, -1.584000) "></path>
                </g>
                <rect id="Rectangle-27" fill="#AAD97B" x="283.536" y="9.504" width="6.864" height="6.864" rx="1.584"></rect>
                <rect id="Rectangle-27-Copy" fill="#AAD97B" x="298.848" y="9.504" width="6.864" height="6.864" rx="1.584"></rect>
                <path d="M29.9242,11.1271333 L27.4951333,13.5562 L29.9242,13.5562 L29.9242,11.1271333 Z" id="Rectangle-8-Copy-2" stroke="#AAD97B" stroke-width="1.056" transform="translate(28.336314, 11.968314) rotate(-45.000000) translate(-28.336314, -11.968314) "></path>
                <path d="M16.3757714,11.3067048 L13.9467048,13.7357714 L16.3757714,13.7357714 L16.3757714,11.3067048 Z" id="Rectangle-8-Copy-3" stroke="#AAD97B" stroke-width="1.056" transform="translate(14.787886, 12.147886) scale(-1, 1) rotate(-45.000000) translate(-14.787886, -12.147886) "></path>
                <g id="Rectangle">
                    <use fill="#FFFFFF" fill-rule="evenodd" xlink:href="#path-1"></use>
                    <path stroke="#C9EAA8" stroke-width="2.112" d="M25.872,179.52 L290.928,179.52 L290.928,37.488 C290.928,36.613181 290.218819,35.904 289.344,35.904 L27.456,35.904 C26.581181,35.904 25.872,36.613181 25.872,37.488 L25.872,179.52 Z"></path>
                </g>
                <g id="交叉表图" transform="translate(53.328000, 65.472000)">
                    <rect id="Rectangle-5" fill="#AAD97B" x="0" y="0.528" width="209.616" height="7.92"></rect>
                    <rect id="Rectangle-5-Copy" fill="#FFFFFF" x="0" y="7.92" width="209.616" height="6.336"></rect>
                    <rect id="Rectangle-5-Copy-12" fill="#FFFFFF" x="0" y="45.936" width="209.616" height="6.336"></rect>
                    <rect id="Rectangle-5-Copy-3" fill="#FFFFFF" x="0" y="20.592" width="209.616" height="6.336"></rect>
                    <rect id="Rectangle-5-Copy-14" fill="#FFFFFF" x="0" y="58.608" width="209.616" height="6.336"></rect>
                    <rect id="Rectangle-5-Copy-4" fill="#D8F5BA" x="0" y="27.456" width="209.616" height="6.336"></rect>
                    <rect id="Rectangle-5-Copy-15" fill="#D8F5BA" x="0" y="65.472" width="209.616" height="6.336"></rect>
                    <rect id="Rectangle-5-Copy-5" fill="#FFFFFF" x="0" y="33.264" width="209.616" height="6.336"></rect>
                    <rect id="Rectangle-5-Copy-6" fill="#D8F5BA" x="0" y="39.6" width="209.616" height="6.336"></rect>
                    <rect id="Rectangle-5-Copy-2" fill="#D8F5BA" x="0" y="14.784" width="209.616" height="6.336"></rect>
                    <rect id="Rectangle-5-Copy-18" fill="#D8F5BA" x="0" y="52.8" width="209.616" height="6.336"></rect>
                    <polygon id="Rectangle-5" fill="#D8F5BA" points="26.4 1.056 26.4 69.168 25.872 69.168 25.872 1.056"></polygon>
                    <polygon id="Rectangle-5-Copy-9" fill="#D8F5BA" points="105.072 1.056 105.072 69.168 104.544 69.168 104.544 1.056"></polygon>
                    <rect id="Rectangle-5-Copy-7" fill="#D8F5BA" x="52.272" y="1.056" width="1" height="68.112"></rect>
                    <rect id="Rectangle-5-Copy-10" fill="#D8F5BA" x="130.944" y="1.056" width="1" height="68.112"></rect>
                    <polygon id="Rectangle-5-Copy-8" fill="#D8F5BA" points="78.672 1.056 78.672 69.168 78.144 69.168 78.144 1.056"></polygon>
                    <polygon id="Rectangle-5-Copy-11" fill="#D8F5BA" points="157.872 1.056 157.872 69.168 157.344 69.168 157.344 1.056"></polygon>
                    <polygon id="Rectangle-5-Copy-13" fill="#D8F5BA" points="183.744 0 183.744 68.112 183.216 68.112 183.216 0"></polygon>
                </g>
                <g id="更新" transform="translate(124.608000, 148.368000)">
                    <rect id="Rectangle-2" fill="#7ED321" x="0" y="0" width="67.056" height="20.064" rx="2.112"></rect>
                    <g id="Group-5" transform="translate(11.088000, 3.696000)" fill="#FFFFFF">
                        <text id="Update" font-family="PingFangSC-Medium, PingFang SC" font-size="9.504" font-weight="400">
                            <tspan x="11.741664" y="10">Update</tspan>
                        </text>
                        <polygon id="Shape" fill-rule="nonzero" points="4.488 3.168 0 7.75277134 2.85603326 7.75277134 2.85603326 11.088 6.12033257 11.088 6.12033257 7.75277134 8.976 7.75277134 4.488 3.168"></polygon>
                    </g>
                </g>
                <g id="Group-3" transform="translate(137.280000, 45.408000)" fill="#50A135">
                    <text id="Excle" font-family="PingFangSC-Medium, PingFang SC" font-size="10.56" font-weight="400">
                        <tspan x="14.82096" y="11">Excle</tspan>
                    </text>
                    <g id="excel" transform="translate(0.000000, 1.056000)" fill-rule="nonzero">
                        <polygon id="Shape" points="8.92827661 0 2.112 0 2.112 3.18508192 2.82897656 3.18508192 2.82897656 0.586360014 8.50052956 0.586360014 8.50052956 3.09272932 11.0270133 3.09272932 11.0270133 11.02964 2.82897656 11.02964 2.82897656 9.90484369 2.82897656 7.50567321 2.112 7.50567321 2.112 11.616 11.616 11.616 11.616 2.56620557"></polygon>
                        <path d="M6.864,4.752 L10.032,4.752 L10.032,5.32860952 L6.864,5.32860952 L6.864,4.752 Z M6.864,6.68297143 L10.032,6.68297143 L10.032,7.25958095 L6.864,7.25958095 L6.864,6.68297143 Z M6.864,8.39939048 L10.032,8.39939048 L10.032,8.976 L6.864,8.976 L6.864,8.39939048 Z" id="Shape"></path>
                        <path d="M4.752,6.864 L0,6.864 L0,2.112 L4.752,2.112 L4.752,6.864 Z M2.99107862,5.97583529 L3.88152995,5.99105493 L2.80399469,4.43267485 L3.88152995,3.003 L3.08355233,3.00774296 L2.38627659,3.8701814 L1.68897762,3.00774296 L0.891,3.003 L1.96855848,4.43267485 L0.891,5.99105493 L1.78145133,5.97583529 L2.38627659,5.01515198 L2.99107862,5.97583529 Z" id="Combined-Shape"></path>
                    </g>
                </g>
                <g id="鼠标" transform="translate(183.216000, 156.288000)" fill-rule="nonzero">
                    <g id="Shape">
                        <use fill="#000100" fill-rule="evenodd" xlink:href="#path-2"></use>
                        <path stroke="#FFFFFF" stroke-width="0.528" d="M10.0649644,14.2781802 L10.064878,14.2783889 L5.87732506,18.4659418 C5.56802982,18.775237 5.06656316,18.775237 4.75726792,18.4659418 C4.66031317,18.368987 4.59019017,18.2485221 4.55376093,18.1163353 L-0.235402264,0.738422066 C-0.351615163,0.31673302 -0.103977816,-0.119322663 0.317711231,-0.235535562 C0.455448061,-0.273494329 0.60088791,-0.273488034 0.738621454,-0.235517345 L18.1164916,4.55525247 C18.5381705,4.67150187 18.7857701,5.10757899 18.6695207,5.52925797 C18.633074,5.66146361 18.5629234,5.78194015 18.4659304,5.87889997 L14.2784945,10.0646501 C14.1753784,10.1677308 14.1753497,10.3348864 14.2783681,10.4379401 L18.9747153,15.1327598 C19.2839846,15.4419278 19.2841545,15.9432431 18.9751128,16.2526027 L17.6146738,17.6147029 L16.2528194,18.9748962 C15.9434419,19.2839558 15.4421265,19.2837858 15.1329613,18.9745193 L10.4381998,14.2783583 C10.3351572,14.175282 10.1680891,14.1752156 10.0649644,14.2781802 Z"></path>
                    </g>
                </g>
            </g>
        </g>
    </g>
</svg>