<?xml version="1.0" encoding="UTF-8"?>
<svg width="238px" height="193px" viewBox="0 0 238 193" version="1.1" xmlns="http://www.w3.org/2000/svg" xmlns:xlink="http://www.w3.org/1999/xlink">
    <!-- Generator: Sketch 48.2 (47327) - http://www.bohemiancoding.com/sketch -->
    <title>Artboard 7 Copy 18@3x</title>
    <desc>Created with Sketch.</desc>
    <defs>
        <rect id="path-1" x="14.7760532" y="0" width="98.6829268" height="179.252055" rx="12.144"></rect>
        <rect id="path-2" x="21.1086475" y="20.6219178" width="86.0177384" height="135.893151" rx="1.056"></rect>
        <rect id="path-3" x="0" y="0" width="92.8780488" height="149.641096" rx="2.64"></rect>
    </defs>
    <g id="切图" stroke="none" stroke-width="1" fill="none" fill-rule="evenodd">
        <g id="Artboard-7-Copy-18">
            <g id="Group-7-Copy-2">
                <ellipse id="Oval-18-Copy-3" fill="#96D0FF" opacity="0.437386775" cx="69.1308204" cy="123.731507" rx="69.1308204" ry="69.2684932"></ellipse>
                <ellipse id="Oval-6-Copy-2" fill="#96D0FF" cx="9.23503326" cy="58.4287671" rx="3.9578714" ry="3.96575342"></ellipse>
                <g id="Group-Copy-6" transform="translate(211.614191, 133.778082)" fill="#96D0FF">
                    <rect id="Rectangle-4" x="10.3876765" y="14.452968" width="2.44415918" height="7.22648402"></rect>
                    <rect id="Rectangle-4-Copy" x="10.3876765" y="0" width="2.44415918" height="7.22648402"></rect>
                    <polygon id="Rectangle-4-Copy-2" points="23.2195122 9.63531202 23.2195122 12.04414 15.8870347 12.04414 15.8870347 9.63531202"></polygon>
                    <polygon id="Rectangle-4-Copy-3" points="7.33247754 9.63531202 7.33247754 12.04414 -7.10542736e-15 12.04414 -7.10542736e-15 9.63531202"></polygon>
                </g>
                <ellipse id="Oval-6-Copy-3" fill="#96D0FF" cx="234.042129" cy="127.69726" rx="3.9578714" ry="3.96575342"></ellipse>
                <g id="Group-3" transform="translate(89.184035, 0.000000)">
                    <g id="Rectangle-17">
                        <use fill="#96D0FF" fill-rule="evenodd" xlink:href="#path-1"></use>
                        <rect stroke="#5396F7" stroke-width="2.112" x="15.8320532" y="1.056" width="96.5709268" height="177.140055" rx="12.144"></rect>
                    </g>
                    <g id="Rectangle">
                        <use fill="#FFFFFF" fill-rule="evenodd" xlink:href="#path-2"></use>
                        <rect stroke="#96D0FF" stroke-width="2.112" x="22.1646475" y="21.6779178" width="83.9057384" height="133.781151" rx="1.056"></rect>
                    </g>
                    <rect id="Rectangle-18" fill="#FFFFFF" x="52.7716186" y="10.5753425" width="26.3858093" height="2.64383562" rx="1.32191781"></rect>
                    <rect id="Rectangle-4" fill="#96D0FF" x="29.0243902" y="33.3123288" width="48.5498891" height="10.5753425"></rect>
                    <rect id="Rectangle-4-Copy-2" fill="#96D0FF" x="52.7716186" y="52.3479452" width="48.5498891" height="2.64383562"></rect>
                    <rect id="Rectangle-4-Copy-3" fill="#96D0FF" x="52.7716186" y="58.6931507" width="48.5498891" height="2.64383562"></rect>
                    <rect id="Rectangle-4-Copy-4" fill="#96D0FF" x="52.7716186" y="63.9808219" width="48.5498891" height="2.64383562"></rect>
                    <rect id="Rectangle-4-Copy-5" fill="#96D0FF" x="52.7716186" y="69.2684932" width="48.5498891" height="2.64383562"></rect>
                    <rect id="Rectangle-4-Copy" fill="#96D0FF" x="29.0243902" y="52.3479452" width="20.5809313" height="20.6219178"></rect>
                    <path d="" id="Path-13" stroke="#979797" stroke-width="0.528"></path>
                </g>
                <g id="Group-2" transform="translate(20.580931, 14.805479)">
                    <g id="Group-5">
                        <g id="Group-4">
                            <g id="Rectangle-13-Copy">
                                <use fill="#FFFFFF" fill-rule="evenodd" xlink:href="#path-3"></use>
                                <rect stroke="#5396F7" stroke-width="2.112" x="1.056" y="1.056" width="90.7660488" height="147.529096" rx="2.64"></rect>
                            </g>
                        </g>
                        <rect id="Rectangle-6-Copy-3" fill="#96D0FF" x="10.088039" y="60.033006" width="70.2672234" height="3.5313533"></rect>
                        <rect id="Rectangle-6-Copy-6" fill="#96D0FF" x="10.088039" y="48.5561078" width="70.2672234" height="3.5313533"></rect>
                        <rect id="Rectangle-6-Copy-7" fill="#96D0FF" x="10.088039" y="37.0792096" width="70.2672234" height="3.5313533"></rect>
                        <rect id="Rectangle-6-Copy-8" fill="#96D0FF" x="41.3769506" y="25.6023114" width="38.9783118" height="3.5313533"></rect>
                        <rect id="Rectangle-6-Copy-9" fill="#96D0FF" x="41.3769506" y="14.1254132" width="38.9783118" height="3.5313533"></rect>
                    </g>
                    <g id="Group-4" transform="translate(8.971175, 8.989041)">
                        <ellipse id="Oval-11-Copy-3" fill="#96D0FF" cx="11.8736142" cy="11.8972603" rx="11.8736142" ry="11.8972603"></ellipse>
                        <g id="个人" transform="translate(4.397635, 3.525114)" fill="#FFFFFF">
                            <path d="M7.64937683,0 C10.5298102,0 12.8656388,2.34254555 12.8656388,5.23311754 C12.8656388,8.1228125 10.5308507,10.4651826 7.64937683,10.4651826 C4.76807638,10.4651826 2.43403977,8.1226371 2.43403977,5.23311754 C2.43403977,2.34254555 4.7690013,0 7.64937683,0 Z M7.64937683,8.96955516 C9.70709347,8.96955516 11.375303,7.29600765 11.375303,5.23206511 C11.375303,3.16742094 9.70709347,1.49475045 7.64937683,1.49475045 C5.59166019,1.49475045 3.92345064,3.16835644 3.92345064,5.23206511 C3.92345064,7.29688468 5.59166019,8.96955516 7.64937683,8.96955516 Z" id="Combined-Shape"></path>
                            <path d="M14.9519586,16.7442922 L13.4566178,16.7442922 C13.4566178,13.5085955 10.7789926,10.8844088 7.47595031,10.8844088 C4.17290801,10.8844088 1.49516686,13.5085382 1.49516686,16.7442922 L0,16.7442922 C0,12.6982532 3.34648049,9.41866438 7.47595031,9.41866438 C11.6054201,9.41866438 14.9519586,12.6982532 14.9519586,16.7442922 Z" id="Path"></path>
                        </g>
                    </g>
                    <g id="Group-4" transform="translate(56.993348, 78.786301)">
                        <ellipse id="Oval-11-Copy-3" fill="#96D0FF" cx="11.8736142" cy="11.8972603" rx="11.8736142" ry="11.8972603"></ellipse>
                        <g id="个人" transform="translate(4.397635, 3.525114)" fill="#FFFFFF">
                            <path d="M7.64937683,0 C10.5298102,0 12.8656388,2.34254555 12.8656388,5.23311754 C12.8656388,8.1228125 10.5308507,10.4651826 7.64937683,10.4651826 C4.76807638,10.4651826 2.43403977,8.1226371 2.43403977,5.23311754 C2.43403977,2.34254555 4.7690013,0 7.64937683,0 Z M7.64937683,8.96955516 C9.70709347,8.96955516 11.375303,7.29600765 11.375303,5.23206511 C11.375303,3.16742094 9.70709347,1.49475045 7.64937683,1.49475045 C5.59166019,1.49475045 3.92345064,3.16835644 3.92345064,5.23206511 C3.92345064,7.29688468 5.59166019,8.96955516 7.64937683,8.96955516 Z" id="Combined-Shape"></path>
                            <path d="M14.9519586,16.7442922 L13.4566178,16.7442922 C13.4566178,13.5085955 10.7789926,10.8844088 7.47595031,10.8844088 C4.17290801,10.8844088 1.49516686,13.5085382 1.49516686,16.7442922 L0,16.7442922 C0,12.6982532 3.34648049,9.41866438 7.47595031,9.41866438 C11.6054201,9.41866438 14.9519586,12.6982532 14.9519586,16.7442922 Z" id="Path"></path>
                        </g>
                    </g>
                    <g id="Group" transform="translate(46.212860, 110.660274) scale(-1, 1) translate(-46.212860, -110.660274) translate(12.212860, 85.660274)" fill="#96D0FF">
                        <rect id="Rectangle-6-Copy-3" transform="translate(33.939046, 47.419080) scale(-1, 1) translate(-33.939046, -47.419080) " x="0" y="45.662818" width="67.8780929" height="3.51252446"></rect>
                        <rect id="Rectangle-6-Copy-6" transform="translate(33.939046, 36.003376) scale(-1, 1) translate(-33.939046, -36.003376) " x="0" y="34.2471135" width="67.8780929" height="3.51252446"></rect>
                        <rect id="Rectangle-6-Copy-7" transform="translate(33.939046, 24.587671) scale(-1, 1) translate(-33.939046, -24.587671) " x="0" y="22.831409" width="67.8780929" height="3.51252446"></rect>
                        <rect id="Rectangle-6-Copy-8" transform="translate(48.432516, 13.171967) scale(-1, 1) translate(-48.432516, -13.171967) " x="28.9869394" y="11.4157045" width="38.8911535" height="3.51252446"></rect>
                        <rect id="Rectangle-6-Copy-9" transform="translate(48.432516, 1.756262) scale(-1, 1) translate(-48.432516, -1.756262) " x="28.9869394" y="0" width="38.8911535" height="3.51252446"></rect>
                    </g>
                </g>
                <g id="Group-6" transform="translate(120.319290, 83.016438)" fill="#96D0FF">
                    <rect id="Rectangle-4-Copy" x="0" y="22.7369863" width="4.22172949" height="39.1287671"></rect>
                    <rect id="Rectangle-4-Copy-4" x="12.6651885" y="20.6219178" width="4.22172949" height="41.2438356"></rect>
                    <rect id="Rectangle-4-Copy-5" x="24.8026608" y="5.81643836" width="4.22172949" height="56.0493151"></rect>
                    <rect id="Rectangle-4-Copy-6" x="36.940133" y="22.7369863" width="4.22172949" height="39.1287671"></rect>
                    <rect id="Rectangle-4-Copy-7" x="49.0776053" y="19.5643836" width="4.22172949" height="42.3013699"></rect>
                    <rect id="Rectangle-4-Copy-8" x="61.7427938" y="0" width="4.22172949" height="61.8657534"></rect>
                </g>
            </g>
        </g>
    </g>
</svg>