<?xml version="1.0" encoding="UTF-8"?>
<svg width="598px" height="341px" viewBox="0 0 598 341" version="1.1" xmlns="http://www.w3.org/2000/svg" xmlns:xlink="http://www.w3.org/1999/xlink" style="background: #FDFDFD;">
    <!-- Generator: Sketch 48.2 (47327) - http://www.bohemiancoding.com/sketch -->
    <title>12强大的数据分析功能</title>
    <desc>Created with Sketch.</desc>
    <defs>
        <rect id="path-1" x="47" y="66" width="361" height="209" rx="5"></rect>
        <linearGradient x1="100%" y1="39.4088699%" x2="2.92488728%" y2="66.5842009%" id="linearGradient-2">
            <stop stop-color="#02A9ED" offset="0%"></stop>
            <stop stop-color="#3CCFD2" offset="100%"></stop>
        </linearGradient>
        <linearGradient x1="100%" y1="47.1524533%" x2="2.92488728%" y2="54.4588525%" id="linearGradient-3">
            <stop stop-color="#02A9ED" offset="0%"></stop>
            <stop stop-color="#3CCFD2" offset="100%"></stop>
        </linearGradient>
        <linearGradient x1="51.6633045%" y1="22.1433924%" x2="48.4339951%" y2="93.6194792%" id="linearGradient-4">
            <stop stop-color="#02A9ED" offset="0%"></stop>
            <stop stop-color="#3CCFD2" offset="100%"></stop>
        </linearGradient>
        <linearGradient x1="100%" y1="42.1364945%" x2="2.92488728%" y2="62.3131294%" id="linearGradient-5">
            <stop stop-color="#02A9ED" offset="0%"></stop>
            <stop stop-color="#3CCFD2" offset="100%"></stop>
        </linearGradient>
        <linearGradient x1="100%" y1="22.2820577%" x2="2.92488728%" y2="93.4023492%" id="linearGradient-6">
            <stop stop-color="#02A9ED" offset="0%"></stop>
            <stop stop-color="#3CCFD2" offset="100%"></stop>
        </linearGradient>
        <linearGradient x1="100%" y1="23.4357898%" x2="2.92488728%" y2="91.595769%" id="linearGradient-7">
            <stop stop-color="#02A9ED" offset="0%"></stop>
            <stop stop-color="#3CCFD2" offset="100%"></stop>
        </linearGradient>
        <rect id="path-8" x="385" y="228" width="165" height="90" rx="5"></rect>
    </defs>
    <g id="Page-1" stroke="none" stroke-width="1" fill="none" fill-rule="evenodd">
        <g id="12强大的数据分析功能">
            <g id="Group-4">
                <g id="Group-2">
                    <rect id="Rectangle-24" fill="#5396F7" x="0" y="0" width="598" height="341" rx="3"></rect>
                    <rect id="Rectangle-7-Copy" stroke="#C3E4FF" stroke-width="4" stroke-linecap="round" stroke-linejoin="round" stroke-dasharray="10" x="100" y="102" width="399" height="199"></rect>
                    <g id="Rectangle">
                        <use fill="#FFFFFF" fill-rule="evenodd" xlink:href="#path-1"></use>
                        <rect stroke="#96D0FF" stroke-width="4" x="49" y="68" width="357" height="205" rx="5"></rect>
                    </g>
                    <path d="M3,0 L595,0 C596.656854,-3.04359188e-16 598,1.34314575 598,3 L598,40 L0,40 L0,3 C-2.02906125e-16,1.34314575 1.34314575,3.04359188e-16 3,0 Z" id="Rectangle-24" fill="#96D0FF"></path>
                    <rect id="Rectangle-25" fill="#C3E4FF" x="81" y="14" width="439" height="19" rx="3"></rect>
                    <g id="Group" transform="translate(221.000000, 21.000000)" fill="#96D0FF">
                        <path d="M19.0142857,6 C17.9018264,6 17,4.88071187 17,3.5 L17,2.5 C17,1.11928813 17.9018264,0 19.0142857,0 L155.985714,0 C157.098174,0 158,1.11928813 158,2.5 L158,3.5 C158,4.88071187 157.098174,6 155.985714,6 L19.0142857,6 Z" id="Rectangle-26" transform="translate(87.500000, 3.000000) scale(1, -1) translate(-87.500000, -3.000000) "></path>
                        <path d="M0.0857142857,6 C0.0383755929,6 -5.79731787e-18,4.88071187 0,3.5 L0,2.5 C5.79731787e-18,1.11928813 0.0383755929,0 0.0857142857,0 L5.91428571,0 C5.96162441,0 6,1.11928813 6,2.5 L6,3.5 C6,4.88071187 5.96162441,6 5.91428571,6 L0.0857142857,6 Z" id="Rectangle-26-Copy" transform="translate(3.000000, 3.000000) scale(1, -1) translate(-3.000000, -3.000000) "></path>
                    </g>
                    <rect id="Rectangle-27" fill="#5396F7" x="537" y="18" width="13" height="13" rx="3"></rect>
                    <rect id="Rectangle-27-Copy" fill="#5396F7" x="566" y="18" width="13" height="13" rx="3"></rect>
                </g>
                <path d="M56.6746212,21.0741161 L52.0741161,25.6746212 L56.6746212,25.6746212 L56.6746212,21.0741161 Z" id="Rectangle-8-Copy-2" stroke="#5396F7" stroke-width="2" transform="translate(53.667262, 22.667262) rotate(-45.000000) translate(-53.667262, -22.667262) "></path>
                <path d="M31.0147186,21.4142136 L26.4142136,26.0147186 L31.0147186,26.0147186 L31.0147186,21.4142136 Z" id="Rectangle-8-Copy-3" stroke="#5396F7" stroke-width="2" transform="translate(28.007359, 23.007359) scale(-1, 1) rotate(-45.000000) translate(-28.007359, -23.007359) "></path>
                <g id="pc端正常的副本" transform="translate(147.000000, 85.000000)">
                    <path d="M37.1965156,23.961694 L28.6749193,23.961694 C28.2245055,23.961694 27.8593729,23.5965615 27.8593729,23.1461477 L27.8593729,6.88117235 C27.8593729,6.43075853 28.2245055,6.065626 28.6749193,6.065626 L37.1965156,6.065626 L37.1965156,8.45012957 L30.4653744,8.45012957 L30.4653744,13.7968257 L37.1965156,13.7968257 L37.1965156,16.1321643 L30.4653744,16.1321643 L30.4653744,21.4911517 L37.1965156,21.4911517 L37.1965156,23.961694 Z M40.2594936,23.961694 L40.2594936,6.065626 L42.6802343,6.065626 L42.6802343,23.961694 L40.2594936,23.961694 Z M56.1672181,15.9109217 C55.8625656,14.7965089 55.3356069,13.9340811 54.5863263,13.3236124 C53.8370456,12.7131436 52.9395691,12.4079138 51.8938698,12.4079138 C50.8234689,12.4079138 49.8951159,12.7213377 49.1087829,13.3481949 C48.32245,13.9750521 47.7810822,14.8292858 47.4846635,15.9109217 L56.1672181,15.9109217 Z M47.4105592,18.0987652 C47.6164055,19.2295663 48.1289552,20.1452557 48.9482236,20.8458608 C49.767492,21.5464658 50.7411305,21.8967631 51.8691683,21.8967631 C52.6760859,21.8967631 53.4109463,21.704202 54.0737715,21.3190741 C54.7365966,20.9339462 55.2656138,20.3890393 55.6608387,19.6843371 L58.4150488,19.6843371 C57.789276,21.1838778 56.9144422,22.3310502 55.7905212,23.1258887 C54.6666003,23.9207272 53.3594957,24.3181404 51.8691683,24.3181404 C50.8646383,24.3181404 49.9465774,24.1419675 49.1149583,23.7896165 C48.2833391,23.4372654 47.5299529,22.9087467 46.8547769,22.2040445 C46.2207702,21.5403134 45.724688,20.7680205 45.3665154,19.8871428 C45.0083428,19.0062651 44.8292592,18.1069639 44.8292592,17.1892122 C44.8292592,16.2386837 44.9918754,15.3496251 45.3171126,14.5220098 C45.6423497,13.6943945 46.1219645,12.9405383 46.7559712,12.2604188 C47.4311471,11.5229398 48.1927671,10.9677903 49.040854,10.5949537 C49.8889408,10.222117 50.8152354,10.0357015 51.8197655,10.0357015 C53.0136742,10.0357015 54.1231692,10.312252 55.1482839,10.8653613 C56.1733986,11.4184705 57.0194143,12.1907634 57.6863564,13.1822629 C58.0815814,13.7968288 58.3738788,14.4707926 58.5632574,15.2041745 C58.752636,15.9375564 58.8473239,16.7754019 58.8473239,17.7177362 L58.8473239,18.0987652 L47.4105592,18.0987652 Z M63.2688809,17.1154647 C63.2688809,18.4511212 63.7196776,19.5900994 64.6212845,20.5324337 C65.5228914,21.474768 66.5994515,21.9459281 67.8509972,21.9459281 C69.1272444,21.9459281 70.2223304,21.4932047 71.1362881,20.5877444 C72.0502458,19.682284 72.5072178,18.5822277 72.5072178,17.2875423 C72.5072178,15.919109 72.0543627,14.7719366 71.1486388,13.8459907 C70.242915,12.9200449 69.1354784,12.4570789 67.8262957,12.4570789 C66.6241532,12.4570789 65.5640605,12.9220934 64.6459859,13.8521364 C63.7279113,14.7821794 63.2688809,15.8699446 63.2688809,17.1154647 Z M63.3429852,22.3269571 L63.3429852,28.337381 L60.8975431,28.337381 L60.8975431,11.2568593 C60.8975431,10.8064455 61.2626756,10.441313 61.7130894,10.441313 L62.5521403,10.441313 C63.0025541,10.441313 63.3676866,10.8064455 63.3676866,11.2568593 L63.3676866,12.1006325 C63.9934595,11.461484 64.691268,10.9759842 65.4611333,10.6441187 C66.2309985,10.3122531 67.0523131,10.1463228 67.9251015,10.1463228 C69.9753309,10.1463228 71.675596,10.8223351 73.0259479,12.17438 C74.3762998,13.5264249 75.0514657,15.2226012 75.0514657,17.2629598 C75.0514657,18.2052941 74.8826742,19.1025468 74.5450862,19.9547447 C74.2074983,20.8069427 73.7217082,21.5648959 73.0877015,22.228627 C72.4042917,22.9415234 71.6570808,23.4679936 70.8460463,23.8080533 C70.0350117,24.1481131 69.1107756,24.3181404 68.0733101,24.3181404 C67.1511186,24.3181404 66.2968691,24.1522102 65.5105362,23.8203446 C64.7242032,23.488479 64.0016934,22.9906882 63.3429852,22.3269571 Z M79.7076863,23.961694 L77.2622442,23.961694 L77.2622442,6.88117235 C77.2622442,6.43075853 77.6273767,6.065626 78.0777905,6.065626 L78.8921399,6.065626 C79.3425537,6.065626 79.7076863,6.43075853 79.7076863,6.88117235 L79.7076863,11.9777199 C80.1029112,11.3959309 80.6154609,10.9575472 81.2453506,10.6625556 C81.8752404,10.367564 82.6101008,10.2200704 83.4499538,10.2200704 C85.0967244,10.2200704 86.3770693,10.744492 87.291027,11.7933511 C88.2049847,12.8422101 88.6619567,14.313049 88.6619567,16.2059118 L88.6619567,23.961694 L86.2165146,23.961694 L86.2165146,16.9925522 C86.2165146,15.4930115 85.9612689,14.3786155 85.4507701,13.6493307 C84.9402712,12.9200458 84.1580669,12.5554089 83.1041337,12.5554089 C82.4618931,12.5554089 81.8937658,12.7029025 81.3997346,12.9978941 C80.9057034,13.2928857 80.5104844,13.7189783 80.2140657,14.2761847 C80.0329209,14.6121473 79.9032397,15.0218518 79.8250181,15.5053102 C79.7467965,15.9887687 79.7076863,16.759013 79.7076863,17.8160663 L79.7076863,23.961694 Z M93.3922816,17.1154647 C93.3922816,18.483898 93.8471952,19.6310704 94.7570359,20.5570163 C95.6668767,21.4829621 96.7804886,21.9459281 98.0979051,21.9459281 C99.3000476,21.9459281 100.36014,21.4809136 101.278215,20.5508706 C102.19629,19.6208276 102.65532,18.5330624 102.65532,17.2875423 C102.65532,15.9600801 102.200406,14.8231503 101.290566,13.8767189 C100.380725,12.9302875 99.3000479,12.4570789 98.0485022,12.4570789 C96.7640211,12.4570789 95.6668767,12.9077537 94.7570359,13.809117 C93.8471952,14.7104802 93.3922816,15.8125851 93.3922816,17.1154647 Z M102.531813,23.961694 L102.531813,22.3023745 C101.90604,22.9497172 101.208231,23.439314 100.438366,23.7711796 C99.6685009,24.1030451 98.8471863,24.2689754 97.9743979,24.2689754 C95.9324024,24.2689754 94.2362541,23.5909146 92.8859022,22.2347726 C91.5355503,20.8786307 90.8603845,19.1804058 90.8603845,17.1400472 C90.8603845,16.1895187 91.0291759,15.288169 91.3667639,14.435971 C91.7043519,13.583773 92.186025,12.8340139 92.8117979,12.1866712 C93.4952077,11.4737749 94.2424186,10.9473047 95.0534531,10.6072449 C95.8644877,10.2671851 96.7887238,10.0971578 97.8261893,10.0971578 C98.7566147,10.0971578 99.6129226,10.2610396 100.395139,10.588808 C101.177355,10.9165765 101.889572,11.4123188 102.531813,12.0760499 L102.531813,11.2568593 C102.531813,10.8064455 102.896945,10.441313 103.347359,10.441313 L104.18641,10.441313 C104.636824,10.441313 105.001956,10.8064455 105.001956,11.2568593 L105.001956,23.961694 L102.531813,23.961694 Z M110.288064,23.961694 L107.842621,23.961694 L107.842621,11.2568593 C107.842621,10.8064455 108.207754,10.441313 108.658168,10.441313 L109.373711,10.441313 C109.824125,10.441313 110.189258,10.8064455 110.189258,11.2568593 L110.189258,11.9777199 C110.699757,11.3713483 111.261709,10.926819 111.875131,10.6441187 C112.488553,10.3614184 113.190478,10.2200704 113.980928,10.2200704 C115.75944,10.2200704 117.124181,10.740395 118.075191,11.7810598 C119.026201,12.8217247 119.501699,14.3130487 119.501699,16.2550768 L119.501699,23.961694 L117.043906,23.961694 L117.043906,16.7836008 C117.043906,15.3496138 116.77631,14.2864309 116.24111,13.59402 C115.705909,12.9016091 114.878419,12.5554089 113.758615,12.5554089 C112.540005,12.5554089 111.656938,12.9630648 111.109386,13.7783888 C110.561835,14.5937129 110.288064,15.9395919 110.288064,17.8160663 L110.288064,23.961694 Z M123.194564,23.961694 L123.194564,12.653739 L121.280202,12.653739 L121.280202,10.441313 L123.194564,10.441313 L123.194564,6.88117235 C123.194564,6.43075853 123.559696,6.065626 124.01011,6.065626 L124.812109,6.065626 C125.262523,6.065626 125.627655,6.43075853 125.627655,6.88117235 L125.627655,10.441313 L127.554367,10.441313 L127.554367,12.653739 L125.627655,12.653739 L125.627655,23.961694 L123.194564,23.961694 Z" id="ElephantBI-Copy-11" fill="#4A5A66" fill-rule="nonzero"></path>
                    <g id="Group-15-Copy-8" transform="translate(130.142478, 4.056494)">
                        <path d="M3.99047708,2.00913242 C5.97085154,2.00913242 7.47523361,2.42629024 8.50366841,3.26061838 C9.53210322,4.09494653 10.0463129,5.30961194 10.0463129,6.90465105 C10.0463129,7.64082294 9.87845107,8.29109836 9.54272235,8.85549681 C9.20699363,9.41989527 8.71615711,9.88613047 8.07019806,10.2542164 C8.97964041,10.5159664 9.69783411,11.0190097 10.2248007,11.7633613 C10.7517673,12.5077128 11.0152466,13.3951957 11.0152466,14.4258363 C11.0152466,15.2601645 10.8537593,16.0433578 10.5307798,16.7754399 C10.2078002,17.5075219 9.76158523,18.1148546 9.19212133,18.5974562 C8.63115689,19.0555187 7.99583169,19.3827013 7.28612668,19.5790138 C6.57642167,19.7753263 5.57562513,19.8734811 4.28370703,19.8734811 L0.815546352,19.8734811 C0.365132539,19.8734811 2.83658469e-14,19.5083486 2.83106871e-14,19.0579347 L2.84217094e-14,2.82467877 C2.83665496e-14,2.37426496 0.365132539,2.00913242 0.815546352,2.00913242 L3.99047708,2.00913242 Z M2.66456776,9.49350927 L3.51875934,9.49350927 C4.90417152,9.49350927 5.89221906,9.29106503 6.48293162,8.88617049 C7.07364417,8.48127595 7.36899602,7.81259651 7.36899602,6.88011211 C7.36899602,6.05396365 7.101267,5.44254116 6.56580095,5.0458263 C6.03033489,4.64911145 5.21014919,4.450757 4.10521923,4.450757 L2.66456776,4.450757 L2.66456776,9.49350927 Z M2.63906951,17.4563955 L4.75542476,17.4563955 C5.9963461,17.4563955 6.91002447,17.2335023 7.4964873,16.7877093 C8.08295012,16.3419163 8.37617713,15.652788 8.37617713,14.7203036 C8.37617713,13.7060223 8.07020112,12.9371432 7.45823991,12.4136432 C6.84627871,11.8901432 5.94534933,11.6283971 4.75542476,11.6283971 L2.63906951,11.6283971 L2.63906951,17.4563955 Z" id="Combined-Shape" fill="url(#linearGradient-2)" fill-rule="nonzero"></path>
                        <polygon id="Path" fill="url(#linearGradient-3)" fill-rule="nonzero" points="17.9507723 19.8734811 12.2391629 19.8734811 12.2391629 18.7038294 13.8710513 18.7038294 13.8710513 3.22715619 12.647135 3.22319127 12.647135 2.00913242 17.5428002 2.00913242 17.5428002 3.22715619 16.3188839 3.22715619 16.3188839 18.7038294 17.9507723 18.7038294"></polygon>
                        <g id="TM" transform="translate(21.000000, 0.000000)" fill="#4A5A66" font-family="LucidaGrande, Lucida Grande" font-size="5.47945205" font-weight="normal">
                            <text>
                                <tspan x="0.021957" y="5.1826484">TM</tspan>
                            </text>
                        </g>
                    </g>
                    <g id="Group" fill-rule="nonzero">
                        <path d="M18.3933856,18.4564442 L18.3933856,23.6508442 L15.6335744,23.6508442 L15.6335744,21.8366657 C16.2861354,20.7074388 17.328439,19.5723946 18.3933856,18.4564442 Z" id="Combined-Shape" fill="url(#linearGradient-5)"></path>
                        <path d="M7.26884197,21.1992688 L7.26884197,23.6508442 L4.78501185,23.6508442 L4.78501185,21.9690345 C5.29076123,21.4882045 5.96308912,21.1448177 6.82356187,21.1613834 C6.97572535,21.1643128 7.12415205,21.1769413 7.26884197,21.1992688 Z" id="Combined-Shape" fill="url(#linearGradient-6)"></path>
                        <path d="M17.5834369,2.92632645 L18.3024757,2.92632645 C18.5033622,3.98743143 18.1445579,4.57933493 17.2260629,4.70203696 C16.034086,4.82544503 15.3815591,4.31609411 15.0503888,3.74353418 C14.7192186,3.17097424 14.5312214,1.77713302 15.5707763,0.856543415 C17.5964346,-0.93730135 20.9262043,0.336844003 22.7138829,3.88888917 C24.5015614,7.44093434 21.823143,12.7584867 19.7266028,15.4126793 C17.6300626,18.0668718 13.7547378,20.969659 13.7665964,23.736555 C12.4955739,23.736555 11.5063645,23.736555 10.7989681,23.736555 C9.94157308,21.442582 8.59994581,20.2797774 6.77408631,20.2481414 C4.03529706,20.2006873 3.01195689,23.1069796 3.14078402,23.736555 C1.91342265,23.736555 0.922642341,23.736555 0.168443097,23.736555 C0.205622898,18.795665 0.7790533,15.5910984 1.8887343,14.1228551 C3.86183647,11.5122003 5.41536316,10.582646 8.26519692,10.020869 C7.48700505,11.6746242 7.30358784,15.8426246 10.0081603,17.2905519 C10.9903613,17.8163856 12.6596827,18.3147143 14.6039125,17.9143925 C17.1338293,17.3934762 18.4534242,15.7565907 18.4534242,13.675041 C18.4534242,12.2873413 17.5827182,11.2488015 15.841306,10.5594219 C17.2482757,11.2781579 17.828986,12.465969 17.5834369,14.1228551 C17.2151133,16.6081844 14.4523,17.2905519 12.792038,17.1318109 C11.131776,16.9730699 8.62402229,15.8006702 8.62402229,12.95046 C8.62402229,10.1002498 9.94706071,7.61726936 14.2002425,6.87741723 C18.4534242,6.13756511 19.1268684,6.55248912 20.1132411,5.2143677 C21.0996138,3.87624627 18.9981093,1.10659247 17.2260629,1.54584435 C15.5339879,1.90679402 15.8162492,3.59817918 16.699843,3.74353418 C17.2889056,3.84043751 17.5834369,3.56803493 17.5834369,2.92632645 Z" id="Path-19" fill="url(#linearGradient-7)"></path>
                    </g>
                </g>
                <g id="Group-3" transform="translate(81.000000, 122.000000)" fill="#96D0FF">
                    <rect id="Rectangle-3" x="0" y="45" width="11" height="89"></rect>
                    <rect id="Rectangle-3-Copy" x="23" y="72" width="11" height="63"></rect>
                    <rect id="Rectangle-3-Copy-2" x="46" y="50" width="11" height="84"></rect>
                    <rect id="Rectangle-3-Copy-3" x="68" y="72" width="11" height="63"></rect>
                    <rect id="Rectangle-3-Copy-4" x="92" y="21" width="11" height="113"></rect>
                    <rect id="Rectangle-3-Copy-5" x="115" y="45" width="11" height="89"></rect>
                    <rect id="Rectangle-3-Copy-6" x="137" y="63" width="11" height="71"></rect>
                    <rect id="Rectangle-3-Copy-7" x="160" y="77" width="11" height="57"></rect>
                    <rect id="Rectangle-3-Copy-8" x="183" y="32" width="11" height="102"></rect>
                    <rect id="Rectangle-4" x="229" y="0" width="13" height="14" rx="3"></rect>
                    <rect id="Rectangle-4-Copy-4" x="229" y="17" width="13" height="14" rx="3"></rect>
                    <rect id="Rectangle-4-Copy-8" x="229" y="33" width="13" height="14" rx="3"></rect>
                    <rect id="Rectangle-4-Copy-12" x="229" y="50" width="13" height="14" rx="3"></rect>
                    <rect id="Rectangle-4-Copy" x="246" y="0" width="13" height="14" rx="3"></rect>
                    <rect id="Rectangle-4-Copy-5" x="246" y="17" width="13" height="14" rx="3"></rect>
                    <rect id="Rectangle-4-Copy-9" x="246" y="33" width="13" height="14" rx="3"></rect>
                    <rect id="Rectangle-4-Copy-13" x="246" y="50" width="13" height="14" rx="3"></rect>
                    <rect id="Rectangle-4-Copy-2" x="263" y="0" width="13" height="14" rx="3"></rect>
                    <rect id="Rectangle-4-Copy-6" x="263" y="17" width="13" height="14" rx="3"></rect>
                    <rect id="Rectangle-4-Copy-10" x="263" y="33" width="13" height="14" rx="3"></rect>
                    <rect id="Rectangle-4-Copy-14" x="263" y="50" width="13" height="14" rx="3"></rect>
                    <rect id="Rectangle-4-Copy-3" x="280" y="0" width="13" height="14" rx="3"></rect>
                    <rect id="Rectangle-4-Copy-7" x="280" y="17" width="13" height="14" rx="3"></rect>
                    <rect id="Rectangle-4-Copy-11" x="280" y="33" width="13" height="14" rx="3"></rect>
                    <rect id="Rectangle-4-Copy-15" x="280" y="50" width="13" height="14" rx="3"></rect>
                </g>
                <g id="Rectangle-Copy">
                    <use fill="#FFFFFF" fill-rule="evenodd" xlink:href="#path-8"></use>
                    <rect stroke="#96D0FF" stroke-width="4" x="387" y="230" width="161" height="86" rx="5"></rect>
                </g>
                <path d="M490.086629,280.931759 C489.558853,280.405987 488.932118,280.143101 488.272398,280.175962 C487.612678,280.208823 487.01893,280.50457 486.557126,281.063202 C485.765462,281.983303 485.831434,283.19915 486.755042,284.217833 C487.315804,284.842188 487.876566,285.40082 488.437328,285.992313 C489.031077,286.583807 489.624825,287.208161 490.185587,287.832515 C490.416489,288.095401 490.680377,288.325426 490.977251,288.555451 C491.702943,289.179805 491.867873,289.37697 491.801901,289.639856 C491.702943,289.935603 491.505027,290.001324 490.383503,289.902742 C490.119615,289.869881 489.822741,289.83702 489.558853,289.83702 C479.168261,289.869881 468.579753,289.869881 458.354092,289.869881 L449.546828,289.869881 C447.534682,289.869881 445.522536,289.508413 443.609347,288.818337 C440.475677,287.668211 439.782971,284.875048 439.782971,282.706239 C439.749985,281.030341 440.244775,278.007153 443.741291,276.725584 C445.687466,276.002648 447.897528,275.706901 450.668352,275.706901 L466.963439,275.706901 C474.187374,275.706901 481.675197,275.706901 489.031077,275.739762 L489.097049,275.739762 C492.428635,275.739762 494.935571,274.918244 496.980704,273.176624 C500.576178,270.120575 501.928605,264.862857 500.345276,260.16377 C498.794934,255.530406 494.770641,252.737243 489.657811,252.704382 C479.926939,252.671521 470.064124,252.671521 460.498182,252.671521 L447.039892,252.671521 C446.215242,252.671521 445.456564,252.671521 444.697886,252.6058 C444.302053,252.572939 444.071151,252.507218 443.972193,252.474357 C444.005179,252.375775 444.137123,252.17861 444.433997,251.882864 C445.027746,251.258509 445.65448,250.634155 446.248228,250.042662 C446.97392,249.319726 447.699612,248.596789 448.425304,247.840992 L448.557248,247.709549 C449.150996,247.085195 449.909674,246.296537 449.876688,245.277854 C449.843702,244.686361 449.546828,244.127728 448.986066,243.634817 C447.270794,242.123223 445.687466,243.700539 444.99476,244.357754 C443.774277,245.54074 442.586781,246.756588 441.366299,247.972435 C439.848943,249.484029 438.298601,251.061345 436.715272,252.572939 C435.890622,253.394458 435.49479,254.150255 435.49479,254.971773 C435.49479,256.089038 436.253468,256.943418 436.946174,257.600633 C439.123251,259.670859 441.201369,261.90539 443.246501,264.041338 L445.027746,265.9144 C445.621494,266.538754 446.3142,267.195969 447.237808,267.22883 C447.831556,267.22883 448.425304,266.998805 448.95308,266.473033 C449.546828,265.9144 450.668352,264.435667 448.78815,262.431162 C448.227388,261.839668 447.63364,261.248175 447.039892,260.689542 C446.380172,260.032327 445.687466,259.342252 445.027746,258.652176 C444.763858,258.35643 444.433997,258.159265 444.137123,257.962101 C443.939207,257.830658 443.576361,257.600633 443.543375,257.50205 C443.543375,257.50205 443.543375,257.46919 443.576361,257.337747 C443.675319,257.107721 443.972193,257.074861 444.895802,257.140582 C445.126704,257.173443 445.357606,257.173443 445.588508,257.173443 C455.220421,257.140582 465.017265,257.140582 474.517234,257.140582 L486.293238,257.140582 C487.876566,257.140582 489.591839,257.403468 491.636971,257.994961 C493.978977,258.685037 495.265431,260.196631 495.727236,262.858351 C496.090082,265.060021 495.628278,267.031665 494.341823,268.54326 C492.890439,270.284879 490.482461,271.23784 487.579692,271.23784 C480.388743,271.270701 473.098836,271.270701 466.039831,271.270701 C459.640546,271.270701 453.043345,271.270701 446.545102,271.303562 C443.015599,271.303562 440.079845,272.420827 438.067698,274.458193 C436.055552,276.462698 435,279.387304 435,282.870543 C435.032986,289.83702 439.420125,294.207499 446.413158,294.27322 C451.361059,294.306081 456.407917,294.306081 461.289846,294.306081 L466.963439,294.306081 L466.963439,294.338942 L491.241139,294.338942 C491.900859,294.306081 492.098775,294.338942 492.164747,294.470385 C492.164747,294.503246 492.197733,294.503246 492.197733,294.536106 C492.131761,294.634689 491.900859,294.798992 491.768915,294.897575 C491.570999,295.029017 491.373083,295.193321 491.208153,295.357625 C490.647391,295.949118 490.053643,296.507751 489.492881,297.066383 C488.83316,297.723598 488.107468,298.413674 487.447748,299.13661 L487.249832,299.333775 C486.656084,299.958129 485.930392,300.713926 485.963378,301.699748 C485.996364,302.291241 486.260252,302.849874 486.821014,303.342785 C487.34879,303.835696 487.84358,304 488.33837,304 C489.393923,304 490.284545,303.145621 490.812321,302.65271 C492.032803,301.502584 493.253285,300.319597 494.440781,299.169471 C495.991124,297.657877 497.607438,296.113422 499.223752,294.601828 C500.048402,293.846031 500.444234,293.057373 500.47722,292.301576 C500.47722,291.677222 500.246318,291.085728 499.751528,290.592817 C496.419942,287.142439 492.989397,283.757783 490.086629,280.931759 Z" id="Shape" fill="#96D0FF" fill-rule="nonzero"></path>
            </g>
        </g>
    </g>
</svg>