<?xml version="1.0" encoding="UTF-8"?>
<svg width="316px" height="181px" viewBox="0 0 316 181" version="1.1" xmlns="http://www.w3.org/2000/svg" xmlns:xlink="http://www.w3.org/1999/xlink">
    <!-- Generator: Sketch 48.2 (47327) - http://www.bohemiancoding.com/sketch -->
    <title>Artboard 7 Copy 11@3x</title>
    <desc>Created with Sketch.</desc>
    <defs>
        <rect id="path-1" x="36.4615385" y="35.5630499" width="82.4347826" height="56.2639296" rx="3.168"></rect>
        <rect id="path-2" x="142.147157" y="52.5483871" width="161.170569" height="95.0117302" rx="2.64"></rect>
        <rect id="path-3" x="25.8929766" y="110.404692" width="100.929766" height="56.2639296" rx="2.64"></rect>
    </defs>
    <g id="切图" stroke="none" stroke-width="1" fill="none" fill-rule="evenodd">
        <g id="Artboard-7-Copy-11">
            <g id="Group-3-Copy-9">
                <g id="Group-2">
                    <rect id="Rectangle-24" fill="#3AD2D2" x="0" y="0" width="316" height="181" rx="1.584"></rect>
                    <path d="M1.584,0 L314.416,0 C315.290819,3.09191142e-14 316,0.709180956 316,1.584 L316,21.2316716 L0,21.2316716 L0,1.584 C-1.07134434e-16,0.709180956 0.709180956,-5.05432164e-16 1.584,-6.66133815e-16 Z" id="Rectangle-24" fill="#9FE9E9"></path>
                    <rect id="Rectangle-25" fill="#D5FDFD" x="42.8026756" y="7.43108504" width="231.979933" height="10.085044" rx="1.584"></rect>
                    <g id="Group" transform="translate(116.782609, 11.146628)" fill="#9FE9E9">
                        <path d="M10.0476828,3.18475073 C9.45982801,3.18475073 8.98327759,2.59064179 8.98327759,1.85777126 L8.98327759,1.32697947 C8.98327759,0.594108946 9.45982801,0 10.0476828,0 L82.4272336,0 C83.0150884,0 83.4916388,0.594108946 83.4916388,1.32697947 L83.4916388,1.85777126 C83.4916388,2.59064179 83.0150884,3.18475073 82.4272336,3.18475073 L10.0476828,3.18475073 Z" id="Rectangle-26" transform="translate(46.237458, 1.592375) scale(1, -1) translate(-46.237458, -1.592375) "></path>
                        <path d="M0.0452938366,3.18475073 C0.0202787414,3.18475073 -3.06346563e-18,2.59064179 0,1.85777126 L0,1.32697947 C3.06346563e-18,0.594108946 0.0202787414,0 0.0452938366,0 L3.12527473,0 C3.15028982,0 3.17056856,0.594108946 3.17056856,1.32697947 L3.17056856,1.85777126 C3.17056856,2.59064179 3.15028982,3.18475073 3.12527473,3.18475073 L0.0452938366,3.18475073 Z" id="Rectangle-26-Copy" transform="translate(1.585284, 1.592375) scale(1, -1) translate(-1.585284, -1.592375) "></path>
                    </g>
                    <rect id="Rectangle-27" fill="#4EC7C7" x="283.765886" y="9.5542522" width="6.86956522" height="6.90029326" rx="1.584"></rect>
                    <rect id="Rectangle-27-Copy" fill="#4EC7C7" x="299.090301" y="9.5542522" width="6.86956522" height="6.90029326" rx="1.584"></rect>
                </g>
                <path d="M29.9488901,11.1832615 L27.5123804,13.6306699 L29.9488901,13.6306699 L29.9488901,11.1832615 Z" id="Rectangle-8-Copy-2" stroke="#4EC7C7" stroke-width="1.056" transform="translate(28.359289, 12.031596) rotate(-45.000000) translate(-28.359289, -12.031596) "></path>
                <path d="M16.3894767,11.3637824 L13.952967,13.8111908 L16.3894767,13.8111908 L16.3894767,11.3637824 Z" id="Rectangle-8-Copy-3" stroke="#4EC7C7" stroke-width="1.056" transform="translate(14.799875, 12.212117) scale(-1, 1) rotate(-45.000000) translate(-14.799875, -12.212117) "></path>
                <rect id="Rectangle-7-Copy" stroke="#BAF6F6" stroke-width="2.112" stroke-linecap="round" stroke-linejoin="round" stroke-dasharray="5.279999923706055" x="52.8428094" y="47.2404692" width="210.842809" height="105.627566"></rect>
                <g id="Rectangle">
                    <use fill="#FFFFFF" fill-rule="evenodd" xlink:href="#path-1"></use>
                    <rect stroke="#9FE9E9" stroke-width="2.112" x="37.5175385" y="36.6190499" width="80.3227826" height="54.1519296" rx="3.168"></rect>
                </g>
                <g id="Rectangle-Copy">
                    <use fill="#FFFFFF" fill-rule="evenodd" xlink:href="#path-2"></use>
                    <rect stroke="#9FE9E9" stroke-width="2.112" x="143.203157" y="53.6043871" width="159.058569" height="92.8997302" rx="2.64"></rect>
                </g>
                <ellipse id="Oval-6-Copy-2" fill="#9FE9E9" cx="278.481605" cy="43.5249267" rx="6.34113712" ry="6.36950147"></ellipse>
                <g id="Group-Copy-6" transform="translate(7.926421, 58.387097)" fill="#9FE9E9">
                    <rect id="Rectangle-4" x="8.98327759" y="12.7390029" width="2.11371237" height="6.36950147"></rect>
                    <rect id="Rectangle-4-Copy" x="8.98327759" y="0" width="2.11371237" height="6.36950147"></rect>
                    <polygon id="Rectangle-4-Copy-2" points="20.0802676 8.49266862 20.0802676 10.6158358 13.7391304 10.6158358 13.7391304 8.49266862"></polygon>
                    <polygon id="Rectangle-4-Copy-3" points="6.34113712 8.49266862 6.34113712 10.6158358 -7.10542736e-15 10.6158358 -7.10542736e-15 8.49266862"></polygon>
                </g>
                <ellipse id="Oval-6-Copy-3" fill="#9FE9E9" cx="27.7424749" cy="53.3445748" rx="3.43478261" ry="3.45014663"></ellipse>
                <g id="交叉表图" transform="translate(158.528428, 71.126100)">
                    <rect id="Rectangle-5" fill="#3AD2D2" x="0" y="0" width="128.936455" height="7.96187683"></rect>
                    <rect id="Rectangle-5-Copy" fill="#FFFFFF" x="0" y="7.43108504" width="128.936455" height="6.36950147"></rect>
                    <rect id="Rectangle-5-Copy-3" fill="#FFFFFF" x="0" y="20.170088" width="128.936455" height="6.36950147"></rect>
                    <rect id="Rectangle-5-Copy-4" fill="#B4F1F1" x="0" y="27.0703812" width="128.936455" height="6.36950147"></rect>
                    <rect id="Rectangle-5-Copy-5" fill="#FFFFFF" x="0" y="32.9090909" width="128.936455" height="6.36950147"></rect>
                    <rect id="Rectangle-5-Copy-10" fill="#FFFFFF" x="0" y="45.6480938" width="128.936455" height="6.36950147"></rect>
                    <rect id="Rectangle-5-Copy-6" fill="#B4F1F1" x="0" y="39.2785924" width="128.936455" height="6.36950147"></rect>
                    <rect id="Rectangle-5-Copy-11" fill="#B4F1F1" x="0" y="52.0175953" width="128.936455" height="6.36950147"></rect>
                    <rect id="Rectangle-5-Copy-2" fill="#B4F1F1" x="0" y="14.3313783" width="128.936455" height="6.36950147"></rect>
                    <polygon id="Rectangle-5" fill="#B4F1F1" points="26.4214047 0.530791789 26.4214047 55.7331378 25.8929766 55.7331378 25.8929766 0.530791789"></polygon>
                    <polygon id="Rectangle-5-Copy-9" fill="#B4F1F1" points="105.157191 0.530791789 105.157191 55.7331378 104.628763 55.7331378 104.628763 0.530791789"></polygon>
                    <rect id="Rectangle-5-Copy-7" fill="#B4F1F1" x="52.3143813" y="0.530791789" width="1" height="55.202346"></rect>
                    <polygon id="Rectangle-5-Copy-8" fill="#B4F1F1" points="78.735786 0.530791789 78.735786 55.7331378 78.2073579 55.7331378 78.2073579 0.530791789"></polygon>
                </g>
                <g id="折线图图" transform="translate(47.558528, 46.178886)" stroke-width="1.584">
                    <polyline id="Path-8" stroke="#B4F1F1" points="0.528428094 16.8259256 20.3695071 31.8475073 36.0311846 10.7759106 53.2610833 4.24633431 60.2408027 10.7759106"></polyline>
                    <ellipse id="Oval-2-Copy-4" stroke="#B4F1F1" fill="#FFFFFF" cx="20.0802676" cy="30.7859238" rx="2.11371237" ry="2.12316716"></ellipse>
                    <ellipse id="Oval-2-Copy-5" stroke="#B4F1F1" fill="#FFFFFF" cx="36.4615385" cy="10.6158358" rx="2.11371237" ry="2.12316716"></ellipse>
                    <ellipse id="Oval-2-Copy-6" stroke="#B4F1F1" fill="#FFFFFF" cx="53.3712375" cy="4.24633431" rx="2.11371237" ry="2.12316716"></ellipse>
                    <polyline id="Path-6" stroke="#3AD2D2" points="0 35.5630499 19.9647762 16.1536407 36.0514255 25.8583453 53.077192 16.1536407 59.7123746 0"></polyline>
                    <ellipse id="Oval-2-Copy" stroke="#3AD2D2" fill="#FFFFFF" cx="35.4046823" cy="24.9472141" rx="2.11371237" ry="2.12316716"></ellipse>
                    <ellipse id="Oval-2-Copy-3" stroke="#3AD2D2" fill="#FFFFFF" cx="52.8428094" cy="15.9237537" rx="2.11371237" ry="2.12316716"></ellipse>
                    <ellipse id="Oval-2-Copy-2" stroke="#3AD2D2" fill="#FFFFFF" cx="19.5518395" cy="16.9853372" rx="2.11371237" ry="2.12316716"></ellipse>
                </g>
                <g id="Rectangle-Copy">
                    <use fill="#FFFFFF" fill-rule="evenodd" xlink:href="#path-3"></use>
                    <rect stroke="#9FE9E9" stroke-width="2.112" x="26.9489766" y="111.460692" width="98.8177659" height="54.1519296" rx="2.64"></rect>
                </g>
                <g id="百分比柱状图图" transform="translate(76.168896, 138.866569) scale(-1, 1) translate(-76.168896, -138.866569) translate(37.668896, 118.366569)" stroke="#FFFFFF" stroke-width="1.056">
                    <rect id="Rectangle-6" fill="#B4F1F1" x="69.7525084" y="0" width="6.86956522" height="40.340176" rx="3.43478261"></rect>
                    <rect id="Rectangle-6-Copy" fill="#B4F1F1" x="56.0133779" y="0" width="6.86956522" height="40.340176" rx="3.43478261"></rect>
                    <rect id="Rectangle-6" fill="#B4F1F1" x="0" y="0" width="6.86956522" height="40.340176" rx="3.43478261"></rect>
                    <rect id="Rectangle-6-Copy" fill="#B4F1F1" x="28.006689" y="0" width="6.86956522" height="40.340176" rx="3.43478261"></rect>
                    <rect id="Rectangle-6-Copy-4" fill="#B4F1F1" x="13.7391304" y="0" width="6.86956522" height="40.340176" rx="3.43478261"></rect>
                    <rect id="Rectangle-6-Copy-5" fill="#B4F1F1" x="41.7458194" y="0" width="6.86956522" height="40.340176" rx="3.43478261"></rect>
                    <rect id="Rectangle-6-Copy-2" fill="#3AD2D2" x="56.0133779" y="18.5777126" width="6.86956522" height="21.7624633" rx="3.43478261"></rect>
                    <rect id="Rectangle-6-Copy-3" fill="#3AD2D2" x="69.7525084" y="24.4164223" width="6.86956522" height="15.9237537" rx="3.43478261"></rect>
                    <rect id="Rectangle-6-Copy-5" fill="#3AD2D2" x="41.7458194" y="12.7390029" width="6.86956522" height="27.601173" rx="3.43478261"></rect>
                    <rect id="Rectangle-6-Copy-2" fill="#3AD2D2" x="28.006689" y="7.43108504" width="6.86956522" height="32.9090909" rx="3.43478261"></rect>
                    <rect id="Rectangle-6-Copy-6" fill="#3AD2D2" x="13.7391304" y="12.7390029" width="6.86956522" height="27.601173" rx="3.43478261"></rect>
                    <rect id="Rectangle-6-Copy-3" fill="#3AD2D2" x="0" y="18.5777126" width="6.86956522" height="21.7624633" rx="3.43478261"></rect>
                </g>
            </g>
        </g>
    </g>
</svg>