<?xml version="1.0" encoding="UTF-8"?>
<svg width="375px" height="523px" viewBox="0 0 375 523" version="1.1" xmlns="http://www.w3.org/2000/svg" xmlns:xlink="http://www.w3.org/1999/xlink">
    <!-- Generator: Sketch 48.2 (47327) - http://www.bohemiancoding.com/sketch -->
    <title>行业解决方案底</title>
    <desc>Created with Sketch.</desc>
    <defs></defs>
    <g id="切图" stroke="none" stroke-width="1" fill="none" fill-rule="evenodd">
        <g id="行业解决方案底">
            <g id="行业解决方案底-copy" transform="translate(-41.000000, 0.000000)">
                <g id="Group-21-Copy">
                    <rect id="Rectangle-9" fill="#FFFFFF" x="41" y="0" width="375" height="523"></rect>
                    <polygon id="Rectangle-9-Copy-4" fill="#F8F9FD" points="41 303.212428 416 230 416 523 41 523"></polygon>
                    <polygon id="Rectangle-35-Copy-3" fill="#E9EDFB" points="253 158.972222 456 110 456 143.027778 253 192"></polygon>
                    <polygon id="Rectangle-35-Copy-4" fill="#58A5FF" points="309 129.169811 423 102 423 134.830189 309 162"></polygon>
                    <path d="M354.5,197.728793 L354.5,229.367825 L422.5,213.271207 L422.5,181.632175 L354.5,197.728793 Z" id="Rectangle-35-Copy-5" stroke="#E8E8E8"></path>
                    <polygon id="Rectangle-35-Copy-8" fill="#6DD69C" points="366 55.3333333 435 39 435 71.6666667 366 88"></polygon>
                    <path d="M110.5,468.728793 L110.5,500.367825 L178.5,484.271207 L178.5,452.632175 L110.5,468.728793 Z" id="Rectangle-35-Copy-6" stroke="#E8E8E8"></path>
                    <path d="M325.513044,477.619015 L326.539675,509.115651 L468.572584,475.373229 L468.572584,443.6327 L325.513044,477.619015 Z" id="Rectangle-35-Copy-7" stroke="#E8E8E8"></path>
                    <polygon id="Rectangle-35-Copy" fill="#6DD69C" points="0 426.178295 170 386 170 418.821705 0 459"></polygon>
                    <polygon id="Rectangle-35-Copy-2" fill="#90AEFF" points="41 375.333333 110 359 110 391.666667 41 408"></polygon>
                    <polygon id="Rectangle-35" fill="#E9EDFB" points="29 442.972222 232 394 232 427.027778 29 476"></polygon>
                </g>
            </g>
        </g>
    </g>
</svg>