<?xml version="1.0" encoding="UTF-8"?>
<svg width="41px" height="40px" viewBox="0 0 41 40" version="1.1" xmlns="http://www.w3.org/2000/svg" xmlns:xlink="http://www.w3.org/1999/xlink">
    <!-- Generator: Sketch 48.2 (47327) - http://www.bohemiancoding.com/sketch -->
    <title>Group 39 Copy@3x</title>
    <desc>Created with Sketch.</desc>
    <defs></defs>
    <g id="服务支持" stroke="none" stroke-width="1" fill="none" fill-rule="evenodd" transform="translate(-168.000000, -1141.000000)">
        <g id="Group-39-Copy" transform="translate(168.000000, 1141.000000)">
            <path d="M36.0282905,25.5350253 L32.8649821,33.4883721 L25.1654853,25.8333892 L18.1818182,25.8333892 C14.3158249,25.8333892 11.1818182,22.6993824 11.1818182,18.8333892 L11.1818182,7 C11.1818182,3.13400675 14.3158249,1.59834986e-15 18.1818182,8.8817842e-16 L34,8.8817842e-16 C37.8659932,1.78006981e-16 41,3.13400675 41,7 L41,18.8333892 C41,21.9940588 38.9052318,24.6654692 36.0282905,25.5350253 Z M17.1563232,17.1695496 C21.4940373,14.1215661 25.5932412,13.0911443 29.4539349,14.0782842 C31.1331915,14.5911652 32.520446,15.1888762 33.6156985,15.8714171 C34.710951,16.553958 35.2585772,16.9449041 35.2585772,17.0442552 C35.6655665,17.3625952 35.9995021,17.3625952 36.260384,17.0442552 C36.6517067,16.5667453 36.3341401,16.1160239 35.9741717,15.8714171 C35.6142033,15.6268103 30.7040221,11.662841 25.3267186,12.4213691 C19.949415,13.1798972 17.9783692,15.036425 16.4900272,16.0403401 C16.1759303,16.3287273 16.1004286,16.6118695 16.2635224,16.8897667 C16.4266161,17.167664 16.7242164,17.2609249 17.1563232,17.1695496 Z" id="Combined-Shape" fill="#FFCCA5"></path>
            <path d="M8.4294013,10.2325581 L8.4294013,22.5721145 C9.47249805,26.1986748 11.5781907,28.0189258 14.7464793,28.0328675 C17.9147679,28.0468091 20.7602514,28.0398383 23.2829298,28.0119549 C23.4434599,31.3867042 22.0608507,33.0795436 19.1351021,33.0904732 C16.2093536,33.1014028 13.9072733,33.095938 12.2288612,33.0740788 L3.99458246,40 L3.99458246,33.0904732 C1.50811061,32.6698129 0.220728904,31.6045216 0.132437343,29.8945993 C0.0441457809,28.184677 0,22.667856 0,13.3441365 C0.49956273,11.2697509 1.83109022,10.2325581 3.99458246,10.2325581 C6.1580747,10.2325581 7.63634765,10.2325581 8.4294013,10.2325581 Z" id="Path-11" fill="#FFA27B"></path>
        </g>
    </g>
</svg>