<?xml version="1.0" encoding="UTF-8"?>
<svg width="41px" height="40px" viewBox="0 0 41 40" version="1.1" xmlns="http://www.w3.org/2000/svg" xmlns:xlink="http://www.w3.org/1999/xlink">
    <!-- Generator: Sketch 48.2 (47327) - http://www.bohemiancoding.com/sketch -->
    <title>Group 40 Copy@3x</title>
    <desc>Created with Sketch.</desc>
    <defs></defs>
    <g id="服务支持" stroke="none" stroke-width="1" fill="none" fill-rule="evenodd" transform="translate(-168.000000, -919.000000)">
        <g id="Group-40-Copy" transform="translate(168.000000, 919.000000)">
            <rect id="Rectangle-66" fill="#FFCCA5" x="0" y="29.5238095" width="5.72093023" height="10.4761905" rx="1"></rect>
            <rect id="Rectangle-66-Copy" fill="#FFCCA5" x="35.2790698" y="13.3333333" width="5.72093023" height="26.6666667" rx="1"></rect>
            <rect id="Rectangle-66-Copy-2" fill="#FFCCA5" x="26.4593023" y="29.5238095" width="5.72093023" height="10.4761905" rx="1"></rect>
            <rect id="Rectangle-66-Copy-3" fill="#FFCCA5" x="17.6395349" y="24.7619048" width="5.72093023" height="15.2380952" rx="1"></rect>
            <rect id="Rectangle-66-Copy-4" fill="#FFCCA5" x="8.81976744" y="20.952381" width="5.72093023" height="19.047619" rx="1"></rect>
            <path d="M0.165966892,23.8095238 L13.9543872,9.97348481 C14.0817288,9.73020457 14.4501815,9.96463328 15.0597453,10.6767709 C15.6693091,11.3889086 18.7708702,14.5280085 24.3644286,20.0940706 C24.8359023,20.5804486 25.5686177,20.280044 26.5625746,19.1928569 C27.5565316,18.1056698 31.3515489,14.2319841 37.9476266,7.57179965 L41,10.9809169 L41,0 L30.6426987,0 L34.8721745,4.23711273 L24.8676683,14.2596834 L14.1666608,3.53935388 L0,17.7315944 L0.165966892,23.8095238 Z" id="Path-13" fill="#FFA27B"></path>
        </g>
    </g>
</svg>