<?xml version="1.0" encoding="UTF-8"?>
<svg width="50px" height="40px" viewBox="0 0 50 40" version="1.1" xmlns="http://www.w3.org/2000/svg" xmlns:xlink="http://www.w3.org/1999/xlink">
    <!-- Generator: Sketch 48.2 (47327) - http://www.bohemiancoding.com/sketch -->
    <title>Group 9@3x</title>
    <desc>Created with Sketch.</desc>
    <defs></defs>
    <g id="服务支持" stroke="none" stroke-width="1" fill="none" fill-rule="evenodd" transform="translate(-163.000000, -749.000000)">
        <g id="Group-9" transform="translate(163.000000, 749.000000)">
            <path d="M38.5722684,36.805183 C36.281203,37.6656708 33.755942,38.1423497 31.102995,38.1423497 C26.4362918,38.1423497 22.164688,36.6673596 18.8679245,34.222878 C19.7516133,34.3239512 20.6539418,34.3761714 21.5708774,34.3761714 C32.4691983,34.3761714 41.3040331,26.9991539 41.3040331,17.8991415 C41.3040331,12.9305098 38.670201,8.47553551 34.5047349,5.45454545 C43.3176956,6.85143212 50,13.577943 50,21.6653198 C50,25.9134198 48.156257,29.7860376 45.1284458,32.7079771 C45.1402981,35.687115 45.1381195,38.1177893 45.1219101,40 L38.5722684,36.805183 Z" id="Combined-Shape" fill="#FFA27B"></path>
            <path d="M12.1374074,31.5366353 L4.8156992,35.4545455 L5.16004533,27.4755199 C1.95786614,24.5573605 0,20.6491063 0,16.3541592 C0,7.32200646 8.65864399,0 19.3396226,0 C30.0206013,0 38.6792453,7.32200646 38.6792453,16.3541592 C38.6792453,25.3863118 30.0206013,32.7083183 19.3396226,32.7083183 C16.7940742,32.7083183 14.3633923,32.2924357 12.1374103,31.5366362 Z M28.271906,18.3789598 C29.4938824,18.3789598 30.4844899,17.437559 30.4844899,16.2762822 C30.4844899,15.1150054 29.4938824,14.1736046 28.271906,14.1736046 C27.0499296,14.1736046 26.059322,15.1150054 26.059322,16.2762822 C26.059322,17.437559 27.0499296,18.3789598 28.271906,18.3789598 Z M19.5854653,18.3789598 C20.8074417,18.3789598 21.7980492,17.437559 21.7980492,16.2762822 C21.7980492,15.1150054 20.8074417,14.1736046 19.5854653,14.1736046 C18.3634889,14.1736046 17.3728814,15.1150054 17.3728814,16.2762822 C17.3728814,17.437559 18.3634889,18.3789598 19.5854653,18.3789598 Z M10.0795491,18.3789598 C11.3015255,18.3789598 12.292133,17.437559 12.292133,16.2762822 C12.292133,15.1150054 11.3015255,14.1736046 10.0795491,14.1736046 C8.85757272,14.1736046 7.86696514,15.1150054 7.86696514,16.2762822 C7.86696514,17.437559 8.85757272,18.3789598 10.0795491,18.3789598 Z" id="Combined-Shape" fill="#FFCCA5"></path>
        </g>
    </g>
</svg>