<?xml version="1.0" encoding="UTF-8"?>
<svg width="212px" height="74px" viewBox="0 0 212 74" version="1.1" xmlns="http://www.w3.org/2000/svg" xmlns:xlink="http://www.w3.org/1999/xlink">
    <!-- Generator: Sketch 48.2 (47327) - http://www.bohemiancoding.com/sketch -->
    <title>Group 9</title>
    <desc>Created with Sketch.</desc>
    <defs>
        <filter x="-3.4%" y="-10.9%" width="106.9%" height="130.4%" filterUnits="objectBoundingBox" id="filter-1">
            <feOffset dx="0" dy="2" in="SourceAlpha" result="shadowOffsetOuter1"></feOffset>
            <feGaussianBlur stdDeviation="2" in="shadowOffsetOuter1" result="shadowBlurOuter1"></feGaussianBlur>
            <feColorMatrix values="0 0 0 0 0   0 0 0 0 0   0 0 0 0 0  0 0 0 0.23474298 0" type="matrix" in="shadowBlurOuter1" result="shadowMatrixOuter1"></feColorMatrix>
            <feMerge>
                <feMergeNode in="shadowMatrixOuter1"></feMergeNode>
                <feMergeNode in="SourceGraphic"></feMergeNode>
            </feMerge>
        </filter>
    </defs>
    <g id="产品介绍" stroke="none" stroke-width="1" fill="none" fill-rule="evenodd" transform="translate(-20.000000, -382.000000)">
        <g id="Group-9" transform="translate(24.000000, 384.000000)">
            <g id="安装企业微信" filter="url(#filter-1)">
                <g id="Group-64-Copy">
                    <rect id="Rectangle-19-Copy" fill="#FFFFFF" fill-rule="nonzero" x="0" y="0" width="204" height="46" rx="3"></rect>
                    <text id="安装到企业微信" fill="#0079DE" font-family="PingFangSC-Regular, PingFang SC" font-size="16" font-weight="normal">
                        <tspan x="68" y="29">安装到企业微信</tspan>
                    </text>
                </g>
                <g id="图形-copy-2" transform="translate(24.000000, 11.000000)" fill-rule="nonzero">
                    <path d="M19.9291634,19.6701586 C19.9382228,19.6808095 19.9478762,19.6911763 19.9582723,19.7011172 C19.9762426,19.7183006 19.9955495,19.7332118 20.0157475,19.7465609 C20.0558465,19.782632 20.095797,19.819271 20.135005,19.8567621 C20.9062426,20.5942296 21.390995,21.5018272 21.5898564,22.4531645 C21.5932723,22.506703 21.5993614,22.5600994 21.6082723,22.6132118 C21.6180743,22.6717207 21.6311436,22.7296615 21.6474802,22.7870343 C21.7238168,23.0545846 21.8712921,23.3072237 22.0909455,23.5174012 C22.7640149,24.1608568 23.8551535,24.1608568 24.5282228,23.5174012 C25.2011436,22.8738036 25.2011436,21.8304426 24.5282228,21.186845 C24.290896,20.9600521 24.0017376,20.8134959 23.6972822,20.7466083 C23.6631238,20.7390817 23.6288168,20.7326911 23.5945099,20.7271527 C23.5597574,20.7216142 23.5251535,20.7169278 23.4902525,20.7135195 C22.4705495,20.5317444 21.495698,20.0640994 20.7069356,19.3098746 C20.6500545,19.255484 20.5949554,19.1999574 20.5411931,19.1437207 L20.540896,19.1438627 C20.3800545,18.9900639 20.1191139,18.9900639 19.9582723,19.1438627 C19.8076782,19.2878627 19.7980248,19.5153657 19.9291634,19.6701586" id="Fill-29" fill="#FB6500"></path>
                    <path d="M25.3781139,20.9362651 C25.3892525,20.9276024 25.4000941,20.9183716 25.4104901,20.9084308 C25.4284604,20.8912473 25.4440545,20.8727858 25.4580149,20.8534722 C25.4957376,20.815129 25.5340545,20.7769278 25.5732624,20.7394367 C26.3445,20.0019692 27.2936584,19.5384426 28.2885594,19.3482888 C28.3445495,19.3450225 28.4003911,19.3392 28.4559356,19.3306793 C28.5171238,19.3213065 28.5777178,19.3088095 28.6377178,19.2931882 C28.9175198,19.2201941 29.1817277,19.0791763 29.4015297,18.8691408 C30.0744505,18.2255432 30.0744505,17.1821822 29.4015297,16.5385846 C28.7284604,15.895129 27.6373218,15.895129 26.9642525,16.5385846 C26.7270743,16.7655195 26.5738069,17.0420166 26.5038564,17.3331408 C26.4959851,17.3658036 26.489302,17.3986083 26.4835099,17.431413 C26.4777178,17.4646438 26.4728168,17.4977325 26.4692525,17.5311053 C26.2791535,18.5061586 25.7900941,19.4383243 25.0013317,20.1925491 C24.9444505,20.2469396 24.8863812,20.299626 24.8275693,20.3510343 L24.8277178,20.3513183 C24.6668762,20.5051172 24.6668762,20.754632 24.8277178,20.9084308 C24.9783119,21.0524308 25.2162327,21.0616615 25.3781139,20.9362651" id="Fill-30" fill="#0082EF"></path>
                    <path d="M26.702198,15.7259077 C26.6931386,15.7152568 26.6834851,15.7048899 26.6730891,15.6949491 C26.6551188,15.6777657 26.6358119,15.6628544 26.6156139,15.6495053 C26.5755149,15.6134343 26.5355644,15.5767953 26.4963564,15.5393041 C25.7251188,14.8018367 25.2403663,13.8942391 25.041505,12.9429018 C25.0380891,12.8893633 25.032,12.8359669 25.0230891,12.7828544 C25.0132871,12.7243456 25.0002178,12.6664047 24.9838812,12.609032 C24.9075446,12.3414817 24.7600693,12.0888426 24.5404158,11.8786651 C23.8673465,11.2352095 22.7762079,11.2352095 22.1031386,11.8786651 C21.4302178,12.5222627 21.4302178,13.5656237 22.1031386,14.2092213 C22.3404653,14.4360142 22.6296238,14.5825704 22.9340792,14.649458 C22.9682376,14.6569846 23.0025446,14.6633751 23.0368515,14.6689136 C23.071604,14.6744521 23.1062079,14.6791385 23.1411089,14.6825467 C24.1608119,14.8643219 25.1356634,15.3319669 25.9244257,16.0861917 C25.9813069,16.1405822 26.0364059,16.1961089 26.0901683,16.2523456 L26.0904653,16.2522036 C26.2513069,16.4060024 26.5122475,16.4060024 26.6730891,16.2522036 C26.8236832,16.1082036 26.8333366,15.8807006 26.702198,15.7259077" id="Fill-31" fill="#2DBC00"></path>
                    <path d="M21.2532327,14.4598012 C21.2420941,14.4684639 21.2312525,14.4776947 21.2208564,14.4876355 C21.2028861,14.5048189 21.1872921,14.5232805 21.1733317,14.5425941 C21.1356089,14.5809373 21.0972921,14.6191385 21.0580842,14.6566296 C20.2868465,15.394097 19.3376881,15.8576237 18.3427871,16.0477775 C18.286797,16.0510438 18.2309554,16.0568663 18.1754109,16.065387 C18.1142228,16.0747598 18.0536287,16.0872568 17.9936287,16.1028781 C17.7138267,16.1758722 17.4496188,16.3168899 17.2298168,16.5269254 C16.556896,17.1705231 16.556896,18.213884 17.2298168,18.8574817 C17.9028861,19.5009373 18.9940248,19.5009373 19.6670941,18.8574817 C19.9042723,18.6305467 20.0575396,18.3540497 20.1274901,18.0629254 C20.1353614,18.0302627 20.1420446,17.997458 20.1478366,17.9646533 C20.1536287,17.9314225 20.1585297,17.8983337 20.1620941,17.8649609 C20.3521931,16.8899077 20.8412525,15.957742 21.6300149,15.2035172 C21.686896,15.1491266 21.7449653,15.0964402 21.8037772,15.045032 L21.8036287,15.0447479 C21.9644703,14.8909491 21.9644703,14.6414343 21.8036287,14.4876355 C21.6530347,14.3436355 21.4151139,14.3344047 21.2532327,14.4598012" id="Fill-32" fill="#FFCC00"></path>
                    <path d="M23.8157673,6.40787219 C23.3365099,5.4660497 22.692401,4.59182485 21.9015594,3.80933964 C19.9031436,1.83296095 17.1052723,0.559966864 14.0235891,0.224960947 C13.4703713,0.164889941 12.9220545,0.134499408 12.3937871,0.134499408 C11.8903218,0.134499408 11.3653218,0.16247574 10.8333416,0.217860355 C7.73784653,0.539659172 4.9245297,1.8059787 2.91141089,3.7836355 C2.11685644,4.56427456 1.4694802,5.43651124 0.986806931,6.37577751 C0.33200495,7.65047574 7.42574257e-05,9.0035645 7.42574257e-05,10.3974107 C7.42574257e-05,12.1920142 0.571113861,13.9614817 1.65155941,15.5148071 C2.2625495,16.3932923 3.30735149,17.5286769 4.20170792,18.2243929 L3.70641089,20.1834462 L3.56368812,20.7351621 C3.53858911,20.7894107 3.51913366,20.8462154 3.5054703,20.9054343 C3.49700495,20.9415053 3.4944802,20.9794225 3.49076733,21.0170556 C3.48794554,21.0456 3.48170792,21.0731503 3.48170792,21.1025467 C3.48170792,21.6062627 3.90868812,22.0145467 4.43561881,22.0145467 C4.60774752,22.0145467 4.76710396,21.9675408 4.90655941,21.8912805 C4.91086634,21.8888663 4.91561881,21.8867361 4.91977723,21.8843219 C4.94027228,21.8728189 4.96106436,21.8625941 4.9805198,21.849813 L8.51814356,20.1519195 C9.27957921,20.3608189 10.0350743,20.4944521 10.8317079,20.5782391 C11.3494307,20.6327716 11.8750248,20.6603219 12.3937871,20.6603219 C12.922797,20.6603219 13.4711139,20.6297893 14.0235891,20.5697183 C15.1099752,20.4517065 16.1549257,20.2122746 17.1468564,19.8717302 C17.0396287,19.8377893 16.9343317,19.7933396 16.8324505,19.737529 C16.2256188,19.4056473 15.9113614,18.7742627 15.9737376,18.1494107 C15.2648762,18.3647006 14.5246782,18.5190675 13.7593812,18.6021444 C13.2951238,18.6527006 12.8354703,18.6782627 12.3937871,18.6782627 C11.9596782,18.6782627 11.5197772,18.6551148 11.0864109,18.609529 C10.9959653,18.6000142 10.9059653,18.5868071 10.8158168,18.5753041 C10.2204208,18.4994698 9.63185644,18.3834462 9.06334158,18.2241089 C8.9475,18.1887479 8.82482673,18.1708544 8.69903465,18.1708544 C8.50299505,18.1708544 8.31274752,18.2204166 8.11982673,18.3161325 C8.09487624,18.3284876 8.07007426,18.3387124 8.04497525,18.3527716 L5.77507426,19.6318722 L5.77269802,19.6331503 C5.72561881,19.6594225 5.69903465,19.6692213 5.67467822,19.6692213 C5.59492574,19.6692213 5.53017327,19.6047479 5.53017327,19.5255053 L5.61408416,19.2012923 C5.6375495,19.1158012 5.67066832,18.9953751 5.71076733,18.8489609 C5.80997525,18.4876828 5.94556931,17.9934817 6.04626238,17.6266651 C6.06809406,17.5516828 6.09037129,17.4616473 6.09037129,17.3605349 C6.09037129,17.0811976 5.95061881,16.8171976 5.71774752,16.6550201 C5.59923267,16.5712331 5.48086634,16.4833278 5.35641089,16.3864757 C5.16586634,16.2382154 4.98363861,16.0837065 4.80824257,15.9246533 C4.3154703,15.477742 3.88284653,14.9899314 3.51943069,14.4673278 C2.66368812,13.2372213 2.2114604,11.841387 2.2114604,10.4304994 C2.2114604,9.33558817 2.47329208,8.27078343 2.9895297,7.26590769 C3.37522277,6.51523314 3.89472772,5.81625089 4.53378713,5.18827456 C6.1885396,3.56252308 8.51561881,2.52015621 11.0861139,2.25288994 C11.5335891,2.20631006 11.9734901,2.18273609 12.3937871,2.18273609 C12.8350248,2.18273609 13.2945297,2.20829822 13.7593812,2.25885444 C16.317995,2.53705562 18.6315594,3.58467692 20.2739851,5.20900828 C20.9100743,5.83826272 21.4267574,6.5388071 21.8097772,7.29132781 C22.317698,8.28981302 22.5753713,9.34595503 22.5753713,10.4304994 C22.5753713,10.5432568 22.5679455,10.6555882 22.5621535,10.7680615 C23.2258663,10.3796592 24.102995,10.4559195 24.6774505,11.0052213 C24.7065594,11.0329136 24.7309158,11.0633041 24.7573515,11.0925586 C24.7763614,10.8615053 24.7869059,10.629742 24.7869059,10.3974107 C24.7869059,9.01648757 24.4601733,7.67419172 23.8157673,6.40787219" id="Fill-33" fill="#0079DE"></path>
                </g>
            </g>
            <text id="立即安装ElephantBI到企业微信" font-family="PingFangSC-Regular, PingFang SC" font-size="14" font-weight="normal" fill="#32325D">
                <tspan x="0" y="69">立即安装ElephantBI到企业微信</tspan>
            </text>
        </g>
    </g>
</svg>