<?xml version="1.0" encoding="UTF-8"?>
<svg width="15px" height="20px" viewBox="0 0 15 20" version="1.1" xmlns="http://www.w3.org/2000/svg" xmlns:xlink="http://www.w3.org/1999/xlink">
    <!-- Generator: Sketch 48.2 (47327) - http://www.bohemiancoding.com/sketch -->
    <title>Shape</title>
    <desc>Created with Sketch.</desc>
    <defs></defs>
    <g id="首页1" stroke="none" stroke-width="1" fill="none" fill-rule="evenodd" transform="translate(-874.000000, -6309.000000)">
        <g id="地址-2" transform="translate(874.000000, 6309.000000)" fill="#C4CBD4" fill-rule="nonzero">
            <path d="M7.50821642,0.0284569238 C3.40400802,0.0284569238 0.0180360721,3.41442887 0.0180360721,7.51863727 C0.0180360721,10.3915832 3.71182365,16.3426854 5.96913827,19.1130261 C6.78997996,20.1390782 8.22645289,20.1390782 9.04729458,19.1130261 C11.202004,16.3426854 14.9983968,10.4941884 14.9983968,7.51863727 C14.9983968,3.31182364 11.6124249,0.0284569238 7.50821642,0.0284569238 M7.50821642,9.98116232 C5.76392784,9.98116232 4.32745491,8.54468937 4.32745491,6.80040081 C4.32745491,5.05611225 5.76392787,3.6196393 7.50821642,3.61963927 C9.25250498,3.61963924 10.6889779,5.05611222 10.688978,6.80040081 C10.688978,8.5446894 9.25250501,9.98116232 7.50821642,9.98116232" id="Shape"></path>
        </g>
    </g>
</svg>