<?xml version="1.0" encoding="UTF-8"?>
<svg width="22px" height="23px" viewBox="0 0 22 23" version="1.1" xmlns="http://www.w3.org/2000/svg" xmlns:xlink="http://www.w3.org/1999/xlink">
    <!-- Generator: Sketch 48.2 (47327) - http://www.bohemiancoding.com/sketch -->
    <title>gongsi</title>
    <desc>Created with Sketch.</desc>
    <defs></defs>
    <g id="官网2.2-修改页面" stroke="none" stroke-width="1" fill="none" fill-rule="evenodd">
        <g id="gongsi" transform="translate(1.000000, 1.000000)" fill="#606D8A" fill-rule="nonzero" stroke="#FFFFFF" stroke-width="0.2">
            <path d="M18.5716057,21.4141414 L0,21.4141414 L0,0 L14.2864228,0 L14.2864228,9.99094171 L20,9.99094171 L20,21.4091608 L18.5716057,21.4091608 L18.5716057,21.4141414 Z M12.8580285,11.4207466 L12.8580285,1.42980486 L1.4283943,1.42980486 L1.4283943,19.9868888 L12.8580285,19.9868888 L12.8580285,11.4207466 Z M18.5716057,11.4207466 L14.2864228,11.4207466 L14.2864228,19.9844109 L15.7148171,19.9844109 L15.7148171,15.7025787 L17.1432114,15.7025787 L17.1432114,19.9844109 L18.5716057,19.9844109 L18.5716057,11.4207466 Z M5.71355239,6.42522616 L2.85676379,6.42522616 L2.85676379,4.99794877 L5.71355239,4.99794877 L5.71355239,6.42522616 Z M5.71355239,11.4207466 L2.85676379,11.4207466 L2.85676379,9.99346918 L5.71355239,9.99346918 L5.71355239,11.4207466 Z M5.71355239,16.4162174 L2.85676379,16.4162174 L2.85676379,14.98894 L5.71355239,14.98894 L5.71355239,16.4162174 Z M11.4296342,6.42522616 L8.57036578,6.42522616 L8.57036578,4.99794877 L11.4271544,4.99794877 L11.4271544,6.42522616 L11.4296342,6.42522616 Z M11.4296342,11.4207466 L8.57036578,11.4207466 L8.57036578,9.99346918 L11.4271544,9.99346918 L11.4271544,11.4207466 L11.4296342,11.4207466 Z M11.4296342,16.4162174 L8.57036578,16.4162174 L8.57036578,14.98894 L11.4271544,14.98894 L11.4271544,16.4162174 L11.4296342,16.4162174 Z" id="Shape"></path>
        </g>
    </g>
</svg>