<?xml version="1.0" encoding="UTF-8"?>
<svg width="400px" height="258px" viewBox="0 0 400 258" version="1.1" xmlns="http://www.w3.org/2000/svg" xmlns:xlink="http://www.w3.org/1999/xlink">
    <!-- Generator: Sketch 48.2 (47327) - http://www.bohemiancoding.com/sketch -->
    <title>Group 31</title>
    <desc>Created with Sketch.</desc>
    <defs>
        <filter x="-3.2%" y="-3.5%" width="106.7%" height="110.6%" filterUnits="objectBoundingBox" id="filter-1">
            <feOffset dx="0" dy="4" in="SourceAlpha" result="shadowOffsetOuter1"></feOffset>
            <feGaussianBlur stdDeviation="2.5" in="shadowOffsetOuter1" result="shadowBlurOuter1"></feGaussianBlur>
            <feColorMatrix values="0 0 0 0 0   0 0 0 0 0.303438725   0 0 0 0 0.742745536  0 0 0 0.403475996 0" type="matrix" in="shadowBlurOuter1" result="shadowMatrixOuter1"></feColorMatrix>
            <feMerge>
                <feMergeNode in="shadowMatrixOuter1"></feMergeNode>
                <feMergeNode in="SourceGraphic"></feMergeNode>
            </feMerge>
        </filter>
        <filter x="-1.9%" y="-2.3%" width="103.7%" height="105.5%" filterUnits="objectBoundingBox" id="filter-2">
            <feOffset dx="0" dy="1" in="SourceAlpha" result="shadowOffsetOuter1"></feOffset>
            <feGaussianBlur stdDeviation="2" in="shadowOffsetOuter1" result="shadowBlurOuter1"></feGaussianBlur>
            <feColorMatrix values="0 0 0 0 0.231026786   0 0 0 0 0.231026786   0 0 0 0 0.231026786  0 0 0 0.189736187 0" type="matrix" in="shadowBlurOuter1" result="shadowMatrixOuter1"></feColorMatrix>
            <feMerge>
                <feMergeNode in="shadowMatrixOuter1"></feMergeNode>
                <feMergeNode in="SourceGraphic"></feMergeNode>
            </feMerge>
        </filter>
        <polygon id="path-3" points="0 59.7690598 82.0574333 59.7690598 82.0574333 0 0 0"></polygon>
        <filter x="-7.9%" y="-9.2%" width="115.8%" height="121.8%" filterUnits="objectBoundingBox" id="filter-4">
            <feOffset dx="0" dy="1" in="SourceAlpha" result="shadowOffsetOuter1"></feOffset>
            <feGaussianBlur stdDeviation="2" in="shadowOffsetOuter1" result="shadowBlurOuter1"></feGaussianBlur>
            <feColorMatrix values="0 0 0 0 0   0 0 0 0 0   0 0 0 0 0  0 0 0 0.0797384511 0" type="matrix" in="shadowBlurOuter1"></feColorMatrix>
        </filter>
        <polygon id="path-5" points="0 53.0450406 87.27927 53.0450406 87.27927 0 0 0"></polygon>
        <filter x="-7.4%" y="-10.4%" width="114.9%" height="124.5%" filterUnits="objectBoundingBox" id="filter-6">
            <feOffset dx="0" dy="1" in="SourceAlpha" result="shadowOffsetOuter1"></feOffset>
            <feGaussianBlur stdDeviation="2" in="shadowOffsetOuter1" result="shadowBlurOuter1"></feGaussianBlur>
            <feColorMatrix values="0 0 0 0 0   0 0 0 0 0   0 0 0 0 0  0 0 0 0.0797384511 0" type="matrix" in="shadowBlurOuter1"></feColorMatrix>
        </filter>
        <linearGradient x1="100%" y1="38.168212%" x2="0%" y2="63.3656681%" id="linearGradient-7">
            <stop stop-color="#5088FA" offset="0%"></stop>
            <stop stop-color="#54DEE8" offset="100%"></stop>
        </linearGradient>
        <path d="M36.1965993,36.0372662 L36.1578785,36.016843 L56.619629,2.47481263 L40.0292617,38.0587846 L39.9905409,38.0383615 C39.9494219,38.1758391 39.8939115,38.3112996 39.8234166,38.4428179 C39.2549911,39.5032967 37.9275525,39.9058805 36.8584995,39.3420139 C35.7894465,38.7781473 35.3836078,37.4613552 35.9520334,36.4008764 C36.0225283,36.2693581 36.1046971,36.1479585 36.1965993,36.0372662 Z" id="path-8"></path>
        <polygon id="path-9" points="116.37236 142.693355 224.65845 142.693355 224.65845 73.2170983 116.37236 73.2170983"></polygon>
        <filter x="-6.0%" y="-7.9%" width="112.0%" height="118.7%" filterUnits="objectBoundingBox" id="filter-10">
            <feOffset dx="0" dy="1" in="SourceAlpha" result="shadowOffsetOuter1"></feOffset>
            <feGaussianBlur stdDeviation="2" in="shadowOffsetOuter1" result="shadowBlurOuter1"></feGaussianBlur>
            <feColorMatrix values="0 0 0 0 0   0 0 0 0 0   0 0 0 0 0  0 0 0 0.0797384511 0" type="matrix" in="shadowBlurOuter1"></feColorMatrix>
        </filter>
        <polygon id="path-11" points="0 66.493079 102.94478 66.493079 102.94478 0 0 0"></polygon>
        <filter x="-6.3%" y="-8.3%" width="112.6%" height="119.6%" filterUnits="objectBoundingBox" id="filter-12">
            <feOffset dx="0" dy="1" in="SourceAlpha" result="shadowOffsetOuter1"></feOffset>
            <feGaussianBlur stdDeviation="2" in="shadowOffsetOuter1" result="shadowBlurOuter1"></feGaussianBlur>
            <feColorMatrix values="0 0 0 0 0   0 0 0 0 0   0 0 0 0 0  0 0 0 0.0797384511 0" type="matrix" in="shadowBlurOuter1"></feColorMatrix>
        </filter>
        <linearGradient x1="46.8424678%" y1="2.91742942%" x2="46.8424678%" y2="50%" id="linearGradient-13">
            <stop stop-color="#5CE4DF" stop-opacity="0.385784647" offset="0%"></stop>
            <stop stop-color="#5CE4DF" stop-opacity="0" offset="100%"></stop>
        </linearGradient>
        <ellipse id="path-14" cx="28.3199869" cy="44.9082981" rx="3.14666521" ry="3.15145952"></ellipse>
        <ellipse id="path-15" cx="51.919976" cy="15.7572976" rx="3.14666521" ry="3.15145952"></ellipse>
        <ellipse id="path-16" cx="76.3066314" cy="6.30291903" rx="3.14666521" ry="3.15145952"></ellipse>
        <linearGradient x1="46.8424678%" y1="26.6651131%" x2="46.8424678%" y2="79.6062697%" id="linearGradient-17">
            <stop stop-color="#43A9E8" stop-opacity="0.268738678" offset="0%"></stop>
            <stop stop-color="#5CDCFF" stop-opacity="0" offset="100%"></stop>
        </linearGradient>
        <ellipse id="path-18" cx="51.1333097" cy="36.2417844" rx="3.14666521" ry="3.15145952"></ellipse>
        <ellipse id="path-19" cx="76.3066314" cy="23.6359464" rx="3.14666521" ry="3.15145952"></ellipse>
        <ellipse id="path-20" cx="28.3199869" cy="24.4238113" rx="3.14666521" ry="3.15145952"></ellipse>
        <polygon id="path-21" points="0 82.9295705 87.27927 82.9295705 87.27927 0 0 0"></polygon>
        <filter x="-7.4%" y="-6.6%" width="114.9%" height="115.7%" filterUnits="objectBoundingBox" id="filter-22">
            <feOffset dx="0" dy="1" in="SourceAlpha" result="shadowOffsetOuter1"></feOffset>
            <feGaussianBlur stdDeviation="2" in="shadowOffsetOuter1" result="shadowBlurOuter1"></feGaussianBlur>
            <feColorMatrix values="0 0 0 0 0   0 0 0 0 0   0 0 0 0 0  0 0 0 0.0797384511 0" type="matrix" in="shadowBlurOuter1"></feColorMatrix>
        </filter>
        <linearGradient x1="100%" y1="22.1433924%" x2="2.92488728%" y2="93.6194792%" id="linearGradient-23">
            <stop stop-color="#02A9ED" offset="0%"></stop>
            <stop stop-color="#3CCFD2" offset="100%"></stop>
        </linearGradient>
        <filter x="-3.4%" y="-3.1%" width="106.8%" height="107.9%" filterUnits="objectBoundingBox" id="filter-24">
            <feOffset dx="0" dy="1" in="SourceAlpha" result="shadowOffsetOuter1"></feOffset>
            <feGaussianBlur stdDeviation="1.5" in="shadowOffsetOuter1" result="shadowBlurOuter1"></feGaussianBlur>
            <feColorMatrix values="0 0 0 0 0   0 0 0 0 0   0 0 0 0 0  0 0 0 0.0921648551 0" type="matrix" in="shadowBlurOuter1" result="shadowMatrixOuter1"></feColorMatrix>
            <feMerge>
                <feMergeNode in="shadowMatrixOuter1"></feMergeNode>
                <feMergeNode in="SourceGraphic"></feMergeNode>
            </feMerge>
        </filter>
        <polygon id="path-25" points="6.99918458e-05 0.381796495 144.843225 0.381796495 144.843225 85.0759024 6.99918458e-05 85.0759024"></polygon>
        <polygon id="path-27" points="0.000139983692 0.392611097 144.843225 0.392611097 144.843225 24.9227637 0.000139983692 24.9227637"></polygon>
    </defs>
    <g id="4-2-预约演示" stroke="none" stroke-width="1" fill="none" fill-rule="evenodd" transform="translate(-414.000000, -499.000000)">
        <g id="Group-13" transform="translate(420.000000, 170.000000)">
            <g id="Group-2" transform="translate(0.000000, 157.000000)">
                <g id="Group-31" filter="url(#filter-1)" transform="translate(195.000000, 297.500000) scale(-1, 1) translate(-195.000000, -297.500000) translate(0.000000, 175.000000)">
                    <g id="投影" filter="url(#filter-2)" transform="translate(42.496680, 0.000000)">
                        <path d="M346.427485,3.63797881e-12 C334.625901,4.26084972e-12 219.163178,4.71261162e-12 0.0393180376,4.99326451e-12 C0.0131060125,9.2085599 -1.26831349e-12,75.2559963 -1.8189894e-12,198.142309 C-1.8189894e-12,198.402954 0.026212025,235.733244 0.0393180376,235.999514 L346.393783,235.999514 C346.393783,235.733244 346.427485,198.402954 346.427485,198.142309 L346.427485,3.63797881e-12 Z" id="Fill-173" fill="#EAEAEA"></path>
                        <polygon id="Fill-180" fill="#FFFFFF" points="13.8001655 223.108894 332.509893 223.108894 332.509893 17.1836047 13.8001655 17.1836047"></polygon>
                        <g id="Group-27" transform="translate(65.168659, 102.975191) scale(-1, 1) translate(-65.168659, -102.975191) translate(24.000000, 73.000000)">
                            <g id="Fill-204">
                                <use fill="black" fill-opacity="1" filter="url(#filter-4)" xlink:href="#path-3"></use>
                                <use fill="#FFFFFF" fill-rule="evenodd" xlink:href="#path-3"></use>
                            </g>
                            <g id="柱状图图" transform="translate(40.600323, 28.957774) scale(-1, 1) translate(-40.600323, -28.957774) translate(6.602979, 7.471132)" stroke="#FFFFFF" stroke-width="0.828430279">
                                <rect id="Rectangle-6" fill="#34DAFC" x="0" y="21.9379617" width="6.52729583" height="20.6474934"></rect>
                                <rect id="Rectangle-6-Copy" fill="#008BFD" x="24.8037242" y="0" width="6.52729583" height="42.5854551"></rect>
                                <rect id="Rectangle-6-Copy-5" fill="#08C2FA" x="36.5528567" y="5.16187335" width="6.52729583" height="37.4235818"></rect>
                                <rect id="Rectangle-6-Copy-4" fill="#05D0F4" x="11.7491325" y="11.614215" width="6.52729583" height="30.9712401"></rect>
                                <rect id="Rectangle-6-Copy-2" fill="#34DAFC" x="49.6074483" y="15.48562" width="6.52729583" height="27.0998351"></rect>
                                <rect id="Rectangle-6-Copy-6" fill="#92EBE8" x="61.3565808" y="21.9379617" width="6.52729583" height="20.6474934"></rect>
                            </g>
                        </g>
                        <g id="Group-30" transform="translate(277.824701, 99.526718) scale(-1, 1) translate(-277.824701, -99.526718) translate(234.000000, 73.000000)">
                            <g id="Fill-201">
                                <use fill="black" fill-opacity="1" filter="url(#filter-6)" xlink:href="#path-5"></use>
                                <use fill="#FFFFFF" fill-rule="evenodd" xlink:href="#path-5"></use>
                            </g>
                            <g id="仪表盘" transform="translate(5.967813, 7.471132)">
                                <path d="M9.48041645e-12,21.490594 C7.38976168,8.64141653 21.1763248,0 36.9639421,0 C52.6974589,0 66.4436123,8.5822938 73.85169,21.3586491 L51.0956336,35.7600932 C47.9454928,31.3201975 42.7897346,28.4266993 36.9639421,28.4266993 C31.0837885,28.4266993 25.886232,31.3744484 22.7445928,35.8847832 L-1.53832502e-12,21.490594 Z" id="Combined-Shape" fill="#D3D3D3"></path>
                                <path d="M2.93418623e-11,21.4896482 C7.3396322,8.64070875 21.0286842,0 36.7042192,0 C42.9259961,0 48.8348273,1.36123619 54.157906,3.80655354 L41.3149189,29.0679928 C39.8473062,28.6553204 38.3011094,28.4348165 36.7042192,28.4348165 C30.8691605,28.4348165 25.7109511,31.3789433 22.5903159,35.8847832 L-3.00179437e-10,21.4896482 Z" id="Combined-Shape" fill="url(#linearGradient-7)"></path>
                                <g id="Combined-Shape">
                                    <use fill="#4A4A4A" fill-rule="evenodd" xlink:href="#path-8"></use>
                                    <path stroke="#FFFFFF" stroke-width="0.828430279" d="M35.5958644,36.1887125 L35.5746525,36.1775244 L56.2660173,2.25909774 L56.9950464,2.64984402 L40.220837,38.628131 L40.1998577,38.6170655 C40.1961049,38.6242248 40.1923171,38.6313706 40.1884943,38.6385026 C39.5123089,39.9000227 37.9353336,40.3782856 36.6652564,39.7083898 C35.3932755,39.0374899 34.9097464,37.4686221 35.5869557,36.2051917 C35.5899068,36.199686 35.5928764,36.1941929 35.5958644,36.1887125 Z"></path>
                                </g>
                            </g>
                        </g>
                        <g id="Fill-198">
                            <use fill="black" fill-opacity="1" filter="url(#filter-10)" xlink:href="#path-9"></use>
                            <use fill="#FFFFFF" fill-rule="evenodd" xlink:href="#path-9"></use>
                        </g>
                        <g id="Group-29" transform="translate(172.375444, 182.846314) scale(-1, 1) translate(-172.375444, -182.846314) translate(120.848220, 149.422650)">
                            <g id="Fill-207">
                                <use fill="black" fill-opacity="1" filter="url(#filter-12)" xlink:href="#path-11"></use>
                                <use fill="#FFFFFF" fill-rule="evenodd" xlink:href="#path-11"></use>
                            </g>
                            <g id="交叉表图" transform="translate(17.157463, 11.206699)">
                                <rect id="Rectangle-5" stroke="#979797" stroke-width="0.828430279" x="0.414215139" y="0.414215139" width="67.0554464" height="44.0450592"></rect>
                                <rect id="Rectangle-5" fill="#1F9AFF" x="0" y="0" width="67.8838767" height="8.6851915"></rect>
                                <rect id="Rectangle-5-Copy" fill="#FFFFFF" x="0" y="7.23765959" width="67.8838767" height="7.23765959"></rect>
                                <rect id="Rectangle-5-Copy-3" fill="#FFFFFF" x="0" y="20.2654468" width="67.8838767" height="7.23765959"></rect>
                                <rect id="Rectangle-5-Copy-4" fill="#E8F8F8" x="0" y="27.5031064" width="67.8838767" height="7.23765959"></rect>
                                <rect id="Rectangle-5-Copy-5" fill="#FFFFFF" x="0" y="33.2932341" width="67.8838767" height="7.23765959"></rect>
                                <rect id="Rectangle-5-Copy-6" fill="#E8F8F8" x="0" y="39.0833618" width="67.8838767" height="7.23765959"></rect>
                                <rect id="Rectangle-5-Copy-2" fill="#E8F8F8" x="0" y="14.4753192" width="67.8838767" height="7.23765959"></rect>
                                <rect id="Rectangle-5" fill="#E8F8F8" transform="translate(17.705042, 23.160511) scale(-1, 1) translate(-17.705042, -23.160511) " x="17.3320536" y="0" width="1" height="46.3210214"></rect>
                                <rect id="Rectangle-5-Copy-7" fill="#E8F8F8" transform="translate(35.037096, 23.160511) scale(-1, 1) translate(-35.037096, -23.160511) " x="34.6641072" y="0" width="1" height="46.3210214"></rect>
                                <rect id="Rectangle-5-Copy-8" fill="#E8F8F8" transform="translate(50.924811, 23.160511) scale(-1, 1) translate(-50.924811, -23.160511) " x="50.5518231" y="0" width="1" height="46.3210214"></rect>
                            </g>
                        </g>
                        <g id="折线图图" transform="translate(170.589898, 123.926780) scale(-1, 1) translate(-170.589898, -123.926780) translate(127.562010, 80.688231)">
                            <polygon id="Path-8" fill="url(#linearGradient-13)" points="0.786666303 24.265315 28.9929554 45.7146286 51.2577628 15.6264997 75.7519702 6.30291903 85.6744135 15.6264997 85.6744135 82.5426953 0.786666303 86.158872"></polygon>
                            <polyline id="Path-8" stroke="#5CE4DF" stroke-width="1.06039076" points="0.786666303 24.265315 28.9929554 45.7146286 51.2577628 15.6264997 75.7519702 6.30291903 85.6744135 15.6264997"></polyline>
                            <g id="Oval-2-Copy-4">
                                <use fill="#FFFFFF" fill-rule="evenodd" xlink:href="#path-14"></use>
                                <ellipse stroke="#5CE4DF" stroke-width="1.06039076" cx="28.3199869" cy="44.9082981" rx="2.61646983" ry="2.62126414"></ellipse>
                            </g>
                            <g id="Oval-2-Copy-5">
                                <use fill="#FFFFFF" fill-rule="evenodd" xlink:href="#path-15"></use>
                                <ellipse stroke="#5CE4DF" stroke-width="1.06039076" cx="51.919976" cy="15.7572976" rx="2.61646983" ry="2.62126414"></ellipse>
                            </g>
                            <g id="Oval-2-Copy-6">
                                <use fill="#FFFFFF" fill-rule="evenodd" xlink:href="#path-16"></use>
                                <ellipse stroke="#5CE4DF" stroke-width="1.06039076" cx="76.3066314" cy="6.30291903" rx="2.61646983" ry="2.62126414"></ellipse>
                            </g>
                            <polygon id="Path-6" fill="url(#linearGradient-17)" points="0 51.2112172 28.7440492 23.3004883 51.9046114 37.2558527 76.4172564 23.3004883 85.9701816 0.0715541346 85.9701816 76.0089565 0 76.0089565"></polygon>
                            <polyline id="Path-6" stroke="#00ABF4" stroke-width="1.06039076" points="0 51.2112172 28.7440492 23.3004883 51.9046114 37.2558527 76.4172564 23.3004883 85.9701816 0.0715541346"></polyline>
                            <g id="Oval-2-Copy">
                                <use fill="#FFFFFF" fill-rule="evenodd" xlink:href="#path-18"></use>
                                <ellipse stroke="#00ABF4" stroke-width="1.06039076" cx="51.1333097" cy="36.2417844" rx="2.61646983" ry="2.62126414"></ellipse>
                            </g>
                            <g id="Oval-2-Copy-3">
                                <use fill="#FFFFFF" fill-rule="evenodd" xlink:href="#path-19"></use>
                                <ellipse stroke="#00ABF4" stroke-width="1.06039076" cx="76.3066314" cy="23.6359464" rx="2.61646983" ry="2.62126414"></ellipse>
                            </g>
                            <g id="Oval-2-Copy-2">
                                <use fill="#FFFFFF" fill-rule="evenodd" xlink:href="#path-20"></use>
                                <ellipse stroke="#00ABF4" stroke-width="1.06039076" cx="28.3199869" cy="24.4238113" rx="2.61646983" ry="2.62126414"></ellipse>
                            </g>
                        </g>
                        <polygon id="Fill-188" fill="#EAEAEA" points="261 59.8489604 321.42411 59.8489604 321.42411 49 261 49"></polygon>
                        <polygon id="Fill-188-Copy-2" fill="#5396F7" points="160 34.8605075 204.012623 34.8605075 204.012623 27 160 27"></polygon>
                        <g id="Group-42" transform="translate(54.013280, 55.101145) scale(-1, 1) translate(-54.013280, -55.101145) translate(24.000000, 49.000000)" fill="#EAEAEA">
                            <g id="Group-41" transform="translate(15.665510, 0.747113)">
                                <polygon id="Fill-188-Copy-4" points="0 3.37695187 44.0126233 3.37695187 44.0126233 0 0 0"></polygon>
                                <polygon id="Fill-188-Copy-5" points="0 10.8480843 44.0126233 10.8480843 44.0126233 5.97690598 0 5.97690598"></polygon>
                            </g>
                            <ellipse id="Oval-14" cx="5.96781333" cy="5.97690598" rx="5.96781333" ry="5.97690598"></ellipse>
                        </g>
                        <polygon id="Fill-188-Copy-3" fill="#5396F7" points="214 34.8605075 258.012623 34.8605075 258.012623 27 214 27"></polygon>
                        <polygon id="Fill-189" fill="#EAEAEA" points="14.1735567 65.7459658 332.883284 65.7459658 332.883284 64.9988525 14.1735567 64.9988525"></polygon>
                        <polygon id="Fill-189-Copy-12" fill="#EAEAEA" points="14.1735567 44.0796816 332.883284 44.0796816 332.883284 43.3325684 14.1735567 43.3325684"></polygon>
                        <g id="Group-27" transform="translate(234.236673, 132.986158)">
                            <g id="Fill-204">
                                <use fill="black" fill-opacity="1" filter="url(#filter-22)" xlink:href="#path-21"></use>
                                <use fill="#FFFFFF" fill-rule="evenodd" xlink:href="#path-21"></use>
                            </g>
                            <g id="柱状图图" transform="translate(43.813420, 41.638778) scale(-1, 1) rotate(90.000000) translate(-43.813420, -41.638778) translate(13.800140, 11.928854)" stroke="#FFFFFF" stroke-width="0.828430279">
                                <rect id="Rectangle-6" fill="#34DAFC" x="-1.77635684e-15" y="30.4052452" width="6.95766699" height="28.6167014"></rect>
                                <rect id="Rectangle-6-Copy" fill="#008BFD" x="20.4713212" y="0" width="6.95766699" height="59.0219466"></rect>
                                <rect id="Rectangle-6-Copy-5" fill="#08C2FA" x="30.7571918" y="7.15417534" width="6.95766699" height="51.8677712"></rect>
                                <rect id="Rectangle-6-Copy-4" fill="#05D0F4" x="10.2858706" y="16.0968945" width="6.95766699" height="42.925052"></rect>
                                <rect id="Rectangle-6-Copy-2" fill="#34DAFC" x="42.4345958" y="21.462526" width="6.95766699" height="37.5594205"></rect>
                                <rect id="Rectangle-6-Copy-6" fill="#92EBE8" x="52.7204664" y="30.4052452" width="6.95766699" height="28.6167014"></rect>
                            </g>
                        </g>
                        <g id="Group-3" transform="translate(292.500000, 31.000000) scale(-1, 1) translate(-292.500000, -31.000000) translate(262.000000, 25.000000)">
                            <path d="M13.8620555,8.92982386 L10.6863053,8.92982386 C10.5184492,8.92982386 10.382375,8.79374963 10.382375,8.62589355 L10.382375,2.56441206 C10.382375,2.39655598 10.5184492,2.26048174 10.6863053,2.26048174 L13.8620555,2.26048174 L13.8620555,3.14911661 L11.3535557,3.14911661 L11.3535557,5.14167418 L13.8620555,5.14167418 L13.8620555,6.01198668 L11.3535557,6.01198668 L11.3535557,8.00912485 L13.8620555,8.00912485 L13.8620555,8.92982386 Z M15.003538,8.92982386 L15.003538,2.26048174 L15.9056774,2.26048174 L15.9056774,8.92982386 L15.003538,8.92982386 Z M20.9318825,5.92953603 C20.8183474,5.51422693 20.6219653,5.19282526 20.3427303,4.96532138 C20.0634953,4.7378175 19.729032,4.62406727 19.3393304,4.62406727 C18.9404232,4.62406727 18.5944531,4.7408712 18.3014098,4.97448257 C18.0083664,5.20809393 17.8066145,5.5264419 17.6961479,5.92953603 L20.9318825,5.92953603 Z M17.6685314,6.74488142 C17.7452443,7.166298 17.9362566,7.50754871 18.241574,7.76864376 C18.5468914,8.02973882 18.9097381,8.16028439 19.3301248,8.16028439 C19.6308395,8.16028439 19.9047005,8.0885225 20.1517161,7.94499656 C20.3987317,7.80147062 20.5958809,7.59839973 20.7431697,7.33577781 L21.7695834,7.33577781 C21.5363761,7.89461284 21.2103511,8.3221305 20.7914986,8.6183436 C20.3726461,8.9145567 19.8855264,9.06266104 19.3301248,9.06266104 C18.9557658,9.06266104 18.6136313,8.99700654 18.3037112,8.86569557 C17.993791,8.73438461 17.7130259,8.53742112 17.4614075,8.27479919 C17.2251318,8.02744598 17.0402564,7.73963499 16.9067759,7.41135758 C16.7732955,7.08308017 16.7065562,6.74793686 16.7065562,6.40591761 C16.7065562,6.05168338 16.7671585,5.72035719 16.8883649,5.41192912 C17.0095713,5.10350104 17.1883097,4.82256086 17.4245855,4.56910017 C17.6762039,4.29426326 17.9600374,4.08737526 18.2760946,3.94842993 C18.5921519,3.80948461 18.9373548,3.74001299 19.3117138,3.74001299 C19.7566488,3.74001299 20.1701252,3.84307528 20.5521555,4.04920296 C20.9341858,4.25533064 21.2494712,4.54314163 21.498021,4.91264457 C21.6453098,5.14167533 21.7542405,5.39284195 21.8248164,5.66615198 C21.8953923,5.93946201 21.9306797,6.25170258 21.9306797,6.60288307 L21.9306797,6.74488142 L17.6685314,6.74488142 Z M23.5784649,6.37843405 C23.5784649,6.87619422 23.7464637,7.30065818 24.0824663,7.65183866 C24.4184688,8.00301915 24.8196714,8.17860676 25.2860859,8.17860676 C25.761706,8.17860676 26.1698126,8.00988997 26.5104179,7.67245133 C26.8510233,7.33501269 27.0213234,6.92505379 27.0213234,6.44256234 C27.0213234,5.9325872 26.8525575,5.50506955 26.5150207,5.15999655 C26.1774839,4.81492355 25.7647746,4.64238964 25.2768804,4.64238964 C24.828877,4.64238964 24.4338114,4.81568698 24.0916718,5.16228685 C23.7495322,5.50888672 23.5784649,5.91426506 23.5784649,6.37843405 Z M23.6060814,8.32060511 L23.6060814,10.5605147 L22.6947365,10.5605147 L22.6947365,4.19510285 C22.6947365,4.02724677 22.8308108,3.89117253 22.9986669,3.89117253 L23.3113566,3.89117253 C23.4792127,3.89117253 23.6152869,4.02724677 23.6152869,4.19510285 L23.6152869,4.50955247 C23.8484942,4.27136049 24.1085471,4.09042891 24.3954534,3.9667523 C24.6823597,3.8430757 24.9884397,3.78123832 25.3137024,3.78123832 C26.0777631,3.78123832 26.7114023,4.03316837 27.214639,4.53703602 C27.7178757,5.04090367 27.9694903,5.67301906 27.9694903,6.43340116 C27.9694903,6.78458164 27.9065867,7.11896152 27.7807775,7.43655083 C27.6549683,7.75414014 27.4739285,8.03660716 27.2376527,8.28396038 C26.9829659,8.54963605 26.7045022,8.74583611 26.4022533,8.87256646 C26.1000044,8.99929681 25.7555685,9.06266104 25.3689354,9.06266104 C25.0252616,9.06266104 24.7069077,9.00082366 24.4138644,8.87714705 C24.1208211,8.75347045 23.8515628,8.56795832 23.6060814,8.32060511 Z M29.7047278,8.92982386 L28.7933829,8.92982386 L28.7933829,2.56441206 C28.7933829,2.39655598 28.9294572,2.26048174 29.0973132,2.26048174 L29.4007975,2.26048174 C29.5686536,2.26048174 29.7047278,2.39655598 29.7047278,2.56441206 L29.7047278,4.46374655 C29.8520166,4.24693077 30.0430289,4.08355795 30.2777704,3.97362319 C30.512512,3.86368843 30.786373,3.80872187 31.0993617,3.80872187 C31.713065,3.80872187 32.1902122,4.00415852 32.5308175,4.39503767 C32.8714229,4.78591681 33.041723,5.33405552 33.041723,6.03947024 L33.041723,8.92982386 L32.1303781,8.92982386 L32.1303781,6.33262813 C32.1303781,5.7737931 32.0352555,5.35849023 31.8450075,5.08670708 C31.6547594,4.81492392 31.3632547,4.67903438 30.9704846,4.67903438 C30.7311403,4.67903438 30.5194158,4.73400093 30.3353048,4.84393569 C30.1511938,4.95387045 30.0039072,5.11266273 29.8934406,5.32031727 C29.8259333,5.44552075 29.7776049,5.59820563 29.7484539,5.77837649 C29.719303,5.95854734 29.7047278,6.24559491 29.7047278,6.6395278 L29.7047278,8.92982386 Z M34.804577,6.37843405 C34.804577,6.88840919 34.97411,7.31592685 35.3131811,7.66099985 C35.6522522,8.00607285 36.0672628,8.17860676 36.5582255,8.17860676 C37.0062289,8.17860676 37.4012945,8.00530942 37.7434341,7.65870955 C38.0855737,7.31210968 38.256641,6.90673133 38.256641,6.44256234 C38.256641,5.94785592 38.087108,5.52415539 37.7480369,5.17144803 C37.4089658,4.81874067 37.006229,4.64238964 36.5398145,4.64238964 C36.0611259,4.64238964 35.6522522,4.810343 35.3131811,5.14625477 C34.97411,5.48216654 34.804577,5.89288886 34.804577,6.37843405 Z M38.2106135,8.92982386 L38.2106135,8.31144393 C37.9774062,8.55268965 37.7173533,8.73514808 37.430447,8.85882469 C37.1435407,8.98250129 36.8374607,9.04433867 36.512198,9.04433867 C35.7512058,9.04433867 35.1191009,8.7916452 34.6158642,8.28625067 C34.1126274,7.78085615 33.8610128,7.14797733 33.8610128,6.38759524 C33.8610128,6.03336101 33.9239165,5.69745428 34.0497257,5.37986497 C34.1755349,5.06227566 34.3550404,4.78286234 34.5882477,4.54161661 C34.8429345,4.27594094 35.1213982,4.07974087 35.4236471,3.95301053 C35.725896,3.82628018 36.0703319,3.76291595 36.456965,3.76291595 C36.8037073,3.76291595 37.1228283,3.8239899 37.4143374,3.94613964 C37.7058464,4.06828937 37.9712692,4.25303807 38.2106135,4.50039128 L38.2106135,4.19510285 C38.2106135,4.02724677 38.3466877,3.89117253 38.5145438,3.89117253 L38.8272335,3.89117253 C38.9950896,3.89117253 39.1311639,4.02724677 39.1311639,4.19510285 L39.1311639,8.92982386 L38.2106135,8.92982386 Z M41.1011417,8.92982386 L40.1897968,8.92982386 L40.1897968,4.19510285 C40.1897968,4.02724677 40.325871,3.89117253 40.4937271,3.89117253 L40.7603894,3.89117253 C40.9282454,3.89117253 41.0643197,4.02724677 41.0643197,4.19510285 L41.0643197,4.46374655 C41.2545677,4.23776954 41.4639908,4.07210645 41.6925953,3.9667523 C41.9211998,3.86139816 42.1827869,3.80872187 42.4773645,3.80872187 C43.1401641,3.80872187 43.6487631,4.00263167 44.0031768,4.39045707 C44.3575905,4.77828248 44.5347947,5.33405543 44.5347947,6.0577926 L44.5347947,8.92982386 L43.618847,8.92982386 L43.618847,6.25475807 C43.618847,5.72035298 43.5191217,5.32413572 43.3196682,5.06609441 C43.1202146,4.8080531 42.8118333,4.67903438 42.394515,4.67903438 C41.9403745,4.67903438 41.6112811,4.83095583 41.4072247,5.13480329 C41.2031683,5.43865076 41.1011417,5.94022058 41.1011417,6.6395278 L41.1011417,8.92982386 Z M45.9110175,8.92982386 L45.9110175,4.71567911 L45.197591,4.71567911 L45.197591,3.89117253 L45.9110175,3.89117253 L45.9110175,2.56441206 C45.9110175,2.39655598 46.0470918,2.26048174 46.2149478,2.26048174 L46.5138293,2.26048174 C46.6816854,2.26048174 46.8177597,2.39655598 46.8177597,2.56441206 L46.8177597,3.89117253 L47.535789,3.89117253 L47.535789,4.71567911 L46.8177597,4.71567911 L46.8177597,8.92982386 L45.9110175,8.92982386 Z" id="ElephantBI-Copy-11" fill="#4A5A66"></path>
                            <g id="Group-15-Copy-8" transform="translate(48.500302, 1.511737)">
                                <path d="M1.48713432,0.748745001 C2.22516207,0.748745001 2.78580134,0.904207542 3.16906897,1.21513729 C3.5523366,1.52606703 3.74396754,1.97873737 3.74396754,2.57316188 C3.74396754,2.84751166 3.68141034,3.08985032 3.55629404,3.30018515 C3.43117775,3.51051998 3.24825731,3.68427223 3.00752723,3.82144711 C3.34644984,3.9189937 3.61409967,4.10646323 3.81048473,4.38386134 C4.0068698,4.66125945 4.10506086,4.99199838 4.10506086,5.37608806 C4.10506086,5.68701781 4.04487924,5.97889111 3.9245142,6.25171672 C3.80414916,6.52454233 3.63785785,6.75087749 3.42563528,6.93072901 C3.21658021,7.10143554 2.97981305,7.22336694 2.71532671,7.29652688 C2.45084038,7.36968682 2.07787272,7.40626624 1.59641256,7.40626624 L0.303930318,7.40626624 C0.136074238,7.40626624 2.93558147e-14,7.27019201 2.83661983e-14,7.10233593 L2.84217094e-14,1.05267532 C2.8401153e-14,0.884819239 0.136074238,0.748745001 0.303930318,0.748745001 L1.48713432,0.748745001 Z M0.99300662,3.53795376 L1.31133889,3.53795376 C1.82764156,3.53795376 2.19585804,3.46250871 2.41599936,3.31161633 C2.63614068,3.16072396 2.7462097,2.91152665 2.7462097,2.56401693 C2.7462097,2.25613552 2.64643491,2.02827621 2.44688234,1.88043216 C2.24732977,1.73258812 1.94167051,1.6586672 1.52989537,1.6586672 L0.99300662,1.6586672 L0.99300662,3.53795376 Z M0.983504164,6.50548899 L1.77220799,6.50548899 C2.23466314,6.50548899 2.5751644,6.42242322 2.79372197,6.25628919 C3.01227955,6.09015516 3.1215567,5.83333714 3.1215567,5.48582742 C3.1215567,5.1078344 3.00752837,4.8212956 2.77946829,4.62620243 C2.55140821,4.43110926 2.21565814,4.33356413 1.77220799,4.33356413 L0.983504164,4.33356413 L0.983504164,6.50548899 Z" id="Combined-Shape" fill="url(#linearGradient-23)"></path>
                                <polygon id="Path" fill="url(#linearGradient-23)" points="6.68972881 7.40626624 4.56117873 7.40626624 4.56117873 6.97037119 5.1693359 6.97037119 5.1693359 1.2026669 4.71321802 1.20118929 4.71321802 0.748745001 6.53768952 0.748745001 6.53768952 1.2026669 6.08157164 1.2026669 6.08157164 6.97037119 6.68972881 6.97037119"></polygon>
                                <text id="TM" font-family="LucidaGrande, Lucida Grande" font-size="2.04203182" font-weight="normal" fill="#4A5A66">
                                    <tspan x="7.83426971" y="2.06806773">TM</tspan>
                                </text>
                            </g>
                            <g id="Group" fill="url(#linearGradient-23)">
                                <path d="M6.85467787,6.87817796 L6.85467787,8.81397921 L5.82617678,8.81397921 L5.82617678,8.13788783 C6.06936724,7.71705792 6.45780336,7.29406011 6.85467787,6.87817796 Z" id="Combined-Shape"></path>
                                <path d="M2.70888521,7.90034861 L2.70888521,8.81397921 L1.78323423,8.81397921 L1.78323423,8.18721784 C1.97171226,8.00802653 2.22226924,7.88005629 2.54294231,7.88622984 C2.5996492,7.88732155 2.6549635,7.89202781 2.70888521,7.90034861 Z" id="Combined-Shape"></path>
                                <path d="M6.55283362,1.09055644 L6.82079841,1.09055644 C6.89566294,1.48599929 6.76194706,1.70658444 6.41965076,1.75231191 C5.97543579,1.79830249 5.73225806,1.60848228 5.60884056,1.3951059 C5.48542307,1.18172953 5.41536202,0.662285598 5.80277376,0.319208726 C6.55767749,-0.349304851 7.79858547,0.125531927 8.46480107,1.44927547 C9.13101666,2.77301901 8.13284832,4.75471554 7.35152899,5.74385563 C6.57020966,6.73299571 5.12598924,7.81477975 5.13040858,8.8459211 C4.65673562,8.8459211 4.28808615,8.8459211 4.02446017,8.8459211 C3.70493407,7.99102433 3.20494875,7.55768103 2.52450421,7.5458912 C1.50383741,7.52820645 1.12246841,8.61129676 1.17047852,8.8459211 C0.713076763,8.8459211 0.343841866,8.8459211 0.0627738249,8.8459211 C0.0766296515,7.00459566 0.290330423,5.81034724 0.703876138,5.26317582 C1.43919372,4.290261 2.01814776,3.94384322 3.08019761,3.73448534 C2.79018822,4.35079162 2.72183398,5.90408371 3.72974919,6.44368393 C4.09578682,6.63964682 4.71789419,6.82535937 5.44245186,6.67617111 C6.385278,6.48204081 6.87705252,5.87202137 6.87705252,5.09628858 C6.87705252,4.57913339 6.55256578,4.19209995 5.90359231,3.93518827 C6.42792882,4.2030402 6.64434259,4.64570272 6.55283362,5.26317582 C6.41557016,6.18938549 5.38595033,6.44368393 4.76721913,6.3845258 C4.14848794,6.32536766 3.21392135,5.88844853 3.21392135,4.82625839 C3.21392135,3.76406824 3.70697915,2.83873392 5.29201583,2.56301263 C6.87705252,2.28729134 7.12802549,2.44192141 7.49561781,1.94324262 C7.86321012,1.44456383 7.08004073,0.412394708 6.41965076,0.576091061 C5.78906383,0.710606467 5.89425436,1.34093634 6.22354399,1.3951059 C6.44307041,1.43121895 6.55283362,1.32970246 6.55283362,1.09055644 Z" id="Path-19"></path>
                            </g>
                        </g>
                    </g>
                    <g id="mac" filter="url(#filter-24)" transform="translate(73.000000, 181.500000) scale(-1, 1) translate(-73.000000, -181.500000) translate(0.000000, 118.000000)">
                        <g id="Group-3">
                            <mask id="mask-26" fill="white">
                                <use xlink:href="#path-25"></use>
                            </mask>
                            <g id="Clip-2"></g>
                            <path d="M144.843295,5.32076013 C144.843295,2.59024776 142.910121,0.381796495 140.519199,0.381796495 L4.32206647,0.381796495 C1.93674437,0.381796495 6.99918458e-05,2.59024776 6.99918458e-05,5.32076013 L6.99918458e-05,85.0759024 L144.843295,85.0759024 L144.843295,5.32076013 Z" id="Fill-1" fill="#EAEAEA" mask="url(#mask-26)"></path>
                        </g>
                        <path d="M134.934065,12.8123783 C134.934065,10.5485775 133.256512,8.71300646 131.185432,8.71300646 L13.0758729,8.71300646 C11.0061911,8.71300646 9.32723954,10.5485775 9.32723954,12.8123783 L9.32723954,79.0394157 L134.934065,79.0394157 L134.934065,12.8123783 Z" id="Fill-4" fill="#19B2B8"></path>
                        <g id="Group-8" transform="translate(0.000000, 84.640634)">
                            <mask id="mask-28" fill="white">
                                <use xlink:href="#path-27"></use>
                            </mask>
                            <g id="Clip-7"></g>
                        </g>
                        <path d="M0.000139983692,85.0332453 L0.000139983692,105.772374 C0.000139983692,107.868373 1.93681436,109.563398 4.32213646,109.563398 L140.519269,109.563398 C142.910191,109.563398 144.843365,107.868373 144.843365,105.772374 L144.843365,85.0332453 L0.000139983692,85.0332453 Z" id="Fill-6" fill="#FFFFFF"></path>
                        <polygon id="Fill-9" fill="#FFFFFF" points="91.3465691 103.311362 87.7854627 103.311362 57.0962646 103.311362 53.5344614 103.311362 51.6107254 123.849163 57.0962646 123.849163 87.7854627 123.849163 93.2723954 123.849163"></polygon>
                        <path d="M98.6382654,126.960951 C98.7856289,126.635795 98.8687391,126.277641 98.8687391,125.896115 C98.8687391,124.425004 97.6542128,123.226806 96.1575308,123.226806 L48.1009804,123.226806 C46.6029016,123.226806 45.3925657,124.425004 45.3925657,125.896115 C45.3925657,126.277641 45.4742791,126.635795 45.618849,126.960951 L98.6382654,126.960951 Z" id="Fill-13" fill="#FFFFFF"></path>
                        <path d="M78.9706281,96.7766075 C78.9706281,100.04611 76.3240138,102.689005 73.0608789,102.689005 C69.7998847,102.689005 67.1561247,100.04611 67.1561247,96.7766075 C67.1561247,93.5099633 69.7998847,90.8642102 73.0608789,90.8642102 C76.3240138,90.8642102 78.9706281,93.5099633 78.9706281,96.7766075" id="Fill-15" fill="#EAEAEA"></path>
                        <polygon id="Fill-17" fill="#FFFFFF" points="9.32723954 79.0394157 134.934065 79.0394157 134.934065 14.9365825 9.32723954 14.9365825"></polygon>
                        <path d="M134.934065,12.8067645 C134.934065,10.5460638 133.256521,8.71300646 131.185453,8.71300646 L13.075852,8.71300646 C11.0061818,8.71300646 9.32723954,10.5460638 9.32723954,12.8067645 L9.32723954,14.9365825 L134.934065,14.9365825 L134.934065,12.8067645 Z" id="Fill-19" fill="#F1F2F2"></path>
                        <polygon id="Fill-20" fill="#19B2B8" points="13.6799513 21.1601585 31.7126144 21.1601585 31.7126144 17.4260129 13.6799513 17.4260129"></polygon>
                        <polygon id="Fill-21" fill="#F1F2F2" points="108.195979 21.1601585 130.581354 21.1601585 130.581354 17.4260129 108.195979 17.4260129"></polygon>
                        <polygon id="Fill-22" fill="#F1F2F2" points="37.9307741 21.1601585 103.221451 21.1601585 103.221451 17.4260129 37.9307741 17.4260129"></polygon>
                        <polygon id="Fill-23" fill="#F9C74A" points="13.6799513 40.4532443 98.8687391 40.4532443 98.8687391 25.5166618 13.6799513 25.5166618"></polygon>
                        <polygon id="Fill-24" fill="#FFFFFF" points="16.1672152 38.5861715 28.6035346 38.5861715 28.6035346 28.0060922 16.1672152 28.0060922"></polygon>
                        <polygon id="Fill-25" fill="#FFFFFF" points="30.4689825 29.873165 65.2906768 29.873165 65.2906768 28.0060922 30.4689825 28.0060922"></polygon>
                        <polygon id="Fill-26" fill="#FFFFFF" points="30.4689825 32.984953 54.0979893 32.984953 54.0979893 31.7402378 30.4689825 31.7402378"></polygon>
                        <polygon id="Fill-27" fill="#FFFFFF" points="30.4689825 36.7190986 54.0979893 36.7190986 54.0979893 35.4743834 30.4689825 35.4743834"></polygon>
                        <polygon id="Fill-28" fill="#19B2B8" points="15.5453992 55.3898268 27.9817186 55.3898268 27.9817186 44.8097475 15.5453992 44.8097475"></polygon>
                        <polygon id="Fill-29" fill="#F1F2F2" points="29.8471665 46.6768203 64.6688608 46.6768203 64.6688608 44.8097475 29.8471665 44.8097475"></polygon>
                        <polygon id="Fill-30" fill="#F1F2F2" points="29.8471665 49.7886083 53.4761733 49.7886083 53.4761733 48.5438931 29.8471665 48.5438931"></polygon>
                        <polygon id="Fill-31" fill="#F1F2F2" points="29.8471665 53.522754 53.4761733 53.522754 53.4761733 52.2780388 29.8471665 52.2780388"></polygon>
                        <polygon id="Fill-32" fill="#19B2B8" points="15.5453992 71.5711245 27.9817186 71.5711245 27.9817186 60.9910452 15.5453992 60.9910452"></polygon>
                        <polygon id="Fill-33" fill="#F1F2F2" points="29.8471665 62.858118 64.6688608 62.858118 64.6688608 60.9910452 29.8471665 60.9910452"></polygon>
                        <polygon id="Fill-34" fill="#F1F2F2" points="29.8471665 65.969906 53.4761733 65.969906 53.4761733 64.7251908 29.8471665 64.7251908"></polygon>
                        <polygon id="Fill-35" fill="#F1F2F2" points="29.8471665 69.7040517 53.4761733 69.7040517 53.4761733 68.4593365 29.8471665 68.4593365"></polygon>
                        <polygon id="Fill-36" fill="#19B2B8" points="102.599635 45.4321051 131.203169 45.4321051 131.203169 25.5166618 102.599635 25.5166618"></polygon>
                        <polygon id="Fill-37" fill="#19B2B8" points="102.599635 75.9276277 131.203169 75.9276277 131.203169 61.6134028 102.599635 61.6134028"></polygon>
                        <polygon id="Fill-38" fill="#F1F2F2" points="102.599635 50.4109659 123.119562 50.4109659 123.119562 47.9215355 102.599635 47.9215355"></polygon>
                        <polygon id="Fill-39" fill="#F1F2F2" points="102.599635 54.1451116 127.472274 54.1451116 127.472274 51.6556812 102.599635 51.6556812"></polygon>
                        <polygon id="Fill-40" fill="#F1F2F2" points="102.599635 58.5016148 115.65777 58.5016148 115.65777 56.0121844 102.599635 56.0121844"></polygon>
                        <polygon id="Fill-41" fill="#F1F2F2" points="118.145034 58.5016148 124.363194 58.5016148 124.363194 56.0121844 118.145034 56.0121844"></polygon>
                    </g>
                </g>
            </g>
        </g>
    </g>
</svg>