<?xml version="1.0" encoding="UTF-8"?>
<svg width="22px" height="17px" viewBox="0 0 22 17" version="1.1" xmlns="http://www.w3.org/2000/svg" xmlns:xlink="http://www.w3.org/1999/xlink">
    <!-- Generator: Sketch 48.2 (47327) - http://www.bohemiancoding.com/sketch -->
    <title>youxiang</title>
    <desc>Created with Sketch.</desc>
    <defs></defs>
    <g id="官网2.2-修改页面" stroke="none" stroke-width="1" fill="none" fill-rule="evenodd">
        <g id="youxiang" transform="translate(1.000000, 1.000000)" fill="#606D8A" fill-rule="nonzero" stroke="#FFFFFF" stroke-width="0.2">
            <path d="M3.14285714,1.44200627 L9.35714286,7.71473354 C9.64285714,8.0031348 10.1428571,8.0031348 10.4285714,7.71473354 L16.8571429,1.44200627 L3.14285714,1.44200627 Z M18.5,1.87460815 L11.3571429,8.79623824 C10.5,9.58934169 9.14285714,9.58934169 8.28571429,8.79623824 L1.5,1.80250784 C1.42857143,1.94670846 1.42857143,2.01880878 1.42857143,2.1630094 L1.42857143,13.6990596 C1.42857143,14.1316614 1.71428571,14.4200627 2.14285714,14.4200627 L17.8571429,14.4200627 C18.2857143,14.4200627 18.5714286,14.1316614 18.5714286,13.6990596 L18.5714286,2.1630094 C18.5714286,2.09090909 18.5714286,1.94670846 18.5,1.87460815 Z M2.14285714,0 L17.8571429,0 C19.0714286,0 20,0.937304075 20,2.1630094 L20,13.6990596 C20,14.9247649 19.0714286,15.862069 17.8571429,15.862069 L2.14285714,15.862069 C0.928571429,15.862069 0,14.9247649 0,13.6990596 L0,2.1630094 C0,0.937304075 0.928571429,0 2.14285714,0 Z" id="Shape"></path>
        </g>
    </g>
</svg>