<?xml version="1.0" encoding="UTF-8"?>
<svg width="18px" height="16px" viewBox="0 0 18 16" version="1.1" xmlns="http://www.w3.org/2000/svg" xmlns:xlink="http://www.w3.org/1999/xlink">
    <!-- Generator: Sketch 48.2 (47327) - http://www.bohemiancoding.com/sketch -->
    <title>团队</title>
    <desc>Created with Sketch.</desc>
    <defs></defs>
    <g id="1-2-免费注册-创建企业团队" stroke="none" stroke-width="1" fill="none" fill-rule="evenodd" transform="translate(-349.000000, -195.000000)">
        <g id="团队" transform="translate(349.000000, 195.000000)" fill="#76C1EF" fill-rule="nonzero">
            <path d="M13.9202314,12.8901782 L9.46740571,10.6224617 L10.812146,8.62660588 C10.8772141,8.53156513 10.9119171,8.41663213 10.9119171,8.30169913 L10.9119171,5.11672883 C10.9119171,3.04130405 9.27870828,1.41456002 7.19436077,1.41456002 C5.11001325,1.41456002 3.47680443,3.04130405 3.47680443,5.11672883 L3.47680443,8.30169913 C3.47680443,8.42105263 3.51367635,8.53598563 3.58091336,8.63323663 L4.96469454,10.6158309 L0.318833594,12.8857577 C0.123629353,12.9807985 0,13.1819312 0,13.4029562 L0,15.425335 C0,15.743611 0.251596578,16 0.563923364,16 L13.6708037,16 C13.9831305,16 14.2347271,15.743611 14.2347271,15.425335 L14.2347271,13.4051665 C14.2325581,13.1863517 14.1110977,12.9874292 13.9202314,12.8901782 Z M17.6876732,11.4734079 L13.2348476,9.20569139 L14.5795879,7.20983561 C14.644656,7.11479486 14.679359,6.99986186 14.679359,6.88492886 L14.679359,3.70216881 C14.679359,1.62674403 13.0461501,0 10.9618026,0 C10.5562116,0 10.1571274,0.061887001 9.7797325,0.185661003 L10.1245933,1.27973477 C10.3913725,1.19132477 10.6733341,1.14711977 10.9618026,1.14711977 C12.4149898,1.14711977 13.5515122,2.26992679 13.5515122,3.70216881 L13.5515122,6.70810885 L11.9378238,9.09959939 C11.8445596,9.23663489 11.8163634,9.40682415 11.8554043,9.5681724 C11.896614,9.72952065 12.0028919,9.8643459 12.1482106,9.93728416 L16.8699843,12.3420362 L16.8699843,13.43611 L15.4645138,13.43611 L15.4645138,14.5832297 L17.4360766,14.5832297 C17.7484034,14.5832297 18,14.3268407 18,14.0085647 L18,11.9861859 C18,11.7695814 17.8785396,11.5706589 17.6876732,11.4734079 Z" id="Shape"></path>
        </g>
    </g>
</svg>