<?xml version="1.0" encoding="UTF-8"?>
<svg width="303px" height="278px" viewBox="0 0 303 278" version="1.1" xmlns="http://www.w3.org/2000/svg" xmlns:xlink="http://www.w3.org/1999/xlink">
    <!-- Generator: Sketch 48.2 (47327) - http://www.bohemiancoding.com/sketch -->
    <title>2 可视化拖拽数据分析</title>
    <desc>Created with Sketch.</desc>
    <defs>
        <filter x="-7.6%" y="-8.0%" width="115.3%" height="125.0%" filterUnits="objectBoundingBox" id="filter-1">
            <feOffset dx="0" dy="2" in="SourceAlpha" result="shadowOffsetOuter1"></feOffset>
            <feGaussianBlur stdDeviation="1.5" in="shadowOffsetOuter1" result="shadowBlurOuter1"></feGaussianBlur>
            <feColorMatrix values="0 0 0 0 0   0 0 0 0 0   0 0 0 0 0  0 0 0 0.18 0" type="matrix" in="shadowBlurOuter1" result="shadowMatrixOuter1"></feColorMatrix>
            <feMerge>
                <feMergeNode in="shadowMatrixOuter1"></feMergeNode>
                <feMergeNode in="SourceGraphic"></feMergeNode>
            </feMerge>
        </filter>
        <rect id="path-2" x="0.510737927" y="0.492363037" width="70.5711646" height="43.3585077"></rect>
        <linearGradient x1="50%" y1="0%" x2="50%" y2="100%" id="linearGradient-3">
            <stop stop-color="#35C8FF" stop-opacity="0.354336504" offset="0%"></stop>
            <stop stop-color="#02ACF5" stop-opacity="0" offset="100%"></stop>
        </linearGradient>
        <linearGradient x1="50%" y1="0%" x2="50%" y2="100%" id="linearGradient-4">
            <stop stop-color="#B4EC51" stop-opacity="0.494706748" offset="0%"></stop>
            <stop stop-color="#80D424" stop-opacity="0" offset="100%"></stop>
        </linearGradient>
        <filter x="-6.5%" y="-6.0%" width="113.1%" height="119.0%" filterUnits="objectBoundingBox" id="filter-5">
            <feOffset dx="0" dy="2" in="SourceAlpha" result="shadowOffsetOuter1"></feOffset>
            <feGaussianBlur stdDeviation="1.5" in="shadowOffsetOuter1" result="shadowBlurOuter1"></feGaussianBlur>
            <feColorMatrix values="0 0 0 0 0   0 0 0 0 0   0 0 0 0 0  0 0 0 0.18 0" type="matrix" in="shadowBlurOuter1" result="shadowMatrixOuter1"></feColorMatrix>
            <feMerge>
                <feMergeNode in="shadowMatrixOuter1"></feMergeNode>
                <feMergeNode in="SourceGraphic"></feMergeNode>
            </feMerge>
        </filter>
        <rect id="path-6" x="0.301490735" y="0.288626608" width="83.2483402" height="56.788134"></rect>
        <polygon id="path-7" points="37.8496745 189.835431 266.532926 189.835431 266.532926 50.3629903 37.8496745 50.3629903"></polygon>
        <filter x="-2.4%" y="-2.5%" width="104.8%" height="107.9%" filterUnits="objectBoundingBox" id="filter-8">
            <feOffset dx="0" dy="2" in="SourceAlpha" result="shadowOffsetOuter1"></feOffset>
            <feGaussianBlur stdDeviation="1.5" in="shadowOffsetOuter1" result="shadowBlurOuter1"></feGaussianBlur>
            <feColorMatrix values="0 0 0 0 0   0 0 0 0 0   0 0 0 0 0  0 0 0 0.0914572011 0" type="matrix" in="shadowBlurOuter1"></feColorMatrix>
        </filter>
        <linearGradient x1="100%" y1="39.4088699%" x2="2.92488728%" y2="66.5842009%" id="linearGradient-9">
            <stop stop-color="#02A9ED" offset="0%"></stop>
            <stop stop-color="#3CCFD2" offset="100%"></stop>
        </linearGradient>
        <linearGradient x1="100%" y1="47.1524533%" x2="2.92488728%" y2="54.4588525%" id="linearGradient-10">
            <stop stop-color="#02A9ED" offset="0%"></stop>
            <stop stop-color="#3CCFD2" offset="100%"></stop>
        </linearGradient>
        <linearGradient x1="51.6633045%" y1="22.1433924%" x2="48.4339951%" y2="93.6194792%" id="linearGradient-11">
            <stop stop-color="#02A9ED" offset="0%"></stop>
            <stop stop-color="#3CCFD2" offset="100%"></stop>
        </linearGradient>
        <linearGradient x1="100%" y1="42.1364945%" x2="2.92488728%" y2="62.3131294%" id="linearGradient-12">
            <stop stop-color="#02A9ED" offset="0%"></stop>
            <stop stop-color="#3CCFD2" offset="100%"></stop>
        </linearGradient>
        <linearGradient x1="100%" y1="22.2820577%" x2="2.92488728%" y2="93.4023492%" id="linearGradient-13">
            <stop stop-color="#02A9ED" offset="0%"></stop>
            <stop stop-color="#3CCFD2" offset="100%"></stop>
        </linearGradient>
        <linearGradient x1="100%" y1="23.4357898%" x2="2.92488728%" y2="91.595769%" id="linearGradient-14">
            <stop stop-color="#02A9ED" offset="0%"></stop>
            <stop stop-color="#3CCFD2" offset="100%"></stop>
        </linearGradient>
        <filter x="-2.1%" y="-1.6%" width="104.3%" height="105.0%" filterUnits="objectBoundingBox" id="filter-15">
            <feOffset dx="0" dy="2" in="SourceAlpha" result="shadowOffsetOuter1"></feOffset>
            <feGaussianBlur stdDeviation="1.5" in="shadowOffsetOuter1" result="shadowBlurOuter1"></feGaussianBlur>
            <feColorMatrix values="0 0 0 0 0   0 0 0 0 0   0 0 0 0 0  0 0 0 0.1 0" type="matrix" in="shadowBlurOuter1" result="shadowMatrixOuter1"></feColorMatrix>
            <feMerge>
                <feMergeNode in="shadowMatrixOuter1"></feMergeNode>
                <feMergeNode in="SourceGraphic"></feMergeNode>
            </feMerge>
        </filter>
    </defs>
    <g id="1-首页（大窗口" stroke="none" stroke-width="1" fill="none" fill-rule="evenodd" transform="translate(-487.000000, -1241.000000)">
        <g id="Group-14-Copy" transform="translate(0.000000, 660.000000)">
            <g id="Group-25-Copy">
                <g id="2-可视化拖拽数据分析" transform="translate(490.000000, 582.000000)">
                    <polyline id="Path-30-Copy" stroke="#64D5FF" stroke-width="1.16129764" stroke-dasharray="3.48389302889506,1.161297714710236" points="46.8059402 161.049406 8 161.049406 8 243.194639 65.0124563 243.194639"></polyline>
                    <polyline id="Path-30-Copy-2" stroke="#64D5FF" stroke-width="1.16129764" stroke-dasharray="3.48389302889506,1.161297714710236" transform="translate(219.337331, 53.984026) scale(1, -1) translate(-219.337331, -53.984026) " points="231.487484 22.9078897 185.70969 22.9078897 185.70969 85.0601615 252.964973 85.0601615"></polyline>
                    <g id="Group-80" filter="url(#filter-1)" transform="translate(225.972041, 0.000000)">
                        <g id="Rectangle-Copy-3">
                            <use fill="#FFFFFF" fill-rule="evenodd" xlink:href="#path-2"></use>
                            <rect stroke="#EAEAEA" stroke-width="1.53291289" x="1.27719437" y="1.25881948" width="69.0382517" height="41.8255948"></rect>
                        </g>
                        <g id="折线图图" transform="translate(11.249828, 7.782732)">
                            <polyline id="Path-8" stroke="#46C2F1" stroke-width="1.14968467" points="0.383538938 13.5646136 16.6410244 25.7855429 29.4739704 8.64257493 43.5918936 3.33038536 49.310972 8.64257493"></polyline>
                            <polygon id="Path-8" fill="url(#linearGradient-3)" points="0.383538938 13.5646136 16.6410244 25.7855429 29.4739704 8.64257493 43.5918936 3.33038536 49.310972 8.64257493 49.310972 25.7855429 0.383538938 25.7855429"></polygon>
                            <ellipse id="Oval-2-Copy-4" stroke="#46C2F1" stroke-width="1.14968467" fill="#FFFFFF" cx="16.3004049" cy="25.1325863" rx="1.72592522" ry="1.72666624"></ellipse>
                            <ellipse id="Oval-2-Copy-5" stroke="#46C2F1" stroke-width="1.14968467" fill="#FFFFFF" cx="29.7242677" cy="8.63333118" rx="1.72592522" ry="1.72666624"></ellipse>
                            <ellipse id="Oval-2-Copy-6" stroke="#46C2F1" stroke-width="1.14968467" fill="#FFFFFF" cx="43.9152084" cy="3.26148067" rx="1.72592522" ry="1.72666624"></ellipse>
                            <polyline id="Path-6" stroke="#7ED321" stroke-width="1.14968467" points="0 29.1077027 16.3588411 13.2404773 29.5400027 21.17409 43.490663 13.2404773 48.9274331 0.0348480816"></polyline>
                            <polygon id="Path-6" fill="url(#linearGradient-4)" points="0 29.1077027 16.3588411 13.2404773 29.5400027 21.17409 43.490663 13.2404773 48.9274331 0.0348480816 48.9274331 29.1077027"></polygon>
                            <ellipse id="Oval-2-Copy" stroke="#7ED321" stroke-width="1.14968467" fill="#FFFFFF" cx="28.9571898" cy="20.528143" rx="1.72592522" ry="1.72666624"></ellipse>
                            <ellipse id="Oval-2-Copy-3" stroke="#7ED321" stroke-width="1.14968467" fill="#FFFFFF" cx="43.5316695" cy="13.2377745" rx="1.72592522" ry="1.72666624"></ellipse>
                            <ellipse id="Oval-2-Copy-2" stroke="#7ED321" stroke-width="1.14968467" fill="#FFFFFF" cx="15.9168659" cy="14.0051817" rx="1.72592522" ry="1.72666624"></ellipse>
                        </g>
                    </g>
                    <g id="Group-78" filter="url(#filter-5)" transform="translate(51.039065, 214.501149)">
                        <g id="Rectangle-Copy">
                            <use fill="#FFFFFF" fill-rule="evenodd" xlink:href="#path-6"></use>
                            <rect stroke="#EAEAEA" stroke-width="1.53291289" x="1.06794718" y="1.05508305" width="81.7154273" height="55.2552211"></rect>
                        </g>
                        <g id="百分比柱状图图" transform="translate(41.732234, 28.997513) scale(-1, 1) translate(-41.732234, -28.997513) translate(13.732234, 9.497513)" stroke="#FFFFFF" stroke-width="0.766456446">
                            <rect id="Rectangle-6" fill="#F8E71C" x="50.6142115" y="0" width="4.99893447" height="38.3703608"></rect>
                            <rect id="Rectangle-6-Copy" fill="#F8E71C" x="40.6163426" y="0" width="4.99893447" height="38.3703608"></rect>
                            <rect id="Rectangle-6" fill="#F8E71C" x="0" y="0" width="4.99893447" height="38.3703608"></rect>
                            <rect id="Rectangle-6-Copy" fill="#F8E71C" x="20.3081713" y="0" width="4.99893447" height="38.3703608"></rect>
                            <rect id="Rectangle-6-Copy-4" fill="#F8E71C" x="9.99786894" y="0" width="4.99893447" height="38.3703608"></rect>
                            <rect id="Rectangle-6-Copy-5" fill="#F8E71C" x="30.3060402" y="0" width="4.99893447" height="38.3703608"></rect>
                            <rect id="Rectangle-6-Copy-2" fill="#F76E3A" x="40.6163426" y="17.7813867" width="4.99893447" height="20.5889741"></rect>
                            <rect id="Rectangle-6-Copy-3" fill="#F76E3A" x="50.6142115" y="23.0846073" width="4.99893447" height="15.2857535"></rect>
                            <rect id="Rectangle-6-Copy-5" fill="#F76E3A" x="30.3060402" y="12.166212" width="4.99893447" height="26.2041488"></rect>
                            <rect id="Rectangle-6-Copy-2" fill="#F76E3A" x="20.3081713" y="7.17494551" width="4.99893447" height="31.1954153"></rect>
                            <rect id="Rectangle-6-Copy-6" fill="#F76E3A" x="9.99786894" y="12.166212" width="4.99893447" height="26.2041488"></rect>
                            <rect id="Rectangle-6-Copy-3" fill="#F76E3A" x="0" y="17.7813867" width="4.99893447" height="20.5889741"></rect>
                        </g>
                    </g>
                    <g id="Group-10" transform="translate(0.000000, 19.000000)">
                        <polygon id="导航栏" fill="#EAEAEA" points="38.2453202 50.7580963 266.928571 50.7580963 266.928571 36.5342781 38.2453202 36.5342781"></polygon>
                        <g id="底">
                            <use fill="black" fill-opacity="1" filter="url(#filter-8)" xlink:href="#path-7"></use>
                            <use fill="#FFFFFF" fill-rule="evenodd" xlink:href="#path-7"></use>
                        </g>
                        <g id="拖拽数据" transform="translate(91.261853, 64.981915)" fill="#7ECAF8">
                            <path d="M2.46797452,4.742344 L25.3026643,4.742344 C26.5392669,4.742344 27.5417314,3.73987954 27.5417314,2.50327695 L27.5417314,2.50327695 C27.5417314,1.26667437 26.5392669,0.264209911 25.3026643,0.264209911 L2.46797452,0.264209911 C1.23137194,0.264209911 0.228907476,1.26667437 0.228907476,2.50327695 L0.228907476,2.50327695 C0.228907476,3.73987954 1.23137194,4.742344 2.46797452,4.742344 Z" id="Fill-175"></path>
                            <path d="M2.46797452,10.9590478 L25.3026643,10.9590478 C26.5392669,10.9590478 27.5417314,9.95658333 27.5417314,8.71998074 L27.5417314,8.71998074 C27.5417314,7.48337816 26.5392669,6.4809137 25.3026643,6.4809137 L2.46797452,6.4809137 C1.23137194,6.4809137 0.228907476,7.48337816 0.228907476,8.71998074 L0.228907476,8.71998074 C0.228907476,9.95658333 1.23137194,10.9590478 2.46797452,10.9590478 Z" id="Fill-175-Copy-3"></path>
                            <path d="M2.46797452,17.1757516 L25.3026643,17.1757516 C26.5392669,17.1757516 27.5417314,16.1732871 27.5417314,14.9366845 L27.5417314,14.9366845 C27.5417314,13.700082 26.5392669,12.6976175 25.3026643,12.6976175 L2.46797452,12.6976175 C1.23137194,12.6976175 0.228907476,13.700082 0.228907476,14.9366845 L0.228907476,14.9366845 C0.228907476,16.1732871 1.23137194,17.1757516 2.46797452,17.1757516 Z" id="Fill-175-Copy-4"></path>
                            <path d="M32.1218976,17.1757516 L54.9565874,17.1757516 C56.19319,17.1757516 57.1956545,16.1732871 57.1956545,14.9366845 L57.1956545,14.9366845 C57.1956545,13.700082 56.19319,12.6976175 54.9565874,12.6976175 L32.1218976,12.6976175 C30.885295,12.6976175 29.8828306,13.700082 29.8828306,14.9366845 L29.8828306,14.9366845 C29.8828306,16.1732871 30.885295,17.1757516 32.1218976,17.1757516 Z" id="Fill-175-Copy-5"></path>
                            <path d="M32.1218976,4.742344 L54.9565874,4.742344 C56.19319,4.742344 57.1956545,3.73987954 57.1956545,2.50327695 L57.1956545,2.50327695 C57.1956545,1.26667437 56.19319,0.264209911 54.9565874,0.264209911 L32.1218976,0.264209911 C30.885295,0.264209911 29.8828306,1.26667437 29.8828306,2.50327695 L29.8828306,2.50327695 C29.8828306,3.73987954 30.885295,4.742344 32.1218976,4.742344 Z" id="Fill-175-Copy"></path>
                            <path d="M61.7953299,4.742344 L84.6300197,4.742344 C85.8666223,4.742344 86.8690867,3.73987954 86.8690867,2.50327695 L86.8690867,2.50327695 C86.8690867,1.26667437 85.8666223,0.264209911 84.6300197,0.264209911 L61.7953299,0.264209911 C60.5587273,0.264209911 59.5562628,1.26667437 59.5562628,2.50327695 L59.5562628,2.50327695 C59.5562628,3.73987954 60.5587273,4.742344 61.7953299,4.742344 Z" id="Fill-175-Copy"></path>
                        </g>
                        <g id="统计图" transform="translate(90.866207, 84.342112)">
                            <polygon id="Fill-176" fill="#F6F6F6" points="0.344184147 98.4631248 122.956472 98.4631248 122.956472 0.256687024 0.344184147 0.256687024"></polygon>
                            <rect id="Rectangle-3" fill="#7ED321" x="8.94878781" y="33.8892103" width="5.47565688" height="58.6613779"></rect>
                            <rect id="Rectangle-3-Copy" fill="#7ED321" x="20.6823383" y="51.0965478" width="5.47565688" height="41.4540404"></rect>
                            <rect id="Rectangle-3-Copy-2" fill="#7ED321" x="33.9803621" y="37.0178172" width="5.47565688" height="55.532771"></rect>
                            <rect id="Rectangle-3-Copy-3" fill="#7ED321" x="46.4961493" y="51.0965478" width="5.47565688" height="41.4540404"></rect>
                            <rect id="Rectangle-3-Copy-4" fill="#7ED321" x="59.0119364" y="18.2461762" width="5.47565688" height="74.304412"></rect>
                            <rect id="Rectangle-3-Copy-5" fill="#7ED321" x="71.5277236" y="33.8892103" width="5.47565688" height="58.6613779"></rect>
                            <rect id="Rectangle-3-Copy-6" fill="#7ED321" x="84.0435107" y="46.4036376" width="5.47565688" height="46.1469506"></rect>
                            <rect id="Rectangle-3-Copy-7" fill="#7ED321" x="96.5592978" y="55.0073064" width="5.47565688" height="37.5432818"></rect>
                            <rect id="Rectangle-3-Copy-8" fill="#7ED321" x="109.075085" y="25.2855416" width="5.47565688" height="67.2650466"></rect>
                        </g>
                        <g id="icon" transform="translate(220.242371, 70.513399)" fill="#FFB53C">
                            <polygon id="Fill-177" points="0 6.24460314 6.26573699 6.24460314 6.26573699 0 0 0"></polygon>
                            <polygon id="Fill-177-Copy-5" points="0 14.8309325 6.26573699 14.8309325 6.26573699 8.58632932 0 8.58632932"></polygon>
                            <polygon id="Fill-177-Copy" points="8.02797551 6.24460314 14.2937125 6.24460314 14.2937125 0 8.02797551 0"></polygon>
                            <polygon id="Fill-177-Copy-6" points="8.02797551 14.8309325 14.2937125 14.8309325 14.2937125 8.58632932 8.02797551 8.58632932"></polygon>
                            <polygon id="Fill-177-Copy-2" points="16.055951 6.24460314 22.321688 6.24460314 22.321688 0 16.055951 0"></polygon>
                            <polygon id="Fill-177-Copy-7" points="16.055951 14.8309325 22.321688 14.8309325 22.321688 8.58632932 16.055951 8.58632932"></polygon>
                            <polygon id="Fill-177-Copy-3" points="24.0839265 6.24460314 30.3496635 6.24460314 30.3496635 0 24.0839265 0"></polygon>
                            <polygon id="Fill-177-Copy-8" points="24.0839265 14.8309325 30.3496635 14.8309325 30.3496635 8.58632932 24.0839265 8.58632932"></polygon>
                            <polygon id="Fill-177-Copy-4" points="32.1119021 6.24460314 38.377639 6.24460314 38.377639 0 32.1119021 0"></polygon>
                            <polygon id="Fill-177-Copy-9" points="32.1119021 14.8309325 38.377639 14.8309325 38.377639 8.58632932 32.1119021 8.58632932"></polygon>
                            <polygon id="Fill-177-Copy-14" points="0 23.4172618 6.26573699 23.4172618 6.26573699 17.1726586 0 17.1726586"></polygon>
                            <polygon id="Fill-177-Copy-13" points="8.02797551 23.4172618 14.2937125 23.4172618 14.2937125 17.1726586 8.02797551 17.1726586"></polygon>
                            <polygon id="Fill-177-Copy-12" points="16.055951 23.4172618 22.321688 23.4172618 22.321688 17.1726586 16.055951 17.1726586"></polygon>
                            <polygon id="Fill-177-Copy-11" points="24.0839265 23.4172618 30.3496635 23.4172618 30.3496635 17.1726586 24.0839265 17.1726586"></polygon>
                            <polygon id="Fill-177-Copy-10" points="32.1119021 23.4172618 38.377639 23.4172618 38.377639 17.1726586 32.1119021 17.1726586"></polygon>
                            <polygon id="Fill-177-Copy-19" points="0 32.0035911 6.26573699 32.0035911 6.26573699 25.758988 0 25.758988"></polygon>
                            <polygon id="Fill-177-Copy-18" points="8.02797551 32.0035911 14.2937125 32.0035911 14.2937125 25.758988 8.02797551 25.758988"></polygon>
                            <polygon id="Fill-177-Copy-17" points="16.055951 32.0035911 22.321688 32.0035911 22.321688 25.758988 16.055951 25.758988"></polygon>
                            <polygon id="Fill-177-Copy-16" points="24.0839265 32.0035911 30.3496635 32.0035911 30.3496635 25.758988 24.0839265 25.758988"></polygon>
                            <polygon id="Fill-177-Copy-15" points="32.1119021 32.0035911 38.377639 32.0035911 38.377639 25.758988 32.1119021 25.758988"></polygon>
                        </g>
                        <g id="其他" transform="translate(45.762590, 56.289581)">
                            <g id="pc端正常">
                                <path d="M9.51586335,6.13004207 L7.33581114,6.13004207 C7.22058325,6.13004207 7.12717256,6.03663142 7.12717256,5.92140352 L7.12717256,1.76038789 C7.12717256,1.64515999 7.22058325,1.55174933 7.33581114,1.55174933 L9.51586335,1.55174933 L9.51586335,2.16176911 L7.79385743,2.16176911 L7.79385743,3.52959695 L9.51586335,3.52959695 L9.51586335,4.12703901 L7.79385743,4.12703901 L7.79385743,5.49801129 L9.51586335,5.49801129 L9.51586335,6.13004207 Z M10.299455,6.13004207 L10.299455,1.55174933 L10.9187452,1.55174933 L10.9187452,6.13004207 L10.299455,6.13004207 Z M14.3690763,4.07043924 C14.2911381,3.78534264 14.156328,3.56471055 13.9646419,3.40853633 C13.7729559,3.25236209 13.5433574,3.17427614 13.2758396,3.17427614 C13.0020024,3.17427614 12.7645049,3.25445836 12.5633399,3.41482519 C12.3621749,3.57519203 12.2236785,3.79372785 12.1478467,4.07043924 L14.3690763,4.07043924 Z M12.1288888,4.63014811 C12.1815498,4.91943727 12.3126737,5.1536951 12.5222645,5.33292862 C12.7318553,5.51216212 12.980938,5.60177753 13.2695203,5.60177753 C13.4759514,5.60177753 13.6639483,5.55251525 13.8335167,5.45398924 C14.0030851,5.35546322 14.1384218,5.21606147 14.2395309,5.0357798 L14.9441315,5.0357798 C14.7840421,5.41940241 14.5602362,5.71287979 14.2727072,5.91622073 C13.9851782,6.11956167 13.6507859,6.2212306 13.2695203,6.2212306 C13.0125346,6.2212306 12.7776701,6.17616086 12.5649197,6.08602005 C12.3521693,5.99587922 12.1594329,5.86067 11.9867049,5.68038833 C11.824509,5.51058817 11.6975979,5.31301499 11.6059678,5.08766292 C11.5143376,4.86231085 11.4685233,4.63224556 11.4685233,4.39746013 C11.4685233,4.15428952 11.5101248,3.92684456 11.5933292,3.71511843 C11.6765336,3.50339231 11.7992318,3.31053573 11.9614277,3.13654298 C12.1341558,2.94787613 12.3289985,2.80585404 12.5459618,2.71047247 C12.7629251,2.61509087 12.999896,2.5674008 13.2568817,2.5674008 C13.5623155,2.5674008 13.846154,2.63814982 14.1084057,2.77964997 C14.3706575,2.92115009 14.5870909,3.11872327 14.7577125,3.37237535 C14.8588217,3.52959774 14.9335991,3.7020157 14.9820473,3.88963441 C15.0304954,4.07725311 15.0547191,4.29159639 15.0547191,4.5326707 L15.0547191,4.63014811 L12.1288888,4.63014811 Z M16.1858716,4.37859355 C16.1858716,4.7202902 16.3011974,5.01167128 16.5318526,5.25274559 C16.7625077,5.4938199 17.0379206,5.61435525 17.3580995,5.61435525 C17.6845976,5.61435525 17.9647499,5.4985365 18.1985647,5.26689555 C18.4323795,5.03525456 18.5492852,4.75383075 18.5492852,4.4226156 C18.5492852,4.07253377 18.4334328,3.77905639 18.2017244,3.54217467 C17.970016,3.30529297 17.6867041,3.18685389 17.3517802,3.18685389 C17.04424,3.18685389 16.7730399,3.30581704 16.5381719,3.54374691 C16.3033038,3.78167677 16.1858716,4.0599562 16.1858716,4.37859355 Z M16.2048294,5.71183266 L16.2048294,7.24945982 L15.57922,7.24945982 L15.57922,2.87980562 C15.57922,2.76457773 15.6726306,2.67116707 15.7878585,2.67116707 L16.0025102,2.67116707 C16.1177381,2.67116707 16.2111487,2.76457773 16.2111487,2.87980562 L16.2111487,3.09566537 C16.3712382,2.93215409 16.5497562,2.80795026 16.7467084,2.72305019 C16.9436605,2.6381501 17.1537747,2.59570069 17.3770573,2.59570069 C17.9015608,2.59570069 18.3365341,2.76864271 18.6819902,3.11453195 C19.0274464,3.46042119 19.2001718,3.89434845 19.2001718,4.41632674 C19.2001718,4.65740105 19.1569905,4.88694228 19.0706264,5.1049573 C18.9842624,5.32297233 18.8599843,5.51687703 18.6977885,5.68667719 C18.5229539,5.86905516 18.3317974,6.00374031 18.1243131,6.09073668 C17.9168288,6.17773307 17.6803845,6.2212306 17.414973,6.2212306 C17.1790518,6.2212306 16.9605119,6.17878121 16.7593469,6.09388112 C16.5581819,6.00898102 16.3733446,5.88163283 16.2048294,5.71183266 Z M20.3913576,6.13004207 L19.7657481,6.13004207 L19.7657481,1.76038789 C19.7657481,1.64515999 19.8591588,1.55174933 19.9743867,1.55174933 L20.182719,1.55174933 C20.2979469,1.55174933 20.3913576,1.64515999 20.3913576,1.76038789 L20.3913576,3.06422104 C20.4924667,2.91538386 20.6235906,2.80323358 20.7847332,2.72776685 C20.9458759,2.65230011 21.1338728,2.6145673 21.3487297,2.6145673 C21.7700176,2.6145673 22.0975641,2.74872837 22.3313789,3.01705457 C22.5651937,3.28538075 22.6820994,3.66166067 22.6820994,4.14590559 L22.6820994,6.13004207 L22.0564899,6.13004207 L22.0564899,4.34714924 C22.0564899,3.96352663 21.9911912,3.67843434 21.860592,3.49186378 C21.7299927,3.30529321 21.5298839,3.21200934 21.2602597,3.21200934 C21.0959573,3.21200934 20.9506152,3.24974214 20.8242288,3.32520888 C20.6978424,3.40067562 20.5967348,3.5096815 20.520903,3.6522298 C20.4745613,3.73817802 20.4413854,3.84299138 20.4213742,3.96667297 C20.401363,4.09035458 20.3913576,4.28740367 20.3913576,4.55782617 L20.3913576,6.13004207 Z M23.892243,4.37859355 C23.892243,4.72867538 24.0086221,5.02215275 24.2413836,5.25903448 C24.4741452,5.49591617 24.759037,5.61435525 25.0960673,5.61435525 C25.4036075,5.61435525 25.6748075,5.49539211 25.9096756,5.25746224 C26.1445438,5.01953237 26.2619759,4.74125295 26.2619759,4.4226156 C26.2619759,4.08301527 26.1455968,3.79215823 25.9128354,3.55003577 C25.6800737,3.30791331 25.4036076,3.18685389 25.0834287,3.18685389 C24.7548241,3.18685389 24.4741452,3.30214856 24.2413836,3.53274139 C24.0086221,3.7633342 23.892243,4.04528211 23.892243,4.37859355 Z M26.2303795,6.13004207 L26.2303795,5.70554378 C26.0702901,5.87115135 25.8917719,5.9964033 25.6948198,6.0813034 C25.4978677,6.16620347 25.2877535,6.20865287 25.0644709,6.20865287 C24.5420738,6.20865287 24.1081537,6.03518679 23.7626976,5.6882494 C23.4172415,5.34131204 23.244516,4.9068607 23.244516,4.38488241 C23.244516,4.1417118 23.2876974,3.91112244 23.3740614,3.69310741 C23.4604254,3.47509237 23.5836503,3.28328394 23.7437397,3.11767637 C23.9185742,2.93529843 24.1097308,2.80061328 24.3172151,2.71361689 C24.5246994,2.6266205 24.7611437,2.58312297 25.0265552,2.58312297 C25.2645828,2.58312297 25.4836493,2.62504832 25.6837612,2.70890024 C25.8838729,2.79275218 26.0660771,2.91957632 26.2303795,3.08937648 L26.2303795,2.87980562 C26.2303795,2.76457773 26.3237901,2.67116707 26.439018,2.67116707 L26.6536697,2.67116707 C26.7688976,2.67116707 26.8623082,2.76457773 26.8623082,2.87980562 L26.8623082,6.13004207 L26.2303795,6.13004207 Z M28.2146359,6.13004207 L27.5890262,6.13004207 L27.5890262,2.87980562 C27.5890262,2.76457773 27.682437,2.67116707 27.797665,2.67116707 L27.98072,2.67116707 C28.0959479,2.67116707 28.1893587,2.76457773 28.1893587,2.87980562 L28.1893587,3.06422104 C28.319958,2.90909497 28.4637204,2.79537249 28.6206501,2.72305019 C28.7775799,2.6507279 28.9571511,2.6145673 29.1593693,2.6145673 C29.6143602,2.6145673 29.9634975,2.74768025 30.2067913,3.01391013 C30.450085,3.28014004 30.5717301,3.6616606 30.5717301,4.15848332 L30.5717301,6.13004207 L29.942961,6.13004207 L29.942961,4.29369389 C29.942961,3.92684167 29.8745028,3.65485105 29.7375843,3.47771383 C29.6006656,3.3005766 29.3889715,3.21200934 29.1024957,3.21200934 C28.7907427,3.21200934 28.5648305,3.31629862 28.4247521,3.5248803 C28.2846739,3.733462 28.2146359,4.07777384 28.2146359,4.55782617 L28.2146359,6.13004207 Z M31.5164638,6.13004207 L31.5164638,3.2371648 L31.0267188,3.2371648 L31.0267188,2.67116707 L31.5164638,2.67116707 L31.5164638,1.76038789 C31.5164638,1.64515999 31.6098743,1.55174933 31.7251022,1.55174933 L31.930275,1.55174933 C32.045503,1.55174933 32.1389135,1.64515999 32.1389135,1.76038789 L32.1389135,2.67116707 L32.631818,2.67116707 L32.631818,3.2371648 L32.1389135,3.2371648 L32.1389135,6.13004207 L31.5164638,6.13004207 Z" id="ElephantBI-Copy-11" fill="#4A5A66" fill-rule="nonzero"></path>
                                <g id="Group-15-Copy-8" transform="translate(33.293926, 1.037760)">
                                    <path d="M1.02087074,0.513989798 C1.52750349,0.513989798 1.91236465,0.620709924 2.17546577,0.834153372 C2.4385669,1.04759682 2.57011548,1.35834072 2.57011548,1.76639437 C2.57011548,1.95472683 2.52717194,2.12108467 2.44128356,2.26547289 C2.35539517,2.4098611 2.22982606,2.52913654 2.06457247,2.62330276 C2.29723214,2.69026541 2.48096529,2.81895734 2.61577744,3.00938238 C2.75058958,3.1998074 2.81799463,3.42684926 2.81799463,3.69051468 C2.81799463,3.90395814 2.77668186,4.10431993 2.69405507,4.29160611 C2.61142825,4.47889226 2.49727453,4.63426421 2.35159044,4.7577266 C2.20808073,4.87491124 2.04554756,4.9586133 1.86398604,5.00883528 C1.68242452,5.05905727 1.426394,5.08416789 1.09588681,5.08416789 L0.208638565,5.08416789 C0.0934106673,5.08416789 2.83247985e-14,4.99075724 2.83106871e-14,4.87552932 L2.83390896e-14,0.722628363 C2.83249782e-14,0.607400466 0.0934106673,0.513989798 0.208638565,0.513989798 L1.02087074,0.513989798 Z M0.681667685,2.42869353 L0.900192733,2.42869353 C1.25461822,2.42869353 1.5073872,2.37690288 1.65850727,2.27332003 C1.80962733,2.16973718 1.88518623,1.9986711 1.88518623,1.76011666 C1.88518623,1.54876579 1.81669399,1.39234757 1.67970746,1.2908573 C1.54272092,1.18936703 1.33289549,1.13862266 1.05022485,1.13862266 L0.681667685,1.13862266 L0.681667685,2.42869353 Z M0.675144551,4.46581276 L1.21656482,4.46581276 C1.53402568,4.46581276 1.76776904,4.40879072 1.91780191,4.29474495 C2.06783478,4.18069918 2.14285009,4.00440173 2.14285009,3.76584729 C2.14285009,3.50636701 2.06457325,3.30966718 1.90801721,3.17574188 C1.75146117,3.04181658 1.52097934,2.97485493 1.21656482,2.97485493 L0.675144551,2.97485493 L0.675144551,4.46581276 Z" id="Combined-Shape" fill="url(#linearGradient-9)" fill-rule="nonzero"></path>
                                    <polygon id="Path" fill="url(#linearGradient-10)" fill-rule="nonzero" points="4.59228757 5.08416789 3.13110515 5.08416789 3.13110515 4.78493971 3.54858584 4.78493971 3.54858584 0.825592849 3.23547532 0.824578517 3.23547532 0.513989798 4.4879174 0.513989798 4.4879174 0.825592849 4.17480688 0.825592849 4.17480688 4.78493971 4.59228757 4.78493971"></polygon>
                                    <g id="TM" transform="translate(5.372362, 0.000000)" fill="#4A5A66" font-family="LucidaGrande, Lucida Grande" font-size="1.40179036" font-weight="normal">
                                        <text>
                                            <tspan x="0.00561718774" y="1.04672634">TM</tspan>
                                        </text>
                                    </g>
                                </g>
                                <g id="Group" fill-rule="nonzero">
                                    <path d="M4.70551989,4.72165196 L4.70551989,6.05051838 L3.99948638,6.05051838 L3.99948638,5.58640301 C4.16642894,5.29751657 4.43307807,5.00714192 4.70551989,4.72165196 Z" id="Combined-Shape" fill="url(#linearGradient-12)"></path>
                                    <path d="M1.85956415,5.42333984 L1.85956415,6.05051838 L1.22413399,6.05051838 L1.22413399,5.62026649 C1.3535182,5.49725732 1.52551765,5.40940979 1.74564959,5.41364774 C1.78457708,5.41439716 1.8225486,5.41762787 1.85956415,5.42333984 Z" id="Combined-Shape" fill="url(#linearGradient-13)"></path>
                                    <path d="M4.49831335,0.748632558 L4.6822627,0.748632558 C4.73365484,1.02009159 4.64186311,1.17151633 4.40688752,1.20290679 C4.10194796,1.23447787 3.93501413,1.10417229 3.85029191,0.957696148 C3.76556972,0.811220004 3.71747501,0.454638148 3.98342095,0.21912671 C4.50163851,-0.239786749 5.35348264,0.0861737034 5.81081863,0.994881841 C6.26815459,1.90358998 5.58294354,3.26396207 5.0465925,3.94297551 C4.51024145,4.62198893 3.51882974,5.36459951 3.52186349,6.0724455 C3.19670194,6.0724455 2.94363573,6.0724455 2.76266481,6.0724455 C2.54332024,5.48558586 2.20009611,5.18810935 1.73299242,5.18001602 C1.03233689,5.16787599 0.770539114,5.91138328 0.803496539,6.0724455 C0.48950468,6.0724455 0.236036583,6.0724455 0.0430922485,6.0724455 C0.0526038358,4.80843371 0.199302666,3.98861989 0.48318874,3.61300399 C0.987961037,2.94512868 1.38539471,2.70732383 2.11445839,2.56360625 C1.9153761,2.98668106 1.86845307,4.05296701 2.56035503,4.42338554 C2.81162831,4.55790786 3.23868536,4.68539366 3.73607133,4.58298064 C4.3832917,4.44971632 4.72087937,4.03095724 4.72087937,3.49844117 C4.72087937,3.14343048 4.49812949,2.87774422 4.05262968,2.70138249 C4.41257015,2.88525438 4.56113138,3.18912822 4.49831335,3.61300399 C4.40408632,4.24881768 3.6972848,4.42338554 3.27254539,4.38277534 C2.84780597,4.34216515 2.20625551,4.04223396 2.20625551,3.31307397 C2.20625551,2.58391399 2.54472412,1.94870119 3.63280175,1.75942723 C4.72087937,1.57015328 4.8931644,1.67630193 5.14550491,1.33397469 C5.39784543,0.991647449 4.86022438,0.283095945 4.40688752,0.395468322 C3.97400949,0.487808899 4.04621948,0.920510452 4.2722664,0.957696148 C4.42296437,0.982486611 4.49831335,0.912798746 4.49831335,0.748632558 Z" id="Path-19" fill="url(#linearGradient-14)"></path>
                                </g>
                            </g>
                            <polygon id="Fill-179" fill="#D1D3D4" points="174.766566 66.9092217 213.091424 66.9092217 213.091424 64.2107097 174.766566 64.2107097"></polygon>
                            <polygon id="Fill-180" fill="#E6E7E8" points="174.766566 72.2533337 213.091424 72.2533337 213.091424 70.4543257 174.766566 70.4543257"></polygon>
                            <polygon id="Fill-181" fill="#E6E7E8" points="174.766566 77.7164976 213.091424 77.7164976 213.091424 75.9174896 174.766566 75.9174896"></polygon>
                            <polygon id="Fill-182" fill="#E6E7E8" points="174.766566 82.3992095 194.598454 82.3992095 194.598454 80.6002016 174.766566 80.6002016"></polygon>
                            <polygon id="Fill-184" fill="#D1D3D4" points="174.766566 97.3468494 213.091424 97.3468494 213.091424 94.6483374 174.766566 94.6483374"></polygon>
                            <polygon id="Fill-185" fill="#E6E7E8" points="174.766566 101.910509 213.091424 101.910509 213.091424 100.111501 174.766566 100.111501"></polygon>
                            <polygon id="Fill-186" fill="#E6E7E8" points="174.766566 107.373673 213.091424 107.373673 213.091424 105.574665 174.766566 105.574665"></polygon>
                            <polygon id="Fill-187" fill="#E6E7E8" points="174.766566 112.836837 194.598454 112.836837 194.598454 111.037829 174.766566 111.037829"></polygon>
                            <polygon id="Fill-188" fill="#D1D3D4" points="0.349355848 19.5397543 38.6742137 19.5397543 38.6742137 15.0422343 0.349355848 15.0422343"></polygon>
                            <polygon id="Fill-188-Copy" fill="#D1D3D4" points="0.349355848 76.5127496 38.6742137 76.5127496 38.6742137 72.0152297 0.349355848 72.0152297"></polygon>
                            <polygon id="Fill-189" fill="#E6E7E8" points="0.349355848 25.5452662 38.6742137 25.5452662 38.6742137 22.8467542 0.349355848 22.8467542"></polygon>
                            <polygon id="Fill-189-Copy-5" fill="#E6E7E8" points="0.349355848 82.5182615 38.6742137 82.5182615 38.6742137 79.8197496 0.349355848 79.8197496"></polygon>
                            <polygon id="Fill-189-Copy" fill="#E6E7E8" points="0.349355848 31.7888821 24.2810054 31.7888821 24.2810054 29.0903702 0.349355848 29.0903702"></polygon>
                            <polygon id="Fill-189-Copy-6" fill="#E6E7E8" points="0.349355848 88.7618775 24.2810054 88.7618775 24.2810054 86.0633655 0.349355848 86.0633655"></polygon>
                            <polygon id="Fill-189-Copy-2" fill="#E6E7E8" points="0.349355848 38.032498 38.6742137 38.032498 38.6742137 35.3339861 0.349355848 35.3339861"></polygon>
                            <polygon id="Fill-189-Copy-7" fill="#E6E7E8" points="0.349355848 95.0054934 38.6742137 95.0054934 38.6742137 92.3069814 0.349355848 92.3069814"></polygon>
                            <polygon id="Fill-189-Copy-3" fill="#E6E7E8" points="0.349355848 44.276114 24.2810054 44.276114 24.2810054 41.577602 0.349355848 41.577602"></polygon>
                            <polygon id="Fill-189-Copy-11" fill="#E6E7E8" points="0.349355848 56.7633458 24.2810054 56.7633458 24.2810054 54.0648339 0.349355848 54.0648339"></polygon>
                            <polygon id="Fill-189-Copy-8" fill="#E6E7E8" points="0.349355848 101.249109 24.2810054 101.249109 24.2810054 98.5505973 0.349355848 98.5505973"></polygon>
                            <polygon id="Fill-189-Copy-10" fill="#E6E7E8" points="0.349355848 113.736341 24.2810054 113.736341 24.2810054 111.037829 0.349355848 111.037829"></polygon>
                            <polygon id="Fill-189-Copy-4" fill="#E6E7E8" points="0.349355848 50.5197299 38.6742137 50.5197299 38.6742137 47.8212179 0.349355848 47.8212179"></polygon>
                            <polygon id="Fill-189-Copy-9" fill="#E6E7E8" points="0.349355848 107.492725 38.6742137 107.492725 38.6742137 104.794213 0.349355848 104.794213"></polygon>
                            <polygon id="Fill-192" fill="#E6E7E8" points="45.7134734 6.51017442 168.310597 6.51017442 168.310597 0.21364649 45.7134734 0.21364649"></polygon>
                            <polygon id="Fill-193" fill="#E6E7E8" points="174.779823 6.80119041 200.020407 6.80119041 200.020407 0.504662486 174.779823 0.504662486"></polygon>
                        </g>
                        <g id="Group-48" filter="url(#filter-15)" transform="translate(0.000000, 0.436997)" fill="#7FDCFF">
                            <path d="M7.91248642,113.824973 L77.4995848,113.824973 C81.8695304,113.824973 85.4120713,110.282432 85.4120713,105.912486 L85.4120713,105.912486 C85.4120713,101.542541 81.8695304,98 77.4995848,98 L7.91248642,98 C3.54254084,98 -5.35163987e-16,101.542541 0,105.912486 L0,105.912486 C5.35163987e-16,110.282432 3.54254084,113.824973 7.91248642,113.824973 Z" id="Fill-175-Copy-2"></path>
                            <path d="M57.563195,15.8249728 L127.150293,15.8249728 C131.520239,15.8249728 135.06278,12.282432 135.06278,7.91248642 L135.06278,7.91248642 C135.06278,3.54254084 131.520239,-1.6909244e-15 127.150293,-8.8817842e-16 L57.563195,0 C53.1932494,8.02745981e-16 49.6507085,3.54254084 49.6507085,7.91248642 L49.6507085,7.91248642 C49.6507085,12.282432 53.1932494,15.8249728 57.563195,15.8249728 Z" id="Fill-175-Copy-6"></path>
                            <path d="M177.656071,217.830909 L247.24317,217.830909 C251.613115,217.830909 255.155656,214.288368 255.155656,209.918423 L255.155656,209.918423 C255.155656,205.548477 251.613115,202.005936 247.24317,202.005936 L177.656071,202.005936 C173.286126,202.005936 169.743585,205.548477 169.743585,209.918423 L169.743585,209.918423 C169.743585,214.288368 173.286126,217.830909 177.656071,217.830909 Z" id="Fill-175-Copy-7"></path>
                        </g>
                        <path d="M75.5228434,119.648926 L71.5796349,123.677608 C71.0001624,124.269641 70.0504696,124.279823 69.4584364,123.700351 C69.2771427,123.522903 69.1438145,123.302375 69.0709212,123.05939 L64.063652,106.368008 C63.8256116,105.574516 64.2758934,104.738295 65.0693846,104.500254 C65.3306942,104.421864 65.6084351,104.416223 65.8727122,104.483939 L82.9374943,108.856448 C83.7399965,109.062073 84.2238609,109.879322 84.0182358,110.681824 C83.9528496,110.93701 83.8214127,111.170476 83.6371478,111.358735 L79.7863527,115.293 L84.9436102,120.206675 C85.5433894,120.778126 85.566354,121.727596 84.9949029,122.327375 C84.9902603,122.332248 84.985585,122.337089 84.9808773,122.341899 L83.7328393,123.61699 L82.8037284,124.554677 C82.2286993,125.135014 81.2949915,125.148449 80.7035028,124.584897 L75.5228434,119.648926 Z" id="Path" stroke="#EAEAEA" fill="#F9F9F9"></path>
                    </g>
                </g>
            </g>
        </g>
    </g>
</svg>