<?xml version="1.0" encoding="UTF-8"?>
<svg width="337px" height="215px" viewBox="0 0 337 215" version="1.1" xmlns="http://www.w3.org/2000/svg" xmlns:xlink="http://www.w3.org/1999/xlink">
    <!-- Generator: Sketch 48.2 (47327) - http://www.bohemiancoding.com/sketch -->
    <title>3 团队协作</title>
    <desc>Created with Sketch.</desc>
    <defs>
        <filter x="-3.8%" y="-3.7%" width="107.6%" height="108.7%" filterUnits="objectBoundingBox" id="filter-1">
            <feOffset dx="0" dy="1" in="SourceAlpha" result="shadowOffsetOuter1"></feOffset>
            <feGaussianBlur stdDeviation="2" in="shadowOffsetOuter1" result="shadowBlurOuter1"></feGaussianBlur>
            <feColorMatrix values="0 0 0 0 0   0 0 0 0 0   0 0 0 0 0  0 0 0 0.1 0" type="matrix" in="shadowBlurOuter1" result="shadowMatrixOuter1"></feColorMatrix>
            <feMerge>
                <feMergeNode in="shadowMatrixOuter1"></feMergeNode>
                <feMergeNode in="SourceGraphic"></feMergeNode>
            </feMerge>
        </filter>
        <polygon id="path-2" points="8.23009588e-05 0.447237985 170.316073 0.447237985 170.316073 99.6582621 8.23009588e-05 99.6582621"></polygon>
        <polygon id="path-4" points="0.000164601918 0.459906254 170.316073 0.459906254 170.316073 29.194628 0.000164601918 29.194628"></polygon>
    </defs>
    <g id="1-首页（大窗口" stroke="none" stroke-width="1" fill="none" fill-rule="evenodd" transform="translate(-1101.000000, -1753.000000)">
        <g id="Group-14-Copy" transform="translate(0.000000, 660.000000)">
            <g id="Group-25-Copy">
                <g id="3-团队协作" transform="translate(1101.000000, 1093.000000)">
                    <g id="Group-2">
                        <g id="Group-31">
                            <path d="M285.642301,0 C285.642301,8.88815534 285.642301,10.9719979 285.614513,1.98267027e-12 L0.0324191793,1.07974232e-12 C6.81079052e-13,11.0045489 0.0324191793,7.84710595 0,0 L0,157.85796 C0,158.065613 0.0216127862,187.806275 0.0324191793,188.01841 L285.614513,188.01841 C285.614513,187.806275 285.642301,158.065613 285.642301,157.85796 L285.642301,0 Z" id="Fill-173" fill="#F1F2F2"></path>
                            <polygon id="Fill-180" fill="#FFFFFF" points="8.71082317 179.638165 277.428622 179.638165 277.428622 11.8775987 8.71082317 11.8775987"></polygon>
                        </g>
                        <g id="Group" transform="translate(8.042888, 8.748387)">
                            <rect id="Rectangle-51" fill="#E2E8EE" x="0" y="0" width="269.196945" height="13.8054716"></rect>
                            <rect id="Rectangle" fill="#CFD7DF" x="60.3806232" y="3.13760719" width="148.435699" height="7.53025725" rx="1.8859515"></rect>
                            <rect id="Rectangle-2" fill="#AEBBC6" x="96.2316182" y="5.0201715" width="76.7337086" height="3.76512862" rx="1.88256431"></rect>
                            <rect id="Rectangle-52" stroke="#E6EBF1" stroke-width="0.628650499" x="63.8397725" y="59.3013404" width="144.662224" height="110.442644"></rect>
                            <g id="其他" transform="translate(8.805508, 18.825643)">
                                <polygon id="Fill-179" fill="#D1D3D4" points="206.704118 81.1689781 252.214895 81.1689781 252.214895 77.7963059 206.704118 77.7963059"></polygon>
                                <polygon id="Fill-180" fill="#E6E7E8" points="206.704118 87.6894777 252.214895 87.6894777 252.214895 85.4410296 206.704118 85.4410296"></polygon>
                                <polygon id="Fill-181" fill="#E6E7E8" points="206.704118 94.2099773 252.214895 94.2099773 252.214895 91.9615292 206.704118 91.9615292"></polygon>
                                <polygon id="Fill-182" fill="#E6E7E8" points="206.704118 100.055943 230.244175 100.055943 230.244175 97.8074944 206.704118 97.8074944"></polygon>
                                <polygon id="Fill-184" fill="#D1D3D4" points="206.704118 118.043528 252.214895 118.043528 252.214895 114.670855 206.704118 114.670855"></polygon>
                                <polygon id="Fill-185" fill="#E6E7E8" points="206.704118 123.664648 252.214895 123.664648 252.214895 121.4162 206.704118 121.4162"></polygon>
                                <polygon id="Fill-186" fill="#E6E7E8" points="206.704118 130.185148 252.214895 130.185148 252.214895 127.9367 206.704118 127.9367"></polygon>
                                <polygon id="Fill-187" fill="#E6E7E8" points="206.704118 136.930492 230.244175 136.930492 230.244175 134.682044 206.704118 134.682044"></polygon>
                                <polygon id="Fill-188" fill="#D1D3D4" points="0 23.3838607 45.5107765 23.3838607 45.5107765 17.9875852 0 17.9875852"></polygon>
                                <polygon id="Fill-188-Copy" fill="#D1D3D4" points="0 92.6360636 45.5107765 92.6360636 45.5107765 87.2397881 0 87.2397881"></polygon>
                                <polygon id="Fill-189" fill="#E6E7E8" points="0 31.0285844 45.5107765 31.0285844 45.5107765 27.6559122 0 27.6559122"></polygon>
                                <polygon id="Fill-189-Copy-5" fill="#E6E7E8" points="0 100.055943 45.5107765 100.055943 45.5107765 96.6832703 0 96.6832703"></polygon>
                                <polygon id="Fill-189-Copy" fill="#E6E7E8" points="0 38.4484633 28.4722592 38.4484633 28.4722592 35.0757911 0 35.0757911"></polygon>
                                <polygon id="Fill-189-Copy-6" fill="#E6E7E8" points="0 107.700666 28.4722592 107.700666 28.4722592 104.327994 0 104.327994"></polygon>
                                <polygon id="Fill-189-Copy-2" fill="#E6E7E8" points="0 46.093187 45.5107765 46.093187 45.5107765 42.7205148 0 42.7205148"></polygon>
                                <polygon id="Fill-189-Copy-7" fill="#E6E7E8" points="0 115.34539 45.5107765 115.34539 45.5107765 111.972718 0 111.972718"></polygon>
                                <polygon id="Fill-189-Copy-3" fill="#E6E7E8" points="0 53.7379107 28.4722592 53.7379107 28.4722592 50.3652385 0 50.3652385"></polygon>
                                <polygon id="Fill-189-Copy-11" fill="#E6E7E8" points="0 68.8025133 28.4722592 68.8025133 28.4722592 65.4298411 0 65.4298411"></polygon>
                                <polygon id="Fill-189-Copy-8" fill="#E6E7E8" points="0 122.990114 28.4722592 122.990114 28.4722592 119.617441 0 119.617441"></polygon>
                                <polygon id="Fill-189-Copy-10" fill="#E6E7E8" points="0 138.054716 28.4722592 138.054716 28.4722592 134.682044 0 134.682044"></polygon>
                                <polygon id="Fill-189-Copy-4" fill="#E6E7E8" points="0 61.1577896 45.5107765 61.1577896 45.5107765 57.7851174 0 57.7851174"></polygon>
                                <polygon id="Fill-189-Copy-9" fill="#E6E7E8" points="0 130.409993 45.5107765 130.409993 45.5107765 127.03732 0 127.03732"></polygon>
                                <polygon id="Fill-192" fill="#E6E7E8" points="54.0909749 7.6447237 199.366754 7.6447237 199.366754 0 54.0909749 0"></polygon>
                                <polygon id="Fill-192-Copy" fill="#E6E7E8" points="0 7.6447237 45.5107765 7.6447237 45.5107765 0 0 0"></polygon>
                                <polygon id="Fill-193" fill="#E6E7E8" points="206.704118 8.09441333 236.745714 8.09441333 236.745714 0.449689629 206.704118 0.449689629"></polygon>
                            </g>
                            <g id="拖拽数据" transform="translate(63.525447, 31.376072)" fill="#7FDCFF">
                                <path d="M2.78439613,5.35082894 L28.5201655,5.35082894 C29.9154352,5.35082894 31.0465248,4.21973937 31.0465248,2.82446967 L31.0465248,2.82446967 C31.0465248,1.42919997 29.9154352,0.298110394 28.5201655,0.298110394 L2.78439613,0.298110394 C1.38912643,0.298110394 0.258036851,1.42919997 0.258036851,2.82446967 L0.258036851,2.82446967 C0.258036851,4.21973937 1.38912643,5.35082894 2.78439613,5.35082894 Z" id="Fill-175"></path>
                                <path d="M2.78439613,12.3651912 L28.5201655,12.3651912 C29.9154352,12.3651912 31.0465248,11.2341016 31.0465248,9.83883189 L31.0465248,9.83883189 C31.0465248,8.44356219 29.9154352,7.31247261 28.5201655,7.31247261 L2.78439613,7.31247261 C1.38912643,7.31247261 0.258036851,8.44356219 0.258036851,9.83883189 L0.258036851,9.83883189 C0.258036851,11.2341016 1.38912643,12.3651912 2.78439613,12.3651912 Z" id="Fill-175-Copy-3"></path>
                                <path d="M2.78439613,19.3795534 L28.5201655,19.3795534 C29.9154352,19.3795534 31.0465248,18.2484638 31.0465248,16.8531941 L31.0465248,16.8531941 C31.0465248,15.4579244 29.9154352,14.3268348 28.5201655,14.3268348 L2.78439613,14.3268348 C1.38912643,14.3268348 0.258036851,15.4579244 0.258036851,16.8531941 L0.258036851,16.8531941 C0.258036851,18.2484638 1.38912643,19.3795534 2.78439613,19.3795534 Z" id="Fill-175-Copy-4"></path>
                                <path d="M36.2118973,19.3795534 L61.9476667,19.3795534 C63.3429364,19.3795534 64.4740259,18.2484638 64.4740259,16.8531941 L64.4740259,16.8531941 C64.4740259,15.4579244 63.3429364,14.3268348 61.9476667,14.3268348 L36.2118973,14.3268348 C34.8166276,14.3268348 33.685538,15.4579244 33.685538,16.8531941 L33.685538,16.8531941 C33.685538,18.2484638 34.8166276,19.3795534 36.2118973,19.3795534 Z" id="Fill-175-Copy-5"></path>
                                <path d="M36.2118973,5.35082894 L61.9476667,5.35082894 C63.3429364,5.35082894 64.4740259,4.21973937 64.4740259,2.82446967 L64.4740259,2.82446967 C64.4740259,1.42919997 63.3429364,0.298110394 61.9476667,0.298110394 L36.2118973,0.298110394 C34.8166276,0.298110394 33.685538,1.42919997 33.685538,2.82446967 L33.685538,2.82446967 C33.685538,4.21973937 34.8166276,5.35082894 36.2118973,5.35082894 Z" id="Fill-175-Copy"></path>
                                <path d="M69.6393985,5.35082894 L95.3751678,5.35082894 C96.7704375,5.35082894 97.9015271,4.21973937 97.9015271,2.82446967 L97.9015271,2.82446967 C97.9015271,1.42919997 96.7704375,0.298110394 95.3751678,0.298110394 L69.6393985,0.298110394 C68.2441288,0.298110394 67.1130392,1.42919997 67.1130392,2.82446967 L67.1130392,2.82446967 C67.1130392,4.21973937 68.2441288,5.35082894 69.6393985,5.35082894 Z" id="Fill-175-Copy-2"></path>
                            </g>
                            <g id="icon" transform="translate(215.734935, 33.258636)" fill="#E9E9E9">
                                <polygon id="Fill-177" points="0 7.10170602 6.98279315 7.10170602 6.98279315 0 0 0"></polygon>
                                <polygon id="Fill-177-Copy-5" points="0 16.8665518 6.98279315 16.8665518 6.98279315 9.76484578 0 9.76484578"></polygon>
                                <polygon id="Fill-177-Copy" points="8.94670373 7.10170602 15.9294969 7.10170602 15.9294969 0 8.94670373 0"></polygon>
                                <polygon id="Fill-177-Copy-6" points="8.94670373 16.8665518 15.9294969 16.8665518 15.9294969 9.76484578 8.94670373 9.76484578"></polygon>
                                <polygon id="Fill-177-Copy-2" points="17.8934075 7.10170602 24.8762006 7.10170602 24.8762006 0 17.8934075 0"></polygon>
                                <polygon id="Fill-177-Copy-7" points="17.8934075 16.8665518 24.8762006 16.8665518 24.8762006 9.76484578 17.8934075 9.76484578"></polygon>
                                <polygon id="Fill-177-Copy-3" points="26.8401112 7.10170602 33.8229043 7.10170602 33.8229043 0 26.8401112 0"></polygon>
                                <polygon id="Fill-177-Copy-8" points="26.8401112 16.8665518 33.8229043 16.8665518 33.8229043 9.76484578 26.8401112 9.76484578"></polygon>
                                <polygon id="Fill-177-Copy-4" points="35.7868149 7.10170602 42.7696081 7.10170602 42.7696081 0 35.7868149 0"></polygon>
                                <polygon id="Fill-177-Copy-9" points="35.7868149 16.8665518 42.7696081 16.8665518 42.7696081 9.76484578 35.7868149 9.76484578"></polygon>
                                <polygon id="Fill-177-Copy-14" points="0 26.6313976 6.98279315 26.6313976 6.98279315 19.5296916 0 19.5296916"></polygon>
                                <polygon id="Fill-177-Copy-13" points="8.94670373 26.6313976 15.9294969 26.6313976 15.9294969 19.5296916 8.94670373 19.5296916"></polygon>
                                <polygon id="Fill-177-Copy-12" points="17.8934075 26.6313976 24.8762006 26.6313976 24.8762006 19.5296916 17.8934075 19.5296916"></polygon>
                                <polygon id="Fill-177-Copy-11" points="26.8401112 26.6313976 33.8229043 26.6313976 33.8229043 19.5296916 26.8401112 19.5296916"></polygon>
                                <polygon id="Fill-177-Copy-10" points="35.7868149 26.6313976 42.7696081 26.6313976 42.7696081 19.5296916 35.7868149 19.5296916"></polygon>
                                <polygon id="Fill-177-Copy-19" points="0 36.3962434 6.98279315 36.3962434 6.98279315 29.2945373 0 29.2945373"></polygon>
                                <polygon id="Fill-177-Copy-18" points="8.94670373 36.3962434 15.9294969 36.3962434 15.9294969 29.2945373 8.94670373 29.2945373"></polygon>
                                <polygon id="Fill-177-Copy-17" points="17.8934075 36.3962434 24.8762006 36.3962434 24.8762006 29.2945373 17.8934075 29.2945373"></polygon>
                                <polygon id="Fill-177-Copy-16" points="26.8401112 36.3962434 33.8229043 36.3962434 33.8229043 29.2945373 26.8401112 29.2945373"></polygon>
                                <polygon id="Fill-177-Copy-15" points="35.7868149 36.3962434 42.7696081 36.3962434 42.7696081 29.2945373 35.7868149 29.2945373"></polygon>
                            </g>
                            <g id="统计图" transform="translate(75.475779, 75.302572)" fill="#F76E3A">
                                <rect id="Rectangle-3" x="0.209384867" y="18.0155247" width="6.14402861" height="67.2352259"></rect>
                                <rect id="Rectangle-3-Copy" x="13.3751604" y="37.7378576" width="6.14402861" height="47.512893"></rect>
                                <rect id="Rectangle-3-Copy-2" x="28.2963728" y="21.6014034" width="6.14402861" height="63.6493472"></rect>
                                <rect id="Rectangle-3-Copy-3" x="42.3398667" y="37.7378576" width="6.14402861" height="47.512893"></rect>
                                <rect id="Rectangle-3-Copy-4" x="56.3833607" y="0.0861311009" width="6.14402861" height="85.1646195"></rect>
                                <rect id="Rectangle-3-Copy-5" x="70.4268546" y="18.0155247" width="6.14402861" height="67.2352259"></rect>
                                <rect id="Rectangle-3-Copy-6" x="84.4703486" y="32.3590395" width="6.14402861" height="52.8917111"></rect>
                                <rect id="Rectangle-3-Copy-7" x="98.5138426" y="42.220206" width="6.14402861" height="43.0305446"></rect>
                                <rect id="Rectangle-3-Copy-8" x="112.557337" y="8.15435821" width="6.14402861" height="77.0963924"></rect>
                            </g>
                        </g>
                    </g>
                    <g id="Group-84" transform="translate(125.114155, 60.274194)">
                        <g id="Page-1" filter="url(#filter-1)" transform="translate(0.000000, 0.964516)">
                            <g id="Group-3">
                                <mask id="mask-3" fill="white">
                                    <use xlink:href="#path-2"></use>
                                </mask>
                                <g id="Clip-2"></g>
                                <path d="M170.316156,6.2327603 C170.316156,3.03422688 168.043003,0.447237985 165.231602,0.447237985 L5.08216651,0.447237985 C2.27734983,0.447237985 8.23009588e-05,3.03422688 8.23009588e-05,6.2327603 L8.23009588e-05,99.6582621 L170.316156,99.6582621 L170.316156,6.2327603 Z" id="Fill-1" fill="#EAEAEA" mask="url(#mask-3)"></path>
                            </g>
                            <path d="M158.664239,15.0084726 C158.664239,12.356647 156.691663,10.2064516 154.256353,10.2064516 L15.3754607,10.2064516 C12.9417944,10.2064516 10.9675741,12.356647 10.9675741,15.0084726 L10.9675741,92.5870968 L158.664239,92.5870968 L158.664239,15.0084726 Z" id="Fill-4" fill="#19B2B8"></path>
                            <g id="Group-8" transform="translate(0.000000, 99.148387)">
                                <mask id="mask-5" fill="white">
                                    <use xlink:href="#path-4"></use>
                                </mask>
                                <g id="Clip-7"></g>
                            </g>
                            <path d="M0.000164601918,99.6082934 L0.000164601918,123.902194 C0.000164601918,126.357456 2.27743213,128.343015 5.08224881,128.343015 L165.231685,128.343015 C168.043085,128.343015 170.316238,126.357456 170.316238,123.902194 L170.316238,99.6082934 L0.000164601918,99.6082934 Z" id="Fill-6" fill="#FFFFFF"></path>
                            <polygon id="Fill-9" fill="#FFFFFF" points="107.41123 121.019355 103.223849 121.019355 67.1374968 121.019355 62.9492973 121.019355 60.6872435 145.077419 67.1374968 145.077419 103.223849 145.077419 109.675741 145.077419"></polygon>
                            <path d="M115.98528,148.722581 C116.158559,148.341691 116.256286,147.922148 116.256286,147.475227 C116.256286,145.751962 114.828167,144.348387 113.068271,144.348387 L56.5602573,144.348387 C54.798719,144.348387 53.3755274,145.751962 53.3755274,147.475227 C53.3755274,147.922148 53.4716113,148.341691 53.6416059,148.722581 L115.98528,148.722581 Z" id="Fill-13" fill="#FFFFFF"></path>
                            <path d="M92.8587943,113.364516 C92.8587943,117.194424 89.7467333,120.290323 85.9097273,120.290323 C82.0752385,120.290323 78.9665337,117.194424 78.9665337,113.364516 C78.9665337,109.537956 82.0752385,106.43871 85.9097273,106.43871 C89.7467333,106.43871 92.8587943,109.537956 92.8587943,113.364516" id="Fill-15" fill="#EAEAEA"></path>
                            <polygon id="Fill-17" fill="#FFFFFF" points="10.9675741 92.5870968 158.664239 92.5870968 158.664239 17.4967742 10.9675741 17.4967742"></polygon>
                            <path d="M158.664239,15.0018966 C158.664239,12.3537025 156.691674,10.2064516 154.256377,10.2064516 L15.3754362,10.2064516 C12.9417834,10.2064516 10.9675741,12.3537025 10.9675741,15.0018966 L10.9675741,17.4967742 L158.664239,17.4967742 L158.664239,15.0018966 Z" id="Fill-19" fill="#F1F2F2"></path>
                            <polygon id="Fill-20" fill="#FFB53C" points="16.0857754 24.7870968 37.289752 24.7870968 37.289752 20.4129032 16.0857754 20.4129032"></polygon>
                            <polygon id="Fill-21" fill="#F1F2F2" points="127.22386 24.7870968 153.546038 24.7870968 153.546038 20.4129032 127.22386 20.4129032"></polygon>
                            <polygon id="Fill-22" fill="#F1F2F2" points="44.6014681 24.7870968 121.374487 24.7870968 121.374487 20.4129032 44.6014681 20.4129032"></polygon>
                            <polygon id="Fill-23" fill="#7ED321" points="16.0857754 47.3870968 116.256286 47.3870968 116.256286 29.8903226 16.0857754 29.8903226"></polygon>
                            <polygon id="Fill-24" fill="#FFFFFF" points="19.0104618 45.2 33.633894 45.2 33.633894 32.8064516 19.0104618 32.8064516"></polygon>
                            <polygon id="Fill-25" fill="#FFFFFF" points="35.8274088 34.9935484 76.7730189 34.9935484 76.7730189 32.8064516 35.8274088 32.8064516"></polygon>
                            <polygon id="Fill-26" fill="#FFFFFF" points="35.8274088 38.6387097 63.6119299 38.6387097 63.6119299 37.1806452 35.8274088 37.1806452"></polygon>
                            <polygon id="Fill-27" fill="#FFFFFF" points="35.8274088 43.0129032 63.6119299 43.0129032 63.6119299 41.5548387 35.8274088 41.5548387"></polygon>
                            <polygon id="Fill-28" fill="#FFB53C" points="18.2792902 64.883871 32.9027224 64.883871 32.9027224 52.4903226 18.2792902 52.4903226"></polygon>
                            <polygon id="Fill-29" fill="#F1F2F2" points="35.0962372 54.6774194 76.0418473 54.6774194 76.0418473 52.4903226 35.0962372 52.4903226"></polygon>
                            <polygon id="Fill-30" fill="#F1F2F2" points="35.0962372 58.3225806 62.8807583 58.3225806 62.8807583 56.8645161 35.0962372 56.8645161"></polygon>
                            <polygon id="Fill-31" fill="#F1F2F2" points="35.0962372 62.6967742 62.8807583 62.6967742 62.8807583 61.2387097 35.0962372 61.2387097"></polygon>
                            <polygon id="Fill-32" fill="#FFB53C" points="18.2792902 83.8387097 32.9027224 83.8387097 32.9027224 71.4451613 18.2792902 71.4451613"></polygon>
                            <polygon id="Fill-33" fill="#F1F2F2" points="35.0962372 73.6322581 76.0418473 73.6322581 76.0418473 71.4451613 35.0962372 71.4451613"></polygon>
                            <polygon id="Fill-34" fill="#F1F2F2" points="35.0962372 77.2774194 62.8807583 77.2774194 62.8807583 75.8193548 35.0962372 75.8193548"></polygon>
                            <polygon id="Fill-35" fill="#F1F2F2" points="35.0962372 81.6516129 62.8807583 81.6516129 62.8807583 80.1935484 35.0962372 80.1935484"></polygon>
                            <polygon id="Fill-36" fill="#FFB53C" points="120.643315 53.2193548 154.277209 53.2193548 154.277209 29.8903226 120.643315 29.8903226"></polygon>
                            <polygon id="Fill-37" fill="#FFB53C" points="120.643315 88.9419355 154.277209 88.9419355 154.277209 72.1741935 120.643315 72.1741935"></polygon>
                            <polygon id="Fill-38" fill="#F1F2F2" points="120.643315 59.0516129 144.771978 59.0516129 144.771978 56.1354839 120.643315 56.1354839"></polygon>
                            <polygon id="Fill-39" fill="#F1F2F2" points="120.643315 63.4258065 149.89018 63.4258065 149.89018 60.5096774 120.643315 60.5096774"></polygon>
                            <polygon id="Fill-40" fill="#F1F2F2" points="120.643315 68.5290323 135.997919 68.5290323 135.997919 65.6129032 120.643315 65.6129032"></polygon>
                            <polygon id="Fill-41" fill="#F1F2F2" points="138.922606 68.5290323 146.234322 68.5290323 146.234322 65.6129032 138.922606 65.6129032"></polygon>
                        </g>
                    </g>
                    <g id="Group-9" transform="translate(252.000000, 121.000000)">
                        <circle id="Oval" stroke="#EAEAEA" stroke-width="4" fill="#FFFFFF" cx="41.5" cy="41.5" r="41.5"></circle>
                        <g id="握手-2" transform="translate(7.000000, 19.000000)" fill="#65C5FF" fill-rule="nonzero">
                            <path d="M30.8300781,50.3659459 C29.9892578,49.2149189 29.1484375,48.0707027 28.2460938,46.8311351 C24.2539063,48.3771892 23.1464844,47.7437838 22.6679688,43.3099459 C19.5439453,44.1544865 17.4794922,44.3043243 16.9736328,39.1144865 C16.2832031,39.2643243 15.5380859,39.672973 14.9365234,39.5163243 C13.8427734,39.2302703 12.4414063,38.8624865 11.9150391,38.0451892 C11.3955078,37.2347027 11.2998047,35.3344865 11.8740234,34.776 C14.8339844,31.8677838 14.0273438,29.5112432 11.4707031,26.9299459 C10.9238281,26.3782703 11.2041016,25.0297297 11.1015625,24.0421622 C11.3544922,23.9604324 11.6142578,23.8855135 11.8740234,23.8037838 C12.9677734,25.1455135 13.9726563,26.5621622 15.1894531,27.7881081 C15.8183594,28.4215135 16.7822266,29.0276757 17.6298828,29.088973 C19.7695313,29.232 20.7675781,30.3217297 20.8085938,32.3036757 C20.8359375,33.7475676 21.4853516,34.1017297 22.8251953,34.4354595 C23.8710938,34.6942703 25.0605469,35.7431351 25.4980469,36.7375135 C26.0927734,38.0860541 26.7695313,38.6785946 28.1982422,38.9987027 C29.1347656,39.2098378 29.9482422,40.1633514 30.7138672,40.8852973 C31.4589844,41.5936216 32.0195313,42.5062703 32.7783203,43.1941622 C33.5986328,43.9433514 34.5283203,44.5835676 35.4648438,45.1897297 C36.1621094,45.6392432 36.9345703,46.1909189 37.7070312,46.2454054 C38.3154297,46.2862703 39.1630859,45.7618378 39.5185547,45.2305946 C39.7167969,44.9309189 39.2861328,43.9297297 38.8623047,43.5619459 C37.40625,42.3087568 35.7861328,41.2530811 34.3232422,40.0135135 C33.9404297,39.6865946 33.8925781,38.9714595 33.6875,38.4265946 C34.2753906,38.4606486 35.0068359,38.2767568 35.4238281,38.556 C38.0966797,40.32 40.7148438,42.1725405 43.3193359,44.0318919 C44.5429688,44.9036757 45.8007812,45.4349189 46.8535156,43.991027 C47.9130859,42.5335135 47.2294922,41.3552432 45.8828125,40.4017297 C43.1484375,38.4742703 40.4140625,36.54 37.7617188,34.5035676 C37.2353516,34.0949189 37.0849609,33.1958919 36.7568359,32.5216216 C37.4472656,32.6442162 38.2744141,32.5624865 38.8007812,32.9166486 C41.9316406,35.0211892 44.9941406,37.2278919 48.0839844,39.4005405 C48.4326172,39.6457297 48.7675781,39.9113514 49.1298828,40.1361081 C50.2578125,40.8512432 51.4199219,41.1304865 52.3359375,39.8841081 C53.2724609,38.6036757 52.8691406,37.4662703 51.6591797,36.5808649 C48.0361328,33.9314595 44.40625,31.2956757 40.7763672,28.6598919 C40.3730469,28.367027 39.8740234,28.1354595 39.6005859,27.7540541 C39.3613281,27.4135135 39.3681641,26.8890811 39.265625,26.4463784 C39.6621094,26.3578378 40.1132812,26.1058378 40.4482422,26.2148108 C41.0361328,26.4123243 41.5830078,26.7869189 42.1025391,27.1478919 C45.7666016,29.736 49.4375,32.3172973 53.0742188,34.9394595 C54.4960937,35.9610811 55.8701172,36.4582703 57.2236328,34.9394595 C58.3857422,33.6385946 58.1875,32.1402162 56.5332031,30.6895135 C50.4833984,25.3838919 44.4267578,20.0918919 38.3154297,14.8611892 C35.875,12.7770811 32.4160156,13.8804324 31.5410156,16.9861622 C30.7207031,19.8875676 29.0390625,21.9716757 26.0791016,22.6731892 C25.0058594,22.9251892 23.6933594,22.6255135 22.6269531,22.2168649 C22.1210938,22.0261622 21.5878906,20.9364324 21.6767578,20.3438919 C22.0048828,18.1303784 22.5449219,15.9441081 23.0986328,13.7714595 C23.4267578,12.491027 23.9326172,11.2514595 24.4521484,9.69859459 L18.3544922,9.69859459 C18.5732422,7.52594595 19.5507813,6.7427027 21.4853516,6.92659459 C22.9003906,7.06281081 24.3564453,7.09686486 25.7578125,6.91978378 C27.9042969,6.64735135 30.1054688,6.38854054 32.1289062,5.68702703 C35.6494141,4.46108108 39.0878906,4.56324324 42.6152344,5.45545946 C44.953125,6.048 47.3388672,6.42259459 49.6767578,7.02194595 C50.3193359,7.18540541 51.0917969,7.68259459 51.3720703,8.24789189 C54.1679687,13.8395676 56.8818359,19.4652973 59.5820312,25.0978378 C59.8076172,25.5677838 60.0263672,26.3305946 59.8007812,26.6779459 C58.6113281,28.5304865 59.1171875,30.1923243 59.8623047,32.0584865 C60.7509766,34.2992432 59.3632812,36.8464865 56.9023438,37.5616216 C55.6308594,37.9294054 55.125,38.5287568 54.8105469,39.7478919 C54.140625,42.3155676 51.9941406,42.8740541 49.7246094,43.0170811 C48.2548828,46.7834595 46.8125,47.4372973 42.9433594,46.3271351 C42.4580078,46.1909189 41.7744141,46.6131892 41.2138672,46.8447568 C39.9492188,47.3691892 38.5,48.636 37.5019531,48.3431351 C35.0615234,47.6211892 33.8447266,48.8335135 32.5527344,50.3455135 C31.9716797,50.3659459 31.3974609,50.3659459 30.8300781,50.3659459 M11.9902344,0.0272432432 C13.3505859,0.769621622 14.6972656,1.53924324 16.078125,2.24756757 C17.2333984,2.84010811 17.5751953,3.60972973 16.9873047,4.82886486 C13.7880859,11.448973 10.6162109,18.0758919 7.44433594,24.7028108 C6.82910156,25.9900541 5.83105469,26.2420541 4.63476563,25.6222703 C3.0625,24.8185946 1.53808594,23.9263784 1.42108547e-14,23.0682162 L1.42108547e-14,21.7877838 C1.90722656,18.1167568 3.83496094,14.4525405 5.72167969,10.7678919 C7.546875,7.19902703 9.33105469,3.60972973 11.1289063,0.0272432432 L11.9902344,0.0272432432 M58.6660156,0.0272432432 C59.3701172,1.15783784 60.1630859,2.24756757 60.7578125,3.43264865 C63.6699219,9.19459459 66.4726563,15.011027 69.4326172,20.7457297 C70.3828125,22.5846486 70,23.5313514 68.1474609,24.3758919 C63.6425781,26.4191351 63.6699219,26.4804324 61.4619141,21.9989189 C58.734375,16.4617297 56.0478516,10.9041081 53.2792969,5.38735135 C52.4863281,3.80724324 52.6162109,2.76518919 54.3662109,2.00237838 C55.5693359,1.47794595 56.6630859,0.694702703 57.8046875,0.0272432432 L58.6660156,0.0272432432" id="Shape"></path>
                        </g>
                    </g>
                </g>
            </g>
        </g>
    </g>
</svg>