<?xml version="1.0" encoding="UTF-8"?>
<svg width="338px" height="227px" viewBox="0 0 338 227" version="1.1" xmlns="http://www.w3.org/2000/svg" xmlns:xlink="http://www.w3.org/1999/xlink">
    <!-- Generator: Sketch 48.2 (47327) - http://www.bohemiancoding.com/sketch -->
    <title>可视化拖拽数据分析</title>
    <desc>Created with Sketch.</desc>
    <defs>
        <polygon id="path-1" points="0 220.83824 329.430052 220.83824 329.430052 19.9209752 0 19.9209752"></polygon>
        <filter x="-2.1%" y="-2.5%" width="104.2%" height="107.0%" filterUnits="objectBoundingBox" id="filter-2">
            <feOffset dx="0" dy="2" in="SourceAlpha" result="shadowOffsetOuter1"></feOffset>
            <feGaussianBlur stdDeviation="2" in="shadowOffsetOuter1" result="shadowBlurOuter1"></feGaussianBlur>
            <feColorMatrix values="0 0 0 0 0   0 0 0 0 0   0 0 0 0 0  0 0 0 0.0914572011 0" type="matrix" in="shadowBlurOuter1"></feColorMatrix>
        </filter>
        <linearGradient x1="100%" y1="39.4088699%" x2="2.92488728%" y2="66.5842009%" id="linearGradient-3">
            <stop stop-color="#02A9ED" offset="0%"></stop>
            <stop stop-color="#3CCFD2" offset="100%"></stop>
        </linearGradient>
        <linearGradient x1="100%" y1="47.1524533%" x2="2.92488728%" y2="54.4588525%" id="linearGradient-4">
            <stop stop-color="#02A9ED" offset="0%"></stop>
            <stop stop-color="#3CCFD2" offset="100%"></stop>
        </linearGradient>
        <linearGradient x1="51.6633045%" y1="22.1433924%" x2="48.4339951%" y2="93.6194792%" id="linearGradient-5">
            <stop stop-color="#02A9ED" offset="0%"></stop>
            <stop stop-color="#3CCFD2" offset="100%"></stop>
        </linearGradient>
        <linearGradient x1="100%" y1="42.1364945%" x2="2.92488728%" y2="62.3131294%" id="linearGradient-6">
            <stop stop-color="#02A9ED" offset="0%"></stop>
            <stop stop-color="#3CCFD2" offset="100%"></stop>
        </linearGradient>
        <linearGradient x1="100%" y1="22.2820577%" x2="2.92488728%" y2="93.4023492%" id="linearGradient-7">
            <stop stop-color="#02A9ED" offset="0%"></stop>
            <stop stop-color="#3CCFD2" offset="100%"></stop>
        </linearGradient>
        <linearGradient x1="100%" y1="23.4357898%" x2="2.92488728%" y2="91.595769%" id="linearGradient-8">
            <stop stop-color="#02A9ED" offset="0%"></stop>
            <stop stop-color="#3CCFD2" offset="100%"></stop>
        </linearGradient>
    </defs>
    <g id="1-首页" stroke="none" stroke-width="1" fill="none" fill-rule="evenodd" transform="translate(-478.000000, -1524.000000)">
        <g id="2可视化" transform="translate(0.000000, 1195.000000)">
            <g id="Group-32" transform="translate(482.000000, 329.000000)">
                <g id="可视化拖拽数据分析">
                    <polygon id="导航栏" fill="#EAEAEA" points="0.569948187 20.4901459 330 20.4901459 330 0 0.569948187 0"></polygon>
                    <g id="底">
                        <use fill="black" fill-opacity="1" filter="url(#filter-2)" xlink:href="#path-1"></use>
                        <use fill="#FFFFFF" fill-rule="evenodd" xlink:href="#path-1"></use>
                    </g>
                    <g id="拖拽数据" transform="translate(76.943005, 40.980292)" fill="#4792FF">
                        <path d="M3.55524495,6.83159182 L36.4497967,6.83159182 C38.2311867,6.83159182 39.6752886,5.38748991 39.6752886,3.60609993 L39.6752886,3.60609993 C39.6752886,1.82470995 38.2311867,0.380608043 36.4497967,0.380608043 L3.55524495,0.380608043 C1.77385497,0.380608043 0.32975306,1.82470995 0.32975306,3.60609993 L0.32975306,3.60609993 C0.32975306,5.38748991 1.77385497,6.83159182 3.55524495,6.83159182 Z" id="Fill-175"></path>
                        <path d="M3.55524495,15.7870752 L36.4497967,15.7870752 C38.2311867,15.7870752 39.6752886,14.3429733 39.6752886,12.5615833 L39.6752886,12.5615833 C39.6752886,10.7801933 38.2311867,9.33609141 36.4497967,9.33609141 L3.55524495,9.33609141 C1.77385497,9.33609141 0.32975306,10.7801933 0.32975306,12.5615833 L0.32975306,12.5615833 C0.32975306,14.3429733 1.77385497,15.7870752 3.55524495,15.7870752 Z" id="Fill-175-Copy-3"></path>
                        <path d="M3.55524495,24.7425585 L36.4497967,24.7425585 C38.2311867,24.7425585 39.6752886,23.2984566 39.6752886,21.5170667 L39.6752886,21.5170667 C39.6752886,19.7356767 38.2311867,18.2915748 36.4497967,18.2915748 L3.55524495,18.2915748 C1.77385497,18.2915748 0.32975306,19.7356767 0.32975306,21.5170667 L0.32975306,21.5170667 C0.32975306,23.2984566 1.77385497,24.7425585 3.55524495,24.7425585 Z" id="Fill-175-Copy-4"></path>
                        <path d="M46.273255,24.7425585 L79.1678068,24.7425585 C80.9491967,24.7425585 82.3932987,23.2984566 82.3932987,21.5170667 L82.3932987,21.5170667 C82.3932987,19.7356767 80.9491967,18.2915748 79.1678068,18.2915748 L46.273255,18.2915748 C44.491865,18.2915748 43.0477631,19.7356767 43.0477631,21.5170667 L43.0477631,21.5170667 C43.0477631,23.2984566 44.491865,24.7425585 46.273255,24.7425585 Z" id="Fill-175-Copy-5"></path>
                        <path d="M46.273255,6.83159182 L79.1678068,6.83159182 C80.9491967,6.83159182 82.3932987,5.38748991 82.3932987,3.60609993 L82.3932987,3.60609993 C82.3932987,1.82470995 80.9491967,0.380608043 79.1678068,0.380608043 L46.273255,0.380608043 C44.491865,0.380608043 43.0477631,1.82470995 43.0477631,3.60609993 L43.0477631,3.60609993 C43.0477631,5.38748991 44.491865,6.83159182 46.273255,6.83159182 Z" id="Fill-175-Copy"></path>
                        <path d="M89.019369,6.83159182 L121.913921,6.83159182 C123.695311,6.83159182 125.139413,5.38748991 125.139413,3.60609993 L125.139413,3.60609993 C125.139413,1.82470995 123.695311,0.380608043 121.913921,0.380608043 L89.019369,0.380608043 C87.237979,0.380608043 85.7938771,1.82470995 85.7938771,3.60609993 L85.7938771,3.60609993 C85.7938771,5.38748991 87.237979,6.83159182 89.019369,6.83159182 Z" id="Fill-175-Copy"></path>
                    </g>
                    <g id="统计图" transform="translate(76.373057, 68.869657)">
                        <polygon id="Fill-176" fill="#F6F6F6" points="0.495815066 141.841224 177.125157 141.841224 177.125157 0.369770935 0.495815066 0.369770935"></polygon>
                        <rect id="Rectangle-3" fill="#FFAF2D" x="12.8911917" y="48.8191604" width="7.88796696" height="84.504749"></rect>
                        <rect id="Rectangle-3-Copy" fill="#FFAF2D" x="29.793978" y="73.6072201" width="7.88796696" height="59.7166893"></rect>
                        <rect id="Rectangle-3-Copy-2" fill="#FFAF2D" x="48.9504692" y="53.3260803" width="7.88796696" height="79.9978291"></rect>
                        <rect id="Rectangle-3-Copy-3" fill="#FFAF2D" x="66.980108" y="73.6072201" width="7.88796696" height="59.7166893"></rect>
                        <rect id="Rectangle-3-Copy-4" fill="#FFAF2D" x="85.0097467" y="26.2845606" width="7.88796696" height="107.039349"></rect>
                        <rect id="Rectangle-3-Copy-5" fill="#FFAF2D" x="103.039385" y="48.8191604" width="7.88796696" height="84.504749"></rect>
                        <rect id="Rectangle-3-Copy-6" fill="#FFAF2D" x="121.069024" y="66.8468402" width="7.88796696" height="66.4770692"></rect>
                        <rect id="Rectangle-3-Copy-7" fill="#FFAF2D" x="139.098663" y="79.24087" width="7.88796696" height="54.0830394"></rect>
                        <rect id="Rectangle-3-Copy-8" fill="#FFAF2D" x="157.128302" y="36.4251305" width="7.88796696" height="96.8987789"></rect>
                    </g>
                    <g id="icon" transform="translate(262.746114, 48.948682)" fill="#2BA0FF">
                        <polygon id="Fill-177" points="0 8.99567382 9.02611822 8.99567382 9.02611822 0 0 0"></polygon>
                        <polygon id="Fill-177-Copy-5" points="0 21.3647253 9.02611822 21.3647253 9.02611822 12.3690515 0 12.3690515"></polygon>
                        <polygon id="Fill-177-Copy" points="11.564714 8.99567382 20.5908322 8.99567382 20.5908322 0 11.564714 0"></polygon>
                        <polygon id="Fill-177-Copy-6" points="11.564714 21.3647253 20.5908322 21.3647253 20.5908322 12.3690515 11.564714 12.3690515"></polygon>
                        <polygon id="Fill-177-Copy-2" points="23.1294279 8.99567382 32.1555462 8.99567382 32.1555462 0 23.1294279 0"></polygon>
                        <polygon id="Fill-177-Copy-7" points="23.1294279 21.3647253 32.1555462 21.3647253 32.1555462 12.3690515 23.1294279 12.3690515"></polygon>
                        <polygon id="Fill-177-Copy-3" points="34.6941419 8.99567382 43.7202601 8.99567382 43.7202601 0 34.6941419 0"></polygon>
                        <polygon id="Fill-177-Copy-8" points="34.6941419 21.3647253 43.7202601 21.3647253 43.7202601 12.3690515 34.6941419 12.3690515"></polygon>
                        <polygon id="Fill-177-Copy-4" points="46.2588559 8.99567382 55.2849741 8.99567382 55.2849741 0 46.2588559 0"></polygon>
                        <polygon id="Fill-177-Copy-9" points="46.2588559 21.3647253 55.2849741 21.3647253 55.2849741 12.3690515 46.2588559 12.3690515"></polygon>
                        <polygon id="Fill-177-Copy-14" points="0 33.7337768 9.02611822 33.7337768 9.02611822 24.738103 0 24.738103"></polygon>
                        <polygon id="Fill-177-Copy-13" points="11.564714 33.7337768 20.5908322 33.7337768 20.5908322 24.738103 11.564714 24.738103"></polygon>
                        <polygon id="Fill-177-Copy-12" points="23.1294279 33.7337768 32.1555462 33.7337768 32.1555462 24.738103 23.1294279 24.738103"></polygon>
                        <polygon id="Fill-177-Copy-11" points="34.6941419 33.7337768 43.7202601 33.7337768 43.7202601 24.738103 34.6941419 24.738103"></polygon>
                        <polygon id="Fill-177-Copy-10" points="46.2588559 33.7337768 55.2849741 33.7337768 55.2849741 24.738103 46.2588559 24.738103"></polygon>
                        <polygon id="Fill-177-Copy-19" points="0 46.1028284 9.02611822 46.1028284 9.02611822 37.1071545 0 37.1071545"></polygon>
                        <polygon id="Fill-177-Copy-18" points="11.564714 46.1028284 20.5908322 46.1028284 20.5908322 37.1071545 11.564714 37.1071545"></polygon>
                        <polygon id="Fill-177-Copy-17" points="23.1294279 46.1028284 32.1555462 46.1028284 32.1555462 37.1071545 23.1294279 37.1071545"></polygon>
                        <polygon id="Fill-177-Copy-16" points="34.6941419 46.1028284 43.7202601 46.1028284 43.7202601 37.1071545 34.6941419 37.1071545"></polygon>
                        <polygon id="Fill-177-Copy-15" points="46.2588559 46.1028284 55.2849741 46.1028284 55.2849741 37.1071545 46.2588559 37.1071545"></polygon>
                    </g>
                    <g id="其他" transform="translate(11.398964, 28.458536)">
                        <g id="pc端正常">
                            <path d="M13.7080934,8.83064268 L10.5676154,8.83064268 C10.4016236,8.83064268 10.2670607,8.6960798 10.2670607,8.53008805 L10.2670607,2.53592982 C10.2670607,2.36993807 10.4016236,2.23537517 10.5676154,2.23537517 L13.7080934,2.23537517 L13.7080934,3.11414021 L11.2274548,3.11414021 L11.2274548,5.08456697 L13.7080934,5.08456697 L13.7080934,5.94521316 L11.2274548,5.94521316 L11.2274548,7.92016964 L13.7080934,7.92016964 L13.7080934,8.83064268 Z M14.8368977,8.83064268 L14.8368977,2.23537517 L15.7290173,2.23537517 L15.7290173,8.83064268 L14.8368977,8.83064268 Z M20.6993977,5.86367826 C20.5871236,5.45298187 20.3929226,5.13514993 20.116789,4.91017289 C19.8406554,4.68519582 19.5099069,4.57270897 19.1245336,4.57270897 C18.730057,4.57270897 18.3879295,4.6882156 18.0981409,4.91923232 C17.8083523,5.15024904 17.6088412,5.4650612 17.4996015,5.86367826 L20.6993977,5.86367826 Z M17.4722917,6.66996784 C17.5481526,7.08670384 17.7370434,7.42416437 18.0389697,7.68235952 C18.3408961,7.94055464 18.6997127,8.06965028 19.1154303,8.06965028 C19.412805,8.06965028 19.6836243,7.99868542 19.9278964,7.8567536 C20.1721684,7.71482178 20.367128,7.51400634 20.5127809,7.25430127 L21.5277944,7.25430127 C21.2971774,7.80692949 20.9747734,8.22969883 20.560573,8.52262197 C20.1463725,8.81554512 19.6646631,8.96200446 19.1154303,8.96200446 C18.7452292,8.96200446 18.4068947,8.89707917 18.1004167,8.76722667 C17.7939387,8.63737414 17.5162921,8.44259827 17.2674683,8.18289321 C17.0338168,7.93828729 16.8509948,7.65367291 16.7189969,7.32904159 C16.5869989,7.00441028 16.521001,6.67298932 16.521001,6.33476877 C16.521001,5.98446893 16.5809302,5.6568227 16.7007904,5.35182027 C16.8206505,5.04681783 16.9974038,4.76899796 17.2310553,4.5183524 C17.479879,4.24656804 17.7605601,4.04197788 18.073107,3.90457579 C18.3856538,3.76717367 18.7270227,3.69847365 19.0972238,3.69847365 C19.5372169,3.69847365 19.946101,3.80039127 20.3238882,4.00422955 C20.7016754,4.2080678 21.013459,4.49268218 21.2592482,4.85808113 C21.4049012,5.08456811 21.512622,5.33294511 21.582414,5.60321955 C21.652206,5.87349399 21.6871015,6.18226658 21.6871015,6.5295466 L21.6871015,6.66996784 L17.4722917,6.66996784 Z M23.3165852,6.30759048 C23.3165852,6.79982218 23.4827181,7.2195717 23.8149887,7.56685172 C24.1472594,7.91413173 24.5440059,8.08776914 25.0052401,8.08776914 C25.4755776,8.08776914 25.8791514,7.92092624 26.2159738,7.58723546 C26.5527961,7.25354464 26.7212048,6.84813908 26.7212048,6.37100653 C26.7212048,5.86669554 26.5543133,5.4439262 26.2205254,5.10268583 C25.8867375,4.76144549 25.4786121,4.59082787 24.9961368,4.59082787 C24.5531093,4.59082787 24.1624315,4.76220043 23.824092,5.10495071 C23.4857524,5.447701 23.3165852,5.8485769 23.3165852,6.30759048 Z M23.343895,8.22819039 L23.343895,10.4432218 L22.4426722,10.4432218 L22.4426722,4.14850896 C22.4426722,3.98251721 22.5772351,3.84795433 22.7432268,3.84795433 L23.0524436,3.84795433 C23.2184354,3.84795433 23.3529982,3.98251721 23.3529982,4.14850896 L23.3529982,4.45946609 C23.5836154,4.22391964 23.8407799,4.04499759 24.1244996,3.92269465 C24.4082193,3.80039167 24.7108997,3.73924111 25.0325499,3.73924111 C25.7881243,3.73924111 26.4147258,3.98837304 26.9123732,4.48664438 C27.4100207,4.98491572 27.6588407,5.61001037 27.6588407,6.3619471 C27.6588407,6.70922711 27.5966356,7.03989313 27.4722238,7.35395503 C27.347812,7.66801697 27.1687829,7.94734672 26.9351314,8.19195263 C26.6832732,8.45467752 26.4079024,8.64869846 26.1090105,8.77402122 C25.8101186,8.89934402 25.4695083,8.96200446 25.0871694,8.96200446 C24.7473127,8.96200446 24.4324947,8.90085393 24.1427061,8.77855095 C23.8529175,8.65624797 23.5866498,8.47279631 23.343895,8.22819039 Z M29.3748053,8.83064268 L28.4735825,8.83064268 L28.4735825,2.53592982 C28.4735825,2.36993807 28.6081454,2.23537517 28.7741371,2.23537517 L29.0742507,2.23537517 C29.2402424,2.23537517 29.3748053,2.36993807 29.3748053,2.53592982 L29.3748053,4.4141689 C29.5204582,4.19976124 29.709349,4.03820297 29.9414833,3.92948923 C30.1736176,3.82077549 30.4444369,3.76641943 30.7539494,3.76641943 C31.3608364,3.76641943 31.8326841,3.95968539 32.1695064,4.34622317 C32.5063287,4.73276091 32.6747374,5.2748116 32.6747374,5.97239145 L32.6747374,8.83064268 L31.7735146,8.83064268 L31.7735146,6.26229334 C31.7735146,5.70966513 31.6794485,5.29897493 31.4913135,5.03021039 C31.3031785,4.76144583 31.0149114,4.62706559 30.6265037,4.62706559 C30.3898177,4.62706559 30.1804448,4.68142165 29.9983787,4.79013539 C29.8163125,4.89884913 29.6706618,5.05587774 29.5614222,5.26122593 C29.4946646,5.38503879 29.4468729,5.53602786 29.4180458,5.71419759 C29.3892187,5.89236735 29.3748053,6.17622675 29.3748053,6.56578435 L29.3748053,8.83064268 Z M34.4180118,6.30759048 C34.4180118,6.81190147 34.5856619,7.23467081 34.920967,7.57591118 C35.2562721,7.91715152 35.6666734,8.08776914 36.152183,8.08776914 C36.5952106,8.08776914 36.9858882,7.91639658 37.3242279,7.5736463 C37.6625676,7.23089601 37.8317347,6.83002011 37.8317347,6.37100653 C37.8317347,5.88179469 37.6640845,5.46280007 37.3287796,5.11401014 C36.9934744,4.76522022 36.5952107,4.59082787 36.1339765,4.59082787 C35.6606046,4.59082787 35.2562721,4.7569158 34.920967,5.0890967 C34.5856619,5.42127757 34.4180118,5.82743811 34.4180118,6.30759048 Z M37.7862184,8.83064268 L37.7862184,8.21913092 C37.5556013,8.4576972 37.2984366,8.63812912 37.014717,8.76043209 C36.7309973,8.88273503 36.4283169,8.9438856 36.1066667,8.9438856 C35.3541268,8.9438856 34.7290424,8.69399873 34.231395,8.19421748 C33.7337476,7.69443627 33.4849276,7.06858664 33.4849276,6.31664991 C33.4849276,5.96635008 33.5471326,5.63417418 33.6715445,5.32011224 C33.7959563,5.00605031 33.9734681,4.72974035 34.2040852,4.49117407 C34.4559434,4.22844922 34.7313142,4.03442829 35.0302061,3.90910549 C35.329098,3.78378269 35.6697083,3.72112225 36.0520472,3.72112225 C36.3949384,3.72112225 36.7105149,3.78151788 36.9987865,3.90231091 C37.2870578,4.02310397 37.5495323,4.2058007 37.7862184,4.45040662 L37.7862184,4.14850896 C37.7862184,3.98251721 37.9207811,3.84795433 38.086773,3.84795433 L38.3959898,3.84795433 C38.5619816,3.84795433 38.6965443,3.98251721 38.6965443,4.14850896 L38.6965443,8.83064268 L37.7862184,8.83064268 Z M40.6446424,8.83064268 L39.7434193,8.83064268 L39.7434193,4.14850896 C39.7434193,3.98251721 39.8779824,3.84795433 40.0439742,3.84795433 L40.3076744,3.84795433 C40.4736662,3.84795433 40.6082293,3.98251721 40.6082293,4.14850896 L40.6082293,4.4141689 C40.7963643,4.19070178 41.0034614,4.02687866 41.2295269,3.92269465 C41.4555923,3.81851064 41.7142739,3.76641943 42.0055797,3.76641943 C42.6610177,3.76641943 43.1639679,3.95817551 43.5144452,4.34169343 C43.8649225,4.72521139 44.0401586,5.27481149 44.0401586,5.99051031 L44.0401586,8.83064268 L43.1343841,8.83064268 L43.1343841,6.18528813 C43.1343841,5.65681853 43.0357665,5.26500198 42.8385283,5.00982665 C42.6412898,4.75465132 42.3363336,4.62706559 41.9236503,4.62706559 C41.474554,4.62706559 41.1491158,4.77729969 40.9473256,5.07777239 C40.7455357,5.37824513 40.6446424,5.87424414 40.6446424,6.56578435 L40.6446424,8.83064268 Z M45.4010962,8.83064268 L45.4010962,4.66330334 L44.6955932,4.66330334 L44.6955932,3.84795433 L45.4010962,3.84795433 L45.4010962,2.53592982 C45.4010962,2.36993807 45.5356589,2.23537517 45.7016507,2.23537517 L45.9972127,2.23537517 C46.1632046,2.23537517 46.2977673,2.36993807 46.2977673,2.53592982 L46.2977673,3.84795433 L47.0078216,3.84795433 L47.0078216,4.66330334 L46.2977673,4.66330334 L46.2977673,8.83064268 L45.4010962,8.83064268 Z" id="ElephantBI-Copy-11" fill="#4A5A66" fill-rule="nonzero"></path>
                            <g id="Group-15-Copy-8" transform="translate(47.961622, 1.494946)">
                                <path d="M1.47061711,0.74042889 C2.20044778,0.74042889 2.75486019,0.894164751 3.13387097,1.20164108 C3.51288175,1.50911741 3.70238429,1.95676006 3.70238429,2.54458246 C3.70238429,2.8158851 3.64052189,3.05553218 3.51679523,3.26353087 C3.39306857,3.47152957 3.21217978,3.643352 2.97412342,3.77900331 C3.30928172,3.87546647 3.57395883,4.06085385 3.7681627,4.33517098 C3.96236657,4.60948806 4.05946703,4.9365536 4.05946703,5.31637729 C4.05946703,5.62385364 3.99995385,5.91248516 3.88092568,6.18228058 C3.76189747,6.45207597 3.59745313,6.6758973 3.38758766,6.85375126 C3.18085451,7.02256179 2.94671706,7.14313893 2.6851683,7.2154863 C2.42361954,7.28783367 2.05479434,7.32400683 1.57868163,7.32400683 L0.300554645,7.32400683 C0.134562898,7.32400683 2.83310152e-14,7.18944394 2.83106871e-14,7.02345216 L2.83516023e-14,1.04098353 C2.83312742e-14,0.874991789 0.134562898,0.74042889 0.300554645,0.74042889 L1.47061711,0.74042889 Z M0.981977559,3.49865866 L1.29677419,3.49865866 C1.80734243,3.49865866 2.17146923,3.42405155 2.3891655,3.27483509 C2.60686177,3.12561864 2.71570828,2.8791891 2.71570828,2.53553908 C2.71570828,2.23107723 2.61704166,2.00574869 2.41970547,1.8595467 C2.22236928,1.71334472 1.92010489,1.64024483 1.51290323,1.64024483 L0.981977559,1.64024483 L0.981977559,3.49865866 Z M0.972580647,6.43323428 L1.75252454,6.43323428 C2.20984334,6.43323428 2.54656273,6.35109108 2.76269285,6.18680225 C2.97882296,6.02251341 3.0868864,5.76854782 3.0868864,5.42489781 C3.0868864,5.05110304 2.97412455,4.76774676 2.74859748,4.57482044 C2.5230704,4.38189412 2.19104941,4.2854324 1.75252454,4.2854324 L0.972580647,4.2854324 L0.972580647,6.43323428 Z" id="Combined-Shape" fill="url(#linearGradient-3)" fill-rule="nonzero"></path>
                                <polygon id="Path" fill="url(#linearGradient-4)" fill-rule="nonzero" points="6.61542777 7.32400683 4.51051893 7.32400683 4.51051893 6.89295315 5.11192145 6.89295315 5.11192145 1.1893092 4.66086956 1.187848 4.66086956 0.74042889 6.46507714 0.74042889 6.46507714 1.1893092 6.01402525 1.1893092 6.01402525 6.89295315 6.61542777 6.89295315"></polygon>
                                <g id="TM" transform="translate(7.739165, 0.000000)" fill="#4A5A66" font-family="LucidaGrande, Lucida Grande" font-size="2.01935152" font-weight="normal">
                                    <text>
                                        <tspan x="0.00809184949" y="2.06731172">TM</tspan>
                                    </text>
                                </g>
                            </g>
                            <g id="Group" fill-rule="nonzero">
                                <path d="M6.77854479,6.80178388 L6.77854479,8.71608469 L5.761467,8.71608469 L5.761467,8.04750249 C6.00195639,7.63134663 6.38607826,7.21304692 6.77854479,6.80178388 Z" id="Combined-Shape" fill="url(#linearGradient-6)"></path>
                                <path d="M2.67879834,7.81260156 L2.67879834,8.71608469 L1.76342832,8.71608469 L1.76342832,8.09628458 C1.94981298,7.91908351 2.19758709,7.7925346 2.51469853,7.79863959 C2.57077559,7.79971916 2.62547553,7.80437317 2.67879834,7.81260156 Z" id="Combined-Shape" fill="url(#linearGradient-7)"></path>
                                <path d="M6.48005305,1.07844392 L6.74504161,1.07844392 C6.81907464,1.46949469 6.6868439,1.68762987 6.34834942,1.73284945 C5.90906821,1.77832923 5.66859139,1.59061729 5.54654465,1.37961084 C5.42449795,1.16860438 5.35521503,0.654929768 5.73832392,0.31566336 C6.48484312,-0.345425215 7.71196865,0.124137677 8.37078479,1.43317875 C9.0296009,2.74221983 8.04251895,4.70190618 7.26987752,5.68006017 C6.4972361,6.65821411 5.06905625,7.72798308 5.07342652,8.74767183 C4.60501449,8.74767183 4.24045952,8.74767183 3.97976156,8.74767183 C3.66378435,7.90227017 3.16935224,7.47373987 2.49646522,7.462081 C1.48713469,7.44459267 1.11000145,8.51565337 1.15747832,8.74767183 C0.705156811,8.74767183 0.340022906,8.74767183 0.0620766128,8.74767183 C0.0757785463,6.92679748 0.2871058,5.74581325 0.696058372,5.20471912 C1.42320897,4.2426102 1.99573273,3.90004002 3.04598668,3.69300741 C2.75919834,4.30246855 2.69160329,5.83850862 3.68832385,6.37211566 C4.05029601,6.56590202 4.66549378,6.74955192 5.382004,6.60202067 C6.31435842,6.41004652 6.80067091,5.8068024 6.80067091,5.03968545 C6.80067091,4.52827419 6.47978819,4.1455394 5.83802267,3.8914812 C6.35653554,4.15635816 6.57054567,4.59410415 6.48005305,5.20471912 C6.34431415,6.12064164 5.32613,6.37211566 4.7142709,6.31361458 C4.1024118,6.25511349 3.17822518,5.82304709 3.17822518,4.77265442 C3.17822518,3.72226175 3.66580672,2.80720486 5.23323883,2.53454593 C6.80067091,2.26188701 7.04885641,2.41479964 7.41236597,1.92165954 C7.77587553,1.42851944 7.00140461,0.407814351 6.34834942,0.569692572 C5.72476623,0.702713951 5.82878845,1.32604292 6.15442073,1.37961084 C6.37150895,1.41532278 6.48005305,1.31493381 6.48005305,1.07844392 Z" id="Path-19" fill="url(#linearGradient-8)"></path>
                            </g>
                        </g>
                        <polygon id="Fill-179" fill="#D1D3D4" points="251.760278 96.3861947 306.969219 96.3861947 306.969219 92.4988486 251.760278 92.4988486"></polygon>
                        <polygon id="Fill-180" fill="#E6E7E8" points="251.760278 104.084664 306.969219 104.084664 306.969219 101.4931 251.760278 101.4931"></polygon>
                        <polygon id="Fill-181" fill="#E6E7E8" points="251.760278 111.954635 306.969219 111.954635 306.969219 109.363071 251.760278 109.363071"></polygon>
                        <polygon id="Fill-182" fill="#E6E7E8" points="251.760278 118.700323 280.329138 118.700323 280.329138 116.108759 251.760278 116.108759"></polygon>
                        <polygon id="Fill-184" fill="#D1D3D4" points="251.760278 140.233172 306.969219 140.233172 306.969219 136.345826 251.760278 136.345826"></polygon>
                        <polygon id="Fill-185" fill="#E6E7E8" points="251.760278 146.80736 306.969219 146.80736 306.969219 144.215796 251.760278 144.215796"></polygon>
                        <polygon id="Fill-186" fill="#E6E7E8" points="251.760278 154.67733 306.969219 154.67733 306.969219 152.085766 251.760278 152.085766"></polygon>
                        <polygon id="Fill-187" fill="#E6E7E8" points="251.760278 162.5473 280.329138 162.5473 280.329138 159.955736 251.760278 159.955736"></polygon>
                        <polygon id="Fill-188" fill="#D1D3D4" points="0.503265168 28.1480267 55.7122053 28.1480267 55.7122053 21.6691166 0.503265168 21.6691166"></polygon>
                        <polygon id="Fill-188-Copy" fill="#D1D3D4" points="0.503265168 110.220573 55.7122053 110.220573 55.7122053 103.741663 0.503265168 103.741663"></polygon>
                        <polygon id="Fill-189" fill="#E6E7E8" points="0.503265168 36.7992773 55.7122053 36.7992773 55.7122053 32.9119312 0.503265168 32.9119312"></polygon>
                        <polygon id="Fill-189-Copy-5" fill="#E6E7E8" points="0.503265168 118.871824 55.7122053 118.871824 55.7122053 114.984478 0.503265168 114.984478"></polygon>
                        <polygon id="Fill-189-Copy" fill="#E6E7E8" points="0.503265168 45.7935289 34.9780442 45.7935289 34.9780442 41.9061829 0.503265168 41.9061829"></polygon>
                        <polygon id="Fill-189-Copy-6" fill="#E6E7E8" points="0.503265168 127.866076 34.9780442 127.866076 34.9780442 123.97873 0.503265168 123.97873"></polygon>
                        <polygon id="Fill-189-Copy-2" fill="#E6E7E8" points="0.503265168 54.7877806 55.7122053 54.7877806 55.7122053 50.9004346 0.503265168 50.9004346"></polygon>
                        <polygon id="Fill-189-Copy-7" fill="#E6E7E8" points="0.503265168 136.860327 55.7122053 136.860327 55.7122053 132.972981 0.503265168 132.972981"></polygon>
                        <polygon id="Fill-189-Copy-3" fill="#E6E7E8" points="0.503265168 63.7820323 34.9780442 63.7820323 34.9780442 59.8946863 0.503265168 59.8946863"></polygon>
                        <polygon id="Fill-189-Copy-11" fill="#E6E7E8" points="0.503265168 81.7705357 34.9780442 81.7705357 34.9780442 77.8831896 0.503265168 77.8831896"></polygon>
                        <polygon id="Fill-189-Copy-8" fill="#E6E7E8" points="0.503265168 145.854579 34.9780442 145.854579 34.9780442 141.967233 0.503265168 141.967233"></polygon>
                        <polygon id="Fill-189-Copy-10" fill="#E6E7E8" points="0.503265168 163.843082 34.9780442 163.843082 34.9780442 159.955736 0.503265168 159.955736"></polygon>
                        <polygon id="Fill-189-Copy-4" fill="#E6E7E8" points="0.503265168 72.776284 55.7122053 72.776284 55.7122053 68.8889379 0.503265168 68.8889379"></polygon>
                        <polygon id="Fill-189-Copy-9" fill="#E6E7E8" points="0.503265168 154.848831 55.7122053 154.848831 55.7122053 150.961485 0.503265168 150.961485"></polygon>
                        <polygon id="Fill-192" fill="#E6E7E8" points="65.8526229 9.37824298 242.460121 9.37824298 242.460121 0.307768819 65.8526229 0.307768819"></polygon>
                        <polygon id="Fill-193" fill="#E6E7E8" points="251.779375 9.79746658 288.139743 9.79746658 288.139743 0.726992415 251.779375 0.726992415"></polygon>
                    </g>
                    <g id="Group-48" transform="translate(45.595855, 93.913169)">
                        <path d="M6.09836072,12.1967214 L68.2913066,12.1967214 C71.6593382,12.1967214 74.3896673,9.46639234 74.3896673,6.09836072 L74.3896673,6.09836072 C74.3896673,2.73032909 71.6593382,6.48672999e-15 68.2913066,7.10542736e-15 L6.09836072,0 C2.73032909,6.18697372e-16 -4.12464915e-16,2.73032909 0,6.09836072 L0,6.09836072 C4.12464915e-16,9.46639234 2.73032909,12.1967214 6.09836072,12.1967214 Z" id="Fill-175-Copy-2" fill="#7FDCFF"></path>
                        <g id="鼠标" transform="translate(43.316062, 5.122536)">
                            <path d="M25.1147063,8.18502124 L0.970178588,0.0406286004 C0.705629344,-0.0521214383 0.411685738,0.017147578 0.216507185,0.215562218 C0.016625533,0.413976857 -0.0515693834,0.703967485 0.0401410214,0.969303038 L8.19648818,25.0784428 C8.27761661,25.3191233 8.47984981,25.5011012 8.72676244,25.5586297 C8.9724993,25.6173323 9.23469699,25.541019 9.41576625,25.3625632 L13.9131034,20.8729917 L21.2934395,28.2413366 C21.4310051,28.3787005 21.619129,28.457362 21.811956,28.458536 C22.0071345,28.458536 22.1987858,28.3787005 22.3339998,28.2425106 L28.2810668,22.2994638 C28.4198082,22.1667961 28.4974093,21.9754257 28.4974093,21.7840554 C28.4974093,21.5891629 28.4198082,21.4001407 28.2810668,21.2627767 L20.9007308,13.8944318 L25.3992437,9.40251225 C25.5791372,9.22288243 25.6543868,8.95989498 25.5944223,8.71569234 C25.5368093,8.46796756 25.3557401,8.26720482 25.1147063,8.18502124" id="Fill-196" fill="#BABABC"></path>
                            <path d="M26.7875648,24.085259 C26.6498914,24.220273 26.4559515,24.2977592 26.257223,24.2977592 C26.0608888,24.2965852 25.8681461,24.2190989 25.7280784,24.085259 L18.2135068,16.713499 L13.635568,21.2041794 C13.4500082,21.3814585 13.1866331,21.4577708 12.9340324,21.4014171 C12.683826,21.3427154 12.4755202,21.1607401 12.3941134,20.9200632 L5.74149674,1.61307261 L0.989969776,0.0398669337 C0.719411678,-0.051707725 0.420121745,0.017560286 0.22139323,0.215972047 C0.0178760766,0.414383807 -0.0527563474,0.704370226 0.0406221115,0.96970193 L8.34891063,25.0784919 C8.42792317,25.3191689 8.63383464,25.5011442 8.88643535,25.5574978 C9.13903605,25.6161995 9.40480551,25.5410613 9.58797095,25.3626081 L14.1659097,20.8731018 L21.6804814,28.2425137 C21.8241405,28.3775277 22.0132918,28.457362 22.2120203,28.458536 C22.4083545,28.458536 22.6022944,28.3787017 22.7399677,28.2425137" id="Fill-197" fill="#9E9DA0"></path>
                        </g>
                    </g>
                </g>
            </g>
        </g>
    </g>
</svg>