<?xml version="1.0" encoding="UTF-8"?>
<svg width="30px" height="23px" viewBox="0 0 30 23" version="1.1" xmlns="http://www.w3.org/2000/svg" xmlns:xlink="http://www.w3.org/1999/xlink">
    <!-- Generator: Sketch 48.2 (47327) - http://www.bohemiancoding.com/sketch -->
    <title>电商快递 copy 2@3x</title>
    <desc>Created with Sketch.</desc>
    <defs></defs>
    <g id="1-首页" stroke="none" stroke-width="1" fill="none" fill-rule="evenodd" transform="translate(-490.000000, -3911.000000)">
        <g id="Group-34" transform="translate(0.000000, 2933.000000)" fill="#FF8A64" fill-rule="nonzero">
            <g id="电商快递-copy-2" transform="translate(490.000000, 978.000000)">
                <path d="M23.6394805,17.0931291 C22.0487671,17.0931291 20.7596422,18.3673423 20.7596422,19.9396937 C20.7596422,21.5120111 22.0487327,22.7862242 23.6394805,22.7862242 C25.2301596,22.7862242 26.5192844,21.5120111 26.5192844,19.9396937 C26.51925,18.3673083 25.2301596,17.0930951 23.6394805,17.0931291 Z" id="Shape"></path>
                <path d="M29.0931634,10.2391787 L26.51925,5.70690488 C25.9928209,5.07978047 25.6373712,4.56829265 24.7913539,4.56829265 L20.7596078,4.56829265 L20.7596078,1.15235398 C20.7596078,0.525229574 20.2421613,0.0137757534 19.6077,0.0137757534 L1.17683112,0.0137757534 C0.542369798,0.0137757534 0.0249233408,0.525229574 0.0249233408,1.15235398 L0.0249233408,18.2316733 C0.0249233408,18.8588658 0.542369832,19.3703195 1.17683112,19.3703196 L3.47390115,19.3703196 C3.75638872,17.408783 5.45052262,15.8900325 7.51246167,15.8900325 C9.57440072,15.8900325 11.268569,17.408783 11.5510222,19.3703196 L19.60092,19.3691632 C19.8844057,17.4077967 21.5785396,15.8900325 23.639515,15.8900325 C25.7014884,15.8900325 27.3955879,17.408817 27.6780755,19.3703196 L28.8232377,19.3703196 C29.4576646,19.3703196 29.9751111,18.8588658 29.9751111,18.2317073 L29.9751111,12.5386122 C29.9750423,11.459995 29.0931634,10.2391787 29.0931634,10.2391787 Z M21.9115844,12.5386462 L21.9115844,6.8455171 L24.7295082,6.8455171 C24.9150799,6.8455171 25.1727879,7.11461025 25.1727879,7.11461025 L27.598058,11.5712782 C27.8128834,11.883701 28.0458118,12.2540102 28.0458118,12.5386462 L21.9115844,12.5386462 Z" id="Shape"></path>
                <path d="M7.51246167,17.0931291 C5.92174826,17.0931291 4.63262334,18.3673423 4.63262334,19.9396937 C4.63265775,21.5120111 5.92178267,22.7862242 7.51246167,22.7862242 C9.10314067,22.7862242 10.3923,21.5120111 10.3923,19.9396937 C10.3923,18.3673083 9.10314067,17.0930951 7.51246167,17.0931291 Z" id="Shape"></path>
            </g>
        </g>
    </g>
</svg>