<?xml version="1.0" encoding="UTF-8"?>
<svg width="30px" height="30px" viewBox="0 0 30 30" version="1.1" xmlns="http://www.w3.org/2000/svg" xmlns:xlink="http://www.w3.org/1999/xlink">
    <!-- Generator: Sketch 48.2 (47327) - http://www.bohemiancoding.com/sketch -->
    <title>餐饮 copy 2@3x</title>
    <desc>Created with Sketch.</desc>
    <defs></defs>
    <g id="1-首页" stroke="none" stroke-width="1" fill="none" fill-rule="evenodd" transform="translate(-1170.000000, -3648.000000)">
        <g id="Group-34" transform="translate(0.000000, 2933.000000)" fill="#FFBD64" fill-rule="nonzero">
            <g id="餐饮-copy-2" transform="translate(1170.000000, 715.000000)">
                <path d="M15,0 C6.71558824,0 0,6.71558824 0,15 C0,23.2844118 6.71558824,30 15,30 C23.2844118,30 30,23.2844118 30,15 C30,6.71558824 23.2844118,0 15,0 Z M12.7332353,14.8985294 L13.3023529,22.2917647 C13.4025527,22.9446494 13.1102544,23.5955541 12.5557138,23.954418 C12.0011733,24.3132819 11.2876502,24.3132819 10.7331097,23.954418 C10.1785692,23.5955541 9.88627077,22.9446494 9.98647058,22.2917647 L10.5555882,14.8994118 C8.5632353,14.5182353 7.44970588,13.1585294 7.44970588,12.4835294 C7.44970588,10.5670588 8.28882352,6.61147061 8.28882352,6.61147058 L8.28882352,6.19147058 C8.30316691,5.97053979 8.48654526,5.79868076 8.70794117,5.79868076 C8.92933707,5.79868076 9.11271543,5.97053979 9.12705882,6.19147058 L9.12705882,10.8061765 C9.12705882,11.037353 9.18882352,11.6444118 9.96617648,11.6444118 C10.7708824,11.6444118 10.8061765,11.0373529 10.8061765,10.8061765 L10.8061765,5.98235294 L11.6444118,5.77235294 L12.4826471,5.98235294 L12.4826471,10.8061765 C12.4826471,11.037353 12.5444118,11.6444118 13.3217647,11.6444118 C14.1264706,11.6444118 14.1608823,11.0373529 14.1608824,10.8061765 L14.1608824,6.19147058 C14.1752259,5.97053988 14.3586042,5.79868099 14.58,5.79868099 C14.8013958,5.79868099 14.9847741,5.97053988 14.9991176,6.19147058 L15,6.61147058 C15,6.61147058 15.8382353,10.6058823 15.8382353,12.4835294 C15.8382353,13.1911765 14.6964706,14.5217647 12.7332353,14.8985294 Z M22.5494118,16.6782353 C22.5494118,18.2073529 20.8729412,18.3555882 20.8729412,18.3555882 L20.8729412,22.5502941 L20.8005882,22.5502941 C20.9842085,23.0715875 20.8061517,23.651674 20.3616873,23.9801776 C19.9172229,24.3086811 19.3104242,24.3086811 18.8659598,23.9801776 C18.4214954,23.651674 18.2434385,23.0715875 18.4270588,22.5502941 L18.3555882,22.5502941 L18.3555882,6.61235294 C18.355619,6.23534918 18.607078,5.90464757 18.9703573,5.80385092 C19.3336367,5.70305428 19.7195427,5.85691055 19.9138235,6.18 C20.9655882,7.14352942 22.5044118,9.75088236 22.5485294,13.3226471 L22.5494118,13.3226471 L22.5494118,16.6782353 Z" id="Shape"></path>
            </g>
        </g>
    </g>
</svg>