<?xml version="1.0" encoding="UTF-8"?>
<svg width="30px" height="30px" viewBox="0 0 30 30" version="1.1" xmlns="http://www.w3.org/2000/svg" xmlns:xlink="http://www.w3.org/1999/xlink">
    <!-- Generator: Sketch 48.2 (47327) - http://www.bohemiancoding.com/sketch -->
    <title>金融-2 copy 2@2x</title>
    <desc>Created with Sketch.</desc>
    <defs></defs>
    <g id="1-首页" stroke="none" stroke-width="1" fill="none" fill-rule="evenodd" transform="translate(-1170.000000, -3388.000000)">
        <g id="Group-34" transform="translate(0.000000, 2933.000000)" fill-rule="nonzero">
            <g id="金融-2-copy-2" transform="translate(1170.000000, 455.000000)">
                <path d="M0.0265486726,14.9900332 C0.0265486726,23.2688 6.73039118,29.9800664 15,29.9800664 C23.2696088,29.9800664 29.9734513,23.2688 29.9734513,14.9900332 C29.9734513,6.71126647 23.2696088,2.3606071e-16 15,0 C6.73039118,-4.72121419e-16 0.0265486726,6.71126647 0.0265486726,14.9900332 Z" id="Shape" fill="#FFA34F"></path>
                <path d="M20.1185841,14.5860465 C19.2058217,14.0553968 18.2585672,13.5865725 17.2831858,13.1827243 C16.2630126,12.7618816 15.2761226,12.2643363 14.3309735,11.6943522 C13.9566648,11.3688654 13.7660899,10.8799766 13.8212389,10.386711 C13.8004299,10.0849375 13.8911359,9.78603283 14.0761062,9.54684385 C14.2754932,9.34959193 14.550611,9.24873298 14.8300885,9.27043189 C15.1366336,9.225439 15.4439726,9.34689136 15.6371681,9.58936877 C15.8004404,10.0269809 15.865695,10.4951567 15.8283186,10.9607973 L15.8283186,11.6943522 L21.2867257,11.6943522 L21.2867257,10.9501661 C21.3358811,9.88395778 20.8695246,8.85921135 20.0336283,8.19667774 C18.9161248,7.43428556 17.6047339,7.0065052 16.2530973,6.96345515 L16.2530973,5.66644518 L13.7787611,5.66644518 L13.7787611,6.93156146 C12.3053217,6.96802306 10.8682851,7.39740948 9.6159292,8.17541528 C8.71112643,8.80826152 8.18761405,9.85644578 8.22477876,10.9607973 C8.21465497,11.7444453 8.44441977,12.5124128 8.88318584,13.1614618 C9.28499014,13.7745752 9.81828008,14.2902965 10.4442478,14.6710963 C11.0460177,15.0254707 12.1787611,15.5853821 13.8424779,16.3508306 C14.5465374,16.574422 15.1629889,17.0131077 15.6053097,17.6053156 C15.8113711,18.2210852 15.8978812,18.8706292 15.860177,19.5189369 C15.8848356,19.8099417 15.7888269,20.0982868 15.5946903,20.3162791 C15.3653096,20.5124026 15.0668971,20.6081536 14.7663717,20.5820598 C14.3345133,20.5820598 14.0619469,20.454485 13.9486726,20.1993355 C13.7942944,19.5486894 13.7370359,18.8787393 13.7787611,18.2112957 L13.7787611,17.2332226 L8.32035398,17.2332226 L8.32035398,18.0093023 C8.16821891,19.4521195 8.79040677,20.8677488 9.95575221,21.7302326 C11.1043462,22.4590738 12.4208131,22.8800775 13.7787611,22.9528239 L13.7787611,24.4518272 L16.2955752,24.4518272 L16.2955752,22.9634551 C17.829337,22.9091344 19.3105268,22.3901438 20.5433628,21.4750831 C21.4926448,20.6376367 22.008712,19.4125768 21.9451327,18.1475083 C21.9539378,17.375822 21.7559128,16.6158854 21.3716814,15.9468439 C21.0590789,15.3905343 20.6186039,14.9167725 20.0867257,14.5647841 L20.1185841,14.5860465 Z" id="Shape" fill="#FFFEFD"></path>
            </g>
        </g>
    </g>
</svg>