<?xml version="1.0" encoding="UTF-8"?>
<svg width="30px" height="27px" viewBox="0 0 30 27" version="1.1" xmlns="http://www.w3.org/2000/svg" xmlns:xlink="http://www.w3.org/1999/xlink">
    <!-- Generator: Sketch 48.2 (47327) - http://www.bohemiancoding.com/sketch -->
    <title>Group 23 Copy@3x</title>
    <desc>Created with Sketch.</desc>
    <defs></defs>
    <g id="1-首页" stroke="none" stroke-width="1" fill="none" fill-rule="evenodd" transform="translate(-830.000000, -3649.000000)">
        <g id="Group-34" transform="translate(0.000000, 2933.000000)" fill="#C9E889">
            <g id="Group-23-Copy" transform="translate(830.000000, 716.000000)">
                <path d="M24.1926436,11.9158696 C24.7630544,12.4183133 25.4737553,12.7640874 26.2459909,12.8971144 L26.2459909,25.6346407 C26.2459909,26.210857 25.786803,26.6747705 25.2193903,26.6747705 L4.67999393,26.6747705 C4.11254468,26.6747705 3.65039528,26.210857 3.65039525,25.6346407 L3.65039525,12.903025 C4.42848081,12.7818194 5.13329519,12.4507851 5.70959258,11.9631919 L5.70959258,20.3868911 L24.1926436,20.3868911 L24.1926436,11.9158696 Z M25.4062976,2.12488512 L25.8276433,2.12488512 L25.8276433,1.03724834 C25.8276433,0.463950496 25.3683092,0 24.8008965,0 L5.1655433,0 C4.59809402,0 4.13594462,0.463950496 4.13594462,1.03724834 L4.13594462,2.12488512 L25.4062976,2.12488512 Z M25.8276433,3.372073 L4.1242812,3.372073 L0,7.84633779 C0,9.51624925 1.3425367,10.8726736 2.99227112,10.8726737 C3.33745722,10.8726737 3.66494711,10.8135301 3.97218141,10.7042935 C3.98088328,10.6983828 3.99558138,10.6924352 4.0043198,10.689406 C4.10084468,10.6569343 4.19440798,10.6185519 4.28223099,10.5741111 C4.29393096,10.5682004 4.30851941,10.5624375 4.32021938,10.5534976 C4.41378271,10.5061384 4.50745569,10.4559346 4.59231715,10.3998202 C4.59516902,10.3969018 4.60101902,10.3938726 4.60401715,10.3909912 C4.9841501,10.1423698 5.3056395,9.81247648 5.54579279,9.42459697 C5.54579279,9.42156777 5.54879089,9.41868629 5.54879092,9.41565709 C5.60772655,9.31973967 5.66043852,9.22005854 5.70659447,9.11724223 C5.89161576,8.71964061 5.98754395,8.28569383 5.98754035,7.84633779 C5.98754035,9.51624925 7.33004047,10.8726736 8.98266334,10.8726737 C10.6352496,10.8726737 11.9779326,9.51624928 11.9779326,7.84633779 C11.9779326,9.51624925 13.3204327,10.8726736 14.9760537,10.8726737 C16.6286399,10.8726737 17.9711766,9.51624928 17.9711766,7.84633779 C17.9711766,9.51624925 19.3108249,10.8726736 20.9692977,10.8726737 C22.6190322,10.8726737 23.9615323,9.51624928 23.9615323,7.84633779 C23.9615323,8.38129016 24.1019321,8.88070468 24.3388934,9.3180941 C24.3534452,9.33889226 24.3622933,9.35662426 24.3768818,9.37727469 C24.4237183,9.45115805 24.4675566,9.5280706 24.5202797,9.59892472 C24.5348316,9.61953816 24.5524181,9.6432178 24.5728199,9.66992663 C24.6226546,9.73487011 24.6752314,9.80280583 24.7337679,9.86486783 C24.7513544,9.88566599 24.7659063,9.90325023 24.7806409,9.92101919 C24.8507677,9.99793174 24.9268907,10.0658675 25.0028675,10.1338402 C25.0058656,10.1367216 25.0087175,10.1426692 25.0115694,10.1426692 C25.2765941,10.371887 25.579612,10.5519992 25.9066548,10.6747032 C25.9066548,10.6747032 25.9155029,10.6747032 25.9183547,10.6806139 C26.0296143,10.7218777 26.1348776,10.7544973 26.2518409,10.7810583 C26.4799175,10.8371727 26.7168787,10.8696444 26.9568015,10.8696444 C28.6122763,10.8696444 29.9549226,9.51322005 29.9549226,7.84345634 L25.8276433,3.372073 Z" id="Shape" fill-rule="nonzero"></path>
                <rect id="Rectangle-3" x="8.5" y="12.6072041" width="13.5" height="5.54716981"></rect>
            </g>
        </g>
    </g>
</svg>