<?xml version="1.0" encoding="UTF-8"?>
<svg width="36px" height="26px" viewBox="0 0 36 26" version="1.1" xmlns="http://www.w3.org/2000/svg" xmlns:xlink="http://www.w3.org/1999/xlink">
    <!-- Generator: Sketch 48.2 (47327) - http://www.bohemiancoding.com/sketch -->
    <title>教育 copy 2@2x</title>
    <desc>Created with Sketch.</desc>
    <defs></defs>
    <g id="1-首页" stroke="none" stroke-width="1" fill="none" fill-rule="evenodd" transform="translate(-830.000000, -3390.000000)">
        <g id="Group-34" transform="translate(0.000000, 2933.000000)" fill="#F6BC1F" fill-rule="nonzero">
            <g id="教育-copy-2" transform="translate(830.000000, 457.000000)">
                <path d="M35.2466986,5.75112329 L19.2966562,0.280438348 C18.3013534,-0.0783123288 18.510283,-0.0804164548 17.5244292,0.275178082 L1.47569652,5.70167672 C0.488792891,6.0583233 0.496142182,6.63800548 1.49039508,6.99570412 L5.30467259,8.28657535 C3.61433767,9.9193644 3.50619822,11.6163288 3.48310047,13.5826192 C2.8124794,13.8393837 2.36885001,14.4834036 2.36705948,15.2027836 C2.36705948,15.882411 2.75762133,16.4694575 3.32771566,16.7556164 C3.05684211,18.7545205 2.28201778,21.0385315 0.00793985783,23.7444164 C1.13342995,24.6123616 1.71507315,24.9016767 2.58543813,25.1909918 C5.76347778,23.8285808 5.3781654,20.2105644 5.12933972,16.6104329 C5.5974024,16.2725481 5.8666292,15.7231356 5.84724242,15.145405 C5.82785564,14.5676744 5.52240558,14.0376255 5.03274914,13.732011 C5.0894436,11.8046466 5.51045248,10.0792767 6.95511141,8.96409863 C6.96666028,8.93464109 7.0013069,8.90728767 7.06325086,8.88309042 L18.0294299,4.46340822 C18.4356054,4.29969386 18.8973691,4.4964526 19.0614791,4.90316713 L19.0751278,4.93893698 C19.1535814,5.13390941 19.1511457,5.35219255 19.0683611,5.54535842 C18.9855766,5.73852428 18.8292885,5.89060011 18.6341709,5.96784657 L9.3667259,9.6605589 L17.6609159,12.466389 C18.6541189,12.8240877 18.4451893,12.8272438 19.432093,12.4705973 L35.262447,7.04515068 C36.2483008,6.68955617 36.2420014,6.10987396 35.2466986,5.75112329 Z" id="Shape"></path>
                <path d="M17.6346685,14.5641863 L7.59554888,11.1713096 L7.59554888,13.7235945 C8.12049761,14.2033315 8.41131922,14.8913753 8.41131922,15.6551671 C8.41131922,16.3421589 8.16984281,16.9681315 7.76248258,17.4341918 C7.89686945,17.8360767 8.1278469,18.2284931 8.4585646,18.3515836 C14.301244,21.5708712 22.3760055,21.5351014 28.8717211,18.0254466 C29.3525742,17.6256658 29.7252878,17.1290959 29.7252878,16.650411 L29.7252878,11.0292822 L19.4142447,14.5704986 C18.4273411,14.9260932 18.6299713,14.923989 17.6346685,14.5641863 Z" id="Shape"></path>
            </g>
        </g>
    </g>
</svg>