<?xml version="1.0" encoding="UTF-8"?>
<svg width="29px" height="29px" viewBox="0 0 29 29" version="1.1" xmlns="http://www.w3.org/2000/svg" xmlns:xlink="http://www.w3.org/1999/xlink">
    <!-- Generator: Sketch 48.2 (47327) - http://www.bohemiancoding.com/sketch -->
    <title>制造 copy 2@3x</title>
    <desc>Created with Sketch.</desc>
    <defs></defs>
    <g id="1-首页" stroke="none" stroke-width="1" fill="none" fill-rule="evenodd" transform="translate(-490.000000, -3649.000000)">
        <g id="Group-34" transform="translate(0.000000, 2933.000000)" fill="#81CC53" fill-rule="nonzero">
            <g id="制造-copy-2" transform="translate(490.000000, 715.000000)">
                <path d="M29.9325696,0.128627319 C29.9325696,0.0886383871 29.9325696,0.0486217845 29.9915266,0.0286273187 C29.9915266,0.0286273187 30.0210051,0.0286273187 30.0210051,0.0486217845 C30.0504836,0.0886107162 30.0210051,0.108605153 29.9620481,0.128627319 L29.9325696,0.128627319 Z M28.70325,16.4168614 C28.70325,16.2571804 28.6635972,16.1773122 28.5248123,16.1174319 C27.3748257,15.5584929 26.2248117,14.9796492 25.0748251,14.4406704 C24.9162139,14.3608022 24.8765611,14.2809893 24.8765611,14.1013205 L24.8765611,4.55982558 C24.8765611,4.36022428 24.8170819,4.32027639 24.6386167,4.32027639 C23.726547,4.34023652 22.8144774,4.32027639 21.9024077,4.34023652 C21.7041436,4.34023652 21.6644633,4.28035614 21.6843172,4.1006873 C21.7041436,3.4020551 21.6843172,2.70339528 21.6843172,2.0047631 C21.6843172,1.84508208 21.6446644,1.82512194 21.4860531,1.82512194 C20.9903654,1.82512194 20.5145042,1.84508208 20.0188166,1.82512194 C19.8205525,1.82512194 19.7610458,1.86504221 19.7610458,2.06467114 L19.7610458,11.8257275 C19.6618863,11.7858072 19.6024345,11.7458593 19.5429553,11.7258992 C14.6058777,9.29059752 9.62917477,6.8553511 4.65244435,4.42004938 C4.53348589,4.36016901 4.4145,4.34018122 4.29556901,4.34018122 L0.250734677,4.34018122 C0.0722970114,4.34018122 0.0127903321,4.38010149 0.0127903321,4.57973041 L0.0127903321,29.1521154 C0.0127903321,29.3317565 0.0524431594,29.3716768 0.230880825,29.3716768 L28.5050134,29.3716768 C28.6834511,29.3716768 28.7231039,29.3117964 28.7231039,29.1521154 C28.7032774,24.9003589 28.7032774,20.6486025 28.7032775,16.4168338 L28.70325,16.4168614 Z M5.54466017,26.8566175 L3.40327082,26.8566175 C3.24465956,26.8566175 3.18518032,26.8166972 3.18518032,26.6570162 L3.18518032,17.0756287 C3.18518032,16.8959875 3.24465954,16.8560672 3.40327082,16.8560672 C4.11707641,16.8760274 4.81102816,16.8560672 5.52483376,16.8560672 C5.70327142,16.8560672 5.74292425,16.8959875 5.74292425,17.0756287 L5.74292425,26.677004 C5.76275066,26.8167249 5.70327142,26.8566451 5.54466017,26.8566451 L5.54466017,26.8566175 Z M9.58946704,26.6569885 C9.58946704,26.8166696 9.54981421,26.8366297 9.39120296,26.8366297 L7.21016081,26.8366297 C7.05154955,26.8366297 7.01189673,26.7767494 7.01189673,26.6370284 L7.01189673,17.0556132 C7.01189673,16.8759721 7.07137594,16.8360518 7.22998719,16.8360518 C7.94379279,16.8560119 8.65757092,16.8360518 9.37137655,16.8360518 C9.51016141,16.8360518 9.56964063,16.8560119 9.56964063,17.0356531 C9.58946704,20.2294398 9.58946704,23.4432418 9.58946704,26.6570162 L9.58946704,26.6569885 Z M13.2179193,26.8566175 L11.07653,26.8566175 C10.8980923,26.8566175 10.8385856,26.8166972 10.8385856,26.6370561 L10.8385856,17.0955335 C10.8385856,16.9158923 10.858412,16.8559843 11.0566761,16.8559843 C11.7704817,16.8759444 12.5040863,16.8559843 13.2178919,16.8559843 C13.3566767,16.8559843 13.3963295,16.8759444 13.3963295,17.0356255 L13.3963295,26.6969088 C13.4161559,26.8166696 13.3566767,26.8565898 13.2178919,26.8565898 L13.2179193,26.8566175 Z" id="Shape"></path>
            </g>
        </g>
    </g>
</svg>