<?xml version="1.0" encoding="UTF-8"?>
<svg width="30px" height="27px" viewBox="0 0 30 27" version="1.1" xmlns="http://www.w3.org/2000/svg" xmlns:xlink="http://www.w3.org/1999/xlink">
    <!-- Generator: Sketch 48.2 (47327) - http://www.bohemiancoding.com/sketch -->
    <title>专业 copy 2@2x</title>
    <desc>Created with Sketch.</desc>
    <defs></defs>
    <g id="1-首页" stroke="none" stroke-width="1" fill="none" fill-rule="evenodd" transform="translate(-1170.000000, -3128.000000)">
        <g id="Group-34" transform="translate(0.000000, 2933.000000)" fill="#5396F7" fill-rule="nonzero">
            <g id="专业-copy-2" transform="translate(1170.000000, 195.000000)">
                <path d="M6.7125,0.00449108911 L13.5230969,0.00449108911 L7.67296713,8.20503267 L0.0119636678,8.20503267 L6.7125,0.00449108911 Z M22.4862976,9.74582376 L29.9992734,9.74582376 L17.0727249,25.5798535 L22.4862976,9.74582376 Z M9.53317474,8.20503267 L15.0037111,0.536337624 L20.4742215,8.20503267 L9.53317474,8.20503267 Z M20.8994377,9.74582376 L15.0037111,26.9916059 L9.11177336,9.74582376 L20.8994377,9.74582376 Z M7.52491349,9.74582376 L12.9346972,25.5798535 L0.0119636678,9.74582376 L7.52491349,9.7458505 L7.52491349,9.74582376 Z M29.9954585,8.20503267 L22.334455,8.20503267 L16.4842734,0.00449108911 L23.2949221,0.00449108911 L29.9954585,8.20503267 Z" id="Shape"></path>
            </g>
        </g>
    </g>
</svg>