<?xml version="1.0" encoding="UTF-8"?>
<svg width="30px" height="30px" viewBox="0 0 30 30" version="1.1" xmlns="http://www.w3.org/2000/svg" xmlns:xlink="http://www.w3.org/1999/xlink">
    <!-- Generator: Sketch 48.2 (47327) - http://www.bohemiancoding.com/sketch -->
    <title>Shape Copy 2@3x</title>
    <desc>Created with Sketch.</desc>
    <defs></defs>
    <g id="1-首页" stroke="none" stroke-width="1" fill="none" fill-rule="evenodd" transform="translate(-830.000000, -3908.000000)">
        <g id="Group-34" transform="translate(0.000000, 2933.000000)" fill="#FFABAB" fill-rule="nonzero">
            <path d="M841.074722,975 L832.7683,975 C831.241399,975 830,976.24195 830,977.768398 L830,986.0741 C830,987.600548 831.157727,989.318182 832.684627,989.318182 L841.633554,989.318182 C843.159948,989.318182 844.318182,987.265845 844.318182,985.738383 L844.318182,977.684722 C844.318182,976.158275 842.601116,975 841.074722,975 Z M857.2317,975 L848.925785,975 C847.398884,975 845.681818,976.158234 845.681818,977.684627 L845.681818,985.73851 C845.681818,987.265918 846.839545,989.318182 848.366446,989.318182 L857.315373,989.318182 C858.842273,989.318182 860,987.600609 860,986.074215 L860,977.7683 C860,976.241906 858.758094,975 857.2317,975 Z M841.633966,990.681818 L832.684722,990.681818 C831.157768,990.681818 830,992.398945 830,993.925393 L830,1002.2316 C830,1003.75805 831.241443,1005 832.768398,1005 L841.074607,1005 C842.601055,1005 844.318182,1003.84223 844.318182,1002.31528 L844.318182,993.366034 C844.318689,991.838571 843.160414,990.681818 841.633966,990.681818 Z M857.315373,990.681818 L848.366446,990.681818 C846.839545,990.681818 845.681818,991.838571 845.681818,993.366034 L845.681818,1002.31528 C845.681818,1003.84223 847.399391,1005 848.925785,1005 L857.2317,1005 C858.758094,1005 860,1003.75805 860,1002.2316 L860,993.925393 C860,992.398945 858.842273,990.681818 857.315373,990.681818 Z" id="Shape-Copy-2"></path>
        </g>
    </g>
</svg>