<?xml version="1.0" encoding="UTF-8"?>
<svg width="331px" height="256px" viewBox="0 0 331 256" version="1.1" xmlns="http://www.w3.org/2000/svg" xmlns:xlink="http://www.w3.org/1999/xlink">
    <!-- Generator: Sketch 48.2 (47327) - http://www.bohemiancoding.com/sketch -->
    <title>1</title>
    <desc>Created with Sketch.</desc>
    <defs>
        <filter x="-3.5%" y="-3.3%" width="107.0%" height="108.2%" filterUnits="objectBoundingBox" id="filter-1">
            <feOffset dx="0" dy="2" in="SourceAlpha" result="shadowOffsetOuter1"></feOffset>
            <feGaussianBlur stdDeviation="3" in="shadowOffsetOuter1" result="shadowBlurOuter1"></feGaussianBlur>
            <feColorMatrix values="0 0 0 0 0   0 0 0 0 0   0 0 0 0 0  0 0 0 0.0921648551 0" type="matrix" in="shadowBlurOuter1" result="shadowMatrixOuter1"></feColorMatrix>
            <feMerge>
                <feMergeNode in="shadowMatrixOuter1"></feMergeNode>
                <feMergeNode in="SourceGraphic"></feMergeNode>
            </feMerge>
        </filter>
        <polygon id="path-2" points="0 0 283.350427 0 283.350427 181.48448 0 181.48448"></polygon>
        <polygon id="path-4" points="0.000273510279 0.766654209 283.005188 0.766654209 283.005188 48.6668407 0.000273510279 48.6668407"></polygon>
        <polygon id="path-6" points="0 46.0559025 63.8004796 46.0559025 63.8004796 0 0 0"></polygon>
        <filter x="-6.3%" y="-4.3%" width="112.5%" height="117.4%" filterUnits="objectBoundingBox" id="filter-7">
            <feOffset dx="0" dy="2" in="SourceAlpha" result="shadowOffsetOuter1"></feOffset>
            <feGaussianBlur stdDeviation="1" in="shadowOffsetOuter1" result="shadowBlurOuter1"></feGaussianBlur>
            <feColorMatrix values="0 0 0 0 0   0 0 0 0 0   0 0 0 0 0  0 0 0 0.0797384511 0" type="matrix" in="shadowBlurOuter1"></feColorMatrix>
        </filter>
        <polygon id="path-8" points="0 46.0559025 63.8004796 46.0559025 63.8004796 0 0 0"></polygon>
        <filter x="-6.3%" y="-4.3%" width="112.5%" height="117.4%" filterUnits="objectBoundingBox" id="filter-9">
            <feOffset dx="0" dy="2" in="SourceAlpha" result="shadowOffsetOuter1"></feOffset>
            <feGaussianBlur stdDeviation="1" in="shadowOffsetOuter1" result="shadowBlurOuter1"></feGaussianBlur>
            <feColorMatrix values="0 0 0 0 0   0 0 0 0 0   0 0 0 0 0  0 0 0 0.0797384511 0" type="matrix" in="shadowBlurOuter1"></feColorMatrix>
        </filter>
        <polygon id="path-10" points="0 41.0498261 68.8640098 41.0498261 68.8640098 0 0 0"></polygon>
        <filter x="-5.8%" y="-4.9%" width="111.6%" height="119.5%" filterUnits="objectBoundingBox" id="filter-11">
            <feOffset dx="0" dy="2" in="SourceAlpha" result="shadowOffsetOuter1"></feOffset>
            <feGaussianBlur stdDeviation="1" in="shadowOffsetOuter1" result="shadowBlurOuter1"></feGaussianBlur>
            <feColorMatrix values="0 0 0 0 0   0 0 0 0 0   0 0 0 0 0  0 0 0 0.0797384511 0" type="matrix" in="shadowBlurOuter1"></feColorMatrix>
        </filter>
        <linearGradient x1="89.3289223%" y1="50%" x2="30.3021995%" y2="88.7498611%" id="linearGradient-12">
            <stop stop-color="#FAD961" offset="0%"></stop>
            <stop stop-color="#F76B1C" offset="100%"></stop>
        </linearGradient>
        <path d="M28.5593929,27.8880645 L28.5288419,27.8722597 L44.6733192,1.91517675 L31.5833928,29.4524516 L31.5528418,29.4366468 C31.5203986,29.5430363 31.4766005,29.6478647 31.4209795,29.7496425 C30.9724874,30.5703124 29.9251282,30.8818588 29.0816372,30.4455009 C28.2381463,30.0091429 27.9179365,28.9901205 28.3664286,28.1694505 C28.4220496,28.0676728 28.4868814,27.9737256 28.5593929,27.8880645 Z" id="path-13"></path>
        <polygon id="path-14" points="85.8448017 98.1190966 170.912108 98.1190966 170.912108 45.0546872 85.8448017 45.0546872"></polygon>
        <filter x="-4.7%" y="-3.8%" width="109.4%" height="115.1%" filterUnits="objectBoundingBox" id="filter-15">
            <feOffset dx="0" dy="2" in="SourceAlpha" result="shadowOffsetOuter1"></feOffset>
            <feGaussianBlur stdDeviation="1" in="shadowOffsetOuter1" result="shadowBlurOuter1"></feGaussianBlur>
            <feColorMatrix values="0 0 0 0 0   0 0 0 0 0   0 0 0 0 0  0 0 0 0.0797384511 0" type="matrix" in="shadowBlurOuter1"></feColorMatrix>
        </filter>
        <polygon id="path-16" points="0 51.0619789 81.0164821 51.0619789 81.0164821 0 0 0"></polygon>
        <filter x="-4.9%" y="-3.9%" width="109.9%" height="115.7%" filterUnits="objectBoundingBox" id="filter-17">
            <feOffset dx="0" dy="2" in="SourceAlpha" result="shadowOffsetOuter1"></feOffset>
            <feGaussianBlur stdDeviation="1" in="shadowOffsetOuter1" result="shadowBlurOuter1"></feGaussianBlur>
            <feColorMatrix values="0 0 0 0 0   0 0 0 0 0   0 0 0 0 0  0 0 0 0.0797384511 0" type="matrix" in="shadowBlurOuter1"></feColorMatrix>
        </filter>
        <linearGradient x1="50%" y1="0%" x2="50%" y2="57.9548447%" id="linearGradient-18">
            <stop stop-color="#B4EC51" stop-opacity="0.18823596" offset="0%"></stop>
            <stop stop-color="#429321" stop-opacity="0" offset="100%"></stop>
        </linearGradient>
        <ellipse id="path-19" cx="22.2058812" cy="34.2415623" rx="2.46732014" ry="2.40291665"></ellipse>
        <ellipse id="path-20" cx="40.7107822" cy="12.0145833" rx="2.46732014" ry="2.40291665"></ellipse>
        <ellipse id="path-21" cx="59.8325133" cy="4.8058333" rx="2.46732014" ry="2.40291665"></ellipse>
        <linearGradient x1="46.8424678%" y1="26.6651131%" x2="46.8424678%" y2="79.6062697%" id="linearGradient-22">
            <stop stop-color="#43A9E8" stop-opacity="0.268738678" offset="0%"></stop>
            <stop stop-color="#5CDCFF" stop-opacity="0" offset="100%"></stop>
        </linearGradient>
        <ellipse id="path-23" cx="40.0939522" cy="27.6335415" rx="2.46732014" ry="2.40291665"></ellipse>
        <ellipse id="path-24" cx="59.8325133" cy="18.0218749" rx="2.46732014" ry="2.40291665"></ellipse>
        <ellipse id="path-25" cx="22.2058812" cy="18.6226041" rx="2.46732014" ry="2.40291665"></ellipse>
        <polygon id="path-26" points="0 64.0777774 68.8640098 64.0777774 68.8640098 0 0 0"></polygon>
        <filter x="-5.8%" y="-3.1%" width="111.6%" height="112.5%" filterUnits="objectBoundingBox" id="filter-27">
            <feOffset dx="0" dy="2" in="SourceAlpha" result="shadowOffsetOuter1"></feOffset>
            <feGaussianBlur stdDeviation="1" in="shadowOffsetOuter1" result="shadowBlurOuter1"></feGaussianBlur>
            <feColorMatrix values="0 0 0 0 0   0 0 0 0 0   0 0 0 0 0  0 0 0 0.0797384511 0" type="matrix" in="shadowBlurOuter1"></feColorMatrix>
        </filter>
        <linearGradient x1="100%" y1="39.4088699%" x2="2.92488728%" y2="66.5842009%" id="linearGradient-28">
            <stop stop-color="#02A9ED" offset="0%"></stop>
            <stop stop-color="#3CCFD2" offset="100%"></stop>
        </linearGradient>
        <linearGradient x1="100%" y1="47.1524533%" x2="2.92488728%" y2="54.4588525%" id="linearGradient-29">
            <stop stop-color="#02A9ED" offset="0%"></stop>
            <stop stop-color="#3CCFD2" offset="100%"></stop>
        </linearGradient>
        <linearGradient x1="51.6633045%" y1="22.1433924%" x2="48.4339951%" y2="93.6194792%" id="linearGradient-30">
            <stop stop-color="#02A9ED" offset="0%"></stop>
            <stop stop-color="#3CCFD2" offset="100%"></stop>
        </linearGradient>
        <linearGradient x1="100%" y1="42.1364945%" x2="2.92488728%" y2="62.3131294%" id="linearGradient-31">
            <stop stop-color="#02A9ED" offset="0%"></stop>
            <stop stop-color="#3CCFD2" offset="100%"></stop>
        </linearGradient>
        <linearGradient x1="100%" y1="22.2820577%" x2="2.92488728%" y2="93.4023492%" id="linearGradient-32">
            <stop stop-color="#02A9ED" offset="0%"></stop>
            <stop stop-color="#3CCFD2" offset="100%"></stop>
        </linearGradient>
        <linearGradient x1="100%" y1="23.4357898%" x2="2.92488728%" y2="91.595769%" id="linearGradient-33">
            <stop stop-color="#02A9ED" offset="0%"></stop>
            <stop stop-color="#3CCFD2" offset="100%"></stop>
        </linearGradient>
        <filter x="-14.3%" y="-6.6%" width="128.6%" height="116.5%" filterUnits="objectBoundingBox" id="filter-34">
            <feOffset dx="0" dy="2" in="SourceAlpha" result="shadowOffsetOuter1"></feOffset>
            <feGaussianBlur stdDeviation="3" in="shadowOffsetOuter1" result="shadowBlurOuter1"></feGaussianBlur>
            <feColorMatrix values="0 0 0 0 0   0 0 0 0 0   0 0 0 0 0  0 0 0 0.167091259 0" type="matrix" in="shadowBlurOuter1" result="shadowMatrixOuter1"></feColorMatrix>
            <feMerge>
                <feMergeNode in="shadowMatrixOuter1"></feMergeNode>
                <feMergeNode in="SourceGraphic"></feMergeNode>
            </feMerge>
        </filter>
    </defs>
    <g id="1-首页（大窗口" stroke="none" stroke-width="1" fill="none" fill-rule="evenodd" transform="translate(-240.000000, -144.000000)">
        <g id="Group-35">
            <g id="banner">
                <g id="1" transform="translate(246.000000, 148.000000)">
                    <g id="Group-2" transform="translate(35.418803, 0.000000)">
                        <g id="mac" filter="url(#filter-1)">
                            <g id="Group-3">
                                <mask id="mask-3" fill="white">
                                    <use xlink:href="#path-2"></use>
                                </mask>
                                <g id="Clip-2"></g>
                                <path d="M283.350427,10.583325 C283.350427,4.73232022 279.568643,0 274.891388,0 L8.4549315,0 C3.78863084,0 0,4.73232022 0,10.583325 L0,181.48448 L283.350427,181.48448 L283.350427,10.583325 Z" id="Fill-1" fill="#EAEAEA" mask="url(#mask-3)"></path>
                            </g>
                            <path d="M263.42735,27.9176692 C263.42735,23.5005706 260.145642,19.9190283 256.094099,19.9190283 L25.0426536,19.9190283 C20.9938453,19.9190283 17.7094017,23.5005706 17.7094017,27.9176692 L17.7094017,157.139001 L263.42735,157.139001 L263.42735,27.9176692 Z" id="Fill-4" fill="#19B2B8"></path>
                            <g id="Group-8" transform="translate(0.000000, 169.311741)">
                                <mask id="mask-5" fill="white">
                                    <use xlink:href="#path-4"></use>
                                </mask>
                                <g id="Clip-7"></g>
                            </g>
                            <path d="M0,180.923077 L0,210.86198 C0,213.887753 3.78863084,216.334683 8.4549315,216.334683 L274.891388,216.334683 C279.568643,216.334683 283.350427,213.887753 283.350427,210.86198 L283.350427,180.923077 L0,180.923077 Z" id="Fill-6" fill="#FFFFFF"></path>
                            <g id="Group-5" transform="translate(89.846154, 196.923077)" fill="#FFFFFF">
                                <polygon id="Fill-9" points="83.6625833 0 76.6615217 0 27.3955678 0 20.3931364 0 11.0769231 39.8380567 21.8613798 39.8380567 82.1957097 39.8380567 92.982906 39.8380567"></polygon>
                                <path d="M103.594328,47.1309042 C103.881037,46.4563838 104.042735,45.7134132 104.042735,44.921957 C104.042735,41.8702158 101.679764,39.3846154 98.767834,39.3846154 L5.2694658,39.3846154 C2.35481801,39.3846154 -3.97903932e-13,41.8702158 -3.97903932e-13,44.921957 C-3.97903932e-13,45.7134132 0.158980789,46.4563838 0.440254491,47.1309042 L103.594328,47.1309042 Z" id="Fill-13"></path>
                            </g>
                            <path d="M153.850427,199.74359 C153.850427,205.557084 149.139432,210.25641 143.331025,210.25641 C137.526428,210.25641 132.820513,205.557084 132.820513,199.74359 C132.820513,193.935177 137.526428,189.230769 143.331025,189.230769 C149.139432,189.230769 153.850427,193.935177 153.850427,199.74359" id="Fill-15" fill="#EAEAEA"></path>
                            <polygon id="Fill-17" fill="#FFFFFF" points="17.7094017 157.139001 263.42735 157.139001 263.42735 32.0917679 17.7094017 32.0917679"></polygon>
                            <path d="M263.42735,27.9260407 C263.42735,23.504319 260.14566,19.9190283 256.094139,19.9190283 L25.0426128,19.9190283 C20.993827,19.9190283 17.7094017,23.504319 17.7094017,27.9260407 L17.7094017,32.0917679 L263.42735,32.0917679 L263.42735,27.9260407 Z" id="Fill-19" fill="#F1F2F2"></path>
                        </g>
                        <g id="Group-55" transform="translate(10.761538, 9.959514)">
                            <g id="Group-54" transform="translate(0.000000, 0.000000)">
                                <path d="M0.303382225,165.991903 L261.517057,165.991903 L261.517057,5.53846154 C261.517057,2.47965369 259.037404,8.31989031e-15 255.978596,8.8817842e-15 L5.84184376,0 C2.78303592,5.61893886e-16 0.303382225,2.47965369 0.303382225,5.53846154 L0.303382225,165.991903 Z" id="Fill-180" fill="#FFFFFF"></path>
                                <g id="Group-27" transform="translate(13.942674, 45.054687)">
                                    <g id="Fill-204">
                                        <use fill="black" fill-opacity="1" filter="url(#filter-7)" xlink:href="#path-6"></use>
                                        <use fill="#FFFFFF" fill-rule="evenodd" xlink:href="#path-6"></use>
                                    </g>
                                    <g id="柱状图图" transform="translate(31.608405, 22.479135) scale(-1, 1) translate(-31.608405, -22.479135) translate(5.216374, 5.756988)" stroke="#FFFFFF" stroke-width="1.05275077">
                                        <rect id="Rectangle-6" fill="#FFB53C" x="0" y="16.9046097" width="5.07503815" height="15.9102209"></rect>
                                        <rect id="Rectangle-6-Copy" fill="#FFB53C" x="19.285145" y="0" width="5.07503815" height="32.8148305"></rect>
                                        <rect id="Rectangle-6-Copy-5" fill="#00B5FF" x="28.4202137" y="3.97755522" width="5.07503815" height="28.8372753"></rect>
                                        <rect id="Rectangle-6-Copy-4" fill="#00B5FF" x="9.13506867" y="8.94949924" width="5.07503815" height="23.8653313"></rect>
                                        <rect id="Rectangle-6-Copy-2" fill="#FFB53C" x="38.57029" y="11.9326656" width="5.07503815" height="20.8821649"></rect>
                                        <rect id="Rectangle-6-Copy-6" fill="#00B5FF" x="47.7053586" y="16.9046097" width="5.07503815" height="15.9102209"></rect>
                                    </g>
                                </g>
                                <g id="Group-27-Copy" transform="translate(13.942674, 104.126388)">
                                    <g id="Fill-204">
                                        <use fill="black" fill-opacity="1" filter="url(#filter-9)" xlink:href="#path-8"></use>
                                        <use fill="#FFFFFF" fill-rule="evenodd" xlink:href="#path-8"></use>
                                    </g>
                                </g>
                                <g id="Group-30" transform="translate(179.013756, 45.054687)">
                                    <g id="Fill-201">
                                        <use fill="black" fill-opacity="1" filter="url(#filter-11)" xlink:href="#path-10"></use>
                                        <use fill="#FFFFFF" fill-rule="evenodd" xlink:href="#path-10"></use>
                                    </g>
                                    <g id="仪表盘" transform="translate(4.708650, 5.781666)">
                                        <path d="M7.71360753e-12,16.6308695 C5.83057833,6.6873103 16.7082818,0 29.1648322,0 C41.578697,0 52.4245169,6.64155715 58.2695467,16.5287616 L40.3148446,27.6735693 C37.8293595,24.2376789 33.761427,21.9984951 29.1648322,21.9984951 C24.5253462,21.9984951 20.4244345,24.2796619 17.9456572,27.7700628 L1.42108547e-14,16.6308695 Z" id="Combined-Shape" fill="#D3D3D3"></path>
                                        <path d="M8.49631476e-12,16.6301375 C5.79102579,6.68676257 16.5917922,0 28.9599089,0 C33.8689383,0 38.5310512,1.05341627 42.7310009,2.94576758 L32.5977861,22.4947712 C31.4398286,22.1754175 30.2198675,22.0047767 28.9599089,22.0047767 C24.3560031,22.0047767 20.2861365,24.2831404 17.8239316,27.7700628 L-1.37134748e-12,16.6301375 Z" id="Combined-Shape" fill="url(#linearGradient-12)"></path>
                                        <g id="Combined-Shape">
                                            <use fill="#4A4A4A" fill-rule="evenodd" xlink:href="#path-13"></use>
                                            <path stroke="#FFFFFF" stroke-width="1.05275077" d="M27.8166674,28.0964746 L27.7809857,28.0780156 L44.2263457,1.63717353 L45.1487171,2.14115861 L31.8250681,30.1701158 L31.7923742,30.1532024 C31.1652519,31.1122056 29.8827296,31.4525648 28.8397779,30.9130211 C27.7958938,30.3729949 27.3616361,29.1430312 27.8166674,28.0964746 Z"></path>
                                        </g>
                                    </g>
                                </g>
                                <g id="Fill-198">
                                    <use fill="black" fill-opacity="1" filter="url(#filter-15)" xlink:href="#path-14"></use>
                                    <use fill="#FFFFFF" fill-rule="evenodd" xlink:href="#path-14"></use>
                                </g>
                                <g id="Group-29" transform="translate(89.895626, 108.131249)">
                                    <g id="Fill-207">
                                        <use fill="black" fill-opacity="1" filter="url(#filter-17)" xlink:href="#path-16"></use>
                                        <use fill="#FFFFFF" fill-rule="evenodd" xlink:href="#path-16"></use>
                                    </g>
                                    <g id="交叉表图" transform="translate(13.502747, 8.605951)">
                                        <rect id="Rectangle-5" stroke="#979797" stroke-width="1.05275077" x="0.526375385" y="0.526375385" width="52.3711613" height="33.4069133"></rect>
                                        <rect id="Rectangle-5" fill="#7ED321" x="0" y="0" width="53.4239121" height="6.66961241"></rect>
                                        <rect id="Rectangle-5-Copy" fill="#FFFFFF" x="0" y="5.55801034" width="53.4239121" height="5.55801034"></rect>
                                        <rect id="Rectangle-5-Copy-3" fill="#FFFFFF" x="0" y="15.562429" width="53.4239121" height="5.55801034"></rect>
                                        <rect id="Rectangle-5-Copy-4" fill="#E0F6CA" x="0" y="21.1204393" width="53.4239121" height="5.55801034"></rect>
                                        <rect id="Rectangle-5-Copy-5" fill="#FFFFFF" x="0" y="25.5668476" width="53.4239121" height="5.55801034"></rect>
                                        <rect id="Rectangle-5-Copy-6" fill="#E0F6CA" x="0" y="30.0132558" width="53.4239121" height="5.55801034"></rect>
                                        <rect id="Rectangle-5-Copy-2" fill="#E0F6CA" x="0" y="11.1160207" width="53.4239121" height="5.55801034"></rect>
                                        <rect id="Rectangle-5" fill="#E0F6CA" transform="translate(13.171542, 17.785633) scale(-1, 1) translate(-13.171542, -17.785633) " x="12.1158612" y="0" width="1" height="35.5712662"></rect>
                                        <rect id="Rectangle-5-Copy-7" fill="#E0F6CA" transform="translate(26.811690, 17.785633) scale(-1, 1) translate(-26.811690, -17.785633) " x="25.756009" y="0" width="1" height="35.5712662"></rect>
                                        <rect id="Rectangle-5-Copy-8" fill="#E0F6CA" transform="translate(39.315159, 17.785633) scale(-1, 1) translate(-39.315159, -17.785633) " x="38.2594778" y="0" width="1" height="35.5712662"></rect>
                                    </g>
                                </g>
                                <g id="折线图图" transform="translate(94.959156, 51.061979)">
                                    <polygon id="Path-8" fill="url(#linearGradient-18)" points="0.616830034 18.5017542 22.73356 34.8563711 40.1915366 11.9148528 59.3975999 4.8058333 67.1778506 11.9148528 67.1778506 62.9369395 0.616830034 65.6941925"></polygon>
                                    <polyline id="Path-8" stroke="#7ED321" stroke-width="1.05275077" points="0.616830034 18.5017542 22.73356 34.8563711 40.1915366 11.9148528 59.3975999 4.8058333 67.1778506 11.9148528"></polyline>
                                    <g id="Oval-2-Copy-4">
                                        <use fill="#FFFFFF" fill-rule="evenodd" xlink:href="#path-19"></use>
                                        <ellipse stroke="#7ED321" stroke-width="1.06117278" cx="22.2058812" cy="34.2415623" rx="2.99790652" ry="2.93350304"></ellipse>
                                    </g>
                                    <g id="Oval-2-Copy-5">
                                        <use fill="#FFFFFF" fill-rule="evenodd" xlink:href="#path-20"></use>
                                        <ellipse stroke="#7ED321" stroke-width="1.06117278" cx="40.7107822" cy="12.0145833" rx="2.99790652" ry="2.93350304"></ellipse>
                                    </g>
                                    <g id="Oval-2-Copy-6">
                                        <use fill="#FFFFFF" fill-rule="evenodd" xlink:href="#path-21"></use>
                                        <ellipse stroke="#7ED321" stroke-width="1.06117278" cx="59.8325133" cy="4.8058333" rx="2.99790652" ry="2.93350304"></ellipse>
                                    </g>
                                    <polygon id="Path-6" fill="url(#linearGradient-22)" points="0 39.0473956 22.5383912 17.7660957 40.6987348 28.4067456 59.919255 17.7660957 67.4097643 0.0545584103 67.4097643 57.9551114 0 57.9551114"></polygon>
                                    <polyline id="Path-6" stroke="#00ABF4" stroke-width="1.06117278" points="0 39.0473956 22.5383912 17.7660957 40.6987348 28.4067456 59.919255 17.7660957 67.4097643 0.0545584103"></polyline>
                                    <g id="Oval-2-Copy">
                                        <use fill="#FFFFFF" fill-rule="evenodd" xlink:href="#path-23"></use>
                                        <ellipse stroke="#00ABF4" stroke-width="1.06117278" cx="40.0939522" cy="27.6335415" rx="2.99790652" ry="2.93350304"></ellipse>
                                    </g>
                                    <g id="Oval-2-Copy-3">
                                        <use fill="#FFFFFF" fill-rule="evenodd" xlink:href="#path-24"></use>
                                        <ellipse stroke="#00ABF4" stroke-width="1.06117278" cx="59.8325133" cy="18.0218749" rx="2.99790652" ry="2.93350304"></ellipse>
                                    </g>
                                    <g id="Oval-2-Copy-2">
                                        <use fill="#FFFFFF" fill-rule="evenodd" xlink:href="#path-25"></use>
                                        <ellipse stroke="#00ABF4" stroke-width="1.06117278" cx="22.2058812" cy="18.6226041" rx="2.99790652" ry="2.93350304"></ellipse>
                                    </g>
                                </g>
                                <polygon id="Fill-188" fill="#EAEAEA" points="11.5076923 32.6251068 59.1048755 32.6251068 59.1048755 24.6153846 11.5076923 24.6153846"></polygon>
                                <polygon id="Fill-188-Copy-2" fill="#EAEAEA" points="64.5779751 13.0157985 99.00998 13.0157985 99.00998 7.0085069 64.5779751 7.0085069"></polygon>
                                <g id="Group-42" transform="translate(204.331407, 24.029167)" fill="#EAEAEA">
                                    <g id="Group-41" transform="translate(12.228425, 0.563184)">
                                        <polygon id="Fill-188-Copy-4" points="0 2.54558982 34.3560519 2.54558982 34.3560519 0 0 0"></polygon>
                                        <polygon id="Fill-188-Copy-5" points="0 8.17742572 34.3560519 8.17742572 34.3560519 4.50546872 0 4.50546872"></polygon>
                                    </g>
                                    <ellipse id="Oval-14" cx="4.65844772" cy="4.50546872" rx="4.65844772" ry="4.50546872"></ellipse>
                                </g>
                                <polygon id="Fill-188-Copy-3" fill="#EAEAEA" points="107.111628 13.0157985 141.543633 13.0157985 141.543633 7.0085069 107.111628 7.0085069"></polygon>
                                <polygon id="Fill-189" fill="#EAEAEA" points="5.84102564 38.0473053 255.979414 38.0473053 255.979414 37.0449651 5.84102564 37.0449651"></polygon>
                                <polygon id="Fill-189-Copy-12" fill="#EAEAEA" points="5.84102564 21.0266457 255.979414 21.0266457 255.979414 20.0243054 5.84102564 20.0243054"></polygon>
                                <g id="Group-27" transform="translate(179.013756, 95.115451)">
                                    <g id="Fill-204">
                                        <use fill="black" fill-opacity="1" filter="url(#filter-27)" xlink:href="#path-26"></use>
                                        <use fill="#FFFFFF" fill-rule="evenodd" xlink:href="#path-26"></use>
                                    </g>
                                    <g id="柱状图图" transform="translate(34.533561, 32.768593) rotate(90.000000) translate(-34.533561, -32.768593) translate(10.252892, 9.775640)" stroke="#FFFFFF" stroke-width="1.05275077">
                                        <rect id="Rectangle-6" fill="#F5A623" x="-1.77635684e-15" y="23.4934357" width="5.48965232" height="22.1114689"></rect>
                                        <rect id="Rectangle-6-Copy" fill="#F5A623" x="16.1520286" y="0" width="5.48965232" height="45.6049046"></rect>
                                        <rect id="Rectangle-6-Copy-5" fill="#00B5FF" x="24.2676589" y="5.52786723" width="5.48965232" height="40.0770374"></rect>
                                        <rect id="Rectangle-6-Copy-4" fill="#00B5FF" x="8.11563034" y="12.4377013" width="5.48965232" height="33.1672034"></rect>
                                        <rect id="Rectangle-6-Copy-2" fill="#F5A623" x="33.4812197" y="16.5836017" width="5.48965232" height="29.0213029"></rect>
                                        <rect id="Rectangle-6-Copy-6" fill="#00B5FF" x="41.5968501" y="23.4934357" width="5.48965232" height="22.1114689"></rect>
                                    </g>
                                </g>
                                <g id="pc端正常" transform="translate(11.507692, 6.153846)">
                                    <path d="M10.9410361,7.04812683 L8.43448164,7.04812683 C8.30199628,7.04812683 8.19459566,6.94072623 8.19459566,6.80824088 L8.19459566,2.02403784 C8.19459566,1.89155248 8.30199628,1.78415188 8.43448164,1.78415188 L10.9410361,1.78415188 L10.9410361,2.48553316 L8.96112865,2.48553316 L8.96112865,4.05821798 L10.9410361,4.05821798 L10.9410361,4.7451378 L8.96112865,4.7451378 L8.96112865,6.32143799 L10.9410361,6.32143799 L10.9410361,7.04812683 Z M11.8419848,7.04812683 L11.8419848,1.78415188 L12.554025,1.78415188 L12.554025,7.04812683 L11.8419848,7.04812683 Z M16.5211056,4.68006119 C16.4314947,4.35226622 16.2764943,4.09859048 16.0560998,3.91902634 C15.8357053,3.73946218 15.5717203,3.64968145 15.2641368,3.64968145 C14.9492876,3.64968145 14.6762205,3.7418724 14.4449274,3.92625707 C14.2136343,4.11064175 14.0543956,4.36190726 13.9672066,4.68006119 L16.5211056,4.68006119 Z M13.9454095,5.32359659 C14.0059574,5.65621204 14.1567195,5.92555423 14.3977003,6.13163121 C14.638681,6.33770816 14.9250685,6.44074511 15.2568711,6.44074511 C15.494219,6.44074511 15.7103719,6.38410491 15.9053362,6.27082284 C16.1003005,6.15754077 16.2559064,5.99726108 16.3721584,5.78997897 L17.1822857,5.78997897 C16.99822,6.23105601 16.7408952,6.56848694 16.4103034,6.80228187 C16.0797117,7.0360768 15.6952381,7.15297248 15.2568711,7.15297248 C14.9613972,7.15297248 14.6913575,7.10115273 14.4467438,6.99751171 C14.2021302,6.89387065 13.9805281,6.73841141 13.7819309,6.5311293 C13.5954432,6.33589849 13.4495249,6.10873515 13.3441715,5.84963253 C13.2388181,5.59052991 13.1861422,5.32600817 13.1861422,5.05605938 C13.1861422,4.77646957 13.2339744,4.51496061 13.3296401,4.27152466 C13.4253058,4.02808872 13.5663804,3.80634838 13.752868,3.60629706 C13.9514652,3.38937394 14.1754892,3.22608147 14.4249467,3.11641478 C14.6744042,3.00674807 14.9468658,2.95191554 15.2423397,2.95191554 C15.5935177,2.95191554 15.9198661,3.0332605 16.2213948,3.19595286 C16.5229235,3.35864519 16.7717718,3.58580852 16.9679471,3.8774496 C17.0841991,4.05821889 17.1701759,4.25645956 17.22588,4.47217756 C17.2815841,4.68789556 17.3094357,4.93434063 17.3094357,5.21152018 L17.3094357,5.32359659 L13.9454095,5.32359659 Z M18.6099988,5.03436718 C18.6099988,5.42723909 18.7425968,5.76225976 19.0077967,6.03943932 C19.2729967,6.31661887 19.5896576,6.45520657 19.957789,6.45520657 C20.3331862,6.45520657 20.6552964,6.32204187 20.9241292,6.05570848 C21.192962,5.78937507 21.3273764,5.46580294 21.3273764,5.08498233 C21.3273764,4.68246941 21.194173,4.34503849 20.927762,4.07267944 C20.6613511,3.80032042 20.3356082,3.66414294 19.9505233,3.66414294 C19.5969234,3.66414294 19.2851062,3.80092297 19.0150624,4.07448715 C18.7450187,4.34805132 18.6099988,4.66800813 18.6099988,5.03436718 Z M18.631796,6.56728299 L18.631796,8.33519764 L17.9124901,8.33519764 L17.9124901,3.31110864 C17.9124901,3.17862328 18.0198907,3.07122269 18.1523761,3.07122269 L18.3991757,3.07122269 C18.5316611,3.07122269 18.6390617,3.17862328 18.6390617,3.31110864 L18.6390617,3.55929729 C18.8231274,3.37129724 19.0283818,3.22849164 19.2548311,3.13087625 C19.4812803,3.03326083 19.722863,2.98445385 19.9795862,2.98445385 C20.5826436,2.98445385 21.082762,3.18329707 21.4799564,3.58098949 C21.8771508,3.9786819 22.0757451,4.47759762 22.0757451,5.0777516 C22.0757451,5.35493116 22.0260965,5.61885034 21.9267979,5.86951705 C21.8274993,6.12018378 21.6846083,6.34312922 21.4981207,6.53836003 C21.2971016,6.74805239 21.0773159,6.90290909 20.838757,7.00293473 C20.6001982,7.10296041 20.328342,7.15297248 20.0231805,7.15297248 C19.7519257,7.15297248 19.5006556,7.10416554 19.2693625,7.00655011 C19.0380694,6.90893469 18.8255493,6.7625138 18.631796,6.56728299 Z M23.4453325,7.04812683 L22.7260266,7.04812683 L22.7260266,2.02403784 C22.7260266,1.89155248 22.8334272,1.78415188 22.9659126,1.78415188 L23.2054465,1.78415188 C23.3379318,1.78415188 23.4453325,1.89155248 23.4453325,2.02403784 L23.4453325,3.5231436 C23.5615845,3.35201536 23.7123466,3.22306855 23.8976232,3.1362993 C24.0828999,3.04953005 24.2990528,3.00614608 24.5460884,3.00614608 C25.0304718,3.00614608 25.4070743,3.16040019 25.6759071,3.4689131 C25.9447399,3.77742598 26.0791543,4.21006063 26.0791543,4.76683 L26.0791543,7.04812683 L25.3598485,7.04812683 L25.3598485,4.99821353 C25.3598485,4.55713649 25.2847702,4.22934646 25.1346113,4.01483359 C24.9844524,3.80032069 24.7543738,3.69306587 24.4443683,3.69306587 C24.2554588,3.69306587 24.088349,3.73644985 23.943034,3.8232191 C23.7977189,3.90998835 23.6814686,4.03531983 23.5942796,4.19921732 C23.5409974,4.29803784 23.5028528,4.4185489 23.4798446,4.56075404 C23.4568364,4.70295922 23.4453325,4.92951997 23.4453325,5.24044314 L23.4453325,7.04812683 Z M27.4705388,5.03436718 C27.4705388,5.43688011 27.6043478,5.77431103 27.8719696,6.04667008 C28.1395915,6.31902909 28.4671509,6.45520657 28.8546576,6.45520657 C29.2082575,6.45520657 29.5200746,6.31842655 29.7901185,6.04486237 C30.0601624,5.7712982 30.1951822,5.45134139 30.1951822,5.08498233 C30.1951822,4.69452071 30.0613731,4.36010256 29.7937515,4.08171788 C29.5261295,3.8033332 29.2082576,3.66414294 28.8401262,3.66414294 C28.4623071,3.66414294 28.1395915,3.79670507 27.8719696,4.06183336 C27.6043478,4.32696161 27.4705388,4.65113632 27.4705388,5.03436718 Z M30.1588536,7.04812683 L30.1588536,6.56005223 C29.9747879,6.75046253 29.7695333,6.89447323 29.5430841,6.99208865 C29.3166349,7.08970404 29.0750523,7.13851102 28.8183291,7.13851102 C28.2176936,7.13851102 27.7187861,6.93906525 27.3215917,6.54016771 C26.9243972,6.14127019 26.725803,5.6417519 26.725803,5.04159792 C26.725803,4.76200811 26.7754516,4.49688382 26.8747502,4.24621709 C26.9740488,3.99555035 27.1157288,3.77501514 27.2997945,3.58460484 C27.5008137,3.3749125 27.7205993,3.22005581 27.9591582,3.12003013 C28.1977171,3.02000446 28.4695732,2.96999239 28.7747348,2.96999239 C29.0484114,2.96999239 29.300287,3.01819681 29.5303693,3.11460708 C29.7604514,3.21101737 29.9699439,3.35683572 30.1588536,3.55206653 L30.1588536,3.31110864 C30.1588536,3.17862328 30.2662541,3.07122269 30.3987395,3.07122269 L30.6455391,3.07122269 C30.7780246,3.07122269 30.885425,3.17862328 30.885425,3.31110864 L30.885425,7.04812683 L30.1588536,7.04812683 Z M32.4402884,7.04812683 L31.7209823,7.04812683 L31.7209823,3.31110864 C31.7209823,3.17862328 31.828383,3.07122269 31.9608684,3.07122269 L32.1713393,3.07122269 C32.3038247,3.07122269 32.4112254,3.17862328 32.4112254,3.31110864 L32.4112254,3.5231436 C32.5613843,3.3447846 32.7266777,3.21403012 32.9071105,3.13087625 C33.0875433,3.04772238 33.2940085,3.00614608 33.5265126,3.00614608 C34.0496467,3.00614608 34.4510736,3.15919509 34.730805,3.46529772 C35.0105364,3.77140038 35.1504001,4.21006055 35.1504001,4.78129146 L35.1504001,7.04812683 L34.4274613,7.04812683 L34.4274613,4.93675226 C34.4274613,4.51495728 34.3487503,4.20223115 34.1913258,3.99856442 C34.033901,3.79489769 33.7905019,3.69306587 33.4611212,3.69306587 C33.1026775,3.69306587 32.8429309,3.81297436 32.6818732,4.05279492 C32.5208157,4.29261551 32.4402884,4.68849428 32.4402884,5.24044314 L32.4402884,7.04812683 Z M36.2366247,7.04812683 L36.2366247,3.72198883 L35.6735315,3.72198883 L35.6735315,3.07122269 L36.2366247,3.07122269 L36.2366247,2.02403784 C36.2366247,1.89155248 36.3440251,1.78415188 36.4765105,1.78415188 L36.7124117,1.78415188 C36.8448971,1.78415188 36.9522975,1.89155248 36.9522975,2.02403784 L36.9522975,3.07122269 L37.5190233,3.07122269 L37.5190233,3.72198883 L36.9522975,3.72198883 L36.9522975,7.04812683 L36.2366247,7.04812683 Z" id="ElephantBI-Copy-11" fill="#4A5A66" fill-rule="nonzero"></path>
                                    <g id="Group-15-Copy-8" transform="translate(38.280294, 1.193183)">
                                        <path d="M1.17376462,0.590969074 C1.75627478,0.590969074 2.19877587,0.71367247 2.50128115,0.959082938 C2.80378643,1.20449341 2.9550368,1.56177682 2.9550368,2.0309439 C2.9550368,2.24748255 2.90566168,2.43875549 2.80690995,2.60476845 C2.70815823,2.77078142 2.56378288,2.90792051 2.37377956,3.01618983 C2.64128423,3.09318135 2.85253475,3.24114722 3.00753745,3.46009186 C3.16254016,3.67903647 3.24004034,3.94008196 3.24004034,4.24323605 C3.24004034,4.48864654 3.19254023,4.71901613 3.09753858,4.9343518 C3.0025369,5.14968745 2.87128659,5.32832915 2.70378367,5.47028228 C2.53878079,5.60501743 2.35190533,5.70125539 2.14315169,5.75899903 C1.93439804,5.81674267 1.64002232,5.84561406 1.26001569,5.84561406 L0.239885966,5.84561406 C0.107400605,5.84561406 2.83269119e-14,5.73821346 2.83106871e-14,5.60572808 L2.83433434e-14,0.83085504 C2.83271186e-14,0.69836968 0.107400605,0.590969074 0.239885966,0.590969074 L1.17376462,0.590969074 Z M0.783759759,2.79243435 L1.03501289,2.79243435 C1.44252,2.79243435 1.73314571,2.73288711 1.90689875,2.61379085 C2.08065178,2.4946946 2.16752699,2.29800827 2.16752699,2.02372598 C2.16752699,1.7807215 2.0887768,1.60087681 1.93127405,1.48418654 C1.7737713,1.36749627 1.53252071,1.30915201 1.20751504,1.30915201 L0.783759759,1.30915201 L0.783759759,2.79243435 Z M0.776259667,5.13464906 L1.39876742,5.13464906 C1.76377379,5.13464906 2.03252445,5.06908693 2.20502746,4.93796074 C2.37753047,4.80683455 2.46378068,4.60413337 2.46378068,4.32985108 C2.46378068,4.03150894 2.37378046,3.80534974 2.19377732,3.65136671 C2.01377418,3.49738367 1.74877353,3.4203933 1.39876742,3.4203933 L0.776259667,3.4203933 L0.776259667,5.13464906 Z" id="Combined-Shape" fill="url(#linearGradient-28)" fill-rule="nonzero"></path>
                                        <polygon id="Path" fill="url(#linearGradient-29)" fill-rule="nonzero" points="5.28006575 5.84561406 3.60004482 5.84561406 3.60004482 5.50157104 4.0800508 5.50157104 4.0800508 0.949240322 3.72004632 0.948074075 3.72004632 0.590969074 5.16006426 0.590969074 5.16006426 0.949240322 4.80005977 0.949240322 4.80005977 5.50157104 5.28006575 5.50157104"></polygon>
                                        <g id="TM" transform="translate(6.176970, 0.000000)" fill="#4A5A66" font-family="LucidaGrande, Lucida Grande" font-size="1.61173384" font-weight="normal">
                                            <text>
                                                <tspan x="0.00645846328" y="2.05372446">TM</tspan>
                                            </text>
                                        </g>
                                    </g>
                                    <g id="Group" fill-rule="nonzero">
                                        <path d="M5.41025666,5.42880481 L5.41025666,6.95669303 L4.59848186,6.95669303 L4.59848186,6.42306798 C4.79042708,6.09091557 5.09701175,5.75705205 5.41025666,5.42880481 Z" id="Combined-Shape" fill="url(#linearGradient-31)"></path>
                                        <path d="M2.13806754,6.23558314 L2.13806754,6.95669303 L1.40747021,6.95669303 L1.40747021,6.46200312 C1.55623205,6.3205711 1.75399153,6.21956682 2.00709221,6.22443948 C2.0518498,6.22530114 2.09550824,6.2290157 2.13806754,6.23558314 Z" id="Combined-Shape" fill="url(#linearGradient-32)"></path>
                                        <path d="M5.17201719,0.860753833 L5.38351629,0.860753833 C5.44260533,1.17286876 5.33706612,1.3469721 5.0668987,1.38306385 C4.71628891,1.41936328 4.52435372,1.26954207 4.42694281,1.10112848 C4.32953194,0.932714883 4.27423418,0.52272844 4.58001034,0.251944901 C5.17584036,-0.275699155 6.15526356,0.0990797752 6.68109389,1.1438834 C7.2069242,2.18868703 6.41909039,3.75279946 5.80241107,4.53350746 C5.18573174,5.31421542 4.04583818,6.16804539 4.04932629,6.98190412 C3.67546592,6.98190412 3.38449846,6.98190412 3.17642387,6.98190412 C2.92422848,6.30715163 2.52960032,5.96512263 1.9925394,5.95581717 C1.18694803,5.94185896 0.885941293,6.79671992 0.923834689,6.98190412 C0.562816866,6.98190412 0.271387333,6.98190412 0.0495460927,6.98190412 C0.0604822123,5.52858369 0.229151848,4.58598791 0.555554999,4.15411673 C1.13592608,3.38621501 1.59288264,3.11279458 2.4311368,2.94755269 C2.20223834,3.4339906 2.14828774,4.65997218 2.94381454,5.08586758 C3.23272054,5.24053706 3.72373711,5.38711617 4.29561564,5.26936495 C5.03976897,5.11614188 5.4279165,4.63466605 5.4279165,4.02239605 C5.4279165,3.61421608 5.17180579,3.30873851 4.65958433,3.10596341 C5.0734324,3.31737344 5.24424336,3.66675789 5.17201719,4.15411673 C5.06367796,4.88515503 4.25102012,5.08586758 3.76266829,5.03917528 C3.27431646,4.99248297 2.53668221,4.64763166 2.53668221,3.80926676 C2.53668221,2.97090187 2.92584262,2.24055447 4.17687957,2.02293331 C5.4279165,1.80531215 5.62600434,1.92735849 5.91613741,1.53376155 C6.20627048,1.1401646 5.58813095,0.325494686 5.0668987,0.454696861 C4.56918934,0.560867111 4.65221408,1.05837355 4.91211562,1.10112848 C5.08538334,1.12963176 5.17201719,1.04950688 5.17201719,0.860753833 Z" id="Path-19" fill="url(#linearGradient-33)"></path>
                                    </g>
                                </g>
                            </g>
                            <g id="百分比柱状图图" transform="translate(45.856823, 128.946096) scale(-1, 1) translate(-45.856823, -128.946096) translate(19.464792, 110.133680)" stroke="#FFFFFF" stroke-width="1.40074806">
                                <rect id="Rectangle-6" fill="#F8E71C" x="47.7830988" y="0" width="4.55077131" height="35.9031881"></rect>
                                <rect id="Rectangle-6-Copy" fill="#F8E71C" x="38.3023252" y="0" width="4.55077131" height="35.9031881"></rect>
                                <rect id="Rectangle-6" fill="#F8E71C" x="0" y="0" width="4.55077131" height="35.9031881"></rect>
                                <rect id="Rectangle-6-Copy" fill="#F8E71C" x="18.9615471" y="0" width="4.55077131" height="35.9031881"></rect>
                                <rect id="Rectangle-6-Copy-4" fill="#F8E71C" x="9.48077357" y="0" width="4.55077131" height="35.9031881"></rect>
                                <rect id="Rectangle-6-Copy-5" fill="#F8E71C" x="28.8215516" y="0" width="4.55077131" height="35.9031881"></rect>
                                <rect id="Rectangle-6-Copy-2" fill="#F76E3A" x="38.3023252" y="16.4556279" width="4.55077131" height="19.4475602"></rect>
                                <rect id="Rectangle-6-Copy-3" fill="#F76E3A" x="47.7830988" y="21.6915095" width="4.55077131" height="14.2116786"></rect>
                                <rect id="Rectangle-6-Copy-5" fill="#F76E3A" x="28.8215516" y="11.2197463" width="4.55077131" height="24.6834418"></rect>
                                <rect id="Rectangle-6-Copy-2" fill="#F76E3A" x="18.9615471" y="6.73184776" width="4.55077131" height="29.1713403"></rect>
                                <rect id="Rectangle-6-Copy-6" fill="#F76E3A" x="9.48077357" y="11.2197463" width="4.55077131" height="24.6834418"></rect>
                                <rect id="Rectangle-6-Copy-3" fill="#F76E3A" x="0" y="16.4556279" width="4.55077131" height="19.4475602"></rect>
                            </g>
                        </g>
                    </g>
                    <g id="Group-51" filter="url(#filter-34)" transform="translate(0.000000, 123.071525)">
                        <path d="M68.2099774,4.5655469 L68.2099774,9.80169007 L0,9.80169007 L0,5.17056318 C0,3.6516911 3.20245338,5.68434189e-14 5.62206765,5.68434189e-14 L62.5868481,5.68434189e-14 C65.0085858,5.68434189e-14 68.2099774,3.04667482 68.2099774,4.5655469 Z" id="Fill-476" fill="#EAEAEA"></path>
                        <path d="M0,112.641259 L0,104.667817 L68.2099774,104.667817 L68.2099774,112.641259 C68.2099774,115.91897 63.7702773,120.39824 61.3485397,120.39824 L6.24122185,120.39824 C3.82266928,120.39824 0,115.91897 0,112.641259 Z" id="Fill-480" fill="#EAEAEA"></path>
                        <g id="Group-45" transform="translate(0.103015, 4.683402)">
                            <polygon id="Fill-537" fill="#EAEAEA" points="68.1069621 4.23511396 68.0994302 101.037719 0 101.037719 0 4.23511396"></polygon>
                            <path d="M33.7461954,111.322996 C35.9642927,111.317999 37.7684062,109.69907 37.7684062,107.691649 C37.7684062,105.686726 35.9688755,104.0628 33.7461954,104.0628 C31.5219876,104.0628 29.7194016,105.686726 29.7194016,107.6904 C29.7194016,109.69907 31.5219876,111.317999 33.7461954,111.322996 Z" id="Fill-539" fill="#FFFFFF"></path>
                            <g id="Group-43" transform="translate(28.481093, -0.000000)" fill="#FFFFFF">
                                <path d="M0,0.604732635 C0,0.938299979 0.344543571,1.21003256 0.770437708,1.21003256 L10.9926945,1.21003256 C11.4177911,1.21003256 11.7639298,0.938299979 11.7639298,0.604732635 C11.7639298,0.270597999 11.4177911,0 10.9926945,0 L0.770437708,0 C0.344543571,0 0,0.270597999 0,0.604732635" id="Fill-540"></path>
                            </g>
                            <polygon id="Fill-537" fill="#FFFFFF" points="66.8535753 3.69230769 66.8464543 99.28488 2.46153846 99.28488 2.46153846 3.69230769"></polygon>
                            <g id="pc端正常" transform="translate(12.307692, 48.000000)">
                                <path d="M10.9410361,7.04812683 L8.43448164,7.04812683 C8.30199628,7.04812683 8.19459566,6.94072623 8.19459566,6.80824088 L8.19459566,2.02403784 C8.19459566,1.89155248 8.30199628,1.78415188 8.43448164,1.78415188 L10.9410361,1.78415188 L10.9410361,2.48553316 L8.96112865,2.48553316 L8.96112865,4.05821798 L10.9410361,4.05821798 L10.9410361,4.7451378 L8.96112865,4.7451378 L8.96112865,6.32143799 L10.9410361,6.32143799 L10.9410361,7.04812683 Z M11.8419848,7.04812683 L11.8419848,1.78415188 L12.554025,1.78415188 L12.554025,7.04812683 L11.8419848,7.04812683 Z M16.5211056,4.68006119 C16.4314947,4.35226622 16.2764943,4.09859048 16.0560998,3.91902634 C15.8357053,3.73946218 15.5717203,3.64968145 15.2641368,3.64968145 C14.9492876,3.64968145 14.6762205,3.7418724 14.4449274,3.92625707 C14.2136343,4.11064175 14.0543956,4.36190726 13.9672066,4.68006119 L16.5211056,4.68006119 Z M13.9454095,5.32359659 C14.0059574,5.65621204 14.1567195,5.92555423 14.3977003,6.13163121 C14.638681,6.33770816 14.9250685,6.44074511 15.2568711,6.44074511 C15.494219,6.44074511 15.7103719,6.38410491 15.9053362,6.27082284 C16.1003005,6.15754077 16.2559064,5.99726108 16.3721584,5.78997897 L17.1822857,5.78997897 C16.99822,6.23105601 16.7408952,6.56848694 16.4103034,6.80228187 C16.0797117,7.0360768 15.6952381,7.15297248 15.2568711,7.15297248 C14.9613972,7.15297248 14.6913575,7.10115273 14.4467438,6.99751171 C14.2021302,6.89387065 13.9805281,6.73841141 13.7819309,6.5311293 C13.5954432,6.33589849 13.4495249,6.10873515 13.3441715,5.84963253 C13.2388181,5.59052991 13.1861422,5.32600817 13.1861422,5.05605938 C13.1861422,4.77646957 13.2339744,4.51496061 13.3296401,4.27152466 C13.4253058,4.02808872 13.5663804,3.80634838 13.752868,3.60629706 C13.9514652,3.38937394 14.1754892,3.22608147 14.4249467,3.11641478 C14.6744042,3.00674807 14.9468658,2.95191554 15.2423397,2.95191554 C15.5935177,2.95191554 15.9198661,3.0332605 16.2213948,3.19595286 C16.5229235,3.35864519 16.7717718,3.58580852 16.9679471,3.8774496 C17.0841991,4.05821889 17.1701759,4.25645956 17.22588,4.47217756 C17.2815841,4.68789556 17.3094357,4.93434063 17.3094357,5.21152018 L17.3094357,5.32359659 L13.9454095,5.32359659 Z M18.6099988,5.03436718 C18.6099988,5.42723909 18.7425968,5.76225976 19.0077967,6.03943932 C19.2729967,6.31661887 19.5896576,6.45520657 19.957789,6.45520657 C20.3331862,6.45520657 20.6552964,6.32204187 20.9241292,6.05570848 C21.192962,5.78937507 21.3273764,5.46580294 21.3273764,5.08498233 C21.3273764,4.68246941 21.194173,4.34503849 20.927762,4.07267944 C20.6613511,3.80032042 20.3356082,3.66414294 19.9505233,3.66414294 C19.5969234,3.66414294 19.2851062,3.80092297 19.0150624,4.07448715 C18.7450187,4.34805132 18.6099988,4.66800813 18.6099988,5.03436718 Z M18.631796,6.56728299 L18.631796,8.33519764 L17.9124901,8.33519764 L17.9124901,3.31110864 C17.9124901,3.17862328 18.0198907,3.07122269 18.1523761,3.07122269 L18.3991757,3.07122269 C18.5316611,3.07122269 18.6390617,3.17862328 18.6390617,3.31110864 L18.6390617,3.55929729 C18.8231274,3.37129724 19.0283818,3.22849164 19.2548311,3.13087625 C19.4812803,3.03326083 19.722863,2.98445385 19.9795862,2.98445385 C20.5826436,2.98445385 21.082762,3.18329707 21.4799564,3.58098949 C21.8771508,3.9786819 22.0757451,4.47759762 22.0757451,5.0777516 C22.0757451,5.35493116 22.0260965,5.61885034 21.9267979,5.86951705 C21.8274993,6.12018378 21.6846083,6.34312922 21.4981207,6.53836003 C21.2971016,6.74805239 21.0773159,6.90290909 20.838757,7.00293473 C20.6001982,7.10296041 20.328342,7.15297248 20.0231805,7.15297248 C19.7519257,7.15297248 19.5006556,7.10416554 19.2693625,7.00655011 C19.0380694,6.90893469 18.8255493,6.7625138 18.631796,6.56728299 Z M23.4453325,7.04812683 L22.7260266,7.04812683 L22.7260266,2.02403784 C22.7260266,1.89155248 22.8334272,1.78415188 22.9659126,1.78415188 L23.2054465,1.78415188 C23.3379318,1.78415188 23.4453325,1.89155248 23.4453325,2.02403784 L23.4453325,3.5231436 C23.5615845,3.35201536 23.7123466,3.22306855 23.8976232,3.1362993 C24.0828999,3.04953005 24.2990528,3.00614608 24.5460884,3.00614608 C25.0304718,3.00614608 25.4070743,3.16040019 25.6759071,3.4689131 C25.9447399,3.77742598 26.0791543,4.21006063 26.0791543,4.76683 L26.0791543,7.04812683 L25.3598485,7.04812683 L25.3598485,4.99821353 C25.3598485,4.55713649 25.2847702,4.22934646 25.1346113,4.01483359 C24.9844524,3.80032069 24.7543738,3.69306587 24.4443683,3.69306587 C24.2554588,3.69306587 24.088349,3.73644985 23.943034,3.8232191 C23.7977189,3.90998835 23.6814686,4.03531983 23.5942796,4.19921732 C23.5409974,4.29803784 23.5028528,4.4185489 23.4798446,4.56075404 C23.4568364,4.70295922 23.4453325,4.92951997 23.4453325,5.24044314 L23.4453325,7.04812683 Z M27.4705388,5.03436718 C27.4705388,5.43688011 27.6043478,5.77431103 27.8719696,6.04667008 C28.1395915,6.31902909 28.4671509,6.45520657 28.8546576,6.45520657 C29.2082575,6.45520657 29.5200746,6.31842655 29.7901185,6.04486237 C30.0601624,5.7712982 30.1951822,5.45134139 30.1951822,5.08498233 C30.1951822,4.69452071 30.0613731,4.36010256 29.7937515,4.08171788 C29.5261295,3.8033332 29.2082576,3.66414294 28.8401262,3.66414294 C28.4623071,3.66414294 28.1395915,3.79670507 27.8719696,4.06183336 C27.6043478,4.32696161 27.4705388,4.65113632 27.4705388,5.03436718 Z M30.1588536,7.04812683 L30.1588536,6.56005223 C29.9747879,6.75046253 29.7695333,6.89447323 29.5430841,6.99208865 C29.3166349,7.08970404 29.0750523,7.13851102 28.8183291,7.13851102 C28.2176936,7.13851102 27.7187861,6.93906525 27.3215917,6.54016771 C26.9243972,6.14127019 26.725803,5.6417519 26.725803,5.04159792 C26.725803,4.76200811 26.7754516,4.49688382 26.8747502,4.24621709 C26.9740488,3.99555035 27.1157288,3.77501514 27.2997945,3.58460484 C27.5008137,3.3749125 27.7205993,3.22005581 27.9591582,3.12003013 C28.1977171,3.02000446 28.4695732,2.96999239 28.7747348,2.96999239 C29.0484114,2.96999239 29.300287,3.01819681 29.5303693,3.11460708 C29.7604514,3.21101737 29.9699439,3.35683572 30.1588536,3.55206653 L30.1588536,3.31110864 C30.1588536,3.17862328 30.2662541,3.07122269 30.3987395,3.07122269 L30.6455391,3.07122269 C30.7780246,3.07122269 30.885425,3.17862328 30.885425,3.31110864 L30.885425,7.04812683 L30.1588536,7.04812683 Z M32.4402884,7.04812683 L31.7209823,7.04812683 L31.7209823,3.31110864 C31.7209823,3.17862328 31.828383,3.07122269 31.9608684,3.07122269 L32.1713393,3.07122269 C32.3038247,3.07122269 32.4112254,3.17862328 32.4112254,3.31110864 L32.4112254,3.5231436 C32.5613843,3.3447846 32.7266777,3.21403012 32.9071105,3.13087625 C33.0875433,3.04772238 33.2940085,3.00614608 33.5265126,3.00614608 C34.0496467,3.00614608 34.4510736,3.15919509 34.730805,3.46529772 C35.0105364,3.77140038 35.1504001,4.21006055 35.1504001,4.78129146 L35.1504001,7.04812683 L34.4274613,7.04812683 L34.4274613,4.93675226 C34.4274613,4.51495728 34.3487503,4.20223115 34.1913258,3.99856442 C34.033901,3.79489769 33.7905019,3.69306587 33.4611212,3.69306587 C33.1026775,3.69306587 32.8429309,3.81297436 32.6818732,4.05279492 C32.5208157,4.29261551 32.4402884,4.68849428 32.4402884,5.24044314 L32.4402884,7.04812683 Z M36.2366247,7.04812683 L36.2366247,3.72198883 L35.6735315,3.72198883 L35.6735315,3.07122269 L36.2366247,3.07122269 L36.2366247,2.02403784 C36.2366247,1.89155248 36.3440251,1.78415188 36.4765105,1.78415188 L36.7124117,1.78415188 C36.8448971,1.78415188 36.9522975,1.89155248 36.9522975,2.02403784 L36.9522975,3.07122269 L37.5190233,3.07122269 L37.5190233,3.72198883 L36.9522975,3.72198883 L36.9522975,7.04812683 L36.2366247,7.04812683 Z" id="ElephantBI-Copy-11" fill="#4A5A66" fill-rule="nonzero"></path>
                                <g id="Group-15-Copy-8" transform="translate(38.280294, 1.193183)">
                                    <path d="M1.17376462,0.590969074 C1.75627478,0.590969074 2.19877587,0.71367247 2.50128115,0.959082938 C2.80378643,1.20449341 2.9550368,1.56177682 2.9550368,2.0309439 C2.9550368,2.24748255 2.90566168,2.43875549 2.80690995,2.60476845 C2.70815823,2.77078142 2.56378288,2.90792051 2.37377956,3.01618983 C2.64128423,3.09318135 2.85253475,3.24114722 3.00753745,3.46009186 C3.16254016,3.67903647 3.24004034,3.94008196 3.24004034,4.24323605 C3.24004034,4.48864654 3.19254023,4.71901613 3.09753858,4.9343518 C3.0025369,5.14968745 2.87128659,5.32832915 2.70378367,5.47028228 C2.53878079,5.60501743 2.35190533,5.70125539 2.14315169,5.75899903 C1.93439804,5.81674267 1.64002232,5.84561406 1.26001569,5.84561406 L0.239885966,5.84561406 C0.107400605,5.84561406 2.83269119e-14,5.73821346 2.83106871e-14,5.60572808 L2.83433434e-14,0.83085504 C2.83271186e-14,0.69836968 0.107400605,0.590969074 0.239885966,0.590969074 L1.17376462,0.590969074 Z M0.783759759,2.79243435 L1.03501289,2.79243435 C1.44252,2.79243435 1.73314571,2.73288711 1.90689875,2.61379085 C2.08065178,2.4946946 2.16752699,2.29800827 2.16752699,2.02372598 C2.16752699,1.7807215 2.0887768,1.60087681 1.93127405,1.48418654 C1.7737713,1.36749627 1.53252071,1.30915201 1.20751504,1.30915201 L0.783759759,1.30915201 L0.783759759,2.79243435 Z M0.776259667,5.13464906 L1.39876742,5.13464906 C1.76377379,5.13464906 2.03252445,5.06908693 2.20502746,4.93796074 C2.37753047,4.80683455 2.46378068,4.60413337 2.46378068,4.32985108 C2.46378068,4.03150894 2.37378046,3.80534974 2.19377732,3.65136671 C2.01377418,3.49738367 1.74877353,3.4203933 1.39876742,3.4203933 L0.776259667,3.4203933 L0.776259667,5.13464906 Z" id="Combined-Shape" fill="url(#linearGradient-28)" fill-rule="nonzero"></path>
                                    <polygon id="Path" fill="url(#linearGradient-29)" fill-rule="nonzero" points="5.28006575 5.84561406 3.60004482 5.84561406 3.60004482 5.50157104 4.0800508 5.50157104 4.0800508 0.949240322 3.72004632 0.948074075 3.72004632 0.590969074 5.16006426 0.590969074 5.16006426 0.949240322 4.80005977 0.949240322 4.80005977 5.50157104 5.28006575 5.50157104"></polygon>
                                    <g id="TM" transform="translate(6.176970, 0.000000)" fill="#4A5A66" font-family="LucidaGrande, Lucida Grande" font-size="1.61173384" font-weight="normal">
                                        <text>
                                            <tspan x="0.00645846328" y="2.05372446">TM</tspan>
                                        </text>
                                    </g>
                                </g>
                                <g id="Group" fill-rule="nonzero">
                                    <path d="M5.41025666,5.42880481 L5.41025666,6.95669303 L4.59848186,6.95669303 L4.59848186,6.42306798 C4.79042708,6.09091557 5.09701175,5.75705205 5.41025666,5.42880481 Z" id="Combined-Shape" fill="url(#linearGradient-31)"></path>
                                    <path d="M2.13806754,6.23558314 L2.13806754,6.95669303 L1.40747021,6.95669303 L1.40747021,6.46200312 C1.55623205,6.3205711 1.75399153,6.21956682 2.00709221,6.22443948 C2.0518498,6.22530114 2.09550824,6.2290157 2.13806754,6.23558314 Z" id="Combined-Shape" fill="url(#linearGradient-32)"></path>
                                    <path d="M5.17201719,0.860753833 L5.38351629,0.860753833 C5.44260533,1.17286876 5.33706612,1.3469721 5.0668987,1.38306385 C4.71628891,1.41936328 4.52435372,1.26954207 4.42694281,1.10112848 C4.32953194,0.932714883 4.27423418,0.52272844 4.58001034,0.251944901 C5.17584036,-0.275699155 6.15526356,0.0990797752 6.68109389,1.1438834 C7.2069242,2.18868703 6.41909039,3.75279946 5.80241107,4.53350746 C5.18573174,5.31421542 4.04583818,6.16804539 4.04932629,6.98190412 C3.67546592,6.98190412 3.38449846,6.98190412 3.17642387,6.98190412 C2.92422848,6.30715163 2.52960032,5.96512263 1.9925394,5.95581717 C1.18694803,5.94185896 0.885941293,6.79671992 0.923834689,6.98190412 C0.562816866,6.98190412 0.271387333,6.98190412 0.0495460927,6.98190412 C0.0604822123,5.52858369 0.229151848,4.58598791 0.555554999,4.15411673 C1.13592608,3.38621501 1.59288264,3.11279458 2.4311368,2.94755269 C2.20223834,3.4339906 2.14828774,4.65997218 2.94381454,5.08586758 C3.23272054,5.24053706 3.72373711,5.38711617 4.29561564,5.26936495 C5.03976897,5.11614188 5.4279165,4.63466605 5.4279165,4.02239605 C5.4279165,3.61421608 5.17180579,3.30873851 4.65958433,3.10596341 C5.0734324,3.31737344 5.24424336,3.66675789 5.17201719,4.15411673 C5.06367796,4.88515503 4.25102012,5.08586758 3.76266829,5.03917528 C3.27431646,4.99248297 2.53668221,4.64763166 2.53668221,3.80926676 C2.53668221,2.97090187 2.92584262,2.24055447 4.17687957,2.02293331 C5.4279165,1.80531215 5.62600434,1.92735849 5.91613741,1.53376155 C6.20627048,1.1401646 5.58813095,0.325494686 5.0668987,0.454696861 C4.56918934,0.560867111 4.65221408,1.05837355 4.91211562,1.10112848 C5.08538334,1.12963176 5.17201719,1.04950688 5.17201719,0.860753833 Z" id="Path-19" fill="url(#linearGradient-33)"></path>
                                </g>
                            </g>
                        </g>
                    </g>
                </g>
            </g>
        </g>
    </g>
</svg>