<?xml version="1.0" encoding="UTF-8"?>
<svg width="20px" height="20px" viewBox="0 0 20 20" version="1.1" xmlns="http://www.w3.org/2000/svg" xmlns:xlink="http://www.w3.org/1999/xlink">
    <!-- Generator: Sketch 48.2 (47327) - http://www.bohemiancoding.com/sketch -->
    <title>dianhua-copy</title>
    <desc>Created with Sketch.</desc>
    <defs></defs>
    <g id="官网2.2-修改页面" stroke="none" stroke-width="1" fill="none" fill-rule="evenodd">
        <g id="dianhua-copy" fill="#606D8A" fill-rule="nonzero">
            <path d="M14.7046906,20 C13.4143732,20 11.7485365,19.1404417 10.5782589,18.4191232 C9.01102199,17.4534051 7.32266537,16.1173278 5.82406836,14.6572507 L5.81866837,14.6518507 L5.34282931,14.1759316 C3.88267224,12.6774547 2.5467149,10.988978 1.58083684,9.42174115 C0.859678276,8.25142351 0,6.58562685 0,5.29526942 C0,3.91447218 0.987398018,2.44887511 1.41191718,1.88291624 C1.74311651,1.44123712 2.9004342,0 3.88375223,0 C4.28755142,0 4.72239056,0.264279462 5.29386942,0.856958289 C5.79934841,1.38099724 6.28438743,2.03243593 6.6022268,2.48663503 C7.02914594,3.09643381 7.42390517,3.73491254 7.71402457,4.28455143 C8.18374363,5.17442965 8.23810352,5.55602889 8.23810352,5.76566848 C8.23810352,6.18874764 8.01710396,6.5557069 7.58138483,6.8562663 C7.2944654,7.0541459 6.95006608,7.2031456 6.61702674,7.34730532 C6.39238719,7.44446513 6.0336679,7.59954481 5.89686819,7.70862459 C5.9446281,7.9107842 6.15322769,8.39902321 6.71710655,9.22682155 C7.2425055,9.99814 7.92190414,10.8340583 8.53566292,11.4643771 C9.16586165,12.0780558 10.00166,12.7575345 10.7732184,13.2829334 C11.6007768,13.8465323 12.0890158,14.0552519 12.2913354,14.1030518 C12.4002952,13.9662521 12.5554949,13.6076528 12.6526547,13.3830132 C12.7966944,13.0498939 12.9456541,12.7054546 13.1436937,12.4185352 C13.4442531,11.982816 13.8112124,11.7619365 14.2342915,11.7619365 C14.4439311,11.7619365 14.8255303,11.8162564 15.7155286,12.2858954 C16.2650475,12.5760148 16.9036462,12.970774 17.513365,13.3976932 C17.9675641,13.7156526 18.6189628,14.2006916 19.1431217,14.7060506 C19.7357205,15.2775294 20,15.7123686 20,16.1161678 C20,17.0994858 18.5588829,18.2568035 18.1172038,18.5880428 C17.5510449,19.012602 16.0854878,20 14.7046906,20 Z M6.65090671,13.8140524 C8.08854383,15.2144896 9.7031006,16.492727 11.1978576,17.4138452 C12.6469747,18.3069234 13.9252122,18.8191224 14.7046906,18.8191224 C15.3990492,18.8191224 16.3888872,18.3950432 17.3527253,17.6849246 C17.7752445,17.3735253 18.1598037,17.026726 18.4355631,16.7084866 C18.6943226,16.4097272 18.7889224,16.2148876 18.8129224,16.1362077 C18.7129626,15.9214082 18.1190038,15.2497295 16.7327665,14.2934514 C16.1889676,13.9183722 15.6268487,13.5736529 15.1497697,13.3228934 C14.5507709,13.007974 14.3011314,12.9535741 14.2439715,12.9446541 C14.2217716,12.9598941 14.1565317,13.014414 14.0573319,13.1806537 C13.9463321,13.3668133 13.8396123,13.6135328 13.7364925,13.8520123 C13.6094928,14.1457317 13.4780531,14.4494511 13.3168934,14.6944906 C13.0548539,15.0930898 12.7330946,15.2952894 12.3606553,15.2955294 C12.3538953,15.2955294 12.3468953,15.2954094 12.3396954,15.2951694 C12.1584957,15.2913295 11.6065768,15.2796095 10.1082998,14.2592115 C9.28122147,13.6956927 8.38298325,12.9651741 7.70586461,12.3047354 L7.69526464,12.2942555 C7.03494596,11.6169368 6.30442743,10.7188186 5.74098855,9.89182028 C4.72047059,8.39354328 4.70867061,7.84166439 4.70483061,7.66034474 C4.69671063,7.28110549 4.89691023,6.95370616 5.29958943,6.68706668 C5.54582894,6.52406701 5.85202832,6.39166728 6.14810772,6.26350753 C6.38666724,6.16038774 6.63326674,6.05362796 6.81946638,5.94274818 C6.98570606,5.84366838 7.04038594,5.77830851 7.05546591,5.75610855 C7.04654593,5.69894866 6.99214604,5.44934916 6.67726667,4.85031037 C6.42650716,4.37335133 6.08174786,3.81111245 5.70666862,3.26743354 C4.7503505,1.88099625 4.07863185,1.28707744 3.86383227,1.18711765 C3.78515242,1.21119759 3.59027282,1.30579741 3.29151341,1.56455688 C2.97323405,1.84019634 2.62647474,2.22483556 2.31519536,2.64739472 C1.60495677,3.61111279 1.18099761,4.6009508 1.18099761,5.29530942 C1.18099761,6.07474787 1.69311658,7.35290531 2.5861548,8.80214239 C3.50735295,10.2968994 4.78563041,11.9114562 6.1859476,13.3490933 L6.65090671,13.8140524 Z" id="Shape"></path>
        </g>
    </g>
</svg>