<?xml version="1.0" encoding="UTF-8"?>
<svg width="19px" height="21px" viewBox="0 0 19 21" version="1.1" xmlns="http://www.w3.org/2000/svg" xmlns:xlink="http://www.w3.org/1999/xlink">
    <!-- Generator: Sketch 48.2 (47327) - http://www.bohemiancoding.com/sketch -->
    <title>name</title>
    <desc>Created with Sketch.</desc>
    <defs></defs>
    <g id="官网2.2-修改页面" stroke="none" stroke-width="1" fill="none" fill-rule="evenodd">
        <g id="name" transform="translate(1.000000, 1.000000)" fill="#606D8A" fill-rule="nonzero" stroke="#FFFFFF" stroke-width="0.1">
            <path d="M8.6968496,11.8925657 C12.7405314,11.8925657 16.0190629,15.1651451 16.0190629,19.2071098 L17.3913043,19.2071098 C17.3913043,15.4618909 15.0144289,12.2778565 11.6891981,11.0573699 C13.4506005,10.0247424 14.645624,8.1329881 14.645624,5.944488 C14.6456241,2.66113956 11.9825656,0 8.6968496,0 C5.40993617,0 2.74568031,2.66113956 2.74568031,5.94568454 C2.74568031,8.13418465 3.94190126,10.025939 5.70330367,11.0585664 C2.37807287,12.2790531 0,15.4630874 0,19.2083063 L1.37343887,19.2083063 C1.37463629,15.1663417 4.65316778,11.8925657 8.6968496,11.8925657 Z M4.12031661,5.94568454 C4.12031661,3.42095232 6.16909943,1.37244922 8.69804702,1.37244922 C11.2269946,1.37244922 13.27458,3.42095234 13.27458,5.94568454 C13.27458,8.47041675 11.2257972,10.5189199 8.6968496,10.5189199 C6.16790201,10.5189199 4.12031661,8.47161333 4.12031661,5.94568454 Z" id="Shape"></path>
        </g>
    </g>
</svg>