<?xml version="1.0" encoding="UTF-8"?>
<svg width="60px" height="60px" viewBox="0 0 60 60" version="1.1" xmlns="http://www.w3.org/2000/svg" xmlns:xlink="http://www.w3.org/1999/xlink">
    <!-- Generator: Sketch 48.2 (47327) - http://www.bohemiancoding.com/sketch -->
    <title>播放</title>
    <desc>Created with Sketch.</desc>
    <defs></defs>
    <g id="1-首页（大窗口" stroke="none" stroke-width="1" fill="none" fill-rule="evenodd" transform="translate(-930.000000, -335.000000)">
        <g id="banner" fill="#FFFFFF" fill-rule="nonzero">
            <g id="Group-7" transform="translate(632.000000, 180.000000)">
                <g id="Group-4">
                    <g id="播放" transform="translate(298.000000, 155.000000)">
                        <path d="M29.9987695,0 C13.3543359,0 0.0218554687,13.1913281 0.0218554687,29.8169531 C0.0218554687,46.4425781 13.3543359,60 29.9988281,60 C46.6444336,60 59.9769727,46.4414062 59.9769727,29.8169531 C59.9769727,13.1925 46.644375,0 29.9987695,0 Z M30.0225638,58 C14.4575919,58 2.02185547,45.3193008 2.02185547,29.7914938 C2.02185547,14.2623361 14.4562395,2 30.0225638,2 C45.5874714,2 58.0218555,14.2623361 58.0218555,29.7914938 C58.0205675,45.3193008 45.5874714,58 30.0225638,58 Z M27.0194624,18.791498 C26.4362415,18.3016212 25.4270329,18.3016212 24.843812,18.791498 L24.843812,41.26848 C25.4270329,41.7596166 26.4362415,41.7596166 27.0194624,41.26848 L39.790933,30.895282 C40.3728942,30.4054052 40.3728942,29.6110802 39.790933,29.1212034 L27.0194624,18.791498 Z" id="Shape"></path>
                    </g>
                </g>
            </g>
        </g>
    </g>
</svg>