<?xml version="1.0" encoding="UTF-8"?>
<svg width="598px" height="341px" viewBox="0 0 598 341" version="1.1" xmlns="http://www.w3.org/2000/svg" xmlns:xlink="http://www.w3.org/1999/xlink">
    <!-- Generator: Sketch 48.2 (47327) - http://www.bohemiancoding.com/sketch -->
    <title>4连接数据库数据@1x</title>
    <desc>Created with Sketch.</desc>
    <defs>
        <rect id="path-1" x="47" y="66" width="256" height="140" rx="5"></rect>
        <linearGradient x1="100%" y1="39.4088699%" x2="2.92488728%" y2="66.5842009%" id="linearGradient-2">
            <stop stop-color="#02A9ED" offset="0%"></stop>
            <stop stop-color="#3CCFD2" offset="100%"></stop>
        </linearGradient>
        <linearGradient x1="100%" y1="47.1524533%" x2="2.92488728%" y2="54.4588525%" id="linearGradient-3">
            <stop stop-color="#02A9ED" offset="0%"></stop>
            <stop stop-color="#3CCFD2" offset="100%"></stop>
        </linearGradient>
        <linearGradient x1="51.6633045%" y1="22.1433924%" x2="48.4339951%" y2="93.6194792%" id="linearGradient-4">
            <stop stop-color="#02A9ED" offset="0%"></stop>
            <stop stop-color="#3CCFD2" offset="100%"></stop>
        </linearGradient>
        <linearGradient x1="100%" y1="42.1364945%" x2="2.92488728%" y2="62.3131294%" id="linearGradient-5">
            <stop stop-color="#02A9ED" offset="0%"></stop>
            <stop stop-color="#3CCFD2" offset="100%"></stop>
        </linearGradient>
        <linearGradient x1="100%" y1="22.2820577%" x2="2.92488728%" y2="93.4023492%" id="linearGradient-6">
            <stop stop-color="#02A9ED" offset="0%"></stop>
            <stop stop-color="#3CCFD2" offset="100%"></stop>
        </linearGradient>
        <linearGradient x1="100%" y1="23.4357898%" x2="2.92488728%" y2="91.595769%" id="linearGradient-7">
            <stop stop-color="#02A9ED" offset="0%"></stop>
            <stop stop-color="#3CCFD2" offset="100%"></stop>
        </linearGradient>
        <rect id="path-8" x="224" y="112" width="328" height="199" rx="5"></rect>
    </defs>
    <g id="Page-1" stroke="none" stroke-width="1" fill="none" fill-rule="evenodd">
        <g id="4连接数据库数据">
            <g id="Group-4">
                <g id="Group-2">
                    <rect id="Rectangle-24" fill="#B38FFF" x="0" y="0" width="598" height="341" rx="3"></rect>
                    <path d="M3,0 L595,0 C596.656854,-3.04359188e-16 598,1.34314575 598,3 L598,40 L0,40 L0,3 C-2.02906125e-16,1.34314575 1.34314575,3.04359188e-16 3,0 Z" id="Rectangle-24" fill="#CEC1EE"></path>
                    <rect id="Rectangle-25" fill="#E4DBF9" x="81" y="14" width="439" height="19" rx="3"></rect>
                    <g id="Group" transform="translate(221.000000, 21.000000)" fill="#CEC1EE">
                        <path d="M19.0142857,6 C17.9018264,6 17,4.88071187 17,3.5 L17,2.5 C17,1.11928813 17.9018264,0 19.0142857,0 L155.985714,0 C157.098174,0 158,1.11928813 158,2.5 L158,3.5 C158,4.88071187 157.098174,6 155.985714,6 L19.0142857,6 Z" id="Rectangle-26" transform="translate(87.500000, 3.000000) scale(1, -1) translate(-87.500000, -3.000000) "></path>
                        <path d="M0.0857142857,6 C0.0383755929,6 -5.79731787e-18,4.88071187 0,3.5 L0,2.5 C5.79731787e-18,1.11928813 0.0383755929,0 0.0857142857,0 L5.91428571,0 C5.96162441,0 6,1.11928813 6,2.5 L6,3.5 C6,4.88071187 5.96162441,6 5.91428571,6 L0.0857142857,6 Z" id="Rectangle-26-Copy" transform="translate(3.000000, 3.000000) scale(1, -1) translate(-3.000000, -3.000000) "></path>
                    </g>
                    <rect id="Rectangle-27" fill="#A67CFF" x="537" y="18" width="13" height="13" rx="3"></rect>
                    <rect id="Rectangle-27-Copy" fill="#A67CFF" x="566" y="18" width="13" height="13" rx="3"></rect>
                </g>
                <path d="M56.6746212,21.0741161 L52.0741161,25.6746212 L56.6746212,25.6746212 L56.6746212,21.0741161 Z" id="Rectangle-8-Copy-2" stroke="#A67CFF" stroke-width="2" transform="translate(53.667262, 22.667262) rotate(-45.000000) translate(-53.667262, -22.667262) "></path>
                <path d="M31.0147186,21.4142136 L26.4142136,26.0147186 L31.0147186,26.0147186 L31.0147186,21.4142136 Z" id="Rectangle-8-Copy-3" stroke="#A67CFF" stroke-width="2" transform="translate(28.007359, 23.007359) scale(-1, 1) rotate(-45.000000) translate(-28.007359, -23.007359) "></path>
                <rect id="Rectangle-7-Copy" stroke="#CEC1EE" stroke-width="4" stroke-linecap="round" stroke-linejoin="round" stroke-dasharray="10" x="100" y="89" width="399" height="199"></rect>
                <g id="Rectangle">
                    <use fill="#FFFFFF" fill-rule="evenodd" xlink:href="#path-1"></use>
                    <rect stroke="#E4DEF2" stroke-width="4" x="49" y="68" width="252" height="136" rx="5"></rect>
                </g>
                <g id="pc端正常的副本" transform="translate(83.000000, 120.000000)">
                    <path d="M42.4775024,27.3636629 L32.7460498,27.3636629 C32.2316884,27.3636629 31.814716,26.9466906 31.814716,26.4323292 L31.814716,7.85812892 C31.814716,7.34376746 32.2316884,6.92679512 32.7460498,6.92679512 L42.4775024,6.92679512 L42.4775024,9.64983932 L34.7907053,9.64983932 L34.7907053,15.7556343 L42.4775024,15.7556343 L42.4775024,18.4225333 L34.7907053,18.4225333 L34.7907053,24.5423646 L42.4775024,24.5423646 L42.4775024,27.3636629 Z M45.9753476,27.3636629 L45.9753476,6.92679512 L48.7397737,6.92679512 L48.7397737,27.3636629 L45.9753476,27.3636629 Z M64.1415762,18.1698797 C63.7936706,16.8972478 63.1918968,15.9123766 62.3362368,15.2152364 C61.4805768,14.5180961 60.4556808,14.1695312 59.261518,14.1695312 C58.0391466,14.1695312 56.9789904,14.5274535 56.0810175,15.243309 C55.1830448,15.9591644 54.5648161,16.9346782 54.2263133,18.1698797 L64.1415762,18.1698797 Z M54.141688,20.668343 C54.3767594,21.9596899 54.9620785,23.0053846 55.8976628,23.8054583 C56.833247,24.6055319 57.9451182,25.0055628 59.2333095,25.0055628 C60.1547895,25.0055628 60.9939819,24.7856628 61.7509119,24.3458562 C62.5078418,23.9060497 63.1119664,23.2837794 63.5633035,22.4790269 L66.7085434,22.4790269 C65.9939263,24.1914654 64.9948877,25.5015079 63.7113977,26.4091939 C62.4279077,27.3168798 60.9352266,27.7707159 59.2333095,27.7707159 C58.086161,27.7707159 57.0377581,27.5695308 56.0880697,27.1671546 C55.1383811,26.7647784 54.2780326,26.1612231 53.5069983,25.3564706 C52.7829783,24.598506 52.2164647,23.7165666 51.8074404,22.710626 C51.3984162,21.7046855 51.1939071,20.6777057 51.1939071,19.6296559 C51.1939071,18.5441758 51.3796108,17.5288929 51.7510236,16.5837766 C52.1224364,15.6386604 52.6701446,14.7777752 53.3941646,14.0010955 C54.1651988,13.1589127 55.0349501,12.5249457 56.0034444,12.0991755 C56.9719386,11.6734052 58.0297441,11.4605233 59.1768927,11.4605233 C60.540307,11.4605233 61.8073229,11.7763372 62.9779785,12.4079743 C64.1486342,13.0396114 65.1147632,13.9215508 65.8763947,15.0538187 C66.3277318,15.7556378 66.6615283,16.5252878 66.8777939,17.3627919 C67.0940596,18.2002959 67.2021909,19.1570948 67.2021909,20.2332173 L67.2021909,20.668343 L54.141688,20.668343 Z M72.2514998,19.5454381 C72.2514998,21.0707248 72.7662985,22.3714098 73.7959113,23.4475323 C74.8255241,24.5236548 76.0549292,25.061708 77.4841635,25.061708 C78.9416063,25.061708 80.1921674,24.5447091 81.2358846,23.5106958 C82.2796017,22.4766823 82.8014524,21.2204452 82.8014524,19.7419465 C82.8014524,18.1792294 82.2843031,16.8691869 81.2499888,15.8117795 C80.2156745,14.7543723 78.9510093,14.2256765 77.455955,14.2256765 C76.0831379,14.2256765 74.8725382,14.7567116 73.8241197,15.8187977 C72.7757012,16.8808839 72.2514998,18.1230849 72.2514998,19.5454381 Z M72.3361251,25.4968337 L72.3361251,32.3605894 L69.5434906,32.3605894 L69.5434906,12.8550554 C69.5434906,12.3406939 69.9604629,11.9237216 70.4748243,11.9237216 L71.4329997,11.9237216 C71.9473612,11.9237216 72.3643335,12.3406939 72.3643335,12.8550554 L72.3643335,13.8186235 C73.0789507,13.0887317 73.8758307,12.5343029 74.7549979,12.1553207 C75.634165,11.7763384 76.5720859,11.5868501 77.5687888,11.5868501 C79.9101001,11.5868501 81.8517609,12.3588395 83.3938294,13.9028414 C84.9358979,15.4468433 85.7069207,17.3838347 85.7069207,19.7138738 C85.7069207,20.7899963 85.514165,21.8146368 85.1286478,22.7878257 C84.7431308,23.7610148 84.1883705,24.6265787 83.4643505,25.3845432 C82.6839134,26.1986533 81.830617,26.7998692 80.9044356,27.188209 C79.9782541,27.5765489 78.9227993,27.7707159 77.7380393,27.7707159 C76.6849194,27.7707159 75.7093876,27.5812277 74.8114148,27.2022454 C73.9134419,26.8232631 73.0883536,26.2547983 72.3361251,25.4968337 Z M91.0242097,27.3636629 L88.2315752,27.3636629 L88.2315752,7.85812892 C88.2315752,7.34376746 88.6485475,6.92679512 89.1629089,6.92679512 L90.0928758,6.92679512 C90.6072372,6.92679512 91.0242097,7.34376746 91.0242097,7.85812892 L91.0242097,13.6782604 C91.4755467,13.0138717 92.0608658,12.5132483 92.7801843,12.1763752 C93.4995029,11.8395021 94.3386954,11.671068 95.2977867,11.671068 C97.1783581,11.671068 98.6404804,12.2699446 99.6841975,13.4677158 C100.727915,14.6654868 101.249765,16.3451485 101.249765,18.5067511 L101.249765,27.3636629 L98.4571309,27.3636629 L98.4571309,19.405075 C98.4571309,17.6926366 98.1656466,16.4200239 97.5826696,15.5871986 C96.9996924,14.7543733 96.1064344,14.337967 94.9028687,14.337967 C94.1694458,14.337967 93.5206585,14.506401 92.956487,14.8432741 C92.3923156,15.1801473 91.9409853,15.6667345 91.6024824,16.3030504 C91.3956195,16.6867114 91.2475268,17.1545838 91.1581997,17.7066814 C91.0688725,18.2587791 91.0242097,19.138379 91.0242097,20.3455078 L91.0242097,27.3636629 Z M106.65168,19.5454381 C106.65168,21.1081551 107.17118,22.4181977 108.210195,23.475605 C109.249211,24.5330123 110.520928,25.061708 112.025385,25.061708 C113.398203,25.061708 114.608802,24.5306729 115.657221,23.4685868 C116.70564,22.4065007 117.229841,21.1642997 117.229841,19.7419465 C117.229841,18.2260174 116.71034,16.9276716 115.671325,15.8468703 C114.632309,14.7660691 113.398203,14.2256765 111.968969,14.2256765 C110.502123,14.2256765 109.249211,14.740336 108.210195,15.7696706 C107.17118,16.7990052 106.65168,18.0575818 106.65168,19.5454381 Z M117.088799,27.3636629 L117.088799,25.468761 C116.374181,26.2080104 115.577301,26.7671178 114.698134,27.1461002 C113.818967,27.5250824 112.881046,27.7145707 111.884343,27.7145707 C109.552435,27.7145707 107.615475,26.940242 106.073407,25.3915613 C104.531338,23.8428807 103.760316,21.9035498 103.760316,19.5735107 C103.760316,18.4880306 103.953071,17.4587115 104.338588,16.4855224 C104.724106,15.5123334 105.274164,14.656127 105.988782,13.9168776 C106.769219,13.1027676 107.622515,12.5015517 108.548696,12.1132118 C109.474878,11.7248719 110.530333,11.5307049 111.715093,11.5307049 C112.777616,11.5307049 113.755498,11.7178539 114.64877,12.0921573 C115.542041,12.4664608 116.355375,13.0325863 117.088799,13.7905508 L117.088799,12.8550554 C117.088799,12.3406939 117.505771,11.9237216 118.020132,11.9237216 L118.978308,11.9237216 C119.492669,11.9237216 119.909641,12.3406939 119.909641,12.8550554 L119.909641,27.3636629 L117.088799,27.3636629 Z M125.946246,27.3636629 L123.15361,27.3636629 L123.15361,12.8550554 C123.15361,12.3406939 123.570583,11.9237216 124.084945,11.9237216 L124.902077,11.9237216 C125.416439,11.9237216 125.833412,12.3406939 125.833412,12.8550554 L125.833412,13.6782604 C126.416389,12.985799 127.058124,12.4781575 127.758637,12.1553207 C128.45915,11.832484 129.260731,11.671068 130.163405,11.671068 C132.194422,11.671068 133.752923,12.2652659 134.838953,13.4536794 C135.924983,14.642093 136.46799,16.3451482 136.46799,18.5628963 L136.46799,27.3636629 L133.661251,27.3636629 L133.661251,19.1664577 C133.661251,17.52888 133.355663,16.3147513 132.744477,15.5240352 C132.133291,14.733319 131.188318,14.337967 129.909529,14.337967 C128.517907,14.337967 127.509466,14.8034999 126.884175,15.7345798 C126.258886,16.6656598 125.946246,18.2026204 125.946246,20.3455078 L125.946246,27.3636629 Z M140.68515,27.3636629 L140.68515,14.4502575 L138.498996,14.4502575 L138.498996,11.9237216 L140.68515,11.9237216 L140.68515,7.85812892 C140.68515,7.34376746 141.102122,6.92679512 141.616484,6.92679512 L142.532347,6.92679512 C143.046708,6.92679512 143.46368,7.34376746 143.46368,7.85812892 L143.46368,11.9237216 L145.663938,11.9237216 L145.663938,14.4502575 L143.46368,14.4502575 L143.46368,27.3636629 L140.68515,27.3636629 Z" id="ElephantBI-Copy-11" fill="#4A5A66" fill-rule="nonzero"></path>
                    <g id="Group-15-Copy-8" transform="translate(148.619496, 4.632416)">
                        <path d="M4.5570263,2.29437962 C6.81856503,2.29437962 8.53653221,2.77076355 9.71097936,3.72354568 C10.8854265,4.67632783 11.4726413,6.06344573 11.4726413,7.88494101 C11.4726413,8.72563114 11.2809472,9.46822961 10.8975533,10.1127587 C10.5141594,10.7572878 9.95363621,11.2897169 9.21596692,11.7100619 C10.2545276,12.008974 11.0746871,12.583437 11.6764699,13.4334682 C12.2782528,14.2834992 12.5791396,15.2969827 12.5791396,16.4739489 C12.5791396,17.4267311 12.3947251,18.3211185 12.0258905,19.1571382 C11.6570558,19.9931577 11.1474893,20.6867167 10.4971756,21.2378358 C9.85656805,21.7609318 9.13104236,22.1345663 8.32057676,22.3587503 C7.51011117,22.5829344 6.36722623,22.6950247 4.89188766,22.6950247 L0.931333797,22.6950247 C0.416972344,22.6950247 2.83736782e-14,22.2780524 2.83106871e-14,21.7636909 L2.84374718e-14,3.22571341 C2.83744807e-14,2.71135196 0.416972344,2.29437962 0.931333797,2.29437962 L4.5570263,2.29437962 Z M3.04287059,10.8413532 L4.01833628,10.8413532 C5.60044279,10.8413532 6.72876868,10.6101669 7.40334784,10.1477873 C8.07792698,9.68540772 8.4152115,8.92179231 8.4152115,7.85691815 C8.4152115,6.91347701 8.10947157,6.21524762 7.49798257,5.76220905 C6.88649355,5.30917048 5.94986173,5.0826546 4.688059,5.0826546 L3.04287059,5.0826546 L3.04287059,10.8413532 Z M3.01375222,19.9347726 L5.43057766,19.9347726 C6.84767919,19.9347726 7.89107733,19.6802341 8.5608034,19.1711495 C9.23052946,18.6620649 9.56538746,17.8750974 9.56538746,16.8102232 C9.56538746,15.651939 9.21597041,14.7738981 8.51712582,14.176074 C7.81828124,13.57825 6.78944214,13.2793424 5.43057766,13.2793424 L3.01375222,13.2793424 L3.01375222,19.9347726 Z" id="Combined-Shape" fill="url(#linearGradient-2)" fill-rule="nonzero"></path>
                        <polygon id="Path" fill="url(#linearGradient-3)" fill-rule="nonzero" points="20.4993387 22.6950247 13.9768218 22.6950247 13.9768218 21.3593114 15.8403981 21.3593114 15.8403981 3.68533269 14.4427159 3.68080485 14.4427159 2.29437962 20.0334447 2.29437962 20.0334447 3.68533269 18.6357625 3.68533269 18.6357625 21.3593114 20.4993387 21.3593114"></polygon>
                        <g id="TM" transform="translate(23.981481, 0.000000)" fill="#4A5A66" font-family="LucidaGrande, Lucida Grande" font-size="6.25739895" font-weight="normal">
                            <text>
                                <tspan x="0.0250743519" y="6.20857996">TM</tspan>
                            </text>
                        </g>
                    </g>
                    <g id="Group" fill-rule="nonzero">
                        <path d="M21.6975309,20.5555556 L21.6975309,26.2654321 L18.2716049,26.2654321 L18.2716049,24.27122 C19.0816696,23.0299321 20.3755462,21.7822495 21.6975309,20.5555556 Z" id="Combined-Shape" fill="url(#linearGradient-5)"></path>
                        <path d="M7.99382716,24.0167583 L7.99382716,26.2654321 L5.70987654,26.2654321 L5.70987654,24.7228153 C6.17492711,24.2817806 6.79315124,23.9668138 7.58437977,23.9820085 C7.72429831,23.9846954 7.86078077,23.9962787 7.99382716,24.0167583 Z" id="Combined-Shape" fill="url(#linearGradient-6)"></path>
                        <path d="M19.7743603,3.32922422 L20.5908137,3.32922422 C20.8189161,4.55696086 20.4115014,5.24181451 19.3685696,5.38378517 C18.0151048,5.52657275 17.2741742,4.93723541 16.8981373,4.27476297 C16.5221004,3.61229052 16.3086336,1.99956608 17.4890264,0.934410781 C19.7891189,-1.14113215 23.5700025,0.333099862 25.5998741,4.44294392 C27.6297456,8.55278799 24.5884576,14.7053874 22.2078802,17.7763837 C19.8273028,20.8473799 15.4269527,24.2060092 15.4404179,27.4074074 C13.9971985,27.4074074 12.873972,27.4074074 12.0707382,27.4074074 C11.0971841,24.7531981 9.57379452,23.4077913 7.50056934,23.3711874 C4.39073158,23.3162813 3.22875028,26.678966 3.37503079,27.4074074 C1.98138769,27.4074074 0.856377426,27.4074074 0,27.4074074 C0.0422168844,21.6906199 0.693335081,17.982821 1.95335459,16.2840107 C4.19377072,13.2633892 5.9577677,12.1878614 9.19369417,11.5378652 C8.31007362,13.4513195 8.10180723,18.2738459 11.1727925,19.9491499 C12.2880612,20.5575584 14.1835406,21.1341426 16.3911728,20.6709559 C19.2638403,20.068237 20.7622126,18.1743016 20.7622126,15.7658737 C20.7622126,14.1602552 19.7735442,12.9586273 17.7962072,12.1609903 C19.3937917,12.9925937 20.0531761,14.3669339 19.7743603,16.2840107 C19.3561365,19.1596261 16.21902,19.9491499 14.3338273,19.7654808 C12.4486346,19.5818118 9.60113286,18.2253032 9.60113286,14.9275074 C9.60113286,11.6297117 11.1034152,8.75681395 15.932814,7.90077842 C20.7622126,7.04474289 21.5268944,7.5248249 22.6468999,5.97657027 C23.7669054,4.42831563 21.3806911,1.22372653 19.3685696,1.73195676 C17.4472539,2.14958852 17.7677557,4.106582 18.7710579,4.27476297 C19.4399261,4.38688361 19.7743603,4.07170402 19.7743603,3.32922422 Z" id="Path-19" fill="url(#linearGradient-7)"></path>
                    </g>
                </g>
                <g id="Rectangle-Copy">
                    <use fill="#FFFFFF" fill-rule="evenodd" xlink:href="#path-8"></use>
                    <rect stroke="#E4DEF2" stroke-width="4" x="226" y="114" width="324" height="195" rx="5"></rect>
                </g>
                <rect id="Rectangle-2-Copy-4" fill="#CEC1EE" x="248" y="252" width="272" height="7"></rect>
                <rect id="Rectangle-2-Copy-6" fill="#CEC1EE" x="248" y="217" width="272" height="8"></rect>
                <g id="Group-3" transform="translate(422.000000, 155.000000)" fill="#CEC1EE">
                    <rect id="Rectangle-2" x="0" y="0" width="99" height="12"></rect>
                    <rect id="Rectangle-2-Copy" x="0" y="18" width="99" height="12"></rect>
                </g>
                <rect id="Rectangle-2-Copy-5" fill="#CEC1EE" x="248" y="269" width="272" height="7"></rect>
                <rect id="Rectangle-2-Copy-7" fill="#CEC1EE" x="248" y="235" width="272" height="7"></rect>
                <circle id="Oval-7" fill="#CEC1EE" cx="276" cy="170" r="28"></circle>
                <circle id="Oval-6-Copy-2" fill="#E4DEF2" cx="528" cy="83" r="11"></circle>
                <g id="Group-Copy-6" transform="translate(45.000000, 266.000000)" fill="#E4DEF2">
                    <rect id="Rectangle-4" x="17" y="24" width="4" height="12"></rect>
                    <rect id="Rectangle-4-Copy" x="17" y="0" width="4" height="12"></rect>
                    <polygon id="Rectangle-4-Copy-2" points="38 16 38 20 26 20 26 16"></polygon>
                    <polygon id="Rectangle-4-Copy-3" points="12 16 12 20 -7.10542736e-15 20 -7.10542736e-15 16"></polygon>
                </g>
                <circle id="Oval-6-Copy-3" fill="#E4DEF2" cx="82.5" cy="256.5" r="6.5"></circle>
            </g>
        </g>
    </g>
</svg>