<?xml version="1.0" encoding="UTF-8"?>
<svg width="598px" height="342px" viewBox="0 0 598 342" version="1.1" xmlns="http://www.w3.org/2000/svg" xmlns:xlink="http://www.w3.org/1999/xlink">
    <!-- Generator: Sketch 48.2 (47327) - http://www.bohemiancoding.com/sketch -->
    <title>6大数据稳定支持@1x</title>
    <desc>Created with Sketch.</desc>
    <defs>
        <path d="M52,66 L548,66 C550.761424,66 553,68.2385763 553,71 L553,342 L47,342 L47,71 C47,68.2385763 49.2385763,66 52,66 Z" id="path-1"></path>
        <linearGradient x1="100%" y1="39.4088699%" x2="2.92488728%" y2="66.5842009%" id="linearGradient-2">
            <stop stop-color="#02A9ED" offset="0%"></stop>
            <stop stop-color="#3CCFD2" offset="100%"></stop>
        </linearGradient>
        <linearGradient x1="100%" y1="47.1524533%" x2="2.92488728%" y2="54.4588525%" id="linearGradient-3">
            <stop stop-color="#02A9ED" offset="0%"></stop>
            <stop stop-color="#3CCFD2" offset="100%"></stop>
        </linearGradient>
        <linearGradient x1="51.6633045%" y1="22.1433924%" x2="48.4339951%" y2="93.6194792%" id="linearGradient-4">
            <stop stop-color="#02A9ED" offset="0%"></stop>
            <stop stop-color="#3CCFD2" offset="100%"></stop>
        </linearGradient>
        <linearGradient x1="100%" y1="42.1364945%" x2="2.92488728%" y2="62.3131294%" id="linearGradient-5">
            <stop stop-color="#02A9ED" offset="0%"></stop>
            <stop stop-color="#3CCFD2" offset="100%"></stop>
        </linearGradient>
        <linearGradient x1="100%" y1="22.2820577%" x2="2.92488728%" y2="93.4023492%" id="linearGradient-6">
            <stop stop-color="#02A9ED" offset="0%"></stop>
            <stop stop-color="#3CCFD2" offset="100%"></stop>
        </linearGradient>
        <linearGradient x1="100%" y1="23.4357898%" x2="2.92488728%" y2="91.595769%" id="linearGradient-7">
            <stop stop-color="#02A9ED" offset="0%"></stop>
            <stop stop-color="#3CCFD2" offset="100%"></stop>
        </linearGradient>
    </defs>
    <g id="Page-1" stroke="none" stroke-width="1" fill="none" fill-rule="evenodd">
        <g id="6大数据稳定支持">
            <g id="Group-3">
                <g id="Group-2">
                    <rect id="Rectangle-24" fill="#5396F7" x="0" y="0" width="598" height="341" rx="3"></rect>
                    <g id="Rectangle">
                        <use fill="#FFFFFF" fill-rule="evenodd" xlink:href="#path-1"></use>
                        <path stroke="#96D0FF" stroke-width="4" d="M49,340 L551,340 L551,71 C551,69.3431458 549.656854,68 548,68 L52,68 C50.3431458,68 49,69.3431458 49,71 L49,340 Z"></path>
                    </g>
                    <g id="地球" transform="translate(265.000000, 157.000000)" fill="#2880FF" fill-rule="nonzero">
                        <path d="M34.8046571,29.4706065 C34.8100811,29.4646728 34.8178131,29.4594808 34.8230063,29.4534647 C34.8024645,29.3834139 34.785731,29.3222637 34.7782298,29.2786674 C34.7874621,29.3423724 34.7971559,29.4064071 34.8046571,29.4706065 Z M48.4353473,44.3599238 C48.4360398,44.3599238 48.4360398,44.3590006 48.4360398,44.358539 C48.4335009,44.3573849 48.4247302,44.3573849 48.4228838,44.3544998 C48.4256535,44.3573849 48.4324623,44.3573849 48.4353473,44.3599238 Z M48.7808844,44.4019695 C48.6964939,44.3884539 48.5068623,44.4130953 48.4318668,44.3583732 C48.3855509,44.518089 48.4553544,44.5783327 48.7808844,44.4019695 Z M35.5,0 C15.893531,0 0,15.893531 0,35.4998352 C0,55.1058097 15.893531,71 35.5,71 C55.1058097,71 71,55.1058922 71,35.4998352 C71,15.893531 55.1058097,0 35.5,0 Z M58.1752697,13.8675802 C56.9521008,13.904666 56.1006131,13.9069735 55.1179244,14.5851474 C54.7219315,14.8588399 54.4531014,15.2213732 53.9506313,15.3622989 C53.5000813,15.489132 53.0137641,15.3779573 52.5667577,15.5295966 C50.9537769,16.0769816 51.2093386,19.5317208 49.0840807,19.0098837 C48.0857336,18.7649533 47.3821766,17.5852159 46.8797065,16.8148222 C46.4370681,16.1370604 45.6310721,15.5764894 46.1754902,14.7282158 C45.9271809,14.7919208 45.6623889,14.7193152 45.4178705,14.765796 C45.7583173,14.0182306 46.9001449,14.0835839 47.0901061,13.7014363 C47.5632372,12.7438835 45.7875738,12.6438345 45.2847741,12.5110677 C45.8908369,11.8651172 46.1975768,12.7283899 46.7958104,12.5817777 C47.3707212,12.4402752 46.4924494,11.68315 46.1476348,11.5981001 C46.0238509,11.5674426 43.9995485,12.1575173 45.1712094,11.1089809 C43.7247846,10.1869479 42.2791015,9.2652446 40.8323471,8.34255233 C40.5888176,9.36834286 42.7574247,9.95133009 43.4657616,10.3127921 C43.3557407,10.7363932 42.6968514,11.3532521 42.192321,11.1726859 C41.7171295,11.0022565 41.9100576,10.2148034 41.1924905,10.2939196 C40.6801309,11.4851123 42.2757226,11.1369188 42.423983,11.8669302 C42.5924345,12.6986389 41.8208047,12.3461599 41.5240366,12.3318201 C41.4533266,12.3281115 40.9001727,11.7555907 40.8703393,12.188999 C40.8344898,12.7037485 41.7524846,12.5029912 41.8172609,13.022768 C40.7480389,13.0660346 40.2018902,12.6800137 39.3314475,12.1017239 C38.3154641,11.4274235 37.7941215,11.488244 36.5493605,11.488244 C36.9216186,11.3352861 37.4344726,11.2219687 37.7528328,10.9757196 C37.9266411,10.8411397 38.609018,10.1779649 38.6540154,10.0299518 C38.846861,9.39108875 38.6435489,9.4395474 38.0322942,9.02080862 C37.4889474,8.64904506 36.8299757,7.98174966 36.1715809,7.85030144 C33.7861461,7.37412103 35.4358829,10.0039918 33.6251117,10.3666075 C33.6560989,10.3682558 33.6896408,10.3696568 33.7162601,10.3696568 L33.6125026,10.3696568 C33.6172001,10.3693272 33.6209087,10.3675965 33.6251117,10.3666075 C33.2062081,10.3516084 32.421145,10.2497464 32.1512435,10.4710244 C31.9607054,10.6266195 31.9447173,11.2515548 31.7316806,11.4777776 C31.3526647,11.8818469 30.787561,11.9625289 30.3352803,12.2539401 C29.8937956,12.5385935 28.9204195,13.2689346 28.6611493,13.7643172 C27.7055743,15.5900051 30.8142627,16.1566746 31.9928463,16.6902967 C32.5253146,16.9315186 34.0815131,17.2616637 34.3713585,17.6645793 C34.760099,18.2056185 34.036351,18.7129509 34.8480334,19.0932853 C35.1073036,19.214432 35.6419146,19.2391558 35.865253,18.9882092 C36.2280335,18.5792775 35.7177343,18.4869753 35.6307889,18.0146683 C35.4625022,17.1054093 35.7399033,17.4667064 36.1972112,17.1288145 C37.1292161,16.4407511 36.919311,16.3986382 36.5839739,15.3021376 C36.4282963,14.7917559 35.8408588,13.3670881 36.3575863,12.9902974 C37.0313099,12.4987882 38.4682572,13.2567375 38.9849022,13.3201129 C39.5861027,13.3937074 39.927456,14.2268171 40.2551287,14.5675935 C40.4727806,14.7938163 40.8620157,15.2738701 41.2421853,15.2219501 C41.8456933,15.1392902 41.5931809,14.6116843 41.9431875,14.3683196 C42.8821975,13.7170947 43.1295179,14.6017947 43.5037538,15.4865772 C43.8558208,16.3176266 44.1889328,16.6260972 44.8155163,17.1591424 C45.1065979,17.4072869 46.3818516,18.2928935 46.2615291,18.838795 C46.1800229,19.2065204 44.7231317,19.7642069 44.333567,19.8876611 C42.9095585,20.3387056 40.2381517,19.1492435 39.9512732,21.4075156 C40.5037678,21.2018135 42.075295,19.9179889 42.5466131,20.5264417 C42.7615453,20.8025241 42.3761837,21.2046156 42.46692,21.4788025 C42.7357502,22.3007865 43.3697508,22.0144025 44.0345739,21.8815533 C43.9892469,21.9098208 43.9427661,21.9344622 43.8937306,21.9564664 C44.8020831,21.489681 44.7076381,21.586928 45.1244814,20.8298027 C45.2605448,20.5823999 45.4630327,19.9837543 45.6547246,19.8067318 C46.3150149,19.1993504 46.4167121,19.6175948 46.8257262,20.0861932 C46.9328627,20.2096474 47.9441486,21.6657969 47.58417,21.5931913 C46.4078116,21.3572438 45.2784283,21.3888903 44.3028271,22.0321212 C43.7407727,22.4033903 43.2091285,22.9042945 42.5377949,23.1508732 C42.3769254,23.2096335 41.185403,23.3225388 41.3262462,23.1193916 C41.5318658,22.823118 42.2395435,22.6270583 42.5187576,22.3072147 C41.7448202,21.9885249 41.0993641,22.6922467 40.491241,23.1037332 C39.8459498,23.4089897 39.6958763,23.9779668 39.1464311,24.4768107 C38.9066102,24.6942977 38.4530108,24.731301 38.2174754,25.0175202 C37.9890275,25.2952509 37.9605951,25.7320381 37.7441795,25.9956762 C37.5922929,26.1802806 37.2029754,26.0687763 37.0444959,26.3470015 C36.8379697,26.7105237 37.2334681,27.0480036 37.14677,27.3098287 C36.9879608,27.7856795 36.0829048,28.1894191 35.7348761,28.5320086 C35.7813569,28.4873409 35.827508,28.4413547 35.8729998,28.3947091 C35.5241469,28.7607038 35.0828271,29.0298636 34.8104532,29.4533823 C34.9354732,30.0512038 35.3297354,31.4771903 35.2197969,31.8052751 C34.8570163,32.8846339 34.152388,31.2182496 33.8665808,30.7877259 C32.8847163,29.308336 30.9223057,30.298277 29.5816988,30.4210719 C27.8671856,30.5779032 26.1878626,32.8029629 27.2454644,34.609119 C27.7531265,35.4752762 28.6070866,35.8106134 29.586726,35.6101857 C30.4585696,35.4316799 30.7203123,34.2119724 31.5413073,34.1897209 C33.0500361,34.1495036 31.5745196,35.6681219 31.443978,36.2254787 C31.3232434,36.7417117 31.6321261,36.7894287 32.163523,36.9174155 C32.5559721,37.0112012 33.1116808,36.7494585 33.4518803,36.9735386 C33.6661532,37.1150411 33.6558516,37.8896378 33.9506418,37.6452843 C33.3703742,38.126327 33.505943,39.266836 34.1008801,39.6789818 C34.7605111,40.1366193 35.5371681,39.7128534 36.2277863,39.8885572 C37.5316372,40.2212571 36.9092567,39.7891675 38.0542983,39.09789 C38.827082,38.632176 38.9539151,39.1856595 39.4820155,39.1878022 C39.8414995,39.1892857 40.0698651,38.6709924 40.6709007,38.8218076 C41.160844,38.9452617 41.3544314,39.3234535 41.9393965,39.4104813 C42.1792174,39.4458363 42.4268675,39.3202394 42.6555626,39.3454577 C43.7374762,39.4656978 44.5658059,40.1569752 45.4184474,40.7820754 C46.1210155,41.2964953 46.5863998,41.1922432 47.4070652,41.4268721 C48.0066998,41.5977136 49.1130075,42.4654366 49.05639,43.2273417 C49.0462532,43.3635699 48.5221087,44.0486664 48.4325261,44.3572195 C48.5859785,44.4635318 49.6530577,44.2250295 49.9653194,44.2026133 C49.8627156,44.3220293 49.1360831,44.8325758 49.1360831,44.5615205 C49.1360831,44.7004682 49.6501733,44.9857809 49.7754406,45.0744569 C50.1544564,43.8438709 50.7770018,44.6356919 51.5262154,44.9405364 C52.1632653,45.1999714 52.9473395,45.2138992 53.6268319,45.3757577 C54.2035558,45.5130572 55.4754306,45.9024571 55.9028227,46.3737751 C56.4172426,46.941104 56.0616319,47.8628073 55.6809678,48.4272517 C55.1830304,49.1670702 54.4321686,49.4517236 54.1215552,50.3221662 C53.8761303,51.0121251 54.060405,51.7092539 53.9201386,52.4741259 C53.7305071,53.5094763 53.5785381,53.1465309 52.9117372,53.7783064 C52.3506717,54.3103626 52.9023421,54.2178956 52.1384591,54.5570238 C51.3711971,54.897965 50.695578,54.796515 50.164346,55.6383604 C50.1856084,55.5854515 50.2029151,55.5323777 50.2177494,55.4769964 C49.9935869,55.790659 49.8815057,56.4330658 49.7752757,56.643795 C49.5074346,57.1816201 49.138061,57.5208307 48.7144598,57.9687435 C48.5521069,58.1402443 47.0596958,60.1791338 46.9734921,60.0152974 C46.8626471,59.8022607 45.685959,60.2292407 45.6298359,59.9253852 C45.6766463,60.1807821 45.6187102,60.0951553 45.9109456,60.2423443 C45.6403024,61.9179588 44.9316358,62.1679164 43.2861844,62.184811 C43.4276869,62.9901476 42.6899287,62.8294429 42.3470096,63.2624391 C42.146582,63.5152812 42.0509009,64.2262553 41.9119531,64.5536808 C41.8251725,64.7593004 41.1827658,65.5833447 41.1827658,65.7466042 C41.1821065,65.8970074 41.3988518,66.1173789 41.6018342,66.3286849 C40.4417934,66.5581218 39.2590068,66.7180848 38.0576773,66.8156614 C38.2825814,66.5323267 38.3366442,66.283358 37.6203956,66.2492391 C37.8120875,65.728391 38.2621431,65.4312934 38.452846,64.9268454 C38.5433351,64.6888376 38.4685044,64.5947223 38.5449834,64.3588573 C38.8070557,63.5447849 38.6934086,63.8518545 38.5456427,63.2195021 C38.1995095,61.7373926 38.6687672,61.3320047 39.0728366,59.9749976 C39.4875371,58.5804928 39.448968,56.7727709 39.7147489,55.2706351 C39.8407578,54.5517494 40.047284,53.0560418 39.797656,52.3765493 C39.5163815,51.6113476 38.2790377,51.0086638 37.7123682,50.4940791 C36.9100808,49.7630787 36.4835952,48.9732356 35.887834,48.0697455 C35.5854619,47.6109542 35.2407297,47.1606513 35.0048647,46.661725 C34.5002519,45.5949754 35.0051943,46.2298826 35.0900794,45.6002498 C35.1714207,44.9918794 35.0176386,44.4481206 35.2591902,43.8095873 C35.5263721,43.1036403 36.1933378,42.6637215 36.4124731,41.9518408 C36.6096866,41.3181698 36.4596131,40.5216513 35.8086355,40.3102628 C35.4458549,40.1918358 35.0455765,40.4647042 34.6810653,40.4047901 C34.1727439,40.3224599 33.5973387,39.9429495 33.1984613,39.6395885 C32.6415989,39.2153281 32.43293,38.5258636 31.8399708,38.1236074 C31.3434345,37.7884351 30.9903786,37.9890275 30.4593114,37.8321962 C29.9054982,37.6690191 29.563568,36.9856532 29.1168089,36.7717099 C28.4463819,36.4510422 28.0686022,36.9114818 27.3608421,36.8183555 C26.7589824,36.739569 25.8409877,36.0725208 25.2786036,35.8205029 C24.1350454,35.3086378 23.4387407,34.7436989 22.9814328,33.5831637 C22.5898078,32.5878658 22.0189352,32.1236353 21.346695,31.2947286 C20.6655543,30.4548611 20.4522703,29.7391894 19.4024153,29.5153566 C19.2791259,29.4885725 19.6592956,30.3970074 19.698524,30.4698602 C20.0736665,31.1645166 20.6370395,31.7990117 21.0901444,32.4457864 C21.7568629,33.3984769 21.472704,33.57723 20.7945301,32.6560211 C20.0190269,31.6021279 19.1190805,30.5542508 18.4463459,29.4381359 C18.1920204,29.0163479 18.2408911,28.7436444 17.8214106,28.3431188 C17.4161051,27.9561913 16.8856971,27.7677135 16.4775896,27.3996585 C15.0091606,26.0790779 14.7421435,24.3161884 14.9096061,22.4335533 C14.9639984,21.8199086 15.1856885,21.3291411 15.0879471,20.7392312 C15.0072651,20.2494527 14.718079,19.8444768 14.3567819,19.4836742 C14.2404152,19.2982457 13.9481798,18.841597 13.9312852,18.8125878 C13.597926,18.2587746 13.3385733,17.7141917 12.8089895,17.259933 C12.505134,16.9981904 11.7189995,16.3864411 10.9787689,15.8739992 C14.3044498,11.7261694 18.6560861,8.43913998 23.6482337,6.39827258 C23.6879566,6.64921917 23.7957524,6.89975369 23.9572812,7.13957456 C24.3677787,7.74827456 24.7589093,7.70014556 25.5601253,7.86859706 C25.4742513,8.79854164 24.3873105,8.80595878 23.6515302,8.70508567 C22.7732584,8.58451594 21.8492475,8.29277508 21.0884137,9.06250943 C21.5086359,9.31518668 22.6620013,10.299194 22.5087137,9.27101349 C23.3500647,9.22890061 24.1633129,9.20376475 24.9864507,9.30439062 C25.3162662,9.34485524 26.4212553,9.71571227 26.7207429,9.54660146 C26.8464222,9.47556174 26.9803428,8.8554888 27.1133569,8.66478588 C26.878728,8.66610448 26.6272045,8.54767747 26.3934822,8.57009372 C26.9385596,7.87222322 27.4815767,8.41969059 28.1752442,8.74068795 C27.4115259,9.2047537 27.864466,10.3169127 28.6111248,9.41325776 C29.2244399,8.6701427 28.4610513,8.13141107 27.682334,7.69841489 C28.4675619,6.71622067 28.9518188,6.62762705 29.6906484,7.73615989 C29.8124543,7.05246437 30.3642071,7.32615685 30.940931,7.37667582 L30.940931,7.20566953 C30.6871,7.21176807 30.4160447,7.06573281 30.1647685,7.09210487 C30.7522884,6.15474314 30.3773107,5.94063502 31.2171783,5.63463677 C31.8860395,5.39110732 33.7941401,5.61782458 34.0292635,4.9890159 C32.6938485,5.24861582 31.0805381,5.31075497 29.8757472,5.91797153 C29.3563002,6.17971418 28.7374634,7.00623086 28.2186756,6.46906507 C27.6869491,5.91797153 28.5990101,5.03178808 29.0656307,4.76163934 L28.9539615,4.76163934 C31.0668576,4.31224304 33.2550788,4.07102115 35.5001648,4.07102115 C36.9507927,4.07102115 38.3764495,4.17832245 39.7758166,4.36951985 C39.2915598,4.62384535 39.6496428,4.79551095 39.2969166,5.05544051 C38.6233578,5.55082308 37.4277148,5.96420504 36.6261692,6.27729078 C37.645037,6.27457116 40.1114835,7.23270088 40.5861804,5.80350033 C40.2571891,5.75298137 39.9291042,5.70229757 39.6004425,5.6517786 C40.2144169,5.24466001 40.8992662,4.91517415 41.6183167,4.67362261 C48.1067488,5.95901304 53.8781082,9.25008067 58.2684784,13.8682395 C58.2367496,13.8675802 58.2055976,13.8667561 58.1752697,13.8675802 Z M63.9207515,26.3315079 C63.9791821,26.2067351 64.1156575,26.1656112 64.1720277,26.0626777 C64.2906196,25.8462621 64.2641651,25.6994851 64.4102004,25.5137269 C64.5665372,25.3129697 64.7774312,25.2637693 64.9518989,25.106938 C65.0222793,25.0438099 65.0614253,24.9852969 65.0937311,24.9257125 C65.6173812,26.387054 66.0348014,27.8980079 66.3383272,29.4493441 C66.329097,29.4604698 66.3239874,29.477282 66.3125321,29.4865946 C66.2362179,29.5469207 65.7386926,29.6208448 65.6365833,29.6243886 C65.2762751,29.6382339 65.0085988,29.3991547 64.7499054,29.1741682 C64.4867617,28.9455554 64.1768901,28.639722 63.9898957,28.3437781 C63.7901274,28.0276431 63.9134168,27.7028547 63.9277566,27.3417224 C63.939624,27.0381141 63.7918581,26.6051179 63.9207515,26.3315079 Z M64.3269636,42.6083402 C63.7171922,42.0785915 62.997812,41.3684415 62.5642389,40.6822736 C62.1011621,39.9506139 62.3865572,39.1976917 62.4204288,38.3598021 C62.4485315,37.6550914 62.1042938,36.652294 62.4037815,36.0177988 C62.5412458,35.7281183 62.8563919,35.6322723 62.9861094,35.3949238 C63.2618622,34.892289 63.200712,34.5525839 63.5390984,34.1204943 C63.9020438,33.6564285 64.3900917,33.5422046 64.7944907,33.1782702 C65.2180918,32.796782 65.2063068,32.4957285 65.4744776,32.0069389 C65.6707022,31.6493503 66.1318835,31.0532595 66.5685058,30.7414923 C66.8053598,32.2934878 66.928814,33.8828986 66.928814,35.4997528 C66.928814,38.2973333 66.556556,41.0087102 65.867174,43.5921002 C65.2794892,43.4405433 64.7960565,43.0169422 64.3269636,42.6083402 Z" id="Shape"></path>
                    </g>
                    <path d="M3,0 L595,0 C596.656854,-3.04359188e-16 598,1.34314575 598,3 L598,40 L0,40 L0,3 C-2.02906125e-16,1.34314575 1.34314575,3.04359188e-16 3,0 Z" id="Rectangle-24" fill="#96D0FF"></path>
                    <rect id="Rectangle-25" fill="#C3E4FF" x="81" y="14" width="439" height="19" rx="3"></rect>
                    <g id="Group" transform="translate(221.000000, 21.000000)" fill="#96D0FF">
                        <path d="M19.0142857,6 C17.9018264,6 17,4.88071187 17,3.5 L17,2.5 C17,1.11928813 17.9018264,0 19.0142857,0 L155.985714,0 C157.098174,0 158,1.11928813 158,2.5 L158,3.5 C158,4.88071187 157.098174,6 155.985714,6 L19.0142857,6 Z" id="Rectangle-26" transform="translate(87.500000, 3.000000) scale(1, -1) translate(-87.500000, -3.000000) "></path>
                        <path d="M0.0857142857,6 C0.0383755929,6 -5.79731787e-18,4.88071187 0,3.5 L0,2.5 C5.79731787e-18,1.11928813 0.0383755929,0 0.0857142857,0 L5.91428571,0 C5.96162441,0 6,1.11928813 6,2.5 L6,3.5 C6,4.88071187 5.96162441,6 5.91428571,6 L0.0857142857,6 Z" id="Rectangle-26-Copy" transform="translate(3.000000, 3.000000) scale(1, -1) translate(-3.000000, -3.000000) "></path>
                    </g>
                    <rect id="Rectangle-27" fill="#5396F7" x="537" y="18" width="13" height="13" rx="3"></rect>
                    <rect id="Rectangle-27-Copy" fill="#5396F7" x="566" y="18" width="13" height="13" rx="3"></rect>
                </g>
                <path d="M56.6746212,21.0741161 L52.0741161,25.6746212 L56.6746212,25.6746212 L56.6746212,21.0741161 Z" id="Rectangle-8-Copy-2" stroke="#5396F7" stroke-width="2" transform="translate(53.667262, 22.667262) rotate(-45.000000) translate(-53.667262, -22.667262) "></path>
                <path d="M31.0147186,21.4142136 L26.4142136,26.0147186 L31.0147186,26.0147186 L31.0147186,21.4142136 Z" id="Rectangle-8-Copy-3" stroke="#5396F7" stroke-width="2" transform="translate(28.007359, 23.007359) scale(-1, 1) rotate(-45.000000) translate(-28.007359, -23.007359) "></path>
                <rect id="Rectangle-3-Copy" stroke="#2880FF" x="100.5" y="253.5" width="397" height="23" rx="4"></rect>
                <rect id="Rectangle-3-Copy" fill="#2880FF" x="100" y="253" width="261" height="24" rx="4"></rect>
                <g id="pc端正常的副本" transform="translate(217.000000, 88.000000)">
                    <path d="M37.1965156,23.961694 L28.6749193,23.961694 C28.2245055,23.961694 27.8593729,23.5965615 27.8593729,23.1461477 L27.8593729,6.88117235 C27.8593729,6.43075853 28.2245055,6.065626 28.6749193,6.065626 L37.1965156,6.065626 L37.1965156,8.45012957 L30.4653744,8.45012957 L30.4653744,13.7968257 L37.1965156,13.7968257 L37.1965156,16.1321643 L30.4653744,16.1321643 L30.4653744,21.4911517 L37.1965156,21.4911517 L37.1965156,23.961694 Z M40.2594936,23.961694 L40.2594936,6.065626 L42.6802343,6.065626 L42.6802343,23.961694 L40.2594936,23.961694 Z M56.1672181,15.9109217 C55.8625656,14.7965089 55.3356069,13.9340811 54.5863263,13.3236124 C53.8370456,12.7131436 52.9395691,12.4079138 51.8938698,12.4079138 C50.8234689,12.4079138 49.8951159,12.7213377 49.1087829,13.3481949 C48.32245,13.9750521 47.7810822,14.8292858 47.4846635,15.9109217 L56.1672181,15.9109217 Z M47.4105592,18.0987652 C47.6164055,19.2295663 48.1289552,20.1452557 48.9482236,20.8458608 C49.767492,21.5464658 50.7411305,21.8967631 51.8691683,21.8967631 C52.6760859,21.8967631 53.4109463,21.704202 54.0737715,21.3190741 C54.7365966,20.9339462 55.2656138,20.3890393 55.6608387,19.6843371 L58.4150488,19.6843371 C57.789276,21.1838778 56.9144422,22.3310502 55.7905212,23.1258887 C54.6666003,23.9207272 53.3594957,24.3181404 51.8691683,24.3181404 C50.8646383,24.3181404 49.9465774,24.1419675 49.1149583,23.7896165 C48.2833391,23.4372654 47.5299529,22.9087467 46.8547769,22.2040445 C46.2207702,21.5403134 45.724688,20.7680205 45.3665154,19.8871428 C45.0083428,19.0062651 44.8292592,18.1069639 44.8292592,17.1892122 C44.8292592,16.2386837 44.9918754,15.3496251 45.3171126,14.5220098 C45.6423497,13.6943945 46.1219645,12.9405383 46.7559712,12.2604188 C47.4311471,11.5229398 48.1927671,10.9677903 49.040854,10.5949537 C49.8889408,10.222117 50.8152354,10.0357015 51.8197655,10.0357015 C53.0136742,10.0357015 54.1231692,10.312252 55.1482839,10.8653613 C56.1733986,11.4184705 57.0194143,12.1907634 57.6863564,13.1822629 C58.0815814,13.7968288 58.3738788,14.4707926 58.5632574,15.2041745 C58.752636,15.9375564 58.8473239,16.7754019 58.8473239,17.7177362 L58.8473239,18.0987652 L47.4105592,18.0987652 Z M63.2688809,17.1154647 C63.2688809,18.4511212 63.7196776,19.5900994 64.6212845,20.5324337 C65.5228914,21.474768 66.5994515,21.9459281 67.8509972,21.9459281 C69.1272444,21.9459281 70.2223304,21.4932047 71.1362881,20.5877444 C72.0502458,19.682284 72.5072178,18.5822277 72.5072178,17.2875423 C72.5072178,15.919109 72.0543627,14.7719366 71.1486388,13.8459907 C70.242915,12.9200449 69.1354784,12.4570789 67.8262957,12.4570789 C66.6241532,12.4570789 65.5640605,12.9220934 64.6459859,13.8521364 C63.7279113,14.7821794 63.2688809,15.8699446 63.2688809,17.1154647 Z M63.3429852,22.3269571 L63.3429852,28.337381 L60.8975431,28.337381 L60.8975431,11.2568593 C60.8975431,10.8064455 61.2626756,10.441313 61.7130894,10.441313 L62.5521403,10.441313 C63.0025541,10.441313 63.3676866,10.8064455 63.3676866,11.2568593 L63.3676866,12.1006325 C63.9934595,11.461484 64.691268,10.9759842 65.4611333,10.6441187 C66.2309985,10.3122531 67.0523131,10.1463228 67.9251015,10.1463228 C69.9753309,10.1463228 71.675596,10.8223351 73.0259479,12.17438 C74.3762998,13.5264249 75.0514657,15.2226012 75.0514657,17.2629598 C75.0514657,18.2052941 74.8826742,19.1025468 74.5450862,19.9547447 C74.2074983,20.8069427 73.7217082,21.5648959 73.0877015,22.228627 C72.4042917,22.9415234 71.6570808,23.4679936 70.8460463,23.8080533 C70.0350117,24.1481131 69.1107756,24.3181404 68.0733101,24.3181404 C67.1511186,24.3181404 66.2968691,24.1522102 65.5105362,23.8203446 C64.7242032,23.488479 64.0016934,22.9906882 63.3429852,22.3269571 Z M79.7076863,23.961694 L77.2622442,23.961694 L77.2622442,6.88117235 C77.2622442,6.43075853 77.6273767,6.065626 78.0777905,6.065626 L78.8921399,6.065626 C79.3425537,6.065626 79.7076863,6.43075853 79.7076863,6.88117235 L79.7076863,11.9777199 C80.1029112,11.3959309 80.6154609,10.9575472 81.2453506,10.6625556 C81.8752404,10.367564 82.6101008,10.2200704 83.4499538,10.2200704 C85.0967244,10.2200704 86.3770693,10.744492 87.291027,11.7933511 C88.2049847,12.8422101 88.6619567,14.313049 88.6619567,16.2059118 L88.6619567,23.961694 L86.2165146,23.961694 L86.2165146,16.9925522 C86.2165146,15.4930115 85.9612689,14.3786155 85.4507701,13.6493307 C84.9402712,12.9200458 84.1580669,12.5554089 83.1041337,12.5554089 C82.4618931,12.5554089 81.8937658,12.7029025 81.3997346,12.9978941 C80.9057034,13.2928857 80.5104844,13.7189783 80.2140657,14.2761847 C80.0329209,14.6121473 79.9032397,15.0218518 79.8250181,15.5053102 C79.7467965,15.9887687 79.7076863,16.759013 79.7076863,17.8160663 L79.7076863,23.961694 Z M93.3922816,17.1154647 C93.3922816,18.483898 93.8471952,19.6310704 94.7570359,20.5570163 C95.6668767,21.4829621 96.7804886,21.9459281 98.0979051,21.9459281 C99.3000476,21.9459281 100.36014,21.4809136 101.278215,20.5508706 C102.19629,19.6208276 102.65532,18.5330624 102.65532,17.2875423 C102.65532,15.9600801 102.200406,14.8231503 101.290566,13.8767189 C100.380725,12.9302875 99.3000479,12.4570789 98.0485022,12.4570789 C96.7640211,12.4570789 95.6668767,12.9077537 94.7570359,13.809117 C93.8471952,14.7104802 93.3922816,15.8125851 93.3922816,17.1154647 Z M102.531813,23.961694 L102.531813,22.3023745 C101.90604,22.9497172 101.208231,23.439314 100.438366,23.7711796 C99.6685009,24.1030451 98.8471863,24.2689754 97.9743979,24.2689754 C95.9324024,24.2689754 94.2362541,23.5909146 92.8859022,22.2347726 C91.5355503,20.8786307 90.8603845,19.1804058 90.8603845,17.1400472 C90.8603845,16.1895187 91.0291759,15.288169 91.3667639,14.435971 C91.7043519,13.583773 92.186025,12.8340139 92.8117979,12.1866712 C93.4952077,11.4737749 94.2424186,10.9473047 95.0534531,10.6072449 C95.8644877,10.2671851 96.7887238,10.0971578 97.8261893,10.0971578 C98.7566147,10.0971578 99.6129226,10.2610396 100.395139,10.588808 C101.177355,10.9165765 101.889572,11.4123188 102.531813,12.0760499 L102.531813,11.2568593 C102.531813,10.8064455 102.896945,10.441313 103.347359,10.441313 L104.18641,10.441313 C104.636824,10.441313 105.001956,10.8064455 105.001956,11.2568593 L105.001956,23.961694 L102.531813,23.961694 Z M110.288064,23.961694 L107.842621,23.961694 L107.842621,11.2568593 C107.842621,10.8064455 108.207754,10.441313 108.658168,10.441313 L109.373711,10.441313 C109.824125,10.441313 110.189258,10.8064455 110.189258,11.2568593 L110.189258,11.9777199 C110.699757,11.3713483 111.261709,10.926819 111.875131,10.6441187 C112.488553,10.3614184 113.190478,10.2200704 113.980928,10.2200704 C115.75944,10.2200704 117.124181,10.740395 118.075191,11.7810598 C119.026201,12.8217247 119.501699,14.3130487 119.501699,16.2550768 L119.501699,23.961694 L117.043906,23.961694 L117.043906,16.7836008 C117.043906,15.3496138 116.77631,14.2864309 116.24111,13.59402 C115.705909,12.9016091 114.878419,12.5554089 113.758615,12.5554089 C112.540005,12.5554089 111.656938,12.9630648 111.109386,13.7783888 C110.561835,14.5937129 110.288064,15.9395919 110.288064,17.8160663 L110.288064,23.961694 Z M123.194564,23.961694 L123.194564,12.653739 L121.280202,12.653739 L121.280202,10.441313 L123.194564,10.441313 L123.194564,6.88117235 C123.194564,6.43075853 123.559696,6.065626 124.01011,6.065626 L124.812109,6.065626 C125.262523,6.065626 125.627655,6.43075853 125.627655,6.88117235 L125.627655,10.441313 L127.554367,10.441313 L127.554367,12.653739 L125.627655,12.653739 L125.627655,23.961694 L123.194564,23.961694 Z" id="ElephantBI-Copy-11" fill="#4A5A66" fill-rule="nonzero"></path>
                    <g id="Group-15-Copy-8" transform="translate(130.142478, 4.056494)">
                        <path d="M3.99047708,2.00913242 C5.97085154,2.00913242 7.47523361,2.42629024 8.50366841,3.26061838 C9.53210322,4.09494653 10.0463129,5.30961194 10.0463129,6.90465105 C10.0463129,7.64082294 9.87845107,8.29109836 9.54272235,8.85549681 C9.20699363,9.41989527 8.71615711,9.88613047 8.07019806,10.2542164 C8.97964041,10.5159664 9.69783411,11.0190097 10.2248007,11.7633613 C10.7517673,12.5077128 11.0152466,13.3951957 11.0152466,14.4258363 C11.0152466,15.2601645 10.8537593,16.0433578 10.5307798,16.7754399 C10.2078002,17.5075219 9.76158523,18.1148546 9.19212133,18.5974562 C8.63115689,19.0555187 7.99583169,19.3827013 7.28612668,19.5790138 C6.57642167,19.7753263 5.57562513,19.8734811 4.28370703,19.8734811 L0.815546352,19.8734811 C0.365132539,19.8734811 2.83658469e-14,19.5083486 2.83106871e-14,19.0579347 L2.84217094e-14,2.82467877 C2.83665496e-14,2.37426496 0.365132539,2.00913242 0.815546352,2.00913242 L3.99047708,2.00913242 Z M2.66456776,9.49350927 L3.51875934,9.49350927 C4.90417152,9.49350927 5.89221906,9.29106503 6.48293162,8.88617049 C7.07364417,8.48127595 7.36899602,7.81259651 7.36899602,6.88011211 C7.36899602,6.05396365 7.101267,5.44254116 6.56580095,5.0458263 C6.03033489,4.64911145 5.21014919,4.450757 4.10521923,4.450757 L2.66456776,4.450757 L2.66456776,9.49350927 Z M2.63906951,17.4563955 L4.75542476,17.4563955 C5.9963461,17.4563955 6.91002447,17.2335023 7.4964873,16.7877093 C8.08295012,16.3419163 8.37617713,15.652788 8.37617713,14.7203036 C8.37617713,13.7060223 8.07020112,12.9371432 7.45823991,12.4136432 C6.84627871,11.8901432 5.94534933,11.6283971 4.75542476,11.6283971 L2.63906951,11.6283971 L2.63906951,17.4563955 Z" id="Combined-Shape" fill="url(#linearGradient-2)" fill-rule="nonzero"></path>
                        <polygon id="Path" fill="url(#linearGradient-3)" fill-rule="nonzero" points="17.9507723 19.8734811 12.2391629 19.8734811 12.2391629 18.7038294 13.8710513 18.7038294 13.8710513 3.22715619 12.647135 3.22319127 12.647135 2.00913242 17.5428002 2.00913242 17.5428002 3.22715619 16.3188839 3.22715619 16.3188839 18.7038294 17.9507723 18.7038294"></polygon>
                        <g id="TM" transform="translate(21.000000, 0.000000)" fill="#4A5A66" font-family="LucidaGrande, Lucida Grande" font-size="5.47945205" font-weight="normal">
                            <text>
                                <tspan x="0.021957" y="5.1826484">TM</tspan>
                            </text>
                        </g>
                    </g>
                    <g id="Group" fill-rule="nonzero">
                        <path d="M18.3933856,18.4564442 L18.3933856,23.6508442 L15.6335744,23.6508442 L15.6335744,21.8366657 C16.2861354,20.7074388 17.328439,19.5723946 18.3933856,18.4564442 Z" id="Combined-Shape" fill="url(#linearGradient-5)"></path>
                        <path d="M7.26884197,21.1992688 L7.26884197,23.6508442 L4.78501185,23.6508442 L4.78501185,21.9690345 C5.29076123,21.4882045 5.96308912,21.1448177 6.82356187,21.1613834 C6.97572535,21.1643128 7.12415205,21.1769413 7.26884197,21.1992688 Z" id="Combined-Shape" fill="url(#linearGradient-6)"></path>
                        <path d="M17.5834369,2.92632645 L18.3024757,2.92632645 C18.5033622,3.98743143 18.1445579,4.57933493 17.2260629,4.70203696 C16.034086,4.82544503 15.3815591,4.31609411 15.0503888,3.74353418 C14.7192186,3.17097424 14.5312214,1.77713302 15.5707763,0.856543415 C17.5964346,-0.93730135 20.9262043,0.336844003 22.7138829,3.88888917 C24.5015614,7.44093434 21.823143,12.7584867 19.7266028,15.4126793 C17.6300626,18.0668718 13.7547378,20.969659 13.7665964,23.736555 C12.4955739,23.736555 11.5063645,23.736555 10.7989681,23.736555 C9.94157308,21.442582 8.59994581,20.2797774 6.77408631,20.2481414 C4.03529706,20.2006873 3.01195689,23.1069796 3.14078402,23.736555 C1.91342265,23.736555 0.922642341,23.736555 0.168443097,23.736555 C0.205622898,18.795665 0.7790533,15.5910984 1.8887343,14.1228551 C3.86183647,11.5122003 5.41536316,10.582646 8.26519692,10.020869 C7.48700505,11.6746242 7.30358784,15.8426246 10.0081603,17.2905519 C10.9903613,17.8163856 12.6596827,18.3147143 14.6039125,17.9143925 C17.1338293,17.3934762 18.4534242,15.7565907 18.4534242,13.675041 C18.4534242,12.2873413 17.5827182,11.2488015 15.841306,10.5594219 C17.2482757,11.2781579 17.828986,12.465969 17.5834369,14.1228551 C17.2151133,16.6081844 14.4523,17.2905519 12.792038,17.1318109 C11.131776,16.9730699 8.62402229,15.8006702 8.62402229,12.95046 C8.62402229,10.1002498 9.94706071,7.61726936 14.2002425,6.87741723 C18.4534242,6.13756511 19.1268684,6.55248912 20.1132411,5.2143677 C21.0996138,3.87624627 18.9981093,1.10659247 17.2260629,1.54584435 C15.5339879,1.90679402 15.8162492,3.59817918 16.699843,3.74353418 C17.2889056,3.84043751 17.5834369,3.56803493 17.5834369,2.92632645 Z" id="Path-19" fill="url(#linearGradient-7)"></path>
                    </g>
                </g>
            </g>
        </g>
    </g>
</svg>