<?xml version="1.0" encoding="UTF-8"?>
<svg width="24px" height="24px" viewBox="0 0 24 24" version="1.1" xmlns="http://www.w3.org/2000/svg" xmlns:xlink="http://www.w3.org/1999/xlink">
    <!-- Generator: Sketch 52.6 (67491) - http://www.bohemiancoding.com/sketch -->
    <title>分组</title>
    <desc>Created with Sketch.</desc>
    <g id="官网2.2-修改页面" stroke="none" stroke-width="1" fill="none" fill-rule="evenodd">
        <g id="1-首页1" transform="translate(-1874.000000, -414.000000)" fill="#1BBD7A" fill-rule="nonzero">
            <g id="分组" transform="translate(1874.000000, 414.000000)">
                <path d="M7.32452106,13.6166661 L7.31274406,13.6351611 C7.30239233,13.6490576 7.30239233,13.6490576 7.30384736,13.643258 L6.07118388,18.1743312 C6.01403271,18.3878365 6.07412457,18.6141752 6.230413,18.7760594 C6.34722398,18.8865645 6.50805309,18.95 6.67152803,18.95 C6.72260923,18.95 6.77353337,18.9430443 6.83167251,18.9289841 L11.4187339,17.7042094 L11.3874498,17.7044713 L11.3982814,17.7010214 C11.4149057,17.696421 11.4146893,17.6965258 11.4202662,17.691134 L23.4450982,5.6523077 C23.7704328,5.32615189 23.95,4.87541422 23.95,4.38281744 C23.95,3.82117512 23.7103298,3.26198594 23.2925032,2.84614009 L22.1536952,1.70620321 C21.7362266,1.28802094 21.1742885,1.05 20.6100296,1.05 C20.1208246,1.05 19.6699143,1.22991319 19.3422577,1.55553991 L7.34684162,13.5675266 C7.34139905,13.5874528 7.3359967,13.6000897 7.32452106,13.6166661 Z M21.2903208,2.57285872 L22.4296954,3.7133468 C22.5766674,3.85872376 22.6617264,4.05611688 22.6616948,4.25383208 C22.6553554,4.43188933 22.5970938,4.57721257 22.485652,4.68823218 L21.1437628,5.95860637 L19.0631212,3.77040111 L20.3106327,2.52233471 C20.5564129,2.2781036 21.0098035,2.30421909 21.2903208,2.57285872 Z M9.15737681,13.7621453 L9.15734682,13.6914539 L18.0540532,4.85377397 L20.1376317,7.04482252 L11.2559299,15.8600606 L9.15737681,13.7621453 Z M7.62100274,17.4420993 L7.55953783,17.3808253 L8.35935548,14.7091622 L10.2596031,16.7200526 L7.62100274,17.4420993 Z" id="Shape-Copy-10"></path>
                <path d="M23.2813674,9.24905933 C22.9408209,9.24905933 22.6627349,9.53729446 22.6627349,9.89580318 L22.6627349,21.3227207 C22.6627349,22.0340361 22.098117,22.6151954 21.4047763,22.6151954 L2.60104255,22.6151954 C1.90575629,22.6151954 1.34308401,22.0350332 1.34308401,21.3227207 L1.34308401,2.66859624 C1.34308401,1.95728079 1.90770187,1.37612156 2.60104255,1.37612156 L14.7101467,1.37612156 C15.0506133,1.37612156 15.3287792,1.09089546 15.3287792,0.738060781 C15.3287792,0.385226108 15.0506133,0.1 14.7101467,0.1 L2.47593648,0.1 C1.16668982,0.1 0.1,1.19558351 0.1,2.54413893 L0.1,21.4558611 C0.1,22.8044165 1.16668982,23.9 2.47593648,23.9 L21.5240635,23.9 C22.8323199,23.9 23.9,22.802538 23.9,21.4558611 L23.9,9.88712012 C23.9,9.53612256 23.6207991,9.24905933 23.2813674,9.24905933 Z" id="Shape-Copy-11"></path>
            </g>
        </g>
    </g>
</svg>