<?xml version="1.0" encoding="UTF-8"?>
<svg width="30px" height="25px" viewBox="0 0 30 25" version="1.1" xmlns="http://www.w3.org/2000/svg" xmlns:xlink="http://www.w3.org/1999/xlink">
    <!-- Generator: Sketch 52.6 (67491) - http://www.bohemiancoding.com/sketch -->
    <title>Shape Copy 8</title>
    <desc>Created with Sketch.</desc>
    <g id="官网2.2-修改页面" stroke="none" stroke-width="1" fill="none" fill-rule="evenodd">
        <g id="1-首页1" transform="translate(-1871.000000, -280.000000)" fill="#1BBD7A" fill-rule="nonzero">
            <path d="M1885.61358,287.481111 C1886.35678,287.481111 1886.8506,286.979394 1886.8506,286.224659 C1886.8506,285.465029 1886.36156,284.972892 1885.61358,284.972892 C1884.80613,284.972892 1884.11587,285.511718 1884.11587,286.224604 C1884.11665,286.93273 1884.81242,287.481111 1885.61358,287.481111 Z M1878.41434,284.972861 C1877.60683,284.972861 1876.91291,285.512537 1876.91291,286.224628 C1876.91291,286.9317 1877.61228,287.48108 1878.41434,287.48108 C1879.15483,287.48108 1879.64764,286.979137 1879.64764,286.224655 C1879.64723,285.465211 1879.15922,284.972861 1878.41434,284.972861 Z M1900.95,295.895078 C1900.94997,291.817216 1897.22848,288.291049 1892.54295,287.868174 C1892.55,287.81041 1892.55018,287.767268 1892.54158,287.726577 C1891.61798,283.351828 1886.9817,280.05 1881.75583,280.05 C1875.85146,280.05 1871.05,284.229969 1871.05,289.363718 C1871.05,292.116121 1872.43312,294.597982 1875.07794,296.613461 L1874.15837,299.421516 C1874.10517,299.585514 1874.15369,299.765866 1874.28137,299.878917 C1874.35822,299.94617 1874.45584,299.982616 1874.55623,299.982616 C1874.62034,299.982616 1874.6847,299.967236 1874.74333,299.937624 L1878.22888,298.178187 L1878.65439,298.265926 C1879.29445,298.39957 1879.559,298.452344 1879.8982,298.510163 C1880.56258,298.62341 1881.14041,298.679173 1881.75583,298.679173 C1882.12711,298.679173 1882.98726,298.546203 1883.12818,298.488033 C1884.39141,301.699066 1887.85609,303.904981 1891.7956,303.904981 C1892.65693,303.904981 1893.43584,303.762208 1894.8406,303.418995 L1897.5022,304.89696 C1897.5651,304.931775 1897.63435,304.95 1897.70277,304.95 C1897.79815,304.95 1897.89145,304.916854 1897.96541,304.855517 C1898.09789,304.746355 1898.15252,304.566429 1898.10315,304.40163 L1897.44,302.052417 C1899.71029,300.230049 1900.95,298.054796 1900.95,295.895078 Z M1882.65069,297.504233 C1882.35697,297.530048 1882.05739,297.542997 1881.75788,297.542997 C1880.91081,297.542997 1880.31375,297.452441 1878.92812,297.161586 L1878.35996,297.044962 C1878.27341,297.02617 1878.18242,297.038424 1878.10295,297.080043 L1875.53757,298.288656 L1876.18608,296.309921 C1876.24256,296.137482 1876.18084,295.948733 1876.03457,295.844387 C1873.51558,294.060878 1872.23617,291.884206 1872.23617,289.378114 C1872.23617,284.874896 1876.50903,281.214069 1881.75748,281.214069 C1886.39287,281.214069 1890.50458,284.079006 1891.30619,287.961931 C1886.48467,288.026087 1882.5978,291.467908 1882.5978,295.678603 C1882.5978,296.266167 1882.68182,296.857039 1882.78332,297.519426 C1882.72932,297.505837 1882.68999,297.500727 1882.65069,297.504233 Z M1896.43983,301.308963 C1896.30759,301.410059 1896.2513,301.58507 1896.29889,301.746809 L1896.64832,303.228938 L1894.91786,302.267251 C1894.85985,302.234799 1894.79406,302.217673 1894.72832,302.217673 C1894.69586,302.217673 1894.66361,302.221893 1894.63188,302.230501 C1893.22536,302.591396 1892.5797,302.715873 1891.796,302.715873 C1887.42685,302.715873 1883.8695,299.663579 1883.8695,295.907861 C1883.8695,292.152239 1887.4263,289.10109 1891.796,289.10109 C1896.0825,289.10109 1899.70625,292.215958 1899.70625,295.907861 C1899.70625,297.783236 1898.5448,299.701408 1896.43983,301.308963 Z M1888.95873,292.548061 C1888.47269,292.548061 1887.97945,293.051237 1887.97945,293.546524 C1887.97945,294.043638 1888.47073,294.54117 1888.95873,294.54117 C1889.66332,294.54117 1890.19283,294.079931 1890.19283,293.546524 C1890.19283,293.014122 1889.6614,292.548061 1888.95873,292.548061 Z M1894.61359,292.548061 C1894.13384,292.548061 1893.6418,293.052463 1893.6418,293.546524 C1893.6418,294.042422 1894.13189,294.54117 1894.61359,294.54117 C1895.31772,294.54117 1895.85438,294.077801 1895.85438,293.546524 C1895.85438,293.015994 1895.31634,292.548061 1894.61359,292.548061 Z" id="Shape-Copy-8"></path>
        </g>
    </g>
</svg>