<?xml version="1.0" encoding="UTF-8"?>
<svg width="28px" height="20px" viewBox="0 0 28 20" version="1.1" xmlns="http://www.w3.org/2000/svg" xmlns:xlink="http://www.w3.org/1999/xlink">
    <!-- Generator: Sketch 52.6 (67491) - http://www.bohemiancoding.com/sketch -->
    <title>Shape Copy 9</title>
    <desc>Created with Sketch.</desc>
    <g id="官网2.2-修改页面" stroke="none" stroke-width="1" fill="none" fill-rule="evenodd">
        <g id="1-首页1" transform="translate(-1872.000000, -349.000000)" fill="#1BBD7A" fill-rule="nonzero">
            <path d="M1897.52941,349.2 L1874.47059,349.2 C1873.21929,349.2 1872.2,350.231426 1872.2,351.5 L1872.2,366.5 C1872.2,367.768542 1873.21932,368.8 1874.47059,368.8 L1897.52941,368.8 C1898.78068,368.8 1899.8,367.768542 1899.8,366.5 L1899.8,351.5 C1899.8,350.231426 1898.78071,349.2 1897.52941,349.2 Z M1873.46844,366.998688 L1873.44808,366.54147 C1873.44732,366.521232 1873.44732,366.521232 1873.44708,366.500982 L1873.44708,351.332576 L1881.3998,359.37994 L1880.99755,359.37994 L1873.46844,366.998688 Z M1897.64168,350.466656 L1886.00002,362.246987 L1874.35825,350.466656 L1897.64168,350.466656 Z M1889.93777,360.050324 L1897.33272,367.533312 L1874.70704,367.533312 L1875.04361,367.19273 L1881.9399,360.214372 L1882.08216,360.070422 L1886.00002,364.034955 L1889.93777,360.050324 Z M1890.60024,359.379972 L1898.55292,351.332539 L1898.55292,366.98014 L1891.04224,359.379972 L1890.60024,359.379972 Z" id="Shape-Copy-9"></path>
        </g>
    </g>
</svg>