<?xml version="1.0" encoding="UTF-8"?>
<svg width="26px" height="26px" viewBox="0 0 26 26" version="1.1" xmlns="http://www.w3.org/2000/svg" xmlns:xlink="http://www.w3.org/1999/xlink">
    <!-- Generator: Sketch 52.6 (67491) - http://www.bohemiancoding.com/sketch -->
    <title>Shape Copy 7</title>
    <desc>Created with Sketch.</desc>
    <g id="官网2.2-修改页面" stroke="none" stroke-width="1" fill="none" fill-rule="evenodd">
        <g id="1-首页1" transform="translate(-1873.000000, -212.000000)" fill="#1BBD7A" fill-rule="nonzero">
            <path d="M1884.46082,219.105296 C1884.84485,219.105295 1885.07596,218.87424 1885.07596,218.491186 C1885.07596,218.108132 1884.84485,217.877077 1884.46251,217.877075 C1881.60056,217.885325 1879.28257,220.202798 1879.27432,223.063176 C1879.27432,223.44623 1879.50543,223.677285 1879.88864,223.677285 C1880.27125,223.677285 1880.50295,223.445377 1880.50295,223.06235 C1880.50896,220.879408 1882.27746,219.111304 1884.46082,219.105296 Z M1885.07596,214.833305 C1885.07596,214.450251 1884.84485,214.219196 1884.46164,214.219196 C1879.59787,214.219196 1875.61563,218.200554 1875.61563,223.063176 C1875.61563,223.445769 1875.84772,223.677285 1876.23139,223.677285 C1876.614,223.677285 1876.8457,223.445377 1876.8457,223.063176 C1876.8457,218.874473 1880.27305,215.447414 1884.46164,215.447414 C1884.84485,215.447414 1885.07596,215.216359 1885.07596,214.833305 Z M1873.88569,234.466083 L1876.4435,237.023322 C1878.56669,239.146047 1884.69303,236.122173 1890.92563,229.889491 C1897.11554,223.702417 1900.11057,217.636939 1898.05955,215.504681 L1895.58961,213.035287 C1894.61059,212.056491 1893.0701,212.056491 1892.17229,213.036124 L1892.01243,213.191766 L1889.17258,216.76416 C1888.36264,217.735107 1888.43526,219.11398 1889.33766,220.016172 L1891.06056,221.73709 L1890.93721,221.938782 C1889.87419,223.677058 1888.75864,225.133819 1887.50901,226.384577 C1886.25963,227.63227 1884.8037,228.745975 1883.06248,229.810328 L1882.8728,229.926272 L1881.06148,228.315688 L1881.04857,228.303501 C1880.1475,227.401342 1878.76677,227.328688 1877.78881,228.142944 L1874.21876,230.980665 C1873.17193,231.785639 1872.99417,233.331913 1873.78843,234.370309 C1873.82053,234.401893 1873.84772,234.434775 1873.87039,234.466083 L1873.88569,234.466083 Z M1893.404,214.41249 C1893.41391,214.400345 1893.4225,214.387182 1893.42947,214.37325 C1893.44552,214.34116 1893.44978,214.315603 1893.44978,214.284551 L1893.404,214.41249 Z M1877.88883,229.670962 L1878.61121,229.130716 C1879.12031,228.749976 1879.85104,228.78881 1880.18845,229.246591 L1882.29374,231.26037 C1882.49534,231.457242 1882.79839,231.507474 1883.03848,231.393455 C1884.99388,230.329226 1886.78748,228.991646 1888.3642,227.422025 C1889.93506,225.844707 1891.27293,224.051511 1892.32999,222.111172 C1892.45104,221.856717 1892.4004,221.553786 1892.20535,221.354691 L1890.10187,219.251677 C1889.64325,218.791343 1889.60893,218.170505 1889.99151,217.659681 L1892.87433,214.14728 C1892.87949,214.133451 1892.88561,214.119318 1892.89284,214.104874 C1892.93437,214.021822 1893.00322,213.956858 1893.09014,213.921955 C1893.30661,213.727499 1893.58819,213.618798 1893.88137,213.618798 C1894.2057,213.618798 1894.51584,213.751827 1894.73408,213.981418 L1897.20402,216.450812 C1898.64302,217.889489 1895.27799,223.829261 1890.07042,229.124973 C1884.95674,234.325235 1878.86202,237.72759 1877.39008,236.257763 L1874.80098,233.666342 C1874.4003,233.130814 1874.47941,232.302534 1875.038,231.970828 L1877.93252,229.670962 L1877.88883,229.670962 Z" id="Shape-Copy-7"></path>
        </g>
    </g>
</svg>