<?xml version="1.0" encoding="UTF-8"?>
<svg width="17px" height="13px" viewBox="0 0 17 13" version="1.1" xmlns="http://www.w3.org/2000/svg" xmlns:xlink="http://www.w3.org/1999/xlink">
    <!-- Generator: Sketch 52.6 (67491) - http://www.bohemiancoding.com/sketch -->
    <title>Shape</title>
    <desc>Created with Sketch.</desc>
    <g id="官网2.2-修改页面" stroke="none" stroke-width="1" fill="none" fill-rule="evenodd">
        <g id="1-首页1" transform="translate(-1649.000000, -353.000000)" fill="#757575" fill-rule="nonzero">
            <path d="M1664.9366,353 L1650.0634,353 C1649.4774,353 1649,353.484654 1649,354.084204 L1649,364.915796 C1649,365.513257 1649.47535,366 1650.0634,366 L1664.9366,366 C1665.5226,366 1666,365.515346 1666,364.915796 L1666,354.084204 C1666,353.484654 1665.5226,353 1664.9366,353 Z M1664.9366,356.250522 L1660.02736,359.116664 L1664.9366,361.982806 L1664.9366,363.067009 L1659.09919,359.657721 L1657.51537,360.583159 L1655.92335,359.657721 L1650.0634,363.06492 L1650.0634,361.982806 L1654.99313,359.116664 L1650.0634,356.250522 L1650.0634,355.166318 L1655.92335,358.573518 L1657.49898,359.386148 L1659.09919,358.573518 L1664.9366,355.166318 L1664.9366,356.250522 Z" id="Shape"></path>
        </g>
    </g>
</svg>