<?xml version="1.0" encoding="UTF-8"?>
<svg width="11px" height="14px" viewBox="0 0 11 14" version="1.1" xmlns="http://www.w3.org/2000/svg" xmlns:xlink="http://www.w3.org/1999/xlink">
    <!-- Generator: Sketch 48.2 (47327) - http://www.bohemiancoding.com/sketch -->
    <title>Group 2</title>
    <desc>Created with Sketch.</desc>
    <defs></defs>
    <g id="1-2-免费注册-创建自由团队" stroke="none" stroke-width="1" fill="none" fill-rule="evenodd" transform="translate(-545.000000, -307.000000)">
        <g id="Group-11-Copy-5" transform="translate(532.000000, 297.000000)" fill="#FFFFFF" fill-rule="nonzero">
            <g id="Group-6">
                <g id="Group-2" transform="translate(13.000000, 10.000000)">
                    <path d="M2.55152535,4.1506396 L-3.81737619,9.14355331 C-4.0608746,9.3344444 -4.0608746,9.65591484 -3.81737619,9.85683168 C-3.57387778,10.0477228 -3.16381389,10.0477228 -2.90752675,9.85683168 L3.0128333,5.21555302 L8.90752675,9.83671031 C9.15102516,10.0276014 9.56108905,10.0276014 9.81737619,9.83671031 C10.0608746,9.64581922 10.0608746,9.32434877 9.81737619,9.12343193 L3.4741858,4.15067453 C3.20510992,3.94977516 2.80783477,3.94977516 2.55139167,4.15067453 L2.55152535,4.1506396 Z" id="Shape" transform="translate(3.000000, 7.000000) rotate(90.000000) translate(-3.000000, -7.000000) "></path>
                    <path d="M7.55152535,4.1506396 L1.18262381,9.14355331 C0.939125398,9.3344444 0.939125398,9.65591484 1.18262381,9.85683168 C1.42612222,10.0477228 1.83618611,10.0477228 2.09247325,9.85683168 L8.0128333,5.21555302 L13.9075267,9.83671031 C14.1510252,10.0276014 14.561089,10.0276014 14.8173762,9.83671031 C15.0608746,9.64581922 15.0608746,9.32434877 14.8173762,9.12343193 L8.4741858,4.15067453 C8.20510992,3.94977516 7.80783477,3.94977516 7.55139167,4.15067453 L7.55152535,4.1506396 Z" id="Shape-Copy" transform="translate(8.000000, 7.000000) rotate(90.000000) translate(-8.000000, -7.000000) "></path>
                </g>
            </g>
        </g>
    </g>
</svg>