<?xml version="1.0" encoding="UTF-8"?>
<svg width="16px" height="17px" viewBox="0 0 16 17" version="1.1" xmlns="http://www.w3.org/2000/svg" xmlns:xlink="http://www.w3.org/1999/xlink">
    <!-- Generator: Sketch 48.2 (47327) - http://www.bohemiancoding.com/sketch -->
    <title>团队 copy</title>
    <desc>Created with Sketch.</desc>
    <defs></defs>
    <g id="1-2-免费注册-创建企业团队" stroke="none" stroke-width="1" fill="none" fill-rule="evenodd" transform="translate(-349.000000, -603.000000)">
        <g id="团队-copy" transform="translate(349.000000, 603.000000)" fill="#76C1EF" fill-rule="nonzero">
            <path d="M15.6465031,12.8987293 L10.6414749,10.3497893 L12.1529788,8.10642404 C12.2261161,7.99959712 12.2651227,7.87041108 12.2651227,7.74122504 L12.2651227,4.16128111 C12.2651227,1.82847934 10.4293768,0 8.08654579,0 C5.74371476,0 3.90796892,1.82847934 3.90796892,4.16128111 L3.90796892,7.74122504 C3.90796892,7.87537978 3.94941338,8.00456582 4.02498857,8.11387708 L5.58037483,10.3423363 L0.358372695,12.8937606 C0.138960841,13.0005875 0,13.2266631 0,13.4750978 L0,15.7482752 C0,16.1060212 0.282797501,16.3942054 0.633856468,16.3942054 L15.3661435,16.3942054 C15.7172025,16.3942054 16,16.1060212 16,15.7482752 L16,13.4775821 C15.9975621,13.2316318 15.8610392,13.0080405 15.6465031,12.8987293 Z" id="Shape"></path>
        </g>
    </g>
</svg>