<?xml version="1.0" encoding="UTF-8"?>
<svg width="212px" height="54px" viewBox="0 0 212 54" version="1.1" xmlns="http://www.w3.org/2000/svg" xmlns:xlink="http://www.w3.org/1999/xlink">
    <!-- Generator: Sketch 48.2 (47327) - http://www.bohemiancoding.com/sketch -->
    <title>Group 64</title>
    <desc>Created with Sketch.</desc>
    <defs>
        <filter x="-3.4%" y="-10.9%" width="106.9%" height="130.4%" filterUnits="objectBoundingBox" id="filter-1">
            <feOffset dx="0" dy="2" in="SourceAlpha" result="shadowOffsetOuter1"></feOffset>
            <feGaussianBlur stdDeviation="2" in="shadowOffsetOuter1" result="shadowBlurOuter1"></feGaussianBlur>
            <feColorMatrix values="0 0 0 0 0   0 0 0 0 0   0 0 0 0 0  0 0 0 0.208673007 0" type="matrix" in="shadowBlurOuter1" result="shadowMatrixOuter1"></feColorMatrix>
            <feMerge>
                <feMergeNode in="shadowMatrixOuter1"></feMergeNode>
                <feMergeNode in="SourceGraphic"></feMergeNode>
            </feMerge>
        </filter>
    </defs>
    <g id="产品介绍-copy" stroke="none" stroke-width="1" fill="none" fill-rule="evenodd" transform="translate(-788.000000, -354.000000)">
        <g id="banner" transform="translate(-8.000000, 0.000000)">
            <g id="Group-64" filter="url(#filter-1)" transform="translate(800.000000, 356.000000)">
                <rect id="Rectangle-19-Copy" fill="#0079DE" x="0" y="0" width="204" height="46" rx="3"></rect>
                <g id="Group-66" transform="translate(32.000000, 11.000000)" fill="#FFFFFF">
                    <g id="图形-copy">
                        <path d="M19.9896381,20.3692206 C19.998725,20.38025 20.0084077,20.3909853 20.0188353,20.4012794 C20.0368601,20.4190735 20.0562257,20.4345147 20.076485,20.4483382 C20.1167057,20.4856912 20.1567774,20.5236324 20.1961043,20.5624559 C20.9696822,21.3261324 21.4559057,22.2659853 21.6553705,23.2511324 C21.6587967,23.3065735 21.6649043,23.3618676 21.6738422,23.4168676 C21.6836739,23.4774559 21.6967829,23.5374559 21.7131691,23.5968676 C21.7897374,23.8739265 21.9376601,24.1355441 22.1579801,24.3531912 C22.8330919,25.0195147 23.9275415,25.0195147 24.6026532,24.3531912 C25.277616,23.6867206 25.277616,22.6062794 24.6026532,21.9398088 C24.3646063,21.7049559 24.0745705,21.5531912 23.7691912,21.4839265 C23.7349291,21.4761324 23.7005181,21.4695147 23.666107,21.4637794 C23.6312491,21.4580441 23.5965401,21.4531912 23.5615332,21.4496618 C22.538736,21.2614265 21.5609263,20.7771618 20.7697705,19.9961324 C20.7127167,19.9398088 20.6574505,19.8823088 20.603525,19.8240735 L20.603227,19.8242206 C20.4418974,19.6649559 20.180165,19.6649559 20.0188353,19.8242206 C19.8677843,19.9733382 19.8581015,20.2089265 19.9896381,20.3692206" id="Fill-29"></path>
                        <path d="M25.4551233,21.6803235 C25.4662957,21.6713529 25.4771702,21.6617941 25.4875978,21.6515 C25.5056226,21.6337059 25.521264,21.6145882 25.5352668,21.5945882 C25.573104,21.5548824 25.6115371,21.5153235 25.650864,21.4765 C26.4244419,20.7128235 27.3764806,20.2328235 28.3744006,20.0359118 C28.4305606,20.0325294 28.4865716,20.0265 28.5422847,20.0176765 C28.6036585,20.0079706 28.6644364,19.9950294 28.7246185,19.9788529 C29.0052695,19.9032647 29.2702792,19.7572353 29.4907481,19.5397353 C30.1657109,18.8732647 30.1657109,17.7928235 29.4907481,17.1263529 C28.8156364,16.4600294 27.7211868,16.4600294 27.046075,17.1263529 C26.8081771,17.3613529 26.6544447,17.6476765 26.5842819,17.9491471 C26.5763868,17.9829706 26.5696833,18.0169412 26.5638737,18.0509118 C26.558064,18.0853235 26.5531481,18.1195882 26.549573,18.1541471 C26.3588971,19.1638529 25.8683537,20.1291471 25.0771978,20.9101765 C25.020144,20.9665 24.9618985,21.0210588 24.9029081,21.0742941 L24.9030571,21.0745882 C24.7417274,21.2338529 24.7417274,21.4922353 24.9030571,21.6515 C25.0541081,21.8006176 25.2927509,21.8101765 25.4551233,21.6803235" id="Fill-30"></path>
                        <path d="M26.7832254,16.2847941 C26.7741385,16.2737647 26.7644557,16.2630294 26.7540281,16.2527353 C26.7360033,16.2349412 26.7166378,16.2195 26.6963785,16.2056765 C26.6561578,16.1683235 26.6160861,16.1303824 26.5767592,16.0915588 C25.8031812,15.3278824 25.3169578,14.3880294 25.117493,13.4028824 C25.1140668,13.3474412 25.1079592,13.2921471 25.0990212,13.2371471 C25.0891895,13.1765588 25.0760806,13.1165588 25.0596943,13.0571471 C24.9831261,12.7800882 24.8352033,12.5184706 24.6148833,12.3008235 C23.9397716,11.6345 22.8453219,11.6345 22.1702102,12.3008235 C21.4952474,12.9672941 21.4952474,14.0477353 22.1702102,14.7142059 C22.4082571,14.9490588 22.698293,15.1008235 23.0036723,15.1700882 C23.0379343,15.1778824 23.0723454,15.1845 23.1067564,15.1902353 C23.1416143,15.1959706 23.1763233,15.2008235 23.2113302,15.2043529 C24.2341274,15.3925882 25.2119371,15.8768529 26.003093,16.6578824 C26.0601468,16.7142059 26.115413,16.7717059 26.1693385,16.8299412 L26.1696364,16.8297941 C26.3309661,16.9890588 26.5926985,16.9890588 26.7540281,16.8297941 C26.9050792,16.6806765 26.9147619,16.4450882 26.7832254,16.2847941" id="Fill-31"></path>
                        <path d="M21.3177252,14.9736912 C21.3065528,14.9826618 21.2956783,14.9922206 21.2852508,15.0025147 C21.2672259,15.0203088 21.2515846,15.0394265 21.2375818,15.0594265 C21.1997446,15.0991324 21.1613114,15.1386912 21.1219846,15.1775147 C20.3484066,15.9411912 19.396368,16.4211912 18.398448,16.6181029 C18.342288,16.6214853 18.286277,16.6275147 18.2305639,16.6363382 C18.1691901,16.6460441 18.1084121,16.6589853 18.0482301,16.6751618 C17.767579,16.75075 17.5025694,16.8967794 17.2821004,17.1142794 C16.6071377,17.78075 16.6071377,18.8611912 17.2821004,19.5276618 C17.9572121,20.1939853 19.0516618,20.1939853 19.7267735,19.5276618 C19.9646714,19.2926618 20.1184039,19.0063382 20.1885666,18.7048676 C20.1964618,18.6710441 20.2031652,18.6370735 20.2089749,18.6031029 C20.2147846,18.5686912 20.2197004,18.5344265 20.2232756,18.4998676 C20.4139514,17.4901618 20.9044949,16.5248676 21.6956508,15.7438382 C21.7527046,15.6875147 21.8109501,15.6329559 21.8699404,15.5797206 L21.8697914,15.5794265 C22.0311211,15.4201618 22.0311211,15.1617794 21.8697914,15.0025147 C21.7187404,14.8533971 21.4800977,14.8438382 21.3177252,14.9736912" id="Fill-32"></path>
                        <path d="M23.8880359,6.63560294 C23.4073241,5.66030882 22.7612607,4.75501471 21.9680193,3.94472059 C19.9635393,1.89810294 17.1571779,0.579867647 14.0661434,0.232955882 C13.5112469,0.17075 12.9612662,0.139279412 12.4313959,0.139279412 C11.9264028,0.139279412 11.3998097,0.16825 10.8662152,0.225602941 C7.7613269,0.558838235 4.9394731,1.87016176 2.92024552,3.91810294 C2.12328,4.72648529 1.47393931,5.62972059 0.989801379,6.60236765 C0.333012414,7.92236765 7.44827586e-05,9.32354412 7.44827586e-05,10.7669265 C7.44827586e-05,12.6253088 0.572846897,14.4576618 1.65657103,16.0661912 C2.26941517,16.9758971 3.31738759,18.1516324 4.21445793,18.8720735 L3.71765793,20.90075 L3.57450207,21.4720735 C3.5493269,21.52825 3.52981241,21.5870735 3.51610759,21.6483971 C3.50761655,21.68575 3.50508414,21.7250147 3.50136,21.7639853 C3.49852966,21.7935441 3.4922731,21.8220735 3.4922731,21.8525147 C3.4922731,22.3741324 3.92054897,22.7969265 4.44907862,22.7969265 C4.62172966,22.7969265 4.78156966,22.74825 4.92144828,22.6692794 C4.92576828,22.6667794 4.93053517,22.6645735 4.93470621,22.6620735 C4.95526345,22.6501618 4.97611862,22.6395735 4.9956331,22.6263382 L8.54399172,20.8681029 C9.30773793,21.0844265 10.0655255,21.2228088 10.8645766,21.3095735 C11.3838703,21.3660441 11.9110593,21.3945735 12.4313959,21.3945735 C12.962011,21.3945735 13.5119917,21.3629559 14.0661434,21.30075 C15.1558262,21.1785441 16.2039476,20.9306029 17.1988883,20.5779559 C17.0913352,20.5428088 16.9857186,20.4967794 16.8835283,20.4389853 C16.2748552,20.0953088 15.9596441,19.4414853 16.0222097,18.7944265 C15.3111972,19.0173676 14.5687531,19.1772206 13.8011338,19.26325 C13.3354676,19.3156029 12.8744193,19.3420735 12.4313959,19.3420735 C11.9959697,19.3420735 11.5547338,19.3181029 11.1200524,19.2708971 C11.0293324,19.2610441 10.9390593,19.2473676 10.8486372,19.2354559 C10.2514345,19.1569265 9.66108414,19.0367794 9.09084414,18.8717794 C8.97465103,18.8351618 8.85160552,18.8166324 8.72543172,18.8166324 C8.52879724,18.8166324 8.33797241,18.8679559 8.14446621,18.9670735 C8.11944,18.9798676 8.09456276,18.9904559 8.06938759,19.0050147 L5.79259862,20.3295735 L5.79021517,20.3308971 C5.7429931,20.3581029 5.71632828,20.36825 5.69189793,20.36825 C5.61190345,20.36825 5.54695448,20.3014853 5.54695448,20.2194265 L5.63112,19.8836912 C5.65465655,19.7951618 5.68787586,19.6704559 5.72809655,19.5188382 C5.82760552,19.1447206 5.96361103,18.6329559 6.06460966,18.2531029 C6.08650759,18.1754559 6.10885241,18.0822206 6.10885241,17.9775147 C6.10885241,17.68825 5.96867586,17.4148676 5.73509793,17.2469265 C5.61622345,17.1601618 5.49749793,17.0691324 5.37266483,16.9688382 C5.18154207,16.8153088 4.99876138,16.6553088 4.8228331,16.4906029 C4.32856552,16.0278088 3.89462897,15.5226618 3.53011034,14.9814853 C2.67177103,13.7076618 2.21817103,12.2622206 2.21817103,10.8011912 C2.21817103,9.66736765 2.48079724,8.56472059 2.99860138,7.52413235 C3.38546483,6.74677941 3.90654621,6.02295588 4.54754483,5.37266176 C6.20731862,3.68913235 8.54145931,2.60972059 11.1197545,2.33295588 C11.5685876,2.28472059 12.0098234,2.26030882 12.4313959,2.26030882 C12.8739724,2.26030882 13.3348717,2.28677941 13.8011338,2.33913235 C16.3675117,2.62722059 18.6880966,3.71207353 20.3355062,5.39413235 C20.9735255,6.04575 21.4917766,6.77119118 21.8759586,7.55045588 C22.3854207,8.58442647 22.6438759,9.67810294 22.6438759,10.8011912 C22.6438759,10.9179559 22.6364276,11.0342794 22.6306179,11.15075 C23.2963448,10.7485441 24.1761352,10.8275147 24.7523338,11.3963382 C24.781531,11.4250147 24.8059614,11.4564853 24.8324772,11.4867794 C24.8515448,11.2475147 24.8621214,11.0075147 24.8621214,10.7669265 C24.8621214,9.33692647 24.5343972,7.94692647 23.8880359,6.63560294" id="Fill-33"></path>
                    </g>
                    <text id="注册企业微信" font-family="PingFangSC-Regular, PingFang SC" font-size="16" font-weight="normal">
                        <tspan x="44" y="18">注册企业微信</tspan>
                    </text>
                </g>
            </g>
        </g>
    </g>
</svg>