<?xml version="1.0" encoding="UTF-8"?>
<svg width="46px" height="49px" viewBox="0 0 46 49" version="1.1" xmlns="http://www.w3.org/2000/svg" xmlns:xlink="http://www.w3.org/1999/xlink">
    <!-- Generator: Sketch 48.2 (47327) - http://www.bohemiancoding.com/sketch -->
    <title>微信客服</title>
    <desc>Created with Sketch.</desc>
    <defs></defs>
    <g id="6-服务支持" stroke="none" stroke-width="1" fill="none" fill-rule="evenodd" transform="translate(-494.000000, -748.000000)">
        <g id="Group-30" transform="translate(485.000000, 748.000000)" fill-rule="nonzero">
            <g id="Group-29">
                <g id="Group-27" transform="translate(9.000000, 0.000000)">
                    <g id="微信客服">
                        <path d="M42.3172241,15.6564816 C40.1965316,6.83981495 32.4379971,0.0489449826 22.9927299,0.0489449826 C13.2868621,0.0489449826 5.30539943,6.64981644 3.66830172,15.6564816 C1.21265517,16.1231343 0.0449425287,17.386966 0.0449425287,19.2582411 L0.0449425287,27.6623245 C0.0449425287,29.7609803 1.61832759,31.264084 3.66830172,31.264084 C4.82425,31.264084 6.61223563,30.9134539 7.29159483,30.0634537 C8.93345115,34.4625236 14.5712931,39.8720939 15.8227443,40.0233963 C16.4466523,40.0984234 16.812273,40.1324549 16.3935805,39.6200108 C15.7742989,38.8638272 11.8796983,35.0873769 11.115477,29.7915298 C10.7780776,27.4606318 12.5024828,25.1721089 14.5075805,24.7945427 C17.7298937,24.1871651 20.9333046,23.4942486 24.1556178,22.897514 C26.2031466,22.5199478 27.6020489,21.3815992 28.4583362,19.4856874 C28.6589253,19.0425546 28.8994339,18.149128 29.0316178,16.8571119 C29.149592,16.2145858 29.7652385,16.6495063 29.7911466,16.6835379 C29.7911466,16.6835379 34.3887011,18.242879 35.0705057,26.4617599 C35.4856954,31.4468557 30.9564138,38.1086949 30.446977,38.8860989 C30.4788994,38.8380079 30.4529253,39.5590431 30.8810029,39.3222019 C34.6896178,37.1965443 37.6111466,33.6453066 38.9616695,29.3740192 C39.5077213,30.197149 40.3640086,30.7902702 41.3571724,30.9966932 C39.7636954,38.3444848 33.2965977,42.942751 25.2833448,43.6415802 C24.803319,42.4339203 23.6215287,41.5768903 22.2332011,41.5768903 C20.4191753,41.5768903 18.9496207,43.03302 18.9496207,44.825129 C18.9496207,46.6190119 20.4191753,48.0728422 22.2332011,48.0728422 C23.6944943,48.0728422 24.9189138,47.120813 25.3446782,45.8123066 C34.6188333,45.0502103 42.0543103,39.4618101 43.6064799,30.7821894 C44.9781523,30.2018136 45.9407155,29.2533978 45.9407155,27.6623902 L45.9407155,19.2583068 C45.9406494,16.1700426 42.3314339,15.7127848 42.3172241,15.6565473 L42.3172241,15.6564816 Z M37.4861667,18.0577422 C35.067069,11.4169921 30.3668075,7.25239816 22.9927299,7.25239816 C15.649319,7.25239816 9.73316379,11.4603527 7.29159483,18.0576108 C7.17018391,17.9075566 6.22302011,16.9883764 6.08383046,16.8570462 C7.46607759,8.81765214 14.7600517,3.65083582 22.9927299,3.65083582 C31.1854885,3.65083582 37.2667414,8.87408669 38.693931,16.8571776 C38.1856839,17.5489115 37.4861667,18.0577422 37.4861667,18.0577422 Z" id="Shape" fill="#FFCCA5"></path>
                        <path d="M38.9616695,16.6835379 C37.820119,11.9376022 34.6449831,7.52890343 30.8810029,5.41461737 C27.6525244,3.60113097 24.1296325,3.70972482 19.5108975,4.0863592 C14.5720085,4.48910051 7.29159483,8.59437145 5.97103604,16.8571119 C5.89635432,17.3243957 7.49891377,17.9098708 7.29159483,18.3010698 C5.35080788,21.9632239 6.97781418,30.4560496 7.29159483,30.0634537 C8.93345115,34.4625236 14.5712931,39.8720939 15.8227443,40.0233963 C16.4466523,40.0984234 16.812273,40.1324549 16.3935805,39.6200108 C15.7742989,38.8638272 11.8796983,35.0873769 11.115477,29.7915298 C10.7780776,27.4606318 12.5024828,25.1721089 14.5075805,24.7945427 C17.7298937,24.1871651 20.9333046,23.4942486 24.1556178,22.897514 C26.2031466,22.5199478 27.6020489,21.3815992 28.4583362,19.4856874 C28.6589253,19.0425546 28.8994339,18.149128 29.0316178,16.8571119 C29.149592,16.2145858 29.7652385,16.6495063 29.7911466,16.6835379 C29.7911466,16.6835379 34.3887011,18.242879 35.0705057,26.4617599 C35.4856954,31.4468557 30.9564138,38.1086949 30.446977,38.8860989 C30.4788994,38.8380079 30.4529253,39.5590431 30.8810029,39.3222019 C34.6896178,37.1965443 37.6111466,33.6453066 38.9616695,29.3740192 C39.4904119,21.2500888 38.9616695,21.2500888 37.850253,18.3010698 C37.7085962,17.9251993 38.0790684,17.386022 38.9616695,16.6835379 Z M37.4861667,18.0577422 C35.067069,11.4169921 30.3668075,7.25239816 22.9927299,7.25239816 C15.649319,7.25239816 9.73316379,11.4603527 7.29159483,18.0576108 C7.17018391,17.9075566 6.22302011,16.9883764 6.08383046,16.8570462 C7.46607759,8.81765214 14.7600517,3.65083582 22.9927299,3.65083582 C31.1854885,3.65083582 37.2667414,8.87408669 38.693931,16.8571776 C38.1856839,17.5489115 37.4861667,18.0577422 37.4861667,18.0577422 Z" id="Shape" fill="#FFA27B"></path>
                    </g>
                </g>
            </g>
        </g>
    </g>
</svg>